<?xml version="1.0" encoding="utf-8"?>
<!-- Generator: Adobe Illustrator 25.2.3, SVG Export Plug-In . SVG Version: 6.00 Build 0)  -->
<svg version="1.1" id="Layer_1" xmlns="http://www.w3.org/2000/svg" xmlns:xlink="http://www.w3.org/1999/xlink" x="0px" y="0px"
	 viewBox="0 0 260.5 38.7" style="enable-background:new 0 0 260.5 38.7;" xml:space="preserve">
<style type="text/css">
	.st0{fill:#FFFFFF;}
</style>
<g>
	<path class="st0" d="M0,0.7h5L9,7.3l4.1-6.6h5v17h-4.7V8L9,14.6H8.9L4.6,8v9.7H0V0.7z"/>
	<path class="st0" d="M21.4,17c-0.8-0.7-1.3-1.8-1.3-3.1c0-1.3,0.5-2.4,1.4-3.1c0.9-0.7,2.2-1,3.7-1c1.1,0,2.2,0.2,3.2,0.5v-0.2
		c0-1.4-0.9-2.1-2.6-2.1c-1.2,0-2.4,0.2-3.6,0.7l-0.9-3.3c1.7-0.7,3.4-1,5.3-1c2.3,0,3.9,0.5,5,1.6c0.9,0.9,1.4,2.3,1.4,4.2v7.5
		h-4.6v-1.4c-1,1.1-2.3,1.7-3.9,1.7C23.3,18,22.2,17.7,21.4,17z M27.9,14.5c0.4-0.4,0.6-0.9,0.6-1.6v-0.6C28,12.1,27.4,12,26.7,12
		c-1.4,0-2.1,0.6-2.1,1.7c0,1,0.5,1.4,1.6,1.4C26.9,15.1,27.4,14.9,27.9,14.5z"/>
	<path class="st0" d="M34.3,17.7l0.2-3.6c0.3,0,0.6,0.1,0.8,0.1c0.5,0,0.9-0.3,1.2-1c0.4-1,0.6-3.1,0.6-6.1V4.6h11.3v13.1h-4.6V8.3
		h-2.4v0.3c0,3.7-0.5,6.2-1.4,7.6c-0.7,1.1-1.9,1.7-3.5,1.7C35.8,17.9,35.1,17.8,34.3,17.7z"/>
	<path class="st0" d="M50.8,4.6h4.6v4.1h2.2c1.6,0,2.9,0.4,3.9,1.1c1,0.8,1.5,1.9,1.5,3.3c0,1.4-0.5,2.5-1.4,3.3
		c-0.9,0.8-2.2,1.2-3.8,1.2h-7V4.6z M56.9,14.5c1.2,0,1.8-0.5,1.8-1.4c0-0.9-0.6-1.4-1.8-1.4h-1.4v2.8H56.9z M64.5,4.6h4.6v13.1
		h-4.6V4.6z"/>
	<path class="st0" d="M71.6,4.6h4.6V14h3.2V4.6h4.6V14h3.2V4.6h4.6v13.1H71.6V4.6z"/>
	<path class="st0" d="M94.1,20.5l1.4-3.2c0.8,0.5,1.4,0.7,2,0.7c0.5,0,0.8-0.2,1.1-0.5L93.4,4.6h4.8l2.6,7.9l2.5-7.9h4.7l-4.8,12.8
		c-0.6,1.6-1.2,2.6-1.9,3.3c-0.7,0.7-1.8,1-3.1,1C96.8,21.7,95.4,21.3,94.1,20.5z"/>
	<path class="st0" d="M116,8.2h19.8v4H116V8.2z"/>
	<path class="st0" d="M145.1,0.7h4.4l7,9v-9h4.7v17H157l-7.3-9.3v9.3h-4.7V0.7z"/>
	<path class="st0" d="M165,16.7c-0.8-0.9-1.2-2.1-1.2-3.5V4.6h4.6v7.1c0,1.5,0.6,2.2,1.9,2.2c0.6,0,1-0.2,1.4-0.6
		c0.4-0.4,0.6-1,0.6-1.7V4.6h4.6v13.1h-4.6v-1.8c-1.1,1.4-2.4,2.1-3.9,2.1C166.8,18,165.7,17.6,165,16.7z"/>
	<path class="st0" d="M180,13.6V8.3h-1.6V4.6h1.6V1.3h4.6v3.3h3.1v3.7h-3.1v4.4c0,0.9,0.4,1.3,1.3,1.3c0.5,0,1.1-0.1,1.7-0.4v3.6
		c-0.9,0.5-2,0.8-3.2,0.8C181.5,18,180,16.5,180,13.6z"/>
	<path class="st0" d="M189.7,4.6h4.6v2.6c0.8-2,2.2-2.9,4.1-2.9v4.9h-0.4c-2.5,0-3.8,1.5-3.8,4.4v4.1h-4.6V4.6z"/>
	<path class="st0" d="M200.1,0h4.8v3.4h-4.8V0z M200.2,4.6h4.6v13.1h-4.6V4.6z"/>
	<path class="st0" d="M207.5,0h4.6v17.7h-4.6V0z"/>
	<path class="st0" d="M216.2,16c-1.4-1.3-2-2.9-2-4.9c0-1.9,0.7-3.5,2.1-4.8c1.4-1.4,3.1-2,5.2-2c2.1,0,3.8,0.7,5.2,2
		c1.4,1.3,2,2.9,2,4.9c0,1.9-0.7,3.5-2.1,4.8c-1.4,1.4-3.1,2-5.2,2C219.3,18,217.5,17.4,216.2,16z M223.4,13.2
		c0.5-0.6,0.8-1.2,0.8-2.1c0-0.8-0.3-1.5-0.8-2.1c-0.6-0.6-1.2-0.9-2-0.9c-0.8,0-1.5,0.3-2,0.9c-0.5,0.6-0.8,1.2-0.8,2.1
		c0,0.8,0.3,1.5,0.8,2.1c0.5,0.6,1.2,0.9,2,0.9C222.2,14.1,222.9,13.8,223.4,13.2z"/>
	<path class="st0" d="M230.6,4.6h4.6v1.8c1.1-1.4,2.4-2.1,3.9-2.1c1.4,0,2.5,0.4,3.3,1.3c0.8,0.9,1.2,2,1.2,3.5v8.6H239v-7.1
		c0-1.5-0.6-2.2-1.8-2.2c-0.6,0-1,0.2-1.4,0.6c-0.4,0.4-0.6,1-0.6,1.7v7.1h-4.6V4.6z"/>
	<path class="st0" d="M248.8,6.3l-2.5,2.1L245,6.2l3.1-1.1L245,4l1.3-2.3l2.5,2.1l-0.6-3.2h2.5l-0.6,3.2l2.5-2.1L254,4l-3.1,1.1
		l3.1,1.1l-1.3,2.2l-2.5-2.1l0.6,3.2h-2.5L248.8,6.3z"/>
	<path class="st0" d="M255.2,19.9c1.6-0.2,2.4-0.9,2.4-2.2v-0.1h-1.9v-4.7h4.8v3.9c0,3.2-1.7,4.8-5,4.9L255.2,19.9z"/>
	<path class="st0" d="M2.6,36.8c-1.3-1.3-2-2.9-2-5c0-1.9,0.6-3.6,1.9-4.9c1.2-1.3,2.8-2,4.8-2c2.2,0,3.8,0.7,5,2.1
		c1.1,1.3,1.6,3,1.6,5c0,0.4,0,0.7,0,0.9H5.1c0.4,1.4,1.3,2.2,2.8,2.2c1,0,2-0.4,2.9-1.3l2.5,2.1c-1.4,1.8-3.3,2.7-5.7,2.7
		C5.6,38.7,3.9,38.1,2.6,36.8z M9.6,30.7c-0.2-1.6-0.9-2.4-2.3-2.4c-1.2,0-2,0.8-2.3,2.4H9.6z"/>
	<path class="st0" d="M15.9,25.3h9.9V29h-5.3v9.4h-4.6V25.3z"/>
	<path class="st0" d="M28.5,36.7c-1.4-1.3-2-2.9-2-4.9c0-1.9,0.7-3.5,2.1-4.8c1.4-1.4,3.1-2,5.2-2c2.1,0,3.8,0.7,5.2,2
		c1.4,1.3,2,2.9,2,4.9c0,1.9-0.7,3.5-2.1,4.8c-1.4,1.4-3.1,2-5.2,2C31.6,38.7,29.9,38,28.5,36.7z M35.7,33.9
		c0.5-0.6,0.8-1.2,0.8-2.1c0-0.8-0.3-1.5-0.8-2.1c-0.6-0.6-1.2-0.9-2-0.9c-0.8,0-1.5,0.3-2,0.9C31.2,30.3,31,31,31,31.8
		c0,0.8,0.3,1.5,0.8,2.1c0.5,0.6,1.2,0.9,2,0.9C34.6,34.8,35.2,34.5,35.7,33.9z"/>
	<path class="st0" d="M49.6,25.3h4.7l3,4.5l3.1-4.5h4.7v13.1h-4.6v-6.5l-3.2,4.5L54.2,32v6.4h-4.5V25.3z"/>
	<path class="st0" d="M68.2,37.6c-0.8-0.7-1.3-1.8-1.3-3.1c0-1.3,0.5-2.4,1.4-3.1c0.9-0.7,2.2-1,3.7-1c1.1,0,2.2,0.2,3.2,0.5v-0.2
		c0-1.4-0.9-2.1-2.6-2.1c-1.2,0-2.4,0.2-3.6,0.7L68,26.1c1.7-0.7,3.4-1,5.3-1c2.3,0,3.9,0.5,5,1.6c0.9,0.9,1.4,2.3,1.4,4.2v7.5h-4.6
		V37c-1,1.1-2.3,1.7-3.9,1.7C70,38.7,69,38.3,68.2,37.6z M74.6,35.2c0.4-0.4,0.6-0.9,0.6-1.6V33c-0.5-0.2-1.1-0.3-1.8-0.3
		c-1.4,0-2.1,0.6-2.1,1.7c0,1,0.5,1.4,1.6,1.4C73.7,35.8,74.2,35.6,74.6,35.2z"/>
	<path class="st0" d="M82.1,25.3h4.7l3,4.5l3.1-4.5h4.7v13.1h-4.6v-6.5l-3.2,4.5L86.6,32v6.4h-4.5V25.3z"/>
	<path class="st0" d="M101.5,36.8c-1.3-1.3-2-2.9-2-5c0-1.9,0.6-3.6,1.9-4.9c1.2-1.3,2.8-2,4.8-2c2.2,0,3.8,0.7,5,2.1
		c1.1,1.3,1.6,3,1.6,5c0,0.4,0,0.7,0,0.9h-8.8c0.4,1.4,1.3,2.2,2.8,2.2c1,0,2-0.4,2.9-1.3l2.5,2.1c-1.4,1.8-3.3,2.7-5.7,2.7
		C104.5,38.7,102.8,38.1,101.5,36.8z M108.4,30.7c-0.2-1.6-0.9-2.4-2.3-2.4c-1.2,0-2,0.8-2.3,2.4H108.4z"/>
	<path class="st0" d="M121.2,28.8H141v4h-19.8V28.8z"/>
	<path class="st0" d="M149.9,25.3h4.7l3,4.5l3.1-4.5h4.7v13.1h-4.6v-6.5l-3.2,4.5l-3.1-4.4v6.4h-4.5V25.3z"/>
	<path class="st0" d="M167.9,25.3h4.5v6.6l4.4-6.6h4.2v13.1h-4.5v-6.6l-4.4,6.6h-4.2V25.3z"/>
	<path class="st0" d="M182.4,38.4l0.2-3.6c0.3,0,0.6,0.1,0.8,0.1c0.5,0,0.9-0.3,1.2-1c0.4-1,0.6-3.1,0.6-6.1v-2.5h11.3v13.1h-4.6
		v-9.5h-2.4v0.3c0,3.7-0.5,6.2-1.4,7.6c-0.7,1.1-1.9,1.7-3.5,1.7C183.9,38.6,183.2,38.5,182.4,38.4z"/>
	<path class="st0" d="M197.9,38.4l0.2-3.6c0.3,0,0.6,0.1,0.8,0.1c0.5,0,0.9-0.3,1.2-1c0.4-1,0.6-3.1,0.6-6.1v-2.5h11.3v13.1h-4.6
		v-9.5h-2.4v0.3c0,3.7-0.5,6.2-1.4,7.6c-0.7,1.1-1.9,1.7-3.5,1.7C199.3,38.6,198.7,38.5,197.9,38.4z"/>
	<path class="st0" d="M214.4,25.3h4.5v6.6l4.4-6.6h4.2v13.1H223v-6.6l-4.4,6.6h-4.2V25.3z"/>
	<path class="st0" d="M231.5,36.7c-1.4-1.3-2-2.9-2-4.9c0-1.9,0.7-3.5,2.1-4.8c1.4-1.4,3.1-2,5.2-2c2.1,0,3.8,0.7,5.2,2
		c1.4,1.3,2,2.9,2,4.9c0,1.9-0.7,3.5-2.1,4.8c-1.4,1.4-3.1,2-5.2,2C234.6,38.7,232.8,38,231.5,36.7z M238.7,33.9
		c0.5-0.6,0.8-1.2,0.8-2.1c0-0.8-0.3-1.5-0.8-2.1c-0.6-0.6-1.2-0.9-2-0.9c-0.8,0-1.5,0.3-2,0.9c-0.5,0.6-0.8,1.2-0.8,2.1
		c0,0.8,0.3,1.5,0.8,2.1c0.5,0.6,1.2,0.9,2,0.9C237.5,34.8,238.2,34.5,238.7,33.9z"/>
	<path class="st0" d="M245.9,25.3h4.6v4.7h3.8v-4.7h4.6v13.1h-4.6v-4.8h-3.8v4.8h-4.6V25.3z"/>
</g>
</svg>
