<?xml version="1.0" encoding="utf-8"?>
<!-- Generator: Adobe Illustrator 25.2.3, SVG Export Plug-In . SVG Version: 6.00 Build 0)  -->
<svg version="1.1" id="Layer_1" xmlns="http://www.w3.org/2000/svg" xmlns:xlink="http://www.w3.org/1999/xlink" x="0px" y="0px"
	 viewBox="0 0 408.8 30.2" style="enable-background:new 0 0 408.8 30.2;" xml:space="preserve">
<style type="text/css">
	.st0{fill:#FFFFFF;}
</style>
<g>
	<path class="st0" d="M6.4,6.8L1.3,8.1L0,2.8l8.4-2.5h4.4v29.4H6.4V6.8z"/>
	<path class="st0" d="M15,23.1h6.8v6.7H15V23.1z"/>
	<path class="st0" d="M29.7,6.8l-5.1,1.3l-1.3-5.3l8.4-2.5h4.4v29.4h-6.3V6.8z"/>
	<path class="st0" d="M47.4,6.8l-5.1,1.3l-1.3-5.3l8.4-2.5h4.4v29.4h-6.3V6.8z"/>
	<path class="st0" d="M56,23.1h6.8v6.7H56V23.1z"/>
	<path class="st0" d="M67.4,24.6l9.7-8c1.9-1.6,3.2-2.8,3.9-3.7c0.8-1,1.1-2.1,1.1-3.3c0-2.5-1.3-3.8-3.9-3.8c-1.1,0-2.1,0.3-3,1
		c-0.8,0.6-1.8,1.5-2.9,3l-4.5-3.6c1.6-2.1,3.1-3.6,4.6-4.5c1.7-1.1,3.8-1.6,6.3-1.6c3,0,5.4,0.8,7.3,2.5c1.8,1.6,2.8,3.8,2.8,6.6
		v0.1c0,2.3-0.6,4.3-1.9,6c-1,1.3-2.9,3.1-5.8,5.3l-4.8,3.7H89v5.6H67.4V24.6z"/>
	<path class="st0" d="M97.1,25.9c-2.4-2.8-3.5-6.3-3.5-10.7v-0.1c0-4.3,1.2-7.9,3.6-10.7c2.5-2.9,5.6-4.4,9.4-4.4
		c3.8,0,6.9,1.4,9.4,4.3c2.4,2.8,3.6,6.4,3.6,10.7v0.1c0,4.3-1.2,7.9-3.6,10.7c-2.5,2.9-5.6,4.4-9.4,4.4
		C102.7,30.2,99.5,28.8,97.1,25.9z M111.2,21.8c1.1-1.7,1.7-3.9,1.7-6.6v-0.1c0-2.7-0.6-4.9-1.8-6.6c-1.2-1.8-2.8-2.7-4.7-2.7
		c-1.9,0-3.4,0.9-4.6,2.6c-1.2,1.7-1.8,3.9-1.8,6.6v0.1c0,2.7,0.6,4.9,1.8,6.6c1.2,1.8,2.8,2.7,4.7,2.7S110.1,23.6,111.2,21.8z"/>
	<path class="st0" d="M123.4,24.6l9.7-8c1.9-1.6,3.2-2.8,3.9-3.7c0.8-1,1.1-2.1,1.1-3.3c0-2.5-1.3-3.8-3.9-3.8c-1.1,0-2.1,0.3-3,1
		c-0.8,0.6-1.8,1.5-2.9,3l-4.5-3.6c1.6-2.1,3.1-3.6,4.6-4.5c1.7-1.1,3.8-1.6,6.3-1.6c3,0,5.4,0.8,7.3,2.5c1.8,1.6,2.8,3.8,2.8,6.6
		v0.1c0,2.3-0.6,4.3-1.9,6c-1,1.3-2.9,3.1-5.8,5.3l-4.8,3.7h12.7v5.6h-21.6V24.6z"/>
	<path class="st0" d="M163.4,23.4h-14.3l-1-4.6l16-18.6h5.4v17.9h3.9v5.2h-3.9v6.3h-6.1V23.4z M163.4,18.2V9.1l-7.8,9.1H163.4z"/>
	<path class="st0" d="M177.6,13.7h12.9v6.1h-12.9V13.7z"/>
	<path class="st0" d="M193.8,25.2l4.4-4.2c2,2.3,4.4,3.5,7.1,3.5c1.3,0,2.3-0.3,3-1s1.1-1.5,1.1-2.6v-0.1c0-2.5-1.9-3.7-5.7-3.7H201
		l-1-4.1l7-7h-11.5V0.5h19.8v4.8l-7.4,7.1c5.2,0.9,7.9,3.6,7.9,8.2v0.1c0,2.8-0.9,5.1-2.8,6.8c-1.9,1.8-4.5,2.7-7.7,2.7
		C200.4,30.2,196.6,28.5,193.8,25.2z"/>
	<path class="st0" d="M223.9,25.9c-2.4-2.8-3.5-6.3-3.5-10.7v-0.1c0-4.3,1.2-7.9,3.6-10.7c2.5-2.9,5.6-4.4,9.4-4.4
		c3.8,0,6.9,1.4,9.4,4.3c2.4,2.8,3.6,6.4,3.6,10.7v0.1c0,4.3-1.2,7.9-3.6,10.7c-2.5,2.9-5.6,4.4-9.4,4.4
		C229.4,30.2,226.3,28.8,223.9,25.9z M238,21.8c1.1-1.7,1.7-3.9,1.7-6.6v-0.1c0-2.7-0.6-4.9-1.8-6.6c-1.2-1.8-2.8-2.7-4.7-2.7
		c-1.9,0-3.4,0.9-4.6,2.6c-1.2,1.7-1.8,3.9-1.8,6.6v0.1c0,2.7,0.6,4.9,1.8,6.6c1.2,1.8,2.8,2.7,4.7,2.7S236.9,23.6,238,21.8z"/>
	<path class="st0" d="M250.3,23.1h6.8v6.7h-6.8V23.1z"/>
	<path class="st0" d="M265,6.8l-5.1,1.3l-1.3-5.3l8.4-2.5h4.4v29.4H265V6.8z"/>
	<path class="st0" d="M282.7,6.8l-5.1,1.3l-1.3-5.3l8.4-2.5h4.4v29.4h-6.3V6.8z"/>
	<path class="st0" d="M291.3,23.1h6.8v6.7h-6.8V23.1z"/>
	<path class="st0" d="M302.7,24.6l9.7-8c1.9-1.6,3.2-2.8,3.9-3.7c0.8-1,1.1-2.1,1.1-3.3c0-2.5-1.3-3.8-3.9-3.8c-1.1,0-2.1,0.3-3,1
		c-0.8,0.6-1.8,1.5-2.9,3L303,6.1c1.6-2.1,3.1-3.6,4.6-4.5c1.7-1.1,3.8-1.6,6.3-1.6c3,0,5.4,0.8,7.3,2.5c1.8,1.6,2.8,3.8,2.8,6.6
		v0.1c0,2.3-0.6,4.3-1.9,6c-1,1.3-2.9,3.1-5.8,5.3l-4.8,3.7h12.7v5.6h-21.6V24.6z"/>
	<path class="st0" d="M332.4,25.9c-2.4-2.8-3.5-6.3-3.5-10.7v-0.1c0-4.3,1.2-7.9,3.6-10.7c2.5-2.9,5.6-4.4,9.4-4.4
		c3.8,0,6.9,1.4,9.4,4.3c2.4,2.8,3.6,6.4,3.6,10.7v0.1c0,4.3-1.2,7.9-3.6,10.7c-2.5,2.9-5.6,4.4-9.4,4.4
		C338,30.2,334.8,28.8,332.4,25.9z M346.6,21.8c1.1-1.7,1.7-3.9,1.7-6.6v-0.1c0-2.7-0.6-4.9-1.8-6.6c-1.2-1.8-2.8-2.7-4.7-2.7
		c-1.9,0-3.4,0.9-4.6,2.6c-1.2,1.7-1.8,3.9-1.8,6.6v0.1c0,2.7,0.6,4.9,1.8,6.6c1.2,1.8,2.8,2.7,4.7,2.7S345.4,23.6,346.6,21.8z"/>
	<path class="st0" d="M358.7,24.6l9.7-8c1.9-1.6,3.2-2.8,3.9-3.7c0.8-1,1.1-2.1,1.1-3.3c0-2.5-1.3-3.8-3.9-3.8c-1.1,0-2.1,0.3-3,1
		c-0.8,0.6-1.8,1.5-2.9,3l-4.5-3.6c1.6-2.1,3.1-3.6,4.6-4.5c1.7-1.1,3.8-1.6,6.3-1.6c3,0,5.4,0.8,7.3,2.5c1.8,1.6,2.8,3.8,2.8,6.6
		v0.1c0,2.3-0.6,4.3-1.9,6c-1,1.3-2.9,3.1-5.8,5.3l-4.8,3.7h12.7v5.6h-21.6V24.6z"/>
	<path class="st0" d="M398.7,23.4h-14.3l-1-4.6l16-18.6h5.4v17.9h3.9v5.2h-3.9v6.3h-6.1V23.4z M398.7,18.2V9.1l-7.8,9.1H398.7z"/>
</g>
</svg>
