<?xml version="1.0" encoding="utf-8"?>
<!-- Generator: Adobe Illustrator 25.2.3, SVG Export Plug-In . SVG Version: 6.00 Build 0)  -->
<svg version="1.1" id="Layer_2_1_" xmlns="http://www.w3.org/2000/svg" xmlns:xlink="http://www.w3.org/1999/xlink" x="0px" y="0px"
	 viewBox="0 0 300 600" style="enable-background:new 0 0 300 600;" xml:space="preserve">
<style type="text/css">
	.st0{fill:#FEDF6A;}
	.st1{fill:#FFFFFF;}
</style>
<g>
	<g>
		<path class="st0" d="M39.7,231.5l-10.3,2.3l-3.2-13l17.8-5h12.2V277H39.7V231.5z"/>
	</g>
	<g>
		<path class="st1" d="M84.2,217.7H93v1.9h-6.8v2.7h3.3c1.3,0,2.4,0.3,3.1,0.9c0.8,0.6,1.2,1.5,1.2,2.7c0,1.2-0.4,2.1-1.2,2.7
			c-0.8,0.6-1.8,0.9-3.2,0.9h-5.3V217.7z M89,227.7c0.9,0,1.6-0.1,2.1-0.4c0.5-0.3,0.7-0.8,0.7-1.5c0-1.2-0.8-1.7-2.4-1.7h-3.1v3.6
			H89z"/>
		<path class="st1" d="M96.8,228.4c-0.9-0.9-1.4-2-1.4-3.3s0.5-2.4,1.4-3.3c0.9-0.9,2.1-1.4,3.4-1.4s2.5,0.5,3.4,1.4
			c0.9,0.9,1.4,2,1.4,3.3c0,1.3-0.5,2.4-1.4,3.3c-0.9,0.9-2.1,1.4-3.4,1.4C98.8,229.8,97.7,229.3,96.8,228.4z M102.2,227.1
			c0.5-0.5,0.7-1.2,0.7-2c0-0.8-0.3-1.5-0.8-2c-0.5-0.6-1.2-0.8-2-0.8c-0.8,0-1.5,0.3-2,0.8c-0.5,0.5-0.7,1.2-0.7,2
			c0,0.8,0.3,1.5,0.8,2c0.5,0.6,1.2,0.9,2,0.9C101,228,101.7,227.7,102.2,227.1z"/>
		<path class="st1" d="M107,220.6h2v3.6h3.9v-3.6h2v8.9h-2V226h-3.9v3.6h-2V220.6z"/>
		<path class="st1" d="M117.3,231.8l0.7-1.5c0.4,0.2,0.8,0.3,1.2,0.3c0.5,0,1-0.3,1.3-1l-3.7-8.9h2.2l2.5,6.6l2.3-6.6h2.1l-3.5,9.2
			c-0.4,0.9-0.8,1.6-1.2,1.9c-0.4,0.4-1,0.6-1.7,0.6C118.7,232.3,118,232.1,117.3,231.8z"/>
		<path class="st1" d="M128,228.4c-0.9-0.9-1.3-2-1.3-3.3v0c0-1.3,0.4-2.4,1.3-3.3c0.9-0.9,2-1.4,3.3-1.4c1.4,0,2.6,0.5,3.6,1.5
			l-1.3,1.4c-0.7-0.7-1.5-1.1-2.3-1.1c-0.7,0-1.3,0.3-1.8,0.8c-0.5,0.6-0.7,1.2-0.7,2v0c0,0.8,0.2,1.5,0.7,2
			c0.5,0.6,1.1,0.8,1.9,0.8c0.8,0,1.6-0.4,2.3-1.1l1.2,1.2c-1,1.1-2.2,1.7-3.6,1.7C130,229.8,128.9,229.3,128,228.4z"/>
		<path class="st1" d="M138.7,222.4h-2.9v-1.8h7.8v1.8h-2.9v7.2h-2.1V222.4z"/>
		<path class="st1" d="M145.2,220.6h2v3.1h1.9c1.1,0,1.9,0.2,2.5,0.7c0.7,0.5,1,1.2,1,2.1c0,0.9-0.3,1.6-0.9,2.2
			c-0.6,0.5-1.4,0.8-2.5,0.8h-4.1V220.6z M149,227.9c1.1,0,1.6-0.4,1.6-1.3c0-0.8-0.6-1.2-1.7-1.2h-1.7v2.5H149z M154,220.6h2v8.9
			h-2V220.6z"/>
		<path class="st1" d="M167,220.6l-3.5,3.7l2.6,3.5h1.5l-0.2,3.6H166v-2h-1.1l-2.7-3.7l-1.5,1.5v2.1h-2v-8.9h2v4.3l3.9-4.3H167z"/>
		<path class="st1" d="M174.2,220.6h2v4.3l3.9-4.3h2.4l-3.5,3.7l3.7,5.2h-2.4l-2.7-3.7l-1.5,1.5v2.1h-2V220.6z"/>
		<path class="st1" d="M189.3,229.5v-1.1c-0.7,0.9-1.7,1.3-2.9,1.3c-0.9,0-1.6-0.2-2.2-0.7c-0.6-0.5-1-1.2-1-2.1c0-1,0.3-1.7,1-2.2
			c0.6-0.5,1.5-0.7,2.6-0.7c0.9,0,1.7,0.1,2.5,0.4v-0.2c0-1.3-0.7-1.9-2.2-1.9c-0.8,0-1.7,0.2-2.5,0.6l-0.6-1.6
			c1.1-0.5,2.2-0.7,3.4-0.7c2.6,0,3.9,1.3,3.9,3.8v5.3H189.3z M189.3,225.8c-0.6-0.2-1.3-0.4-2-0.4c-1.4,0-2,0.5-2,1.4
			c0,0.4,0.2,0.7,0.5,1c0.3,0.2,0.7,0.3,1.2,0.3c0.7,0,1.2-0.2,1.7-0.5c0.5-0.3,0.7-0.8,0.7-1.4V225.8z"/>
		<path class="st1" d="M193.7,220.6h2v1.5c0.8-1.1,1.8-1.7,3-1.7c1.1,0,2.1,0.4,2.9,1.2c0.9,0.9,1.3,2,1.3,3.4
			c0,1.4-0.4,2.6-1.3,3.4c-0.8,0.8-1.7,1.2-2.9,1.2c-1.2,0-2.2-0.5-3-1.6v4.1h-2V220.6z M200.1,227.2c0.5-0.5,0.7-1.2,0.7-2.1
			c0-0.8-0.3-1.5-0.8-2.1c-0.5-0.5-1.1-0.8-1.8-0.8c-0.7,0-1.3,0.3-1.8,0.8c-0.5,0.6-0.8,1.2-0.8,2.1c0,0.8,0.3,1.5,0.8,2.1
			c0.5,0.5,1.1,0.8,1.8,0.8C199.1,228,199.7,227.7,200.1,227.2z"/>
		<path class="st1" d="M206.6,222.4h-2.9v-1.8h7.8v1.8h-2.9v7.2h-2.1V222.4z"/>
		<path class="st1" d="M218.3,229.5v-1.1c-0.7,0.9-1.7,1.3-2.9,1.3c-0.9,0-1.6-0.2-2.2-0.7c-0.6-0.5-1-1.2-1-2.1c0-1,0.3-1.7,1-2.2
			c0.6-0.5,1.5-0.7,2.6-0.7c0.9,0,1.7,0.1,2.5,0.4v-0.2c0-1.3-0.7-1.9-2.2-1.9c-0.8,0-1.7,0.2-2.5,0.6l-0.6-1.6
			c1.1-0.5,2.2-0.7,3.4-0.7c2.6,0,3.9,1.3,3.9,3.8v5.3H218.3z M218.3,225.8c-0.6-0.2-1.3-0.4-2-0.4c-1.4,0-2,0.5-2,1.4
			c0,0.4,0.2,0.7,0.5,1c0.3,0.2,0.7,0.3,1.2,0.3c0.7,0,1.2-0.2,1.7-0.5c0.5-0.3,0.7-0.8,0.7-1.4V225.8z"/>
		<path class="st1" d="M223.6,228.4c-0.9-0.9-1.3-2-1.3-3.3v0c0-1.3,0.4-2.4,1.3-3.3c0.9-0.9,2-1.4,3.3-1.4c1.4,0,2.6,0.5,3.6,1.5
			l-1.3,1.4c-0.7-0.7-1.5-1.1-2.3-1.1c-0.7,0-1.3,0.3-1.8,0.8c-0.5,0.6-0.7,1.2-0.7,2v0c0,0.8,0.2,1.5,0.7,2
			c0.5,0.6,1.1,0.8,1.9,0.8c0.8,0,1.6-0.4,2.3-1.1l1.2,1.2c-1,1.1-2.2,1.7-3.6,1.7C225.6,229.8,224.5,229.3,223.6,228.4z"/>
		<path class="st1" d="M232.3,220.6h2v3.1h1.9c1.1,0,1.9,0.2,2.5,0.7c0.7,0.5,1,1.2,1,2.1c0,0.9-0.3,1.6-0.9,2.2
			c-0.6,0.5-1.4,0.8-2.5,0.8h-4.1V220.6z M236.1,227.9c1.1,0,1.6-0.4,1.6-1.3c0-0.8-0.6-1.2-1.7-1.2h-1.7v2.5H236.1z M241.1,220.6h2
			v8.9h-2V220.6z"/>
		<path class="st1" d="M245.7,220.6h2l2.8,4.1l2.8-4.1h2v8.9h-2.1v-5.9l-2.8,4l-2.8-4v5.9h-2V220.6z"/>
		<path class="st1" d="M258.8,228.5c-0.9-0.9-1.3-2-1.3-3.4c0-1.3,0.4-2.4,1.2-3.3c0.8-0.9,1.9-1.4,3.1-1.4c1.4,0,2.4,0.5,3.2,1.4
			c0.7,0.9,1.1,2,1.1,3.4c0,0.2,0,0.4,0,0.6h-6.6c0.1,0.7,0.4,1.3,0.9,1.7c0.5,0.4,1,0.6,1.7,0.6c0.9,0,1.7-0.4,2.4-1.1l1.2,1.1
			c-0.9,1.1-2.1,1.7-3.6,1.7C260.7,229.8,259.6,229.3,258.8,228.5z M264.1,224.5c-0.1-0.7-0.3-1.2-0.7-1.7c-0.4-0.5-0.9-0.7-1.6-0.7
			c-0.6,0-1.1,0.2-1.6,0.7c-0.4,0.4-0.7,1-0.8,1.7H264.1z"/>
		<path class="st1" d="M268.1,220.6h2v3.6h3.9v-3.6h2v8.9h-2V226h-3.9v3.6h-2V220.6z"/>
		<path class="st1" d="M83.4,244.5v-0.1l2.8-3.7l1.6,0.8l-2.2,3l2.2,3l-1.6,0.8L83.4,244.5z M87.7,244.5v-0.1l2.8-3.7l1.6,0.8
			l-2.2,3l2.2,3l-1.6,0.8L87.7,244.5z"/>
		<path class="st1" d="M94.4,237h1.9l6.3,8.2V237h2v11.8H103l-6.5-8.4v8.4h-2V237z"/>
		<path class="st1" d="M108.3,248.1c-0.6-0.6-0.8-1.5-0.8-2.5v-5.7h2v5.1c0,1.5,0.6,2.2,1.9,2.2c0.6,0,1.1-0.2,1.5-0.6
			c0.4-0.4,0.6-0.9,0.6-1.6v-5h2v8.9h-2v-1.4c-0.7,1-1.6,1.6-2.8,1.6C109.6,249,108.8,248.7,108.3,248.1z"/>
		<path class="st1" d="M118.4,246.4v-4.7h-1.1v-1.8h1.1v-2.4h2v2.4h2.4v1.8h-2.4v4.4c0,0.7,0.4,1.1,1.1,1.1c0.4,0,0.9-0.1,1.3-0.3
			v1.7c-0.5,0.3-1.2,0.5-1.8,0.5C119.3,249,118.4,248.1,118.4,246.4z"/>
		<path class="st1" d="M124.9,239.9h2v2c0.6-1.5,1.7-2.2,3.2-2.2v2.2H130c-0.9,0-1.7,0.3-2.2,0.9c-0.6,0.6-0.8,1.5-0.8,2.7v3.4h-2
			V239.9z"/>
		<path class="st1" d="M131.9,236.6h2.2v1.9h-2.2V236.6z M132,239.9h2v8.9h-2V239.9z"/>
		<path class="st1" d="M136.9,236.5h2v12.3h-2V236.5z"/>
		<path class="st1" d="M142.4,247.7c-0.9-0.9-1.4-2-1.4-3.3c0-1.3,0.5-2.4,1.4-3.3c0.9-0.9,2.1-1.4,3.4-1.4s2.5,0.5,3.4,1.4
			c0.9,0.9,1.4,2,1.4,3.3c0,1.3-0.5,2.4-1.4,3.3c-0.9,0.9-2.1,1.4-3.4,1.4C144.5,249.1,143.3,248.6,142.4,247.7z M147.8,246.4
			c0.5-0.5,0.7-1.2,0.7-2c0-0.8-0.3-1.5-0.8-2c-0.5-0.6-1.2-0.8-2-0.8c-0.8,0-1.5,0.3-2,0.8c-0.5,0.5-0.7,1.2-0.7,2
			c0,0.8,0.3,1.5,0.8,2c0.5,0.6,1.2,0.9,2,0.9C146.6,247.3,147.3,247,147.8,246.4z"/>
		<path class="st1" d="M152.7,239.9h2v1.4c0.7-1,1.6-1.6,2.8-1.6c1,0,1.8,0.3,2.3,0.9c0.6,0.6,0.8,1.5,0.8,2.5v5.7h-2v-5.1
			c0-1.5-0.6-2.2-1.9-2.2c-0.6,0-1.1,0.2-1.5,0.6c-0.4,0.4-0.6,0.9-0.6,1.6v5h-2V239.9z"/>
		<path class="st1" d="M162.7,247.4l2.2-3l-2.2-3l1.6-0.8l2.8,3.7v0.1l-2.8,3.7L162.7,247.4z M167,247.4l2.2-3l-2.2-3l1.6-0.8
			l2.8,3.7v0.1l-2.8,3.7L167,247.4z"/>
		<path class="st1" d="M177.9,247l1.5-1.4c0.9,1,1.9,1.6,3.1,1.6c0.6,0,1.1-0.2,1.5-0.5c0.4-0.3,0.6-0.8,0.6-1.3
			c0-0.6-0.2-1-0.7-1.4c-0.5-0.3-1.1-0.5-2-0.5h-1l-0.3-1.3l3.2-3.4h-5.1V237h7.8v1.6l-3.3,3.4c2.3,0.3,3.5,1.5,3.5,3.4
			c0,1.1-0.4,2-1.1,2.7c-0.8,0.7-1.8,1-3,1C180.5,249.1,179,248.4,177.9,247z"/>
		<path class="st1" d="M188.2,250.4c1-0.2,1.5-0.7,1.5-1.4l0-0.2h-0.9v-2.3h2.2v2c0,1.7-0.9,2.7-2.6,2.8L188.2,250.4z"/>
		<path class="st1" d="M204.1,246.2h-6l-0.4-1.5l6.6-7.8h1.8v7.5h1.7v1.7h-1.7v2.7h-2V246.2z M204.1,244.5v-4.7l-3.9,4.7H204.1z"/>
		<path class="st1" d="M212,240.3l-1.7,1.2l-0.6-1l1.9-0.8l-1.9-0.8l0.6-1l1.7,1.2l-0.2-2.1h1.2l-0.2,2.1l1.7-1.2l0.6,1l-1.9,0.8
			l1.9,0.8l-0.6,1l-1.7-1.2l0.2,2.1h-1.2L212,240.3z"/>
		<path class="st1" d="M85.9,270.1c-1.6-1.5-2.4-3.5-2.4-5.8c0-2.3,0.8-4.2,2.3-5.7c1.6-1.6,3.5-2.3,5.9-2.3c2.8,0,4.9,1.1,6.5,3.3
			l-3.2,2.4c-1-1.2-2.1-1.8-3.4-1.8c-1.1,0-2,0.4-2.7,1.2c-0.7,0.8-1,1.8-1,3c0,1.2,0.3,2.2,1,3c0.7,0.8,1.6,1.2,2.7,1.2
			c1.3,0,2.5-0.6,3.5-1.9l3.2,2.3c-1.7,2.3-4,3.5-6.9,3.5C89.3,272.4,87.4,271.6,85.9,270.1z"/>
		<path class="st1" d="M105,256.4h4.2l6.6,15.6h-4.6l-1.1-2.8h-6l-1.1,2.8h-4.5L105,256.4z M108.7,265.9l-1.7-4.4l-1.8,4.4H108.7z"
			/>
		<path class="st1" d="M119,260.3h-4.7v-3.8H128v3.8h-4.7v11.8H119V260.3z"/>
		<path class="st1" d="M129.9,256.5h4.3v4.9h2.4c1.9,0,3.5,0.4,4.6,1.3c1.2,0.9,1.8,2.2,1.8,4c0,1.7-0.6,3-1.7,4
			c-1.1,0.9-2.6,1.4-4.6,1.4h-6.9V256.5z M136.4,268.4c1.5,0,2.3-0.6,2.3-1.9c0-0.5-0.2-1-0.6-1.3c-0.4-0.3-0.9-0.5-1.6-0.5h-2.3
			v3.7H136.4z M144.8,256.5h4.3v15.5h-4.3V256.5z"/>
		<path class="st1" d="M151.9,256.5h13.9v15.5h-4.3v-11.8h-5.3v11.8h-4.3V256.5z"/>
		<path class="st1" d="M180.1,256.4h4.2l6.6,15.6h-4.6l-1.1-2.8h-6l-1.1,2.8h-4.5L180.1,256.4z M183.9,265.9l-1.7-4.4l-1.8,4.4
			H183.9z"/>
		<path class="st1" d="M190.7,271.9l0.3-3.3c0.3,0.1,0.6,0.1,1,0.1c0.8,0,1.3-0.5,1.6-1.5c0.5-1.5,0.7-4.3,0.7-8.5v-2.2h11.9v15.5
			H202v-11.8h-3.6v0.6c0,4.4-0.5,7.5-1.4,9.3c-0.8,1.4-2,2.1-3.7,2.1C192.2,272.3,191.4,272.2,190.7,271.9z"/>
		<path class="st1" d="M209,256.5h4.3v4.9h2.4c1.9,0,3.5,0.4,4.6,1.3c1.2,0.9,1.8,2.2,1.8,4c0,1.7-0.6,3-1.7,4
			c-1.1,0.9-2.6,1.4-4.6,1.4H209V256.5z M215.6,268.4c1.5,0,2.3-0.6,2.3-1.9c0-0.5-0.2-1-0.6-1.3c-0.4-0.3-0.9-0.5-1.6-0.5h-2.3v3.7
			H215.6z M224,256.5h4.3v15.5H224V256.5z"/>
		<path class="st1" d="M245.1,256.6v11.7h1.8l-0.5,6.8h-3.6V272h-1.9v-5.9h-5.5v5.9H231v-15.4h4.3v5.8h5.5v-5.8H245.1z"/>
		<path class="st1" d="M248.8,256.5h4.3v4.9h2.4c1.9,0,3.5,0.4,4.6,1.3c1.2,0.9,1.8,2.2,1.8,4c0,1.7-0.6,3-1.7,4
			c-1.1,0.9-2.6,1.4-4.6,1.4h-6.9V256.5z M255.3,268.4c1.5,0,2.3-0.6,2.3-1.9c0-0.5-0.2-1-0.6-1.3c-0.4-0.3-0.9-0.5-1.6-0.5h-2.3
			v3.7H255.3z M263.7,256.5h4.3v15.5h-4.3V256.5z"/>
		<path class="st1" d="M269.6,269.7l2.2-2.9c1.2,1.2,2.7,1.8,4.4,1.8c1.6,0,2.4-0.5,2.4-1.5c0-0.9-0.8-1.4-2.5-1.4h-1.6v-3.2h1.6
			c1.5,0,2.2-0.5,2.2-1.4c0-0.4-0.2-0.7-0.5-1c-0.4-0.3-0.8-0.4-1.4-0.4c-1.5,0-2.9,0.5-4,1.5l-2.1-2.5c1.8-1.8,4-2.6,6.5-2.6
			c1.7,0,3.1,0.4,4.2,1.2c1.1,0.8,1.6,1.8,1.6,3c0,1.6-0.8,2.8-2.3,3.5c1.8,0.6,2.7,1.8,2.7,3.6c0,1.4-0.5,2.6-1.6,3.4
			c-1.1,0.9-2.6,1.4-4.5,1.4C274,272.3,271.6,271.5,269.6,269.7z"/>
	</g>
</g>
</svg>
