<?xml version="1.0" encoding="utf-8"?>
<!-- Generator: Adobe Illustrator 25.2.3, SVG Export Plug-In . SVG Version: 6.00 Build 0)  -->
<svg version="1.1" id="Layer_1" xmlns="http://www.w3.org/2000/svg" xmlns:xlink="http://www.w3.org/1999/xlink" x="0px" y="0px"
	 viewBox="0 0 216.2 135.6" style="enable-background:new 0 0 216.2 135.6;" xml:space="preserve">
<style type="text/css">
	.st0{fill:#ABCAE9;}
	.st1{fill:#001489;}
</style>
<g>
	<ellipse class="st0" cx="108.1" cy="67.8" rx="108.1" ry="67.8"/>
	<g>
		<g>
			<path class="st1" d="M32.2,48.3h1.5l6.1-8.1h7.4l-9,10.6L47.5,62h-7.3l-6.6-8.3h-1.5V62h-6.3V40.2h6.3
				C32.2,40.2,32.2,48.3,32.2,48.3z"/>
			<path class="st1" d="M51.1,60.7c-1.5-1.2-2.2-2.9-2.2-4.9l0,0c0-2.2,0.8-4.1,2.4-5.2c1.5-1.2,3.7-1.7,6.3-1.7
				c1.7,0,3.5,0.3,5.2,0.8v-0.3c0-2.7-1.5-4.1-4.7-4.1c-2,0-4.1,0.3-6.1,1.2l-1.5-4.7c2.7-1.2,5.6-1.7,8.4-1.7
				c3.2,0,5.7,0.8,7.3,2.4c1.5,1.5,2.4,3.9,2.4,6.9V62h-5.9v-2.4c-1.7,1.9-3.9,2.7-6.6,2.7C54.1,62.4,52.4,61.9,51.1,60.7z
				 M61.7,57.1c0.8-0.7,1.4-1.7,1.4-2.7v-1c-1.2-0.5-2.5-0.8-3.9-0.8c-2.9,0-4.2,1-4.2,3l0,0c0,0.8,0.3,1.5,1,2
				c0.7,0.5,1.4,0.7,2.4,0.7C59.7,58.1,60.9,57.8,61.7,57.1z"/>
			<path class="st1" d="M92.8,48.3h1.5l6.3-8.1h7.1l-8.8,10.6L108,62h-7.3l-6.6-8.3h-1.7V62h-6.1v-8.3h-1.7L78.3,62H71l9.1-10.8
				l-8.8-11h7.3l6.3,8.1h1.5v-8.1h6.1L92.8,48.3z"/>
			<path class="st1" d="M132.5,56.4h2.4v10.8h-5.6V62h-14.7v5.2H109V56.4h2.4l7.3-16.4h6.4L132.5,56.4z M117.8,56.6h8.4L122,46.3
				L117.8,56.6z"/>
			<path class="st1" d="M151.9,40.2h6.4l-8.3,22.3c-0.8,2.2-1.7,3.7-2.9,4.7c-1,0.8-2.5,1.4-4.4,1.4c-2,0-3.7-0.5-5.4-1.5l2-4.4
				c1,0.5,1.9,0.8,2.7,0.8c1,0,1.7-0.5,2.2-1.4l-8.4-21.8h6.6l4.9,14.9L151.9,40.2z"/>
			<path class="st1" d="M168.2,62h-6.3V40.2h6.3v7.9h3.4c0.7-2.4,2-4.4,4.1-5.9c2-1.5,4.4-2.4,7.1-2.4c3.2,0,5.9,1,8.1,3.2
				C193,45.3,194,48,194,51l0,0c0,3.2-1.2,5.7-3.4,7.9c-2.2,2.2-4.9,3.4-8.3,3.4c-2.7,0-5.1-0.8-7.3-2.4c-2-1.5-3.4-3.7-3.9-6.3
				h-3.4V62H168.2z M186.6,55.4c1-1.2,1.5-2.5,1.5-4.2l0,0c0-1.7-0.5-3-1.5-4.2c-1-1.2-2.4-1.9-3.9-1.9c-1.5,0-2.9,0.5-3.9,1.7
				c-1,1.2-1.5,2.5-1.5,4.2l0,0c0,1.7,0.5,3,1.5,4.2c1,1.2,2.4,1.9,3.9,1.9C184.4,57.1,185.6,56.6,186.6,55.4z"/>
			<path class="st1" d="M30.8,80.8h6.3v7.9h8.1v-7.9h6.3v21.8h-6.3v-8.1h-8.1v8.1h-6.3C30.8,102.6,30.8,80.8,30.8,80.8z"/>
			<path class="st1" d="M58.3,99.9c-2.2-2-3.2-4.9-3.2-8.1l0,0c0-3.2,1-5.9,3-7.9c2-2.2,4.6-3.4,7.8-3.4c3.4,0,6.1,1.2,8.1,3.5
				c1.7,2.2,2.5,4.9,2.5,8.3c0,0.3,0,0.8,0,1.7H61.4c0.7,2.9,2.4,4.2,5.2,4.2c1.9,0,3.5-0.7,5.2-2.2l3.5,3c-2.2,2.7-5.2,4.1-9,4.1
				C63.2,103.1,60.5,102.1,58.3,99.9z M70.5,89.9c-0.2-1.4-0.7-2.5-1.5-3.4c-0.8-0.8-1.9-1.2-3-1.2c-2.5,0-4.2,1.5-4.7,4.6H70.5z"/>
			<path class="st1" d="M101.9,97h2.4v10.8h-5.6v-5.2H84v5.2h-5.6V97h2.4l7.3-16.4h6.4L101.9,97z M87.2,97.2h8.4l-4.2-10.3
				L87.2,97.2z"/>
			<path class="st1" d="M109.7,99.9c-2.2-2-3.2-4.9-3.2-8.1l0,0c0-3.2,1-5.9,3-7.9c2-2.2,4.6-3.4,7.8-3.4c3.4,0,6.1,1.2,8.1,3.5
				c1.7,2.2,2.5,4.9,2.5,8.3c0,0.3,0,0.8,0,1.7h-15.2c0.7,2.9,2.4,4.2,5.2,4.2c1.9,0,3.5-0.7,5.2-2.2l3.5,3c-2.2,2.7-5.2,4.1-9,4.1
				C114.4,103.1,111.7,102.1,109.7,99.9z M121.7,89.9c-0.2-1.4-0.7-2.5-1.5-3.4c-0.8-0.8-1.9-1.2-3-1.2c-2.5,0-4.2,1.5-4.7,4.6
				H121.7z"/>
			<path class="st1" d="M153.6,102.6H147l-5.4-14.4l-5.6,14.4h-6.4l9.1-22h5.9L153.6,102.6z"/>
			<path class="st1" d="M163.3,102.6H157V80.8h6.3v7.9h3.4c0.7-2.4,2-4.4,4.1-5.9c2-1.5,4.4-2.4,7.1-2.4c3.2,0,5.9,1,8.1,3.2
				s3.2,4.9,3.2,7.9l0,0c0,3.2-1.2,5.7-3.4,7.9c-2.2,2.2-4.9,3.4-8.3,3.4c-2.7,0-5.1-0.8-7.3-2.4c-2-1.5-3.4-3.7-3.9-6.3h-3.4v8.3
				H163.3z M181.7,96c1-1.2,1.5-2.5,1.5-4.2l0,0c0-1.7-0.5-3-1.5-4.2c-1-1.2-2.4-1.9-3.9-1.9c-1.5,0-2.9,0.5-3.9,1.7
				c-1,1.2-1.5,2.5-1.5,4.2l0,0c0,1.7,0.5,3,1.5,4.2c1,1.2,2.4,1.9,3.9,1.9C179.5,97.7,180.7,97.2,181.7,96z"/>
		</g>
	</g>
</g>
</svg>
