<?xml version="1.0" encoding="utf-8"?>
<!-- Generator: Adobe Illustrator 25.2.3, SVG Export Plug-In . SVG Version: 6.00 Build 0)  -->
<svg version="1.1" id="Layer_1" xmlns="http://www.w3.org/2000/svg" xmlns:xlink="http://www.w3.org/1999/xlink" x="0px" y="0px"
	 viewBox="0 0 135.6 135.6" style="enable-background:new 0 0 135.6 135.6;" xml:space="preserve">
<style type="text/css">
	.st0{fill:#ABCAE9;}
	.st1{fill:#001489;}
</style>
<g>
	<circle class="st0" cx="67.8" cy="67.8" r="67.8"/>
	<g>
		<g>
			<path class="st1" d="M31,58.1l-9.5-13.4l10.2-7.2l9.5,13.4l13.3-9.4L61.9,52l-13.2,9.3l9.5,13.4L48,81.9l-9.5-13.4L25.2,78
				l-7.5-10.5L31,58.1z"/>
		</g>
		<g>
			<path class="st1" d="M60.7,81.8l24.4-13.9c4.8-2.7,8.2-4.9,10.1-6.7c2-2,3.3-4.3,3.7-6.8c1-5.6-1.4-8.9-7.2-9.9
				c-2.4-0.4-4.8-0.1-7.1,1c-2,0.9-4.5,2.7-7.6,5.4l-8.6-9.7c4.2-4,8.2-6.7,11.8-8.1c4.2-1.7,9-2,14.5-1.1
				c6.6,1.1,11.7,3.9,15.2,8.2c3.4,4.3,4.6,9.5,3.6,15.5v0.2c-0.9,5-3,9.2-6.4,12.4c-2.6,2.5-7.6,5.7-14.8,9.6l-11.9,6.3l28.1,4.8
				l-2.1,12.2L58.8,93L60.7,81.8z"/>
		</g>
	</g>
</g>
</svg>
