<?xml version="1.0" encoding="utf-8"?>
<!-- Generator: Adobe Illustrator 25.2.3, SVG Export Plug-In . SVG Version: 6.00 Build 0)  -->
<svg version="1.1" id="Layer_1" xmlns="http://www.w3.org/2000/svg" xmlns:xlink="http://www.w3.org/1999/xlink" x="0px" y="0px"
	 viewBox="0 0 240 400" style="enable-background:new 0 0 240 400;" xml:space="preserve">
<style type="text/css">
	.st0{fill:#F9F8F3;}
	.st1{fill:#FDDF6B;}
</style>
<g>
	<path class="st0" d="M70.5,190.6h12.2v13.6h-3.8v-10.3h-4.7v10.3h-3.7V190.6z"/>
	<path class="st0" d="M86.7,202.4c-1.4-1.4-2.1-3.1-2.1-5s0.7-3.7,2.1-5c1.4-1.4,3.1-2.1,5.3-2.1c2.1,0,3.8,0.7,5.3,2.1
		c1.4,1.4,2.1,3.1,2.1,5s-0.7,3.7-2.1,5c-1.4,1.4-3.1,2.1-5.3,2.1C89.8,204.5,88,203.8,86.7,202.4z M94.5,200
		c0.6-0.7,0.9-1.5,0.9-2.6c0-1-0.3-1.8-1-2.6c-0.7-0.8-1.5-1.1-2.5-1.1c-1,0-1.8,0.4-2.5,1.1c-0.6,0.7-0.9,1.5-0.9,2.6
		c0,1,0.3,1.8,1,2.6c0.7,0.8,1.5,1.1,2.5,1.1C93,201.1,93.8,200.7,94.5,200z"/>
	<path class="st0" d="M99.2,204.1l0.2-2.9c0.2,0.1,0.5,0.1,0.8,0.1c0.7,0,1.1-0.5,1.4-1.3c0.5-1.3,0.6-3.8,0.6-7.5v-1.9h10.4v13.6
		H109v-10.3h-3.2v0.5c0,3.9-0.4,6.6-1.2,8.1c-0.7,1.2-1.8,1.8-3.2,1.8C100.6,204.4,99.8,204.3,99.2,204.1z"/>
	<path class="st0" d="M115.1,203.5l1.4-2.7c0.5,0.3,1,0.5,1.5,0.5c0.5,0,0.8-0.2,1.2-0.6l-5.3-10.1h4.2l3.1,6.4l2.9-6.4h4.1
		l-5.3,10.4c-0.6,1.2-1.3,2.1-2,2.6c-0.7,0.5-1.6,0.8-2.6,0.8C117.3,204.4,116.2,204.1,115.1,203.5z"/>
	<path class="st0" d="M137.2,199.4c-1,0.6-2.1,0.8-3.5,0.8c-1.4,0-2.5-0.4-3.4-1.2s-1.2-1.9-1.2-3.4v-5.2h3.7v4.1
		c0,1.4,0.6,2.1,1.8,2.1c1,0,1.8-0.2,2.4-0.8v-5.5h3.7v13.6H137v-4.7H137.2z"/>
	<path class="st0" d="M143.3,190.6h3.7v7.6l5.3-7.6h3.5v13.6h-3.7v-7.6l-5.3,7.6h-3.5V190.6z"/>
	<path class="st0" d="M161.6,193.9h-4.1v-3.3h11.9v3.3h-4.1v10.3h-3.7L161.6,193.9L161.6,193.9z"/>
	<path class="st0" d="M171.1,190.6H182v3.2h-7.2v2.1h6.6v3h-6.6v2.1h7.3v3.2H171L171.1,190.6L171.1,190.6z"/>
	<path class="st0" d="M70.1,212h5.3v1.8h-3.4v5.2h-2V212z"/>
	<path class="st0" d="M76.5,218.6c-0.5-0.4-0.7-0.9-0.7-1.6l0,0c0-0.8,0.2-1.3,0.8-1.7c0.5-0.4,1.1-0.5,2.1-0.5
		c0.5,0,1.1,0.1,1.7,0.3v-0.2c0-0.8-0.5-1.3-1.5-1.3c-0.6,0-1.3,0.2-1.9,0.4l-0.5-1.5c0.8-0.4,1.8-0.5,2.7-0.5
		c1.1,0,1.8,0.2,2.4,0.8s0.8,1.2,0.8,2.2v4h-1.9v-0.8c-0.5,0.6-1.2,0.9-2.1,0.9C77.4,219.1,76.9,219,76.5,218.6z M79.9,217.4
		c0.3-0.2,0.4-0.5,0.4-0.9v-0.3c-0.4-0.2-0.8-0.2-1.2-0.2c-0.9,0-1.4,0.3-1.4,1l0,0c0,0.2,0.1,0.5,0.3,0.6s0.5,0.2,0.8,0.2
		C79.2,217.8,79.6,217.7,79.9,217.4z"/>
	<path class="st0" d="M83.9,212h2v1c0.5-0.8,1.3-1.1,2.1-1.1c0.8,0,1.6,0.3,2.2,0.9c0.6,0.7,1,1.6,1,2.7l0,0c0,1.1-0.3,2-1,2.7
		c-0.6,0.6-1.3,0.9-2.2,0.9c-0.8,0-1.6-0.4-2.1-1.1v3h-2V212z M88.7,216.9c0.3-0.4,0.5-0.8,0.5-1.4l0,0c0-0.5-0.2-1-0.5-1.4
		c-0.3-0.4-0.7-0.5-1.2-0.5c-0.5,0-0.8,0.2-1.2,0.5c-0.3,0.4-0.5,0.8-0.5,1.4l0,0c0,0.5,0.2,1,0.5,1.4c0.3,0.4,0.7,0.5,1.2,0.5
		S88.4,217.3,88.7,216.9z"/>
	<path class="st0" d="M92.8,218.6c-0.5-0.4-0.7-0.9-0.7-1.6l0,0c0-0.8,0.2-1.3,0.8-1.7c0.5-0.4,1.1-0.5,2.1-0.5
		c0.5,0,1.1,0.1,1.7,0.3v-0.2c0-0.8-0.5-1.3-1.5-1.3c-0.6,0-1.3,0.2-1.9,0.4l-0.5-1.5c0.8-0.4,1.8-0.5,2.7-0.5
		c1.1,0,1.8,0.2,2.4,0.8c0.5,0.5,0.8,1.2,0.8,2.2v4h-1.9v-0.8c-0.5,0.6-1.2,0.9-2.1,0.9C93.8,219.1,93.3,219,92.8,218.6z
		 M96.3,217.4c0.3-0.2,0.4-0.5,0.4-0.9v-0.3c-0.4-0.2-0.8-0.2-1.2-0.2c-0.9,0-1.4,0.3-1.4,1l0,0c0,0.2,0.1,0.5,0.3,0.6
		c0.2,0.2,0.5,0.2,0.8,0.2C95.6,217.8,96,217.7,96.3,217.4z"/>
	<path class="st0" d="M100.2,212h2v2.5h2.6V212h2v6.9h-2v-2.6h-2.6v2.6h-2V212z"/>
	<path class="st0" d="M110.4,213.8h-2.3V212h6.5v1.8h-2.3v5.2h-2L110.4,213.8L110.4,213.8z"/>
	<path class="st0" d="M116,212h2v3.8l2.7-3.8h1.8v6.9h-2v-4l-2.8,4H116V212z"/>
	<path class="st0" d="M124.2,212h2v1c0.5-0.8,1.3-1.1,2.1-1.1s1.6,0.3,2.2,0.9c0.6,0.7,1,1.6,1,2.7l0,0c0,1.1-0.3,2-1,2.7
		c-0.6,0.6-1.3,0.9-2.2,0.9c-0.8,0-1.6-0.4-2.1-1.1v3h-2V212z M129.1,216.9c0.3-0.4,0.5-0.8,0.5-1.4l0,0c0-0.5-0.2-1-0.5-1.4
		c-0.3-0.4-0.7-0.5-1.2-0.5c-0.5,0-0.8,0.2-1.2,0.5c-0.3,0.4-0.5,0.8-0.5,1.4l0,0c0,0.5,0.2,1,0.5,1.4c0.3,0.4,0.7,0.5,1.2,0.5
		C128.3,217.4,128.7,217.3,129.1,216.9z"/>
	<path class="st0" d="M133.7,218.1c-0.7-0.7-1.1-1.5-1.1-2.5l0,0c0-1,0.4-1.8,1.1-2.5c0.8-0.7,1.6-1.1,2.7-1.1c1.1,0,2,0.4,2.7,1.1
		s1.1,1.5,1.1,2.5l0,0c0,1-0.4,1.8-1.1,2.5c-0.8,0.7-1.6,1.1-2.7,1.1C135.3,219.1,134.4,218.8,133.7,218.1z M137.7,216.9
		c0.3-0.4,0.5-0.8,0.5-1.4l0,0c0-0.5-0.2-1-0.5-1.4c-0.4-0.4-0.8-0.5-1.3-0.5c-0.5,0-1,0.2-1.3,0.5c-0.3,0.4-0.5,0.8-0.5,1.4l0,0
		c0,0.5,0.2,1,0.5,1.4c0.4,0.4,0.8,0.5,1.3,0.5C136.9,217.4,137.4,217.3,137.7,216.9z"/>
	<path class="st0" d="M141.6,212h3.6c0.8,0,1.3,0.2,1.8,0.5s0.7,0.8,0.7,1.4l0,0c0,0.7-0.3,1.1-1,1.5c0.8,0.3,1.3,0.8,1.3,1.7l0,0
		c0,0.6-0.2,1.1-0.8,1.5c-0.5,0.3-1.1,0.5-2,0.5h-3.6L141.6,212L141.6,212z M144.7,214.9c0.6,0,0.9-0.2,0.9-0.7l0,0
		c0-0.5-0.3-0.7-0.9-0.7h-1.2v1.4H144.7z M143.5,217.6h1.5c0.6,0,1-0.2,1-0.8l0,0c0-0.5-0.3-0.7-1-0.7h-1.4L143.5,217.6L143.5,217.6
		z"/>
	<path class="st0" d="M149.6,218.6c-0.5-0.4-0.7-0.9-0.7-1.6l0,0c0-0.8,0.2-1.3,0.8-1.7c0.5-0.4,1.1-0.5,2.1-0.5
		c0.5,0,1.1,0.1,1.7,0.3v-0.2c0-0.8-0.5-1.3-1.5-1.3c-0.6,0-1.3,0.2-1.9,0.4l-0.5-1.5c0.8-0.4,1.8-0.5,2.7-0.5
		c1.1,0,1.8,0.2,2.4,0.8s0.8,1.2,0.8,2.2v4h-1.9v-0.8c-0.5,0.6-1.2,0.9-2.1,0.9C150.6,219.1,150,219,149.6,218.6z M152.9,217.4
		c0.3-0.2,0.4-0.5,0.4-0.9v-0.3c-0.4-0.2-0.8-0.2-1.2-0.2c-0.9,0-1.4,0.3-1.4,1l0,0c0,0.2,0.1,0.5,0.3,0.6s0.5,0.2,0.8,0.2
		C152.3,217.8,152.7,217.7,152.9,217.4z"/>
	<path class="st0" d="M157,212h2v2.5h2.6V212h2v6.9h-2v-2.6H159v2.6h-2V212z"/>
	<path class="st0" d="M165.2,212h2v2.5h2.6V212h2v6.9h-2v-2.6h-2.6v2.6h-2V212z"/>
	<path class="st0" d="M174.1,218.1c-0.7-0.7-1.1-1.5-1.1-2.5l0,0c0-1,0.4-1.8,1.1-2.5c0.8-0.7,1.6-1.1,2.7-1.1c1.1,0,2,0.4,2.7,1.1
		s1.1,1.5,1.1,2.5l0,0c0,1-0.4,1.8-1.1,2.5c-0.8,0.7-1.6,1.1-2.7,1.1C175.7,219.1,174.8,218.8,174.1,218.1z M178.1,216.9
		c0.3-0.4,0.5-0.8,0.5-1.4l0,0c0-0.5-0.2-1-0.5-1.4c-0.4-0.4-0.8-0.5-1.3-0.5c-0.5,0-1,0.2-1.3,0.5c-0.3,0.4-0.5,0.8-0.5,1.4l0,0
		c0,0.5,0.2,1,0.5,1.4c0.4,0.4,0.8,0.5,1.3,0.5C177.3,217.4,177.7,217.3,178.1,216.9z"/>
	<path class="st0" d="M185.5,217.8l1.2-1.4c0.8,0.7,1.4,1,2.1,1c1,0,1.5-0.4,1.5-1.2l0,0c0-0.4-0.2-0.7-0.5-0.9
		c-0.3-0.2-0.7-0.3-1.1-0.3c-0.5,0-1,0.1-1.5,0.3l-1.1-0.8l0.2-4.5h5.6v1.8H188l-0.1,1.6c0.4-0.1,0.8-0.2,1.2-0.2
		c0.9,0,1.7,0.2,2.3,0.7c0.6,0.5,0.9,1.2,0.9,2.2l0,0c0,1-0.3,1.8-0.9,2.3c-0.6,0.5-1.4,0.8-2.5,0.8
		C187.6,219.1,186.4,218.7,185.5,217.8z"/>
	<path class="st0" d="M194.9,217.8c-0.8-0.8-1.1-2-1.1-3.3l0,0c0-1.4,0.4-2.4,1.1-3.4c0.8-0.9,1.8-1.4,2.9-1.4
		c1.2,0,2.1,0.5,2.9,1.4c0.8,0.9,1.1,2,1.1,3.4l0,0c0,1.4-0.4,2.4-1.1,3.4c-0.8,0.9-1.8,1.4-2.9,1.4
		C196.6,219.1,195.7,218.7,194.9,217.8z M199.3,216.5c0.4-0.5,0.5-1.2,0.5-2.1l0,0c0-0.8-0.2-1.5-0.5-2.1c-0.4-0.5-0.8-0.8-1.4-0.8
		s-1.1,0.3-1.4,0.8s-0.5,1.2-0.5,2.1l0,0c0,0.8,0.2,1.5,0.5,2.1s0.8,0.8,1.4,0.8S198.9,217.1,199.3,216.5z"/>
	<path class="st0" d="M204.3,217.8c-0.8-0.8-1.1-2-1.1-3.3l0,0c0-1.4,0.4-2.4,1.1-3.4c0.8-0.9,1.8-1.4,2.9-1.4
		c1.2,0,2.1,0.5,2.9,1.4c0.8,0.9,1.1,2,1.1,3.4l0,0c0,1.4-0.4,2.4-1.1,3.4c-0.8,0.9-1.8,1.4-2.9,1.4
		C206.1,219.1,205.1,218.7,204.3,217.8z M208.8,216.5c0.4-0.5,0.5-1.2,0.5-2.1l0,0c0-0.8-0.2-1.5-0.5-2.1c-0.4-0.5-0.8-0.8-1.4-0.8
		s-1.1,0.3-1.4,0.8s-0.5,1.2-0.5,2.1l0,0c0,0.8,0.2,1.5,0.5,2.1s0.8,0.8,1.4,0.8C207.9,217.4,208.4,217.1,208.8,216.5z"/>
	<path class="st0" d="M214.3,211.3v-1.6h7.4v1.6H214.3z M217,219v-5.5h-2.7v-1.6h7.4v1.6h-2.7v5.5H217z"/>
	<path class="st0" d="M70.7,231.6c0.7,0.5,1.4,0.8,2.2,0.8c0.8,0,1.2-0.2,1.2-0.7l0,0c0-0.5-0.4-0.6-1.1-0.6h-1.4v-1.4h1.4
		c0.7,0,1-0.2,1-0.6l0,0c0-0.5-0.4-0.7-1.1-0.6c-0.7,0-1.4,0.2-2.1,0.8l-1.1-1.2c0.8-0.8,1.9-1.1,3.2-1.1c0.8,0,1.5,0.2,2.1,0.5
		c0.5,0.4,0.8,0.8,0.8,1.4l0,0c0,0.7-0.4,1.2-1.1,1.5c0.8,0.3,1.3,0.8,1.3,1.6l0,0c0,0.6-0.3,1.1-0.8,1.4c-0.6,0.4-1.4,0.6-2.3,0.6
		c-1.2,0-2.3-0.4-3.2-1.1L70.7,231.6z"/>
	<path class="st0" d="M77.7,233.4c-0.5-0.4-0.7-0.9-0.7-1.6l0,0c0-0.8,0.2-1.3,0.8-1.7c0.5-0.4,1.1-0.5,2.1-0.5
		c0.5,0,1.1,0.1,1.7,0.3v-0.2c0-0.8-0.5-1.3-1.5-1.3c-0.6,0-1.3,0.2-1.9,0.4l-0.5-1.5c0.8-0.4,1.8-0.5,2.7-0.5
		c1.1,0,1.8,0.2,2.4,0.8c0.5,0.5,0.8,1.2,0.8,2.2v4h-1.9V233c-0.5,0.6-1.2,0.9-2.1,0.9C78.7,233.9,78.1,233.8,77.7,233.4z
		 M81.1,232.2c0.3-0.2,0.4-0.5,0.4-0.9v-0.4c-0.4-0.2-0.8-0.2-1.2-0.2c-0.9,0-1.4,0.3-1.4,1l0,0c0,0.2,0.1,0.5,0.3,0.6
		c0.2,0.2,0.5,0.2,0.8,0.2C80.5,232.5,80.8,232.5,81.1,232.2z"/>
	<path class="st0" d="M89,226.8h6.5v6.9h-2v-5.2h-2.6v5.2h-2L89,226.8L89,226.8z"/>
	<path class="st0" d="M97.8,232.9c-0.7-0.7-1.1-1.5-1.1-2.6l0,0c0-1,0.3-1.8,1-2.5c0.7-0.7,1.4-1.1,2.4-1.1c1.1,0,2,0.4,2.6,1.1
		c0.5,0.7,0.8,1.6,0.8,2.6c0,0.1,0,0.2,0,0.5h-4.9c0.2,0.9,0.8,1.4,1.7,1.4c0.6,0,1.1-0.2,1.7-0.7l1.1,1c-0.7,0.8-1.7,1.3-2.8,1.3
		C99.3,233.9,98.4,233.6,97.8,232.9z M101.6,229.8c-0.1-0.5-0.2-0.8-0.5-1.1c-0.2-0.3-0.6-0.4-1-0.4c-0.8,0-1.3,0.5-1.5,1.4H101.6z"
		/>
	<path class="st0" d="M105,226.8h2v1c0.5-0.8,1.3-1.1,2.1-1.1c0.8,0,1.6,0.3,2.2,0.9c0.6,0.7,1,1.6,1,2.7l0,0c0,1.1-0.3,2-1,2.7
		c-0.6,0.6-1.3,0.9-2.2,0.9c-0.8,0-1.6-0.4-2.1-1.1v3h-2V226.8z M109.9,231.7c0.3-0.4,0.5-0.8,0.5-1.4l0,0c0-0.5-0.2-1-0.5-1.4
		c-0.3-0.4-0.7-0.5-1.2-0.5c-0.5,0-0.8,0.2-1.2,0.5c-0.3,0.4-0.5,0.8-0.5,1.4l0,0c0,0.5,0.2,1,0.5,1.4c0.3,0.4,0.7,0.5,1.2,0.5
		C109.1,232.2,109.6,232.1,109.9,231.7z"/>
	<path class="st0" d="M113.7,226.8h3.6c0.8,0,1.3,0.2,1.8,0.5c0.5,0.3,0.7,0.8,0.7,1.4l0,0c0,0.7-0.3,1.1-1,1.5
		c0.8,0.3,1.3,0.8,1.3,1.7l0,0c0,0.6-0.2,1.1-0.8,1.5c-0.5,0.3-1.1,0.5-2,0.5h-3.6L113.7,226.8L113.7,226.8z M116.9,229.7
		c0.6,0,0.9-0.2,0.9-0.7l0,0c0-0.5-0.3-0.7-0.9-0.7h-1.2v1.4H116.9z M115.7,232.4h1.5c0.6,0,1-0.2,1-0.8l0,0c0-0.5-0.3-0.7-1-0.7
		h-1.4L115.7,232.4L115.7,232.4z"/>
	<path class="st0" d="M125.9,226.8h2.1l-2.7,7.1c-0.2,0.7-0.5,1.2-0.9,1.5c-0.4,0.3-0.8,0.5-1.4,0.5c-0.6,0-1.2-0.2-1.8-0.5l0.7-1.4
		c0.3,0.2,0.6,0.3,0.8,0.3c0.3,0,0.5-0.2,0.7-0.5l-2.7-6.9h2.1l1.6,4.7L125.9,226.8z"/>
	<path class="st0" d="M131,233.8h-2v-6.9h2v2.5h1.1c0.2-0.8,0.6-1.4,1.3-1.9c0.7-0.5,1.4-0.8,2.3-0.8c1.1,0,1.9,0.4,2.6,1.1
		s1.1,1.5,1.1,2.5l0,0c0,1-0.4,1.8-1.1,2.5c-0.7,0.7-1.6,1.1-2.6,1.1c-0.8,0-1.7-0.2-2.3-0.8c-0.6-0.5-1.1-1.1-1.2-2h-1.1L131,233.8
		L131,233.8z M136.9,231.7c0.3-0.4,0.5-0.8,0.5-1.4l0,0c0-0.5-0.2-1-0.5-1.4s-0.8-0.5-1.2-0.5c-0.5,0-0.9,0.2-1.2,0.5
		s-0.5,0.8-0.5,1.4l0,0c0,0.5,0.2,1,0.5,1.4c0.3,0.4,0.8,0.5,1.2,0.5S136.6,232.1,136.9,231.7z"/>
	<path class="st0" d="M144.6,226.8h6.5v6.9h-2v-5.2h-2.6v5.2h-2L144.6,226.8L144.6,226.8z"/>
	<path class="st0" d="M153.5,232.9c-0.7-0.7-1.1-1.5-1.1-2.5l0,0c0-1,0.4-1.8,1.1-2.5c0.8-0.7,1.6-1.1,2.7-1.1c1.1,0,2,0.4,2.7,1.1
		c0.7,0.7,1.1,1.5,1.1,2.5l0,0c0,1-0.4,1.8-1.1,2.5c-0.8,0.7-1.6,1.1-2.7,1.1C155.1,233.9,154.2,233.6,153.5,232.9z M157.5,231.7
		c0.3-0.4,0.5-0.8,0.5-1.4l0,0c0-0.5-0.2-1-0.5-1.4c-0.4-0.4-0.8-0.5-1.3-0.5s-1,0.2-1.3,0.5s-0.5,0.8-0.5,1.4l0,0
		c0,0.5,0.2,1,0.5,1.4c0.4,0.4,0.8,0.5,1.3,0.5C156.7,232.2,157.1,232.1,157.5,231.7z"/>
	<path class="st0" d="M163.3,229.4h0.5l2-2.6h2.4l-2.8,3.4l3,3.6h-2.4l-2.1-2.7h-0.5v2.7h-2v-6.9h2V229.4z"/>
	<path class="st0" d="M173.7,226.8h2.1l-2.7,7.1c-0.2,0.7-0.5,1.2-0.9,1.5s-0.8,0.5-1.4,0.5c-0.6,0-1.2-0.2-1.8-0.5l0.7-1.4
		c0.3,0.2,0.6,0.3,0.8,0.3c0.3,0,0.5-0.2,0.7-0.5l-2.7-6.9h2.1l1.6,4.7L173.7,226.8z"/>
	<path class="st0" d="M176.9,226.8h6.5v6.9h-2v-5.2h-2.6v5.2h-2L176.9,226.8L176.9,226.8z"/>
	<path class="st0" d="M187.1,229.4h0.5l2-2.6h2.4l-2.8,3.4l3,3.6h-2.4l-2.1-2.7h-0.5v2.7h-2v-6.9h2V229.4z"/>
	<path class="st0" d="M197.5,226.8h2.1l-2.7,7.1c-0.2,0.7-0.5,1.2-0.9,1.5c-0.4,0.3-0.8,0.5-1.4,0.5c-0.6,0-1.2-0.2-1.8-0.5l0.7-1.4
		c0.3,0.2,0.6,0.3,0.8,0.3c0.3,0,0.5-0.2,0.7-0.5l-2.7-6.9h2.1l1.6,4.7L197.5,226.8z"/>
</g>
<g>
	<path class="st1" d="M18.8,224.6l17.4-13.3c4-3,5.9-5.8,5.9-8.3c0-3.1-1.8-4.7-5.2-4.7c-2.7,0-5.7,2-9.2,5.9L19,197
		c5.1-6.6,11.4-9.9,18.9-9.9c5.1,0,9.2,1.4,12.4,4.1c3.2,2.7,4.8,6.4,4.8,10.8c0,3.5-0.9,6.5-2.7,9.1c-1.5,2.1-4.1,4.4-7.9,7.2
		l-7.9,5.6h19.1v10.4H18.8V224.6z"/>
</g>
</svg>
