<?xml version="1.0" encoding="utf-8"?>
<!-- Generator: Adobe Illustrator 25.2.3, SVG Export Plug-In . SVG Version: 6.00 Build 0)  -->
<svg version="1.1" id="Layer_1" xmlns="http://www.w3.org/2000/svg" xmlns:xlink="http://www.w3.org/1999/xlink" x="0px" y="0px"
	 viewBox="0 0 714 92.7" style="enable-background:new 0 0 714 92.7;" xml:space="preserve">
<g>
	<path d="M22.6,26.7L9.2,29.8L5,12.8l23.2-6.6h16v79.9H22.6V26.7z"/>
	<path d="M97.8,75.5c-6.6-7.7-9.9-17.4-9.9-29.1c0-11.6,3.3-21.2,10-29c6.9-8.2,15.9-12.2,26.8-12.2c11,0,19.9,4,26.7,12.1
		c6.6,7.8,9.9,17.5,9.9,29.1s-3.3,21.2-9.9,29c-6.9,8.2-15.9,12.2-27,12.2C113.5,87.7,104.6,83.6,97.8,75.5z M135.3,62.1
		c2.6-4,4-9.2,4-15.6c0-6.3-1.4-11.6-4.1-15.6c-2.8-4.1-6.3-6.1-10.6-6.1c-4.4,0-7.9,2-10.5,6s-4,9.2-4,15.7
		c0,6.4,1.4,11.6,4.1,15.6c2.7,4.1,6.3,6.1,10.6,6.1C129.1,68.2,132.6,66.1,135.3,62.1z"/>
	<path d="M180.4,75.5c-6.6-7.7-9.9-17.4-9.9-29.1c0-11.6,3.3-21.2,10-29c6.9-8.2,15.9-12.2,26.8-12.2c11,0,19.9,4,26.7,12.1
		c6.6,7.8,9.9,17.5,9.9,29.1s-3.3,21.2-9.9,29c-6.9,8.2-15.9,12.2-27,12.2C196.2,87.7,187.2,83.6,180.4,75.5z M217.9,62.1
		c2.6-4,4-9.2,4-15.6c0-6.3-1.4-11.6-4.1-15.6c-2.8-4.1-6.3-6.1-10.6-6.1c-4.4,0-7.9,2-10.5,6s-4,9.2-4,15.7
		c0,6.4,1.4,11.6,4.1,15.6c2.7,4.1,6.3,6.1,10.6,6.1C211.8,68.2,215.3,66.1,217.9,62.1z"/>
	<path d="M263.1,75.5c-6.6-7.7-9.9-17.4-9.9-29.1c0-11.6,3.3-21.2,10-29c6.9-8.2,15.9-12.2,26.8-12.2c11,0,19.9,4,26.7,12.1
		c6.6,7.8,9.9,17.5,9.9,29.1s-3.3,21.2-9.9,29c-6.9,8.2-15.9,12.2-27,12.2C278.8,87.7,269.9,83.6,263.1,75.5z M300.6,62.1
		c2.6-4,4-9.2,4-15.6c0-6.3-1.4-11.6-4.1-15.6c-2.8-4.1-6.3-6.1-10.6-6.1c-4.4,0-7.9,2-10.5,6s-4,9.2-4,15.7
		c0,6.4,1.4,11.6,4.1,15.6c2.7,4.1,6.3,6.1,10.6,6.1C294.5,68.2,298,66.1,300.6,62.1z"/>
	<path d="M377.2,75.5c-6.6-7.7-9.9-17.4-9.9-29.1c0-11.6,3.3-21.2,10-29c6.9-8.2,15.9-12.2,26.8-12.2c11,0,19.9,4,26.7,12.1
		c6.6,7.8,9.9,17.5,9.9,29.1s-3.3,21.2-9.9,29c-6.9,8.2-15.9,12.2-27,12.2C392.9,87.7,384,83.6,377.2,75.5z M414.7,62.1
		c2.6-4,4-9.2,4-15.6c0-6.3-1.4-11.6-4.1-15.6c-2.8-4.1-6.3-6.1-10.6-6.1c-4.4,0-7.9,2-10.5,6s-4,9.2-4,15.7
		c0,6.4,1.4,11.6,4.1,15.6c2.7,4.1,6.3,6.1,10.6,6.1C408.5,68.2,412,66.1,414.7,62.1z"/>
	<path d="M459.9,75.5c-6.6-7.7-9.9-17.4-9.9-29.1c0-11.6,3.3-21.2,10-29c6.9-8.2,15.9-12.2,26.8-12.2c11,0,19.9,4,26.7,12.1
		c6.6,7.8,9.9,17.5,9.9,29.1s-3.3,21.2-9.9,29c-6.9,8.2-15.9,12.2-27,12.2C475.6,87.7,466.7,83.6,459.9,75.5z M497.4,62.1
		c2.6-4,4-9.2,4-15.6c0-6.3-1.4-11.6-4.1-15.6c-2.8-4.1-6.3-6.1-10.6-6.1c-4.4,0-7.9,2-10.5,6s-4,9.2-4,15.7
		c0,6.4,1.4,11.6,4.1,15.6c2.7,4.1,6.3,6.1,10.6,6.1S494.7,66.1,497.4,62.1z"/>
	<path d="M542.6,75.5c-6.6-7.7-9.9-17.4-9.9-29.1c0-11.6,3.3-21.2,10-29c6.9-8.2,15.9-12.2,26.8-12.2c11,0,19.9,4,26.7,12.1
		c6.6,7.8,9.9,17.5,9.9,29.1s-3.3,21.2-9.9,29c-6.9,8.2-15.9,12.2-27,12.2C558.3,87.7,549.4,83.6,542.6,75.5z M580,62.1
		c2.6-4,4-9.2,4-15.6c0-6.3-1.4-11.6-4.1-15.6c-2.8-4.1-6.3-6.1-10.6-6.1c-4.4,0-7.9,2-10.5,6s-4,9.2-4,15.7
		c0,6.4,1.4,11.6,4.1,15.6c2.7,4.1,6.3,6.1,10.6,6.1C573.9,68.2,577.4,66.1,580,62.1z"/>
	<path d="M644.6,18.7V5H709v13.7H644.6z M668.6,86.1v-48h-24.1V24.4H709v13.7h-24v48H668.6z"/>
</g>
</svg>
