<?xml version="1.0" encoding="utf-8"?>
<!-- Generator: Adobe Illustrator 25.2.3, SVG Export Plug-In . SVG Version: 6.00 Build 0)  -->
<svg version="1.1" id="Layer_1" xmlns="http://www.w3.org/2000/svg" xmlns:xlink="http://www.w3.org/1999/xlink" x="0px" y="0px"
	 viewBox="0 0 260.5 38.7" style="enable-background:new 0 0 260.5 38.7;" xml:space="preserve">
<style type="text/css">
	.st0{fill:#FFFFFF;}
</style>
<g>
	<path class="st0" d="M17.8,15.9c-1.7-1.7-2.6-3.8-2.6-6.3S16,5,17.7,3.3s3.8-2.5,6.4-2.5c3,0,5.4,1.2,7.1,3.6l-3.4,2.7
		c-1-1.3-2.3-2-3.7-2c-1.2,0-2.1,0.4-2.9,1.3s-1.1,1.9-1.1,3.2s0.4,2.4,1.1,3.2c0.8,0.9,1.7,1.3,2.9,1.3c1.4,0,2.7-0.7,3.8-2.1
		l3.5,2.5c-1.9,2.5-4.3,3.8-7.5,3.8C21.5,18.4,19.5,17.6,17.8,15.9z"/>
	<path class="st0" d="M38.7,4.9c2,0,3.6,0.6,4.9,1.9c1.3,1.3,1.9,2.9,1.9,4.9c0,1.9-0.6,3.5-1.8,4.9c-1.2,1.3-2.7,2-4.6,2
		c-2.1,0-3.7-0.7-4.9-2.1c-1-1.3-1.5-3-1.5-5c0-0.4,0-0.7,0-0.9h9.1c-0.3-1.2-1.1-1.9-2.5-2.1c-1.4-0.2-2.5,0.2-3.4,1l-2.4-2.1
		C34.7,5.7,36.4,4.9,38.7,4.9z M36.4,12.8c0.2,1.8,1.1,2.7,2.6,2.8c1.5,0,2.4-0.9,2.7-2.8H36.4z"/>
	<path class="st0" d="M47.3,10.3c0-2.4,0.3-4.2,1-5.6c0.9-1.9,2.5-3,4.8-3.3l6.7-1.1l0.6,3.5l-6.9,1.3c-1,0.2-1.8,0.6-2.3,1.2
		c-0.4,0.4-0.6,0.9-0.6,1.4C50.8,7.3,51.3,7,52,6.6c0.9-0.5,2-0.8,3.1-0.8c1.7,0,3.2,0.5,4.3,1.6c1.3,1.1,1.9,2.6,1.9,4.3
		c0,1.9-0.7,3.4-2,4.7c-1.4,1.3-3,2-5,2C49.7,18.4,47.3,15.7,47.3,10.3z M56.2,13.7c0.5-0.5,0.7-1.1,0.7-1.9c0-0.7-0.2-1.4-0.7-1.9
		s-1.1-0.8-1.8-0.8s-1.3,0.3-1.8,0.8s-0.7,1.1-0.7,1.9c0,0.7,0.2,1.4,0.7,1.9s1.1,0.8,1.8,0.8C55.1,14.5,55.7,14.2,56.2,13.7z"/>
	<path class="st0" d="M63.2,5h4.4v6.5L72,5h4.2v13.1h-4.4v-6.5l-4.3,6.5h-4.2L63.2,5L63.2,5z"/>
	<path class="st0" d="M78.7,5h9.8v3.7h-5.3v9.4h-4.6L78.7,5L78.7,5z"/>
	<path class="st0" d="M91.5,16.5c-1.3-1.3-2-2.9-2-4.9c0-1.9,0.6-3.5,1.9-4.9c1.2-1.3,2.8-2,4.7-2c2.1,0,3.8,0.7,5,2.1
		c1.1,1.3,1.6,3,1.6,5c0,0.4,0,0.7,0,0.9H94c0.4,1.4,1.3,2.1,2.8,2.1c1,0,2-0.4,2.9-1.3l2.5,2.1c-1.4,1.8-3.3,2.7-5.7,2.7
		C94.5,18.4,92.8,17.8,91.5,16.5z M98.4,10.5c-0.2-1.6-0.9-2.4-2.3-2.4c-1.2,0-2,0.8-2.3,2.4H98.4z"/>
	<path class="st0" d="M111.1,8.6h10.8v3.9h-10.8V8.6z"/>
	<path class="st0" d="M131,1.2h4.4l7,8.9V1.2h4.6v16.9h-4.1l-7.2-9.3v9.3H131V1.2z"/>
	<path class="st0" d="M150.8,17.1c-0.8-0.9-1.2-2-1.2-3.5V5h4.6v7.1c0,1.5,0.6,2.2,1.9,2.2c0.6,0,1-0.2,1.4-0.6
		c0.4-0.4,0.6-0.9,0.6-1.6V5h4.6v13.1H158v-1.8c-1.1,1.4-2.4,2.1-3.9,2.1C152.7,18.4,151.6,17.9,150.8,17.1z"/>
	<path class="st0" d="M165.8,14V8.7h-1.5V5h1.5V1.7h4.6V5h3v3.7h-3v4.4c0,0.9,0.4,1.3,1.3,1.3c0.5,0,1.1-0.1,1.7-0.4v3.6
		c-0.9,0.5-1.9,0.7-3.2,0.7C167.3,18.3,165.8,16.9,165.8,14z"/>
	<path class="st0" d="M175.4,5h4.6v2.6c0.8-2,2.2-2.9,4.1-2.8v4.8h-0.4c-2.5,0-3.7,1.5-3.7,4.4v4.1h-4.6L175.4,5L175.4,5z"/>
	<path class="st0" d="M185.8,0.5h4.8v3.4h-4.8V0.5z M185.8,5h4.6v13.1h-4.6V5z"/>
	<path class="st0" d="M193.1,0.5h4.6v17.6h-4.6V0.5z"/>
	<path class="st0" d="M201.7,16.4c-1.4-1.3-2-2.9-2-4.8s0.7-3.5,2.1-4.8c1.4-1.4,3.1-2,5.2-2c2.1,0,3.8,0.7,5.2,2s2,2.9,2,4.8
		s-0.7,3.5-2.1,4.8c-1.4,1.4-3.1,2-5.2,2S203.1,17.7,201.7,16.4z M208.9,13.6c0.5-0.5,0.7-1.2,0.7-2.1c0-0.8-0.3-1.5-0.8-2.1
		s-1.2-0.9-2-0.9s-1.5,0.3-2,0.9c-0.5,0.5-0.7,1.2-0.7,2.1c0,0.8,0.3,1.5,0.8,2.1s1.2,0.9,2,0.9C207.8,14.5,208.4,14.2,208.9,13.6z"
		/>
	<path class="st0" d="M216.1,5h4.6v1.8c1.1-1.4,2.4-2.1,3.9-2.1c1.4,0,2.5,0.4,3.3,1.3s1.2,2,1.2,3.5V18h-4.6v-7
		c0-1.5-0.6-2.2-1.8-2.2c-0.6,0-1,0.2-1.4,0.6c-0.4,0.4-0.6,0.9-0.6,1.6v7.1h-4.6L216.1,5L216.1,5z"/>
	<path class="st0" d="M234.2,6.7l-2.5,2.1l-1.3-2.2l3.1-1.1l-3.1-1.1l1.3-2.2l2.5,2.1l-0.6-3.2h2.5l-0.6,3.2l2.5-2.1l1.3,2.2
		l-3.1,1.1l3.1,1.1L238,8.8l-2.5-2.1l0.6,3.2h-2.5L234.2,6.7z"/>
	<path class="st0" d="M240.5,20.3c1.6-0.2,2.4-0.9,2.4-2.2V18H241v-4.7h4.8v3.8c0,3.2-1.7,4.8-5,4.9L240.5,20.3z"/>
	<path class="st0" d="M5.8,37.3c-0.8-0.7-1.3-1.8-1.3-3C4.5,33,5,32,5.9,31.2c0.9-0.7,2.1-1,3.7-1c1.1,0,2.2,0.2,3.1,0.5v-0.2
		c0-1.4-0.9-2.1-2.6-2.1c-1.2,0-2.4,0.2-3.6,0.7l-0.9-3.2c1.6-0.7,3.4-1,5.3-1c2.3,0,3.9,0.5,5,1.6c0.9,0.9,1.4,2.3,1.4,4.2v7.5
		h-4.5v-1.4c-1,1.1-2.3,1.6-3.8,1.6C7.6,38.4,6.6,38,5.8,37.3z M12.2,34.9c0.4-0.4,0.6-0.9,0.6-1.6v-0.6c-0.5-0.2-1.1-0.3-1.8-0.3
		c-1.4,0-2.1,0.6-2.1,1.7c0,0.9,0.5,1.4,1.6,1.4C11.2,35.5,11.8,35.3,12.2,34.9z"/>
	<path class="st0" d="M19.6,25h4.6v4.6H28V25h4.6v13.1H28v-4.7h-3.8v4.7h-4.6V25z"/>
	<path class="st0" d="M35.6,37.3c-0.8-0.7-1.3-1.8-1.3-3c0-1.3,0.5-2.3,1.4-3.1c0.9-0.7,2.1-1,3.7-1c1.1,0,2.2,0.2,3.1,0.5v-0.2
		c0-1.4-0.9-2.1-2.6-2.1c-1.2,0-2.4,0.2-3.6,0.7l-0.9-3.2c1.6-0.7,3.4-1,5.3-1c2.3,0,3.9,0.5,5,1.6c0.9,0.9,1.4,2.3,1.4,4.2v7.5
		h-4.5v-1.4c-1,1.1-2.3,1.6-3.8,1.6C37.5,38.4,36.4,38,35.6,37.3z M42,34.9c0.4-0.4,0.6-0.9,0.6-1.6v-0.6c-0.5-0.2-1.1-0.3-1.8-0.3
		c-1.4,0-2.1,0.6-2.1,1.7c0,0.9,0.5,1.4,1.6,1.4C41.1,35.5,41.6,35.3,42,34.9z"/>
	<path class="st0" d="M50.9,36.4c-1.3-1.3-1.9-2.9-1.9-4.8c0-1.9,0.7-3.5,2-4.8c1.3-1.4,3-2,5-2c2.5,0,4.4,1,5.6,2.9l-3.1,2.2
		c-0.6-0.9-1.4-1.3-2.4-1.3c-0.8,0-1.5,0.3-2,0.8c-0.5,0.6-0.7,1.3-0.7,2.1c0,0.9,0.2,1.6,0.7,2.1c0.5,0.6,1.1,0.8,1.9,0.8
		c0.9,0,1.7-0.5,2.5-1.4l3.1,2.2c-1.4,2-3.3,3-5.8,3C53.8,38.4,52.2,37.7,50.9,36.4z"/>
	<path class="st0" d="M63.2,25h4.6v4.1H70c1.6,0,2.9,0.4,3.9,1.1c1,0.8,1.5,1.9,1.5,3.3c0,1.4-0.5,2.5-1.4,3.3S71.8,38,70.2,38h-7
		C63.2,38,63.2,25,63.2,25z M69.2,34.8c1.2,0,1.8-0.5,1.8-1.4S70.4,32,69.2,32h-1.4v2.8H69.2z M76.9,25h4.6v13.1h-4.6V25z"/>
	<path class="st0" d="M83.9,25h4.6v4.6h3.8V25h4.6v13.1h-4.6v-4.7h-3.8v4.7h-4.6V25z"/>
	<path class="st0" d="M99.9,37.3c-0.8-0.7-1.3-1.8-1.3-3c0-1.3,0.5-2.3,1.4-3.1c0.9-0.7,2.1-1,3.7-1c1.1,0,2.2,0.2,3.1,0.5v-0.2
		c0-1.4-0.9-2.1-2.6-2.1c-1.2,0-2.4,0.2-3.6,0.7l-0.9-3.2c1.6-0.7,3.4-1,5.3-1c2.3,0,3.9,0.5,5,1.6c0.9,0.9,1.4,2.3,1.4,4.2v7.5
		h-4.5v-1.4c-1,1.1-2.3,1.6-3.8,1.6C101.8,38.4,100.7,38,99.9,37.3z M106.3,34.9c0.4-0.4,0.6-0.9,0.6-1.6v-0.6
		c-0.5-0.2-1.1-0.3-1.8-0.3c-1.4,0-2.1,0.6-2.1,1.7c0,0.9,0.5,1.4,1.6,1.4C105.4,35.5,105.9,35.3,106.3,34.9z"/>
	<path class="st0" d="M120.2,28.6H131v3.9h-10.8V28.6z"/>
	<path class="st0" d="M139.9,25h4.7l3,4.5l3-4.5h4.7v13.1h-4.6v-6.4l-3.2,4.4l-3.1-4.3v6.3h-4.5L139.9,25L139.9,25z"/>
	<path class="st0" d="M157.7,25h4.4v6.5l4.3-6.5h4.2v13.1h-4.4v-6.5l-4.3,6.5h-4.2V25z"/>
	<path class="st0" d="M172.2,38.1l0.2-3.5c0.3,0,0.6,0.1,0.7,0.1c0.5,0,0.9-0.3,1.2-1c0.4-1,0.6-3,0.6-6V25h11.3v13.1h-4.6v-9.4
		h-2.4V29c0,3.6-0.5,6.2-1.4,7.6c-0.7,1.1-1.9,1.7-3.5,1.7C173.6,38.2,173,38.2,172.2,38.1z"/>
	<path class="st0" d="M187.6,38.1l0.2-3.5c0.3,0,0.6,0.1,0.7,0.1c0.5,0,0.9-0.3,1.2-1c0.4-1,0.6-3,0.6-6V25h11.3v13.1H197v-9.4h-2.4
		V29c0,3.6-0.5,6.2-1.4,7.6c-0.7,1.1-1.9,1.7-3.5,1.7C189,38.2,188.4,38.2,187.6,38.1z"/>
	<path class="st0" d="M204,25h4.4v6.5l4.3-6.5h4.2v13.1h-4.4v-6.5l-4.3,6.5H204V25z"/>
	<path class="st0" d="M221,36.4c-1.4-1.3-2-2.9-2-4.8c0-1.9,0.7-3.5,2.1-4.8c1.4-1.4,3.1-2,5.2-2c2.1,0,3.8,0.7,5.2,2s2,2.9,2,4.8
		c0,1.9-0.7,3.5-2.1,4.8c-1.4,1.4-3.1,2-5.2,2S222.4,37.7,221,36.4z M228.2,33.6c0.5-0.5,0.7-1.2,0.7-2.1c0-0.8-0.3-1.5-0.8-2.1
		s-1.2-0.9-2-0.9s-1.5,0.3-2,0.9c-0.5,0.5-0.7,1.2-0.7,2.1c0,0.8,0.3,1.5,0.8,2.1s1.2,0.9,2,0.9S227.7,34.2,228.2,33.6z"/>
	<path class="st0" d="M235.3,25h4.6v4.6h3.8V25h4.6v13.1h-4.6v-4.7h-3.8v4.7h-4.6V25z"/>
	<path class="st0" d="M250.8,23.2v-2.1h5.2v2.1l-1.4,9.3h-2.4L250.8,23.2z M251,34h4.8v4.1H251V34z"/>
</g>
</svg>
