<?xml version="1.0" encoding="utf-8"?>
<!-- Generator: Adobe Illustrator 25.2.3, SVG Export Plug-In . SVG Version: 6.00 Build 0)  -->
<svg version="1.1" id="Layer_2_1_" xmlns="http://www.w3.org/2000/svg" xmlns:xlink="http://www.w3.org/1999/xlink" x="0px" y="0px"
	 viewBox="0 0 300 600" style="enable-background:new 0 0 300 600;" xml:space="preserve">
<style type="text/css">
	.st0{fill:#FDDF6B;}
	.st1{fill:#FFFFFF;}
</style>
<g>
	<path class="st0" d="M16.6,435.1l10.6-10.6c4.5,4.6,9.4,6.9,14.5,6.9c5.2,0,7.8-2.1,7.8-6.3c0-4.2-3.3-6.3-9.9-6.3h-7.1l-2.4-8.8
		l14-12.6H20.8v-13.6h44v12.1l-14.5,12.4c10.5,2.3,15.7,8.1,15.7,17.3c0,6.1-2.2,11-6.6,14.8c-4.3,3.6-10,5.5-16.9,5.5
		C31.7,445.9,23.1,442.3,16.6,435.1z"/>
</g>
<g>
	<path class="st1" d="M90.8,398.4v-3.1l-1.9-2.1l-3.5,5.3h-2.5l4.7-6.8l-4.4-5h2.5l5.2,6.1v-6.1h2.1v6.1l5.2-6.1h2.5l-4.4,5l4.7,6.8
		h-2.5l-3.5-5.3l-1.9,2.1v3.1H90.8z"/>
	<path class="st1" d="M110.6,389.6l-3.5,6.3v5.3H105v-5.2l-3.5-6.4h2.5l2.1,4.5l2.1-4.5H110.6z"/>
	<path class="st1" d="M111.1,398.4l0.2-1.7c0.2,0,0.4,0.1,0.6,0.1c0.6,0,1-0.4,1.2-1.1c0.3-1,0.5-3.1,0.5-6.2h6.7v8.9h-2v-7.2h-2.8
		c0,3-0.3,5-0.9,6.1c-0.4,0.8-1.2,1.2-2.3,1.2C112,398.5,111.6,398.5,111.1,398.4z"/>
	<path class="st1" d="M121.9,396.7h1c0.7-1.3,1-3.3,1-6.1v-1.1h6.9v7.2h1.3l-0.3,3.9H130v-2.1h-6.2l-0.2,2.1h-1.7V396.7z
		 M128.7,396.7v-5.4h-2.9v1.2c0,1.7-0.3,3.1-0.8,4.2H128.7z"/>
	<path class="st1" d="M134.5,397.4c-0.9-0.9-1.3-2-1.3-3.4c0-1.3,0.4-2.4,1.2-3.3c0.8-0.9,1.9-1.4,3.1-1.4c1.4,0,2.4,0.5,3.2,1.4
		c0.7,0.9,1.1,2,1.1,3.4c0,0.2,0,0.4,0,0.6h-6.6c0.1,0.7,0.4,1.3,0.9,1.7c0.5,0.4,1,0.6,1.7,0.6c0.9,0,1.7-0.4,2.4-1.1l1.2,1.1
		c-0.9,1.1-2.1,1.7-3.6,1.7C136.5,398.6,135.4,398.2,134.5,397.4z M139.8,393.4c-0.1-0.7-0.3-1.2-0.7-1.7c-0.4-0.5-0.9-0.7-1.6-0.7
		c-0.6,0-1.1,0.2-1.6,0.7c-0.4,0.4-0.7,1-0.8,1.7H139.8z"/>
	<path class="st1" d="M142.6,398.4l0.2-1.7c0.2,0,0.4,0.1,0.6,0.1c0.6,0,1-0.4,1.2-1.1c0.3-1,0.5-3.1,0.5-6.2h6.7v8.9h-2v-7.2H147
		c0,3-0.3,5-0.9,6.1c-0.4,0.8-1.2,1.2-2.3,1.2C143.5,398.5,143.1,398.5,142.6,398.4z"/>
	<path class="st1" d="M155.2,397.4c-0.9-0.9-1.3-2-1.3-3.4c0-1.3,0.4-2.4,1.2-3.3c0.8-0.9,1.9-1.4,3.1-1.4c1.4,0,2.4,0.5,3.2,1.4
		c0.7,0.9,1.1,2,1.1,3.4c0,0.2,0,0.4,0,0.6H156c0.1,0.7,0.4,1.3,0.9,1.7c0.5,0.4,1,0.6,1.7,0.6c0.9,0,1.7-0.4,2.4-1.1l1.2,1.1
		c-0.9,1.1-2.1,1.7-3.6,1.7C157.2,398.6,156.1,398.2,155.2,397.4z M160.5,393.4c-0.1-0.7-0.3-1.2-0.7-1.7c-0.4-0.5-0.9-0.7-1.6-0.7
		c-0.6,0-1.1,0.2-1.6,0.7c-0.4,0.4-0.7,1-0.8,1.7H160.5z"/>
	<path class="st1" d="M164.6,389.5h2v1.5c0.8-1.1,1.8-1.7,3-1.7c1.1,0,2.1,0.4,2.9,1.2c0.9,0.9,1.3,2,1.3,3.4c0,1.4-0.4,2.6-1.3,3.4
		c-0.8,0.8-1.7,1.2-2.9,1.2c-1.2,0-2.2-0.5-3-1.6v4.1h-2V389.5z M171,396.1c0.5-0.5,0.7-1.2,0.7-2.1c0-0.8-0.3-1.5-0.8-2.1
		c-0.5-0.5-1.1-0.8-1.8-0.8c-0.7,0-1.3,0.3-1.8,0.8c-0.5,0.6-0.8,1.2-0.8,2.1c0,0.8,0.3,1.5,0.8,2.1c0.5,0.5,1.1,0.8,1.8,0.8
		C169.9,396.8,170.5,396.6,171,396.1z"/>
	<path class="st1" d="M92.3,407.7l-3.5,6.3v1.6h2v1.5h-2v2.1h-2.1v-2.1h-2v-1.5h2v-1.6l-3.5-6.4h2.5l2,4.5l2.1-4.5H92.3z"/>
	<path class="st1" d="M95.9,409.4h-2.9v-1.8h7.8v1.8H98v7.2h-2.1V409.4z"/>
	<path class="st1" d="M102.5,407.7h2v3.1h1.9c1.1,0,1.9,0.2,2.5,0.7c0.7,0.5,1,1.2,1,2.1c0,0.9-0.3,1.6-0.9,2.2
		c-0.6,0.5-1.4,0.8-2.5,0.8h-4.1V407.7z M106.3,414.9c1.1,0,1.6-0.4,1.6-1.3c0-0.8-0.6-1.2-1.7-1.2h-1.7v2.6H106.3z M111.3,407.7h2
		v8.9h-2V407.7z"/>
	<path class="st1" d="M116.7,415.4c-0.9-0.9-1.3-2-1.3-3.3v0c0-1.3,0.4-2.4,1.3-3.3c0.9-0.9,2-1.4,3.3-1.4c1.4,0,2.6,0.5,3.6,1.5
		l-1.3,1.4c-0.7-0.7-1.5-1.1-2.3-1.1c-0.7,0-1.3,0.3-1.8,0.8c-0.5,0.6-0.7,1.2-0.7,2v0c0,0.8,0.2,1.5,0.7,2c0.5,0.6,1.1,0.8,1.9,0.8
		c0.8,0,1.6-0.4,2.3-1.1l1.2,1.2c-1,1.1-2.2,1.7-3.6,1.7C118.7,416.8,117.6,416.3,116.7,415.4z"/>
	<path class="st1" d="M131.4,415.4c-0.9-0.9-1.4-2-1.4-3.3c0-1.3,0.5-2.4,1.4-3.3c0.9-0.9,2.1-1.4,3.4-1.4s2.5,0.5,3.4,1.4
		c0.9,0.9,1.4,2,1.4,3.3c0,1.3-0.5,2.4-1.4,3.3c-0.9,0.9-2.1,1.4-3.4,1.4C133.4,416.8,132.3,416.3,131.4,415.4z M136.8,414.2
		c0.5-0.5,0.7-1.2,0.7-2c0-0.8-0.3-1.5-0.8-2c-0.5-0.6-1.2-0.8-2-0.8c-0.8,0-1.5,0.3-2,0.8c-0.5,0.5-0.7,1.2-0.7,2
		c0,0.8,0.3,1.5,0.8,2c0.5,0.6,1.2,0.9,2,0.9C135.6,415,136.3,414.7,136.8,414.2z"/>
	<path class="st1" d="M141.6,407.7h2v6c1.9-2.7,3.3-4.6,4.2-6h1.9v8.9h-2v-5.9l-4.2,5.9h-1.9V407.7z M143.9,406
		c-0.5-0.4-0.8-1-0.9-1.7l1.2-0.2c0.2,0.8,0.7,1.1,1.4,1.1c0.7,0,1.2-0.4,1.4-1.1l1.2,0.2c-0.1,0.7-0.4,1.3-0.9,1.7
		c-0.5,0.4-1.1,0.6-1.8,0.6C145,406.6,144.4,406.4,143.9,406z"/>
	<path class="st1" d="M152.3,407.7h2v3.1h1.9c1.1,0,1.9,0.2,2.5,0.7c0.7,0.5,1,1.2,1,2.1c0,0.9-0.3,1.6-0.9,2.2
		c-0.6,0.5-1.4,0.8-2.5,0.8h-4.1V407.7z M156.1,414.9c1.1,0,1.6-0.4,1.6-1.3c0-0.8-0.6-1.2-1.7-1.2h-1.7v2.6H156.1z M161.2,407.7h2
		v8.9h-2V407.7z"/>
	<path class="st1" d="M165.8,407.7h2v3.6h3.9v-3.6h2v8.9h-2V413h-3.9v3.6h-2V407.7z"/>
	<path class="st1" d="M176.4,407.7h2v3.1h1.9c1.1,0,1.9,0.2,2.5,0.7c0.7,0.5,1,1.2,1,2.1c0,0.9-0.3,1.6-0.9,2.2
		c-0.6,0.5-1.4,0.8-2.5,0.8h-4.1V407.7z M180.2,414.9c1.1,0,1.6-0.4,1.6-1.3c0-0.8-0.6-1.2-1.7-1.2h-1.7v2.6H180.2z M185.2,407.7h2
		v8.9h-2V407.7z"/>
	<path class="st1" d="M189.8,407.7h2v3.6h3.9v-3.6h2v8.9h-2V413h-3.9v3.6h-2V407.7z"/>
	<path class="st1" d="M205.8,416.6v-1.1c-0.7,0.9-1.7,1.3-2.9,1.3c-0.9,0-1.6-0.2-2.2-0.7c-0.6-0.5-1-1.2-1-2.1c0-1,0.3-1.7,1-2.2
		c0.6-0.5,1.5-0.7,2.6-0.7c0.9,0,1.7,0.1,2.5,0.4v-0.2c0-1.3-0.7-1.9-2.2-1.9c-0.8,0-1.7,0.2-2.5,0.6l-0.6-1.6
		c1.1-0.5,2.2-0.7,3.4-0.7c2.6,0,3.9,1.3,3.9,3.8v5.3H205.8z M205.9,412.9c-0.6-0.2-1.3-0.4-2-0.4c-1.4,0-2,0.5-2,1.4
		c0,0.4,0.2,0.7,0.5,1c0.3,0.2,0.7,0.3,1.2,0.3c0.7,0,1.2-0.2,1.7-0.5c0.5-0.3,0.7-0.8,0.7-1.4V412.9z"/>
	<path class="st1" d="M98.8,424.3l-5.8,6.7l3.5,5.1h2.9l-0.5,6.9h-3.6v-3.1h-1.4L90,434l-1.6,1.7v4h-4.3v-15.5h4.3v6.3l5.3-6.3H98.8
		z"/>
	<path class="st1" d="M106.4,424.2h4.2l6.6,15.6h-4.6l-1.1-2.8h-6l-1.1,2.8h-4.5L106.4,424.2z M110.2,433.7l-1.7-4.4l-1.8,4.4H110.2
		z"/>
	<path class="st1" d="M120.5,428h-4.7v-3.8h13.6v3.8h-4.7v11.8h-4.3V428z"/>
	<path class="st1" d="M131.4,424.3h4.3v4.9h2.4c1.9,0,3.5,0.4,4.6,1.3c1.2,0.9,1.8,2.2,1.8,4c0,1.7-0.6,3-1.7,4
		c-1.1,0.9-2.6,1.4-4.6,1.4h-6.9V424.3z M137.9,436.2c1.5,0,2.3-0.6,2.3-1.9c0-0.5-0.2-1-0.6-1.3c-0.4-0.3-0.9-0.5-1.6-0.5h-2.3v3.7
		H137.9z M146.3,424.3h4.3v15.5h-4.3V424.3z"/>
	<path class="st1" d="M155.2,437.8c-1.6-1.5-2.4-3.5-2.4-5.8c0-2.3,0.8-4.2,2.3-5.7c1.6-1.6,3.5-2.3,5.9-2.3c2.8,0,4.9,1.1,6.5,3.3
		l-3.2,2.4c-1-1.2-2.1-1.8-3.4-1.8c-1.1,0-2,0.4-2.7,1.2c-0.7,0.8-1,1.8-1,3c0,1.2,0.3,2.2,1,3c0.7,0.8,1.6,1.2,2.7,1.2
		c1.3,0,2.5-0.6,3.5-1.9l3.2,2.3c-1.7,2.3-4,3.5-6.9,3.5C158.6,440.1,156.7,439.3,155.2,437.8z"/>
	<path class="st1" d="M169.6,424.3h4.3v4.9h2.4c1.9,0,3.5,0.4,4.6,1.3c1.2,0.9,1.8,2.2,1.8,4c0,1.7-0.6,3-1.7,4
		c-1.1,0.9-2.6,1.4-4.6,1.4h-6.9V424.3z M176.1,436.2c1.5,0,2.3-0.6,2.3-1.9c0-0.5-0.2-1-0.6-1.3c-0.4-0.3-0.9-0.5-1.6-0.5h-2.3v3.7
		H176.1z M184.5,424.3h4.3v15.5h-4.3V424.3z"/>
	<path class="st1" d="M205.7,424.3V436h1.8l-0.5,6.8h-3.6v-3.1h-1.9v-5.9h-5.5v5.9h-4.3v-15.4h4.3v5.8h5.5v-5.8H205.7z"/>
	<path class="st1" d="M209.3,424.3h4.3v4.9h2.4c1.9,0,3.5,0.4,4.6,1.3c1.2,0.9,1.8,2.2,1.8,4c0,1.7-0.6,3-1.7,4
		c-1.1,0.9-2.6,1.4-4.6,1.4h-6.9V424.3z M215.9,436.2c1.5,0,2.3-0.6,2.3-1.9c0-0.5-0.2-1-0.6-1.3c-0.4-0.3-0.9-0.5-1.6-0.5h-2.3v3.7
		H215.9z M224.3,424.3h4.3v15.5h-4.3V424.3z"/>
	<path class="st1" d="M230.2,437.5l2.2-2.9c1.2,1.2,2.7,1.8,4.4,1.8c1.6,0,2.4-0.5,2.4-1.5c0-0.9-0.8-1.4-2.5-1.4h-1.6v-3.2h1.6
		c1.5,0,2.2-0.5,2.2-1.4c0-0.4-0.2-0.7-0.5-1c-0.4-0.3-0.8-0.4-1.4-0.4c-1.5,0-2.9,0.5-4,1.5l-2.1-2.5c1.8-1.8,4-2.6,6.5-2.6
		c1.7,0,3.1,0.4,4.2,1.2c1.1,0.8,1.6,1.8,1.6,3c0,1.6-0.8,2.8-2.3,3.5c1.8,0.6,2.7,1.8,2.7,3.6c0,1.4-0.5,2.6-1.6,3.4
		c-1.1,0.9-2.6,1.4-4.5,1.4C234.5,440.1,232.1,439.2,230.2,437.5z"/>
</g>
</svg>
