<?xml version="1.0" encoding="utf-8"?>
<!-- Generator: Adobe Illustrator 25.2.3, SVG Export Plug-In . SVG Version: 6.00 Build 0)  -->
<svg version="1.1" id="Layer_2_1_" xmlns="http://www.w3.org/2000/svg" xmlns:xlink="http://www.w3.org/1999/xlink" x="0px" y="0px"
	 viewBox="0 0 300 600" style="enable-background:new 0 0 300 600;" xml:space="preserve">
<style type="text/css">
	.st0{fill:#FDDF6B;}
	.st1{fill:#FFFFFF;}
</style>
<g>
	<path class="st0" d="M17.2,347L40,329.6c5.2-3.9,7.8-7.6,7.8-10.9c0-4.1-2.3-6.2-6.8-6.2c-3.5,0-7.5,2.6-12.1,7.8l-11.4-9.5
		c6.7-8.7,15-13,24.8-13c6.7,0,12,1.8,16.2,5.4s6.3,8.4,6.3,14.2c0,4.6-1.2,8.5-3.6,11.9c-2,2.7-5.4,5.8-10.4,9.4L40.4,346h25.1
		v13.7H17.2V347z"/>
</g>
<g>
	<path class="st1" d="M88.4,291.7h1.9l5.2,11.9h-2.2l-1.2-2.9h-5.6l-1.2,2.9h-2.1L88.4,291.7z M91.4,298.9l-2-4.7l-2,4.7H91.4z"/>
	<path class="st1" d="M96,303.6l0.2-1.7c0.2,0,0.4,0.1,0.6,0.1c0.6,0,1-0.4,1.2-1.1c0.3-1,0.5-3.1,0.5-6.2h6.7v8.9h-2v-7.2h-2.8
		c0,3-0.3,5-0.9,6.1c-0.4,0.8-1.2,1.2-2.3,1.2C96.9,303.7,96.5,303.6,96,303.6z"/>
	<path class="st1" d="M114.5,294.7v1.8h-4.3v2.2h3.2v1.6h-3.2v3.3h-2.1v-3.3h-1.3v-1.6h1.3v-4H114.5z"/>
	<path class="st1" d="M121.5,303.6v-1.1c-0.7,0.9-1.7,1.3-2.9,1.3c-0.9,0-1.6-0.2-2.2-0.7c-0.6-0.5-1-1.2-1-2.1c0-1,0.3-1.7,1-2.2
		c0.6-0.5,1.5-0.7,2.6-0.7c0.9,0,1.7,0.1,2.5,0.4v-0.2c0-1.3-0.7-1.9-2.2-1.9c-0.8,0-1.7,0.2-2.5,0.6l-0.6-1.6
		c1.1-0.5,2.2-0.7,3.4-0.7c2.6,0,3.9,1.3,3.9,3.8v5.3H121.5z M121.5,299.9c-0.6-0.2-1.3-0.4-2-0.4c-1.4,0-2,0.5-2,1.4
		c0,0.4,0.2,0.7,0.5,1c0.3,0.2,0.7,0.3,1.2,0.3c0.7,0,1.2-0.2,1.7-0.5c0.5-0.3,0.7-0.8,0.7-1.4V299.9z"/>
	<path class="st1" d="M125.9,294.7h2v7.2h3.3v-7.2h2v7.2h3.3v-7.2h2v8.9h-12.7V294.7z"/>
	<path class="st1" d="M149.6,294.7l-3.5,3.7l2.6,3.5h1.5l-0.2,3.6h-1.4v-2h-1.1l-2.7-3.7l-1.5,1.5v2.1h-2v-8.9h2v4.3l3.9-4.3H149.6z
		"/>
	<path class="st1" d="M151.7,294.7h2v3.1h1.9c1.1,0,1.9,0.2,2.5,0.7c0.7,0.5,1,1.2,1,2.1c0,0.9-0.3,1.6-0.9,2.2
		c-0.6,0.5-1.4,0.8-2.5,0.8h-4.1V294.7z M155.5,301.9c1.1,0,1.6-0.4,1.6-1.3c0-0.8-0.6-1.2-1.7-1.2h-1.7v2.6H155.5z M160.5,294.7h2
		v8.9h-2V294.7z"/>
	<path class="st1" d="M171,302.4c-0.9-0.9-1.3-2-1.3-3.3v0c0-1.3,0.4-2.4,1.3-3.3c0.9-0.9,2-1.4,3.3-1.4c1.4,0,2.6,0.5,3.6,1.5
		l-1.3,1.4c-0.7-0.7-1.5-1.1-2.3-1.1c-0.7,0-1.3,0.3-1.8,0.8c-0.5,0.6-0.7,1.2-0.7,2v0c0,0.8,0.2,1.5,0.7,2c0.5,0.6,1.1,0.8,1.9,0.8
		c0.8,0,1.6-0.4,2.3-1.1l1.2,1.2c-1,1.1-2.2,1.7-3.6,1.7C173,303.8,171.9,303.3,171,302.4z"/>
	<path class="st1" d="M185.2,303.6v-1.1c-0.7,0.9-1.7,1.3-2.9,1.3c-0.9,0-1.6-0.2-2.2-0.7c-0.6-0.5-1-1.2-1-2.1c0-1,0.3-1.7,1-2.2
		c0.6-0.5,1.5-0.7,2.6-0.7c0.9,0,1.7,0.1,2.5,0.4v-0.2c0-1.3-0.7-1.9-2.2-1.9c-0.8,0-1.7,0.2-2.5,0.6l-0.6-1.6
		c1.1-0.5,2.2-0.7,3.4-0.7c2.6,0,3.9,1.3,3.9,3.8v5.3H185.2z M185.2,299.9c-0.6-0.2-1.3-0.4-2-0.4c-1.4,0-2,0.5-2,1.4
		c0,0.4,0.2,0.7,0.5,1c0.3,0.2,0.7,0.3,1.2,0.3c0.7,0,1.2-0.2,1.7-0.5c0.5-0.3,0.7-0.8,0.7-1.4V299.9z"/>
	<path class="st1" d="M191.5,296.4h-2.9v-1.8h7.8v1.8h-2.9v7.2h-2.1V296.4z"/>
	<path class="st1" d="M198.1,294.7h2v3.1h1.9c1.1,0,1.9,0.2,2.5,0.7c0.7,0.5,1,1.2,1,2.1c0,0.9-0.3,1.6-0.9,2.2
		c-0.6,0.5-1.4,0.8-2.5,0.8h-4.1V294.7z M201.9,301.9c1.1,0,1.6-0.4,1.6-1.3c0-0.8-0.6-1.2-1.7-1.2h-1.7v2.6H201.9z M206.9,294.7h2
		v8.9h-2V294.7z"/>
	<path class="st1" d="M211.5,294.7h8v8.9h-2v-7.2h-3.9v7.2h-2V294.7z"/>
	<path class="st1" d="M89.4,322.9v-1.1c-0.7,0.9-1.7,1.3-2.9,1.3c-0.9,0-1.6-0.2-2.2-0.7c-0.6-0.5-1-1.2-1-2.1c0-1,0.3-1.7,1-2.2
		c0.6-0.5,1.5-0.7,2.6-0.7c0.9,0,1.7,0.1,2.5,0.4v-0.2c0-1.3-0.7-1.9-2.2-1.9c-0.8,0-1.7,0.2-2.5,0.6l-0.6-1.6
		c1.1-0.5,2.2-0.7,3.4-0.7c2.6,0,3.9,1.3,3.9,3.8v5.3H89.4z M89.5,319.2c-0.6-0.2-1.3-0.4-2-0.4c-1.4,0-2,0.5-2,1.4
		c0,0.4,0.2,0.7,0.5,1c0.3,0.2,0.7,0.3,1.2,0.3c0.7,0,1.2-0.2,1.7-0.5c0.5-0.3,0.7-0.8,0.7-1.4V319.2z"/>
	<path class="st1" d="M92.6,322.9l0.2-1.7c0.2,0,0.4,0.1,0.6,0.1c0.6,0,1-0.4,1.2-1.1c0.3-1,0.5-3.1,0.5-6.2h6.7v8.9h-2v-7.2H97
		c0,3-0.3,5-0.9,6.1c-0.4,0.8-1.2,1.2-2.3,1.2C93.5,323,93.1,322.9,92.6,322.9z"/>
	<path class="st1" d="M104.1,325.1l0.7-1.5c0.4,0.2,0.8,0.3,1.2,0.3c0.5,0,1-0.3,1.3-1l-3.7-8.9h2.2l2.5,6.6l2.3-6.6h2.1l-3.5,9.2
		c-0.4,0.9-0.8,1.6-1.2,1.9c-0.4,0.4-1,0.6-1.7,0.6C105.5,325.6,104.8,325.5,104.1,325.1z"/>
	<path class="st1" d="M114.5,314h2v3.1h1.9c1.1,0,1.9,0.2,2.5,0.7c0.7,0.5,1,1.2,1,2.1c0,0.9-0.3,1.6-0.9,2.2
		c-0.6,0.5-1.4,0.8-2.5,0.8h-4.1V314z M118.3,321.2c1.1,0,1.6-0.4,1.6-1.3c0-0.8-0.6-1.2-1.7-1.2h-1.7v2.6H118.3z M123.3,314h2v8.9
		h-2V314z"/>
	<path class="st1" d="M135.9,314v7.1h1.3l-0.3,3.9h-1.7v-2.1h-1.3v-3.6h-3.9v3.6h-2V314h2v3.6h3.9V314H135.9z"/>
	<path class="st1" d="M138.6,314h2v3.1h1.9c1.1,0,1.9,0.2,2.5,0.7c0.7,0.5,1,1.2,1,2.1c0,0.9-0.3,1.6-0.9,2.2
		c-0.6,0.5-1.4,0.8-2.5,0.8h-4.1V314z M142.4,321.2c1.1,0,1.6-0.4,1.6-1.3c0-0.8-0.6-1.2-1.7-1.2h-1.7v2.6H142.4z M147.5,314h2v8.9
		h-2V314z"/>
	<path class="st1" d="M151.2,321.7l1-1.4c0.8,0.7,1.8,1.1,2.8,1.1c0.5,0,0.9-0.1,1.2-0.3c0.3-0.2,0.5-0.5,0.5-0.9
		c0-0.7-0.6-1.1-1.8-1.1h-1.1v-1.5h1.1c0.5,0,0.9-0.1,1.1-0.3c0.3-0.2,0.4-0.5,0.4-0.8c0-0.3-0.1-0.6-0.4-0.7
		c-0.3-0.2-0.6-0.3-1-0.3c-1,0-1.8,0.3-2.5,0.9l-0.9-1.3c1-0.9,2.2-1.3,3.6-1.3c1,0,1.8,0.2,2.4,0.7c0.6,0.5,0.9,1,0.9,1.7
		c0,0.9-0.5,1.6-1.4,2c1.1,0.4,1.6,1.1,1.6,2.2c0,0.8-0.3,1.4-1,1.9c-0.7,0.5-1.5,0.8-2.6,0.8C153.6,323.1,152.3,322.6,151.2,321.7z
		"/>
	<path class="st1" d="M159.8,321.1h1c0.7-1.3,1-3.3,1-6.1V314h6.9v7.2h1.3l-0.3,3.9h-1.7v-2.1h-6.2l-0.2,2.1h-1.7V321.1z
		 M166.6,321.1v-5.4h-2.9v1.2c0,1.7-0.3,3.1-0.8,4.2H166.6z"/>
	<path class="st1" d="M177.1,322.9v-1.1c-0.7,0.9-1.7,1.3-2.9,1.3c-0.9,0-1.6-0.2-2.2-0.7c-0.6-0.5-1-1.2-1-2.1c0-1,0.3-1.7,1-2.2
		c0.6-0.5,1.5-0.7,2.6-0.7c0.9,0,1.7,0.1,2.5,0.4v-0.2c0-1.3-0.7-1.9-2.2-1.9c-0.8,0-1.7,0.2-2.5,0.6l-0.6-1.6
		c1.1-0.5,2.2-0.7,3.4-0.7c2.6,0,3.9,1.3,3.9,3.8v5.3H177.1z M177.1,319.2c-0.6-0.2-1.3-0.4-2-0.4c-1.4,0-2,0.5-2,1.4
		c0,0.4,0.2,0.7,0.5,1c0.3,0.2,0.7,0.3,1.2,0.3c0.7,0,1.2-0.2,1.7-0.5c0.5-0.3,0.7-0.8,0.7-1.4V319.2z"/>
	<path class="st1" d="M181.5,314h2v3.6h3.9V314h2v8.9h-2v-3.6h-3.9v3.6h-2V314z"/>
	<path class="st1" d="M196.1,321h1.1c1-2,1.5-4.7,1.5-8.3v-1.7h8.2v10h1.5l-0.3,4.4h-1.7v-2.5h-8.3l-0.2,2.5h-1.8V321z M204.9,321
		v-8.1h-4.2v1.4c0,2.8-0.4,5-1.3,6.7H204.9z"/>
	<path class="st1" d="M210.3,311.1h2.2l3.6,5.6l3.6-5.6h2.2v11.8h-2.1v-8.5l-3.7,5.6H216l-3.7-5.5v8.4h-2V311.1z"/>
	<path class="st1" d="M84.9,341c-0.8-0.9-1.2-2.2-1.2-3.8c0-1.7,0.2-3,0.6-3.9c0.5-1.2,1.5-2,3-2.3l4.9-1l0.3,1.6l-4.9,1.1
		c-1.5,0.3-2.2,1.2-2.3,2.5c0.7-1.1,1.8-1.7,3.4-1.7c1.2,0,2.2,0.4,3,1.2c0.8,0.8,1.3,1.9,1.3,3.1c0,1.2-0.4,2.3-1.3,3.2
		c-0.9,0.9-2,1.4-3.3,1.4C86.8,342.4,85.7,341.9,84.9,341z M90.2,339.8c0.5-0.5,0.7-1.2,0.7-1.9c0-0.8-0.2-1.4-0.7-1.9
		c-0.5-0.5-1.1-0.8-1.9-0.8c-0.7,0-1.4,0.3-1.8,0.8c-0.5,0.5-0.7,1.2-0.7,2c0,0.8,0.2,1.4,0.7,1.9c0.5,0.5,1.1,0.8,1.8,0.8
		C89.1,340.6,89.7,340.3,90.2,339.8z"/>
	<path class="st1" d="M95.9,341c-0.9-0.9-1.4-2-1.4-3.3c0-1.3,0.5-2.4,1.4-3.3c0.9-0.9,2.1-1.4,3.4-1.4s2.5,0.5,3.4,1.4
		c0.9,0.9,1.4,2,1.4,3.3c0,1.3-0.5,2.4-1.4,3.3c-0.9,0.9-2.1,1.4-3.4,1.4C97.9,342.4,96.8,341.9,95.9,341z M101.3,339.8
		c0.5-0.5,0.7-1.2,0.7-2c0-0.8-0.3-1.5-0.8-2c-0.5-0.6-1.2-0.8-2-0.8c-0.8,0-1.5,0.3-2,0.8c-0.5,0.5-0.7,1.2-0.7,2
		c0,0.8,0.3,1.5,0.8,2c0.5,0.6,1.2,0.9,2,0.9C100.1,340.6,100.7,340.3,101.3,339.8z"/>
	<path class="st1" d="M106.1,333.3h2v3.6h3.9v-3.6h2v8.9h-2v-3.6h-3.9v3.6h-2V333.3z"/>
	<path class="st1" d="M116.4,344.4l0.7-1.5c0.4,0.2,0.8,0.3,1.2,0.3c0.5,0,1-0.3,1.3-1l-3.7-8.9h2.2l2.5,6.6l2.3-6.6h2.1l-3.5,9.2
		c-0.4,0.9-0.8,1.6-1.2,1.9c-0.4,0.4-1,0.6-1.7,0.6C117.8,344.9,117.1,344.8,116.4,344.4z"/>
	<path class="st1" d="M127.1,341c-0.9-0.9-1.3-2-1.3-3.3v0c0-1.3,0.4-2.4,1.3-3.3c0.9-0.9,2-1.4,3.3-1.4c1.4,0,2.6,0.5,3.6,1.5
		l-1.3,1.4c-0.7-0.7-1.5-1.1-2.3-1.1c-0.7,0-1.3,0.3-1.8,0.8c-0.5,0.6-0.7,1.2-0.7,2v0c0,0.8,0.2,1.5,0.7,2c0.5,0.6,1.1,0.8,1.9,0.8
		c0.8,0,1.6-0.4,2.3-1.1l1.2,1.2c-1,1.1-2.2,1.7-3.6,1.7C129.1,342.4,128,341.9,127.1,341z"/>
	<path class="st1" d="M137.7,335h-2.9v-1.8h7.8v1.8h-2.9v7.2h-2.1V335z"/>
	<path class="st1" d="M144.3,333.3h2v3.1h1.9c1.1,0,1.9,0.2,2.5,0.7c0.7,0.5,1,1.2,1,2.1c0,0.9-0.3,1.6-0.9,2.2
		c-0.6,0.5-1.4,0.8-2.5,0.8h-4.1V333.3z M148.1,340.5c1.1,0,1.6-0.4,1.6-1.3c0-0.8-0.6-1.2-1.7-1.2h-1.7v2.6H148.1z M153.1,333.3h2
		v8.9h-2V333.3z"/>
	<path class="st1" d="M166.1,333.3l-3.5,3.7l2.6,3.5h1.5l-0.2,3.6h-1.4v-2h-1.1l-2.7-3.7l-1.5,1.5v2.1h-2v-8.9h2v4.3l3.9-4.3H166.1z
		"/>
	<path class="st1" d="M173.2,333.3h2v4.3l3.9-4.3h2.4l-3.5,3.7l3.7,5.2h-2.4l-2.7-3.7l-1.5,1.5v2.1h-2V333.3z"/>
	<path class="st1" d="M188.3,342.2v-1.1c-0.7,0.9-1.7,1.3-2.9,1.3c-0.9,0-1.6-0.2-2.2-0.7c-0.6-0.5-1-1.2-1-2.1c0-1,0.3-1.7,1-2.2
		c0.6-0.5,1.5-0.7,2.6-0.7c0.9,0,1.7,0.1,2.5,0.4v-0.2c0-1.3-0.7-1.9-2.2-1.9c-0.8,0-1.7,0.2-2.5,0.6l-0.6-1.6
		c1.1-0.5,2.2-0.7,3.4-0.7c2.6,0,3.9,1.3,3.9,3.8v5.3H188.3z M188.4,338.5c-0.6-0.2-1.3-0.4-2-0.4c-1.4,0-2,0.5-2,1.4
		c0,0.4,0.2,0.7,0.5,1c0.3,0.2,0.7,0.3,1.2,0.3c0.7,0,1.2-0.2,1.7-0.5c0.5-0.3,0.7-0.8,0.7-1.4V338.5z"/>
	<path class="st1" d="M192.8,333.3h2v1.5c0.8-1.1,1.8-1.7,3-1.7c1.1,0,2.1,0.4,2.9,1.2c0.9,0.9,1.3,2,1.3,3.4c0,1.4-0.4,2.6-1.3,3.4
		c-0.8,0.8-1.7,1.2-2.9,1.2c-1.2,0-2.2-0.5-3-1.6v4.1h-2V333.3z M199.2,339.8c0.5-0.5,0.7-1.2,0.7-2.1c0-0.8-0.3-1.5-0.8-2.1
		c-0.5-0.5-1.1-0.8-1.8-0.8c-0.7,0-1.3,0.3-1.8,0.8c-0.5,0.6-0.8,1.2-0.8,2.1c0,0.8,0.3,1.5,0.8,2.1c0.5,0.5,1.1,0.8,1.8,0.8
		C198.1,340.6,198.7,340.3,199.2,339.8z"/>
	<path class="st1" d="M205.7,335h-2.9v-1.8h7.8v1.8h-2.9v7.2h-2.1V335z"/>
	<path class="st1" d="M217.4,342.2v-1.1c-0.7,0.9-1.7,1.3-2.9,1.3c-0.9,0-1.6-0.2-2.2-0.7c-0.6-0.5-1-1.2-1-2.1c0-1,0.3-1.7,1-2.2
		c0.6-0.5,1.5-0.7,2.6-0.7c0.9,0,1.7,0.1,2.5,0.4v-0.2c0-1.3-0.7-1.9-2.2-1.9c-0.8,0-1.7,0.2-2.5,0.6l-0.6-1.6
		c1.1-0.5,2.2-0.7,3.4-0.7c2.6,0,3.9,1.3,3.9,3.8v5.3H217.4z M217.4,338.5c-0.6-0.2-1.3-0.4-2-0.4c-1.4,0-2,0.5-2,1.4
		c0,0.4,0.2,0.7,0.5,1c0.3,0.2,0.7,0.3,1.2,0.3c0.7,0,1.2-0.2,1.7-0.5c0.5-0.3,0.7-0.8,0.7-1.4V338.5z"/>
	<path class="st1" d="M229.8,333.3v7.1h1.3l-0.3,3.9h-1.7v-2.1h-1.3v-3.6h-3.9v3.6h-2v-8.9h2v3.6h3.9v-3.6H229.8z"/>
	<path class="st1" d="M232.6,333.3h2v3.1h1.9c1.1,0,1.9,0.2,2.5,0.7c0.7,0.5,1,1.2,1,2.1c0,0.9-0.3,1.6-0.9,2.2
		c-0.6,0.5-1.4,0.8-2.5,0.8h-4.1V333.3z M236.4,340.5c1.1,0,1.6-0.4,1.6-1.3c0-0.8-0.6-1.2-1.7-1.2h-1.7v2.6H236.4z M241.4,333.3h2
		v8.9h-2V333.3z"/>
	<path class="st1" d="M245.1,341l1-1.4c0.8,0.7,1.8,1.1,2.8,1.1c0.5,0,0.9-0.1,1.2-0.3c0.3-0.2,0.5-0.5,0.5-0.9
		c0-0.7-0.6-1.1-1.8-1.1h-1.1v-1.5h1.1c0.5,0,0.9-0.1,1.1-0.3c0.3-0.2,0.4-0.5,0.4-0.8c0-0.3-0.1-0.6-0.4-0.7
		c-0.3-0.2-0.6-0.3-1-0.3c-1,0-1.8,0.3-2.5,0.9l-0.9-1.3c1-0.9,2.2-1.3,3.6-1.3c1,0,1.8,0.2,2.4,0.7c0.6,0.5,0.9,1,0.9,1.7
		c0,0.9-0.5,1.6-1.4,2c1.1,0.4,1.6,1.1,1.6,2.2c0,0.8-0.3,1.4-1,1.9c-0.7,0.5-1.5,0.8-2.6,0.8C247.5,342.4,246.2,341.9,245.1,341z"
		/>
	<path class="st1" d="M261.4,333.3v1.8h-4.3v2.2h3.2v1.6h-3.2v3.3H255v-3.3h-1.3v-1.6h1.3v-4H261.4z"/>
	<path class="st1" d="M268.4,342.2v-1.1c-0.7,0.9-1.7,1.3-2.9,1.3c-0.9,0-1.6-0.2-2.2-0.7c-0.6-0.5-1-1.2-1-2.1c0-1,0.3-1.7,1-2.2
		c0.6-0.5,1.5-0.7,2.6-0.7c0.9,0,1.7,0.1,2.5,0.4v-0.2c0-1.3-0.7-1.9-2.2-1.9c-0.8,0-1.7,0.2-2.5,0.6l-0.6-1.6
		c1.1-0.5,2.2-0.7,3.4-0.7c2.6,0,3.9,1.3,3.9,3.8v5.3H268.4z M268.5,338.5c-0.6-0.2-1.3-0.4-2-0.4c-1.4,0-2,0.5-2,1.4
		c0,0.4,0.2,0.7,0.5,1c0.3,0.2,0.7,0.3,1.2,0.3c0.7,0,1.2-0.2,1.7-0.5c0.5-0.3,0.7-0.8,0.7-1.4V338.5z"/>
	<path class="st1" d="M83.1,363.2l2.5-2.9c1.3,1.1,2.6,1.7,3.8,1.7c1.5,0,2.3-0.6,2.3-1.9c0-0.5-0.2-1-0.6-1.3
		c-0.4-0.3-1-0.5-1.6-0.5c-0.8,0-1.6,0.3-2.5,0.8l-2.6-1.4l0.4-7.9h10.4v3.6h-7l-0.1,2.4c0.8-0.4,1.6-0.6,2.5-0.6
		c1.5,0,2.7,0.4,3.7,1.2c1.1,0.9,1.6,2.2,1.6,3.8c0,1.7-0.6,3.1-1.8,4.1c-1.2,1-2.7,1.5-4.6,1.5C87,365.7,84.9,364.9,83.1,363.2z"/>
	<path class="st1" d="M99.5,363.3c-1.3-1.5-1.9-3.4-1.9-5.7c0-2.3,0.7-4.2,2-5.7c1.4-1.6,3.1-2.4,5.3-2.4c2.2,0,3.9,0.8,5.2,2.4
		c1.3,1.5,1.9,3.4,1.9,5.7c0,2.3-0.6,4.2-1.9,5.7c-1.4,1.6-3.1,2.4-5.3,2.4C102.6,365.7,100.8,364.9,99.5,363.3z M106.9,360.7
		c0.5-0.8,0.8-1.8,0.8-3.1c0-1.2-0.3-2.3-0.8-3.1c-0.5-0.8-1.2-1.2-2.1-1.2c-0.9,0-1.5,0.4-2.1,1.2c-0.5,0.8-0.8,1.8-0.8,3.1
		c0,1.3,0.3,2.3,0.8,3.1c0.5,0.8,1.2,1.2,2.1,1.2C105.6,361.9,106.3,361.5,106.9,360.7z"/>
	<path class="st1" d="M115.7,363.3c-1.3-1.5-1.9-3.4-1.9-5.7c0-2.3,0.7-4.2,2-5.7c1.4-1.6,3.1-2.4,5.3-2.4c2.2,0,3.9,0.8,5.2,2.4
		c1.3,1.5,1.9,3.4,1.9,5.7c0,2.3-0.6,4.2-1.9,5.7c-1.4,1.6-3.1,2.4-5.3,2.4C118.8,365.7,117,364.9,115.7,363.3z M123.1,360.7
		c0.5-0.8,0.8-1.8,0.8-3.1c0-1.2-0.3-2.3-0.8-3.1c-0.5-0.8-1.2-1.2-2.1-1.2c-0.9,0-1.5,0.4-2.1,1.2c-0.5,0.8-0.8,1.8-0.8,3.1
		c0,1.3,0.3,2.3,0.8,3.1c0.5,0.8,1.2,1.2,2.1,1.2C121.8,361.9,122.5,361.5,123.1,360.7z"/>
	<path class="st1" d="M135,357.4h-3.3v-3.2h10.4v3.2h-3.3v8H135V357.4z"/>
	<path class="st1" d="M131.8,352.7v-3.2h10.4v3.2H131.8z"/>
	<path class="st1" d="M156.1,349.7h4.2l6.6,15.6h-4.6l-1.1-2.8h-6l-1.1,2.8h-4.5L156.1,349.7z M159.9,359.3l-1.7-4.4l-1.8,4.4H159.9
		z"/>
	<path class="st1" d="M166.7,365.3l0.3-3.3c0.3,0.1,0.6,0.1,1,0.1c0.8,0,1.3-0.5,1.6-1.5c0.5-1.5,0.7-4.3,0.7-8.5v-2.2h11.9v15.5
		H178v-11.8h-3.6v0.6c0,4.4-0.5,7.5-1.4,9.3c-0.8,1.4-2,2.1-3.7,2.1C168.3,365.6,167.4,365.5,166.7,365.3z"/>
	<path class="st1" d="M185,349.9h4.3v4.9h2.4c1.9,0,3.5,0.4,4.6,1.3c1.2,0.9,1.8,2.2,1.8,4c0,1.7-0.6,3-1.7,4
		c-1.1,0.9-2.6,1.4-4.6,1.4H185V349.9z M191.6,361.8c1.5,0,2.3-0.6,2.3-1.9c0-0.5-0.2-1-0.6-1.3c-0.4-0.3-0.9-0.5-1.6-0.5h-2.3v3.7
		H191.6z M200,349.9h4.3v15.5H200V349.9z"/>
	<path class="st1" d="M221.1,349.9v11.7h1.8l-0.5,6.8h-3.6v-3.1h-1.9v-5.9h-5.5v5.9H207v-15.4h4.3v5.8h5.5v-5.8H221.1z"/>
	<path class="st1" d="M224.8,349.9h4.3v4.9h2.4c1.9,0,3.5,0.4,4.6,1.3c1.2,0.9,1.8,2.2,1.8,4c0,1.7-0.6,3-1.7,4
		c-1.1,0.9-2.6,1.4-4.6,1.4h-6.9V349.9z M231.3,361.8c1.5,0,2.3-0.6,2.3-1.9c0-0.5-0.2-1-0.6-1.3c-0.4-0.3-0.9-0.5-1.6-0.5h-2.3v3.7
		H231.3z M239.7,349.9h4.3v15.5h-4.3V349.9z"/>
	<path class="st1" d="M245.7,363.1l2.2-2.9c1.2,1.2,2.7,1.8,4.4,1.8c1.6,0,2.4-0.5,2.4-1.5c0-0.9-0.8-1.4-2.5-1.4h-1.6V356h1.6
		c1.5,0,2.2-0.5,2.2-1.4c0-0.4-0.2-0.7-0.5-1c-0.4-0.3-0.8-0.4-1.4-0.4c-1.5,0-2.9,0.5-4,1.5l-2.1-2.5c1.8-1.8,4-2.6,6.5-2.6
		c1.7,0,3.1,0.4,4.2,1.2c1.1,0.8,1.6,1.8,1.6,3c0,1.6-0.8,2.8-2.3,3.5c1.8,0.6,2.7,1.8,2.7,3.6c0,1.4-0.5,2.6-1.6,3.4
		c-1.1,0.9-2.6,1.4-4.5,1.4C250,365.7,247.6,364.8,245.7,363.1z"/>
</g>
</svg>
