<?xml version="1.0" encoding="utf-8"?>
<!-- Generator: Adobe Illustrator 25.2.3, SVG Export Plug-In . SVG Version: 6.00 Build 0)  -->
<svg version="1.1" id="Layer_1" xmlns="http://www.w3.org/2000/svg" xmlns:xlink="http://www.w3.org/1999/xlink" x="0px" y="0px"
	 viewBox="0 0 240 400" style="enable-background:new 0 0 240 400;" xml:space="preserve">
<style type="text/css">
	.st0{fill:#FDDF6B;}
	.st1{fill:#FFFFFF;}
</style>
<g>
	<g>
		<path class="st0" d="M19.9,224.5l17.1-13c3.9-2.9,5.8-5.7,5.8-8.2c0-3.1-1.7-4.6-5.1-4.6c-2.6,0-5.6,1.9-9.1,5.8l-8.5-7.1
			c5-6.5,11.2-9.7,18.6-9.7c5,0,9,1.3,12.1,4c3.1,2.7,4.7,6.3,4.7,10.6c0,3.4-0.9,6.4-2.7,8.9c-1.5,2-4,4.3-7.8,7l-7.8,5.5h18.8V234
			H19.9V224.5z"/>
	</g>
	<g>
		<path class="st1" d="M73.2,183.1h1.4l3.9,8.9h-1.6l-0.9-2.1h-4.2l-0.9,2.1h-1.6L73.2,183.1z M75.4,188.5l-1.5-3.5l-1.5,3.5H75.4z"
			/>
		<path class="st1" d="M78.9,192l0.1-1.3c0.1,0,0.3,0.1,0.4,0.1c0.5,0,0.8-0.3,0.9-0.8c0.2-0.8,0.4-2.3,0.4-4.6h5v6.7h-1.5v-5.4
			h-2.1c0,2.2-0.2,3.8-0.6,4.5c-0.3,0.6-0.9,0.9-1.7,0.9C79.6,192.1,79.3,192,78.9,192z"/>
		<path class="st1" d="M92.7,185.3v1.3h-3.2v1.7h2.4v1.2h-2.4v2.4h-1.5v-2.4h-1v-1.2h1v-3H92.7z"/>
		<path class="st1" d="M98,192v-0.8c-0.5,0.6-1.3,1-2.2,1c-0.7,0-1.2-0.2-1.7-0.5c-0.5-0.4-0.7-0.9-0.7-1.6c0-0.7,0.3-1.3,0.8-1.6
			c0.5-0.4,1.1-0.5,1.9-0.5c0.6,0,1.3,0.1,1.8,0.3V188c0-1-0.5-1.4-1.6-1.4c-0.6,0-1.2,0.1-1.9,0.4l-0.4-1.2
			c0.8-0.4,1.7-0.6,2.5-0.6c2,0,2.9,0.9,2.9,2.8v4H98z M98,189.2c-0.5-0.2-1-0.3-1.5-0.3c-1,0-1.5,0.4-1.5,1.1
			c0,0.3,0.1,0.5,0.4,0.7c0.2,0.2,0.5,0.3,0.9,0.3c0.5,0,0.9-0.1,1.3-0.4c0.3-0.3,0.5-0.6,0.5-1V189.2z"/>
		<path class="st1" d="M101.3,185.3h1.5v5.4h2.5v-5.4h1.5v5.4h2.5v-5.4h1.5v6.7h-9.5V185.3z"/>
		<path class="st1" d="M119,185.3l-2.6,2.8l1.9,2.6h1.1l-0.2,2.7h-1V192h-0.9l-2-2.8l-1.1,1.1v1.6h-1.5v-6.6h1.5v3.2l2.9-3.2H119z"
			/>
		<path class="st1" d="M120.5,185.3h1.5v2.3h1.4c0.8,0,1.4,0.2,1.9,0.5c0.5,0.4,0.8,0.9,0.8,1.6c0,0.7-0.2,1.2-0.7,1.6
			c-0.5,0.4-1.1,0.6-1.9,0.6h-3V185.3z M123.4,190.7c0.8,0,1.2-0.3,1.2-1c0-0.6-0.4-0.9-1.2-0.9h-1.3v1.9H123.4z M127.1,185.3h1.5
			v6.7h-1.5V185.3z"/>
		<path class="st1" d="M135,191.1c-0.7-0.7-1-1.5-1-2.4v0c0-1,0.3-1.8,1-2.5c0.7-0.7,1.5-1,2.5-1c1.1,0,2,0.4,2.7,1.1l-0.9,1
			c-0.5-0.6-1.1-0.8-1.7-0.8c-0.5,0-1,0.2-1.4,0.6c-0.4,0.4-0.5,0.9-0.5,1.5v0c0,0.6,0.2,1.1,0.6,1.5c0.4,0.4,0.9,0.6,1.4,0.6
			c0.6,0,1.2-0.3,1.7-0.8l0.9,0.9c-0.7,0.8-1.7,1.3-2.7,1.3C136.5,192.1,135.6,191.8,135,191.1z"/>
		<path class="st1" d="M145.6,192v-0.8c-0.5,0.6-1.3,1-2.2,1c-0.7,0-1.2-0.2-1.7-0.5c-0.5-0.4-0.7-0.9-0.7-1.6
			c0-0.7,0.3-1.3,0.8-1.6c0.5-0.4,1.1-0.5,1.9-0.5c0.6,0,1.3,0.1,1.8,0.3V188c0-1-0.5-1.4-1.6-1.4c-0.6,0-1.2,0.1-1.9,0.4l-0.4-1.2
			c0.8-0.4,1.7-0.6,2.5-0.6c2,0,2.9,0.9,2.9,2.8v4H145.6z M145.6,189.2c-0.5-0.2-1-0.3-1.5-0.3c-1,0-1.5,0.4-1.5,1.1
			c0,0.3,0.1,0.5,0.4,0.7c0.2,0.2,0.5,0.3,0.9,0.3c0.5,0,0.9-0.1,1.3-0.4c0.3-0.3,0.5-0.6,0.5-1V189.2z"/>
		<path class="st1" d="M150.4,186.6h-2.1v-1.3h5.8v1.3h-2.1v5.4h-1.5V186.6z"/>
		<path class="st1" d="M155.3,185.3h1.5v2.3h1.4c0.8,0,1.4,0.2,1.9,0.5c0.5,0.4,0.8,0.9,0.8,1.6c0,0.7-0.2,1.2-0.7,1.6
			c-0.5,0.4-1.1,0.6-1.9,0.6h-3V185.3z M158.1,190.7c0.8,0,1.2-0.3,1.2-1c0-0.6-0.4-0.9-1.2-0.9h-1.3v1.9H158.1z M161.9,185.3h1.5
			v6.7h-1.5V185.3z"/>
		<path class="st1" d="M165.3,185.3h6v6.7h-1.5v-5.4h-2.9v5.4h-1.5V185.3z"/>
		<path class="st1" d="M74,206.4v-0.8c-0.5,0.6-1.3,1-2.2,1c-0.7,0-1.2-0.2-1.7-0.5c-0.5-0.4-0.7-0.9-0.7-1.6c0-0.7,0.3-1.3,0.8-1.6
			c0.5-0.4,1.1-0.5,1.9-0.5c0.6,0,1.3,0.1,1.8,0.3v-0.1c0-1-0.5-1.4-1.6-1.4c-0.6,0-1.2,0.1-1.9,0.4l-0.4-1.2
			c0.8-0.4,1.7-0.6,2.5-0.6c2,0,2.9,0.9,2.9,2.8v4H74z M74,203.6c-0.5-0.2-1-0.3-1.5-0.3c-1,0-1.5,0.4-1.5,1.1
			c0,0.3,0.1,0.5,0.4,0.7c0.2,0.2,0.5,0.3,0.9,0.3c0.5,0,0.9-0.1,1.3-0.4c0.3-0.3,0.5-0.6,0.5-1V203.6z"/>
		<path class="st1" d="M76.4,206.4l0.1-1.3c0.1,0,0.3,0.1,0.4,0.1c0.5,0,0.8-0.3,0.9-0.8c0.2-0.8,0.4-2.3,0.4-4.6h5v6.7h-1.5v-5.4
			h-2.1c0,2.2-0.2,3.8-0.6,4.5c-0.3,0.6-0.9,0.9-1.7,0.9C77,206.5,76.7,206.5,76.4,206.4z"/>
		<path class="st1" d="M85,208.1l0.5-1.1c0.3,0.2,0.6,0.3,0.9,0.3c0.4,0,0.7-0.3,0.9-0.8l-2.8-6.7h1.6l1.9,5l1.7-5h1.6l-2.7,6.9
			c-0.3,0.7-0.6,1.2-0.9,1.4c-0.3,0.3-0.8,0.4-1.3,0.4C86,208.5,85.5,208.3,85,208.1z"/>
		<path class="st1" d="M92.7,199.7h1.5v2.3h1.4c0.8,0,1.4,0.2,1.9,0.5c0.5,0.4,0.8,0.9,0.8,1.6c0,0.7-0.2,1.2-0.7,1.6
			c-0.5,0.4-1.1,0.6-1.9,0.6h-3V199.7z M95.5,205.2c0.8,0,1.2-0.3,1.2-1c0-0.6-0.4-0.9-1.2-0.9h-1.3v1.9H95.5z M99.3,199.7h1.5v6.7
			h-1.5V199.7z"/>
		<path class="st1" d="M108.7,199.8v5.3h0.9l-0.2,2.9h-1.3v-1.6h-1v-2.7h-2.9v2.7h-1.5v-6.6h1.5v2.7h2.9v-2.7H108.7z"/>
		<path class="st1" d="M110.8,199.7h1.5v2.3h1.4c0.8,0,1.4,0.2,1.9,0.5c0.5,0.4,0.8,0.9,0.8,1.6c0,0.7-0.2,1.2-0.7,1.6
			c-0.5,0.4-1.1,0.6-1.9,0.6h-3V199.7z M113.6,205.2c0.8,0,1.2-0.3,1.2-1c0-0.6-0.4-0.9-1.2-0.9h-1.3v1.9H113.6z M117.4,199.7h1.5
			v6.7h-1.5V199.7z"/>
		<path class="st1" d="M120.2,205.5l0.7-1c0.6,0.5,1.3,0.8,2.1,0.8c0.4,0,0.7-0.1,0.9-0.3c0.2-0.2,0.4-0.4,0.4-0.7
			c0-0.6-0.5-0.8-1.4-0.8h-0.8v-1.1h0.8c0.4,0,0.6-0.1,0.9-0.3c0.2-0.2,0.3-0.4,0.3-0.6c0-0.2-0.1-0.4-0.3-0.6
			c-0.2-0.1-0.5-0.2-0.8-0.2c-0.7,0-1.4,0.2-1.9,0.7l-0.7-1c0.7-0.6,1.6-1,2.7-1c0.7,0,1.3,0.2,1.8,0.5c0.5,0.3,0.7,0.8,0.7,1.3
			c0,0.7-0.3,1.2-1,1.5c0.8,0.3,1.2,0.8,1.2,1.6c0,0.6-0.2,1.1-0.7,1.4c-0.5,0.4-1.2,0.6-1.9,0.6C122,206.6,121,206.2,120.2,205.5z"
			/>
		<path class="st1" d="M126.6,205.1h0.7c0.5-1,0.7-2.5,0.7-4.5v-0.8h5.2v5.4h0.9L134,208h-1.3v-1.6H128l-0.2,1.6h-1.3V205.1z
			 M131.7,205.1v-4h-2.2v0.9c0,1.2-0.2,2.3-0.6,3.2H131.7z"/>
		<path class="st1" d="M139.5,206.4v-0.8c-0.5,0.6-1.3,1-2.2,1c-0.7,0-1.2-0.2-1.7-0.5c-0.5-0.4-0.7-0.9-0.7-1.6
			c0-0.7,0.3-1.3,0.8-1.6c0.5-0.4,1.1-0.5,1.9-0.5c0.6,0,1.3,0.1,1.8,0.3v-0.1c0-1-0.5-1.4-1.6-1.4c-0.6,0-1.2,0.1-1.9,0.4l-0.4-1.2
			c0.8-0.4,1.7-0.6,2.5-0.6c2,0,2.9,0.9,2.9,2.8v4H139.5z M139.6,203.6c-0.5-0.2-1-0.3-1.5-0.3c-1,0-1.5,0.4-1.5,1.1
			c0,0.3,0.1,0.5,0.4,0.7c0.2,0.2,0.5,0.3,0.9,0.3c0.5,0,0.9-0.1,1.3-0.4c0.3-0.3,0.5-0.6,0.5-1V203.6z"/>
		<path class="st1" d="M142.9,199.7h1.5v2.7h2.9v-2.7h1.5v6.7h-1.5v-2.7h-2.9v2.7h-1.5V199.7z"/>
		<path class="st1" d="M153.8,205h0.9c0.7-1.5,1.1-3.6,1.1-6.2v-1.3h6.2v7.5h1.1l-0.2,3.3h-1.3v-1.9h-6.2l-0.2,1.9h-1.4V205z
			 M160.4,205V199h-3.1v1c0,2.1-0.3,3.7-1,5H160.4z"/>
		<path class="st1" d="M164.4,197.6h1.7l2.7,4.2l2.7-4.2h1.7v8.8h-1.6v-6.3l-2.8,4.2h-0.1l-2.8-4.1v6.3h-1.5V197.6z"/>
		<path class="st1" d="M70.6,220c-0.6-0.7-0.9-1.6-0.9-2.9c0-1.3,0.1-2.3,0.4-2.9c0.4-0.9,1.1-1.5,2.2-1.7l3.6-0.8l0.3,1.2l-3.6,0.8
			c-1.1,0.2-1.7,0.9-1.8,1.9c0.5-0.8,1.3-1.3,2.6-1.3c0.9,0,1.6,0.3,2.2,0.9c0.6,0.6,0.9,1.4,0.9,2.3c0,0.9-0.3,1.7-1,2.4
			c-0.7,0.7-1.5,1-2.5,1C72,221,71.2,220.7,70.6,220z M74.5,219.1c0.4-0.4,0.5-0.9,0.5-1.5c0-0.6-0.2-1.1-0.6-1.5
			c-0.4-0.4-0.8-0.6-1.4-0.6c-0.6,0-1,0.2-1.4,0.6c-0.4,0.4-0.5,0.9-0.5,1.5c0,0.6,0.2,1.1,0.6,1.5c0.4,0.4,0.8,0.6,1.4,0.6
			C73.7,219.7,74.2,219.5,74.5,219.1z"/>
		<path class="st1" d="M78.8,220c-0.7-0.7-1-1.5-1-2.5c0-1,0.3-1.8,1-2.5c0.7-0.7,1.5-1,2.6-1s1.9,0.3,2.5,1c0.7,0.7,1,1.5,1,2.5
			c0,1-0.3,1.8-1,2.5c-0.7,0.7-1.5,1-2.6,1C80.3,221,79.5,220.7,78.8,220z M82.8,219c0.4-0.4,0.5-0.9,0.5-1.5c0-0.6-0.2-1.1-0.6-1.5
			c-0.4-0.4-0.9-0.6-1.5-0.6c-0.6,0-1.1,0.2-1.5,0.6c-0.4,0.4-0.5,0.9-0.5,1.5c0,0.6,0.2,1.1,0.6,1.5c0.4,0.4,0.9,0.6,1.5,0.6
			C82,219.7,82.4,219.5,82.8,219z"/>
		<path class="st1" d="M86.5,214.2H88v2.7h2.9v-2.7h1.5v6.7h-1.5v-2.7H88v2.7h-1.5V214.2z"/>
		<path class="st1" d="M94.2,222.5l0.5-1.1c0.3,0.2,0.6,0.3,0.9,0.3c0.4,0,0.7-0.3,0.9-0.8l-2.8-6.7h1.6l1.9,5l1.7-5h1.6l-2.7,6.9
			c-0.3,0.7-0.6,1.2-0.9,1.4c-0.3,0.3-0.8,0.4-1.3,0.4C95.2,222.9,94.7,222.8,94.2,222.5z"/>
		<path class="st1" d="M102.1,220c-0.7-0.7-1-1.5-1-2.4v0c0-1,0.3-1.8,1-2.5c0.7-0.7,1.5-1,2.5-1c1.1,0,2,0.4,2.7,1.1l-0.9,1
			c-0.5-0.6-1.1-0.8-1.7-0.8c-0.5,0-1,0.2-1.4,0.6c-0.4,0.4-0.5,0.9-0.5,1.5v0c0,0.6,0.2,1.1,0.6,1.5c0.4,0.4,0.9,0.6,1.4,0.6
			c0.6,0,1.2-0.3,1.7-0.8l0.9,0.9c-0.7,0.8-1.7,1.3-2.7,1.3C103.6,221,102.8,220.7,102.1,220z"/>
		<path class="st1" d="M110.1,215.5H108v-1.3h5.8v1.3h-2.1v5.4h-1.5V215.5z"/>
		<path class="st1" d="M115,214.2h1.5v2.3h1.4c0.8,0,1.4,0.2,1.9,0.5c0.5,0.4,0.8,0.9,0.8,1.6c0,0.7-0.2,1.2-0.7,1.6
			c-0.5,0.4-1.1,0.6-1.9,0.6h-3V214.2z M117.8,219.6c0.8,0,1.2-0.3,1.2-1c0-0.6-0.4-0.9-1.2-0.9h-1.3v1.9H117.8z M121.6,214.2h1.5
			v6.7h-1.5V214.2z"/>
		<path class="st1" d="M131.3,214.2l-2.6,2.8l1.9,2.6h1.1l-0.2,2.7h-1v-1.5h-0.9l-2-2.8l-1.1,1.1v1.6H125v-6.6h1.5v3.2l2.9-3.2
			H131.3z"/>
		<path class="st1" d="M136.7,214.2h1.5v3.2l2.9-3.2h1.8l-2.6,2.8l2.8,3.9h-1.8l-2-2.8l-1.1,1.1v1.6h-1.5V214.2z"/>
		<path class="st1" d="M148,220.9V220c-0.5,0.6-1.3,1-2.2,1c-0.7,0-1.2-0.2-1.7-0.5c-0.5-0.4-0.7-0.9-0.7-1.6c0-0.7,0.3-1.3,0.8-1.6
			c0.5-0.4,1.1-0.5,1.9-0.5c0.6,0,1.3,0.1,1.8,0.3v-0.1c0-1-0.5-1.4-1.6-1.4c-0.6,0-1.2,0.1-1.9,0.4l-0.4-1.2
			c0.8-0.4,1.7-0.6,2.5-0.6c2,0,2.9,0.9,2.9,2.8v4H148z M148,218.1c-0.5-0.2-1-0.3-1.5-0.3c-1,0-1.5,0.4-1.5,1.1
			c0,0.3,0.1,0.5,0.4,0.7c0.2,0.2,0.5,0.3,0.9,0.3c0.5,0,0.9-0.1,1.3-0.4c0.3-0.3,0.5-0.6,0.5-1V218.1z"/>
		<path class="st1" d="M151.3,214.2h1.5v1.1c0.6-0.8,1.3-1.3,2.3-1.3c0.8,0,1.6,0.3,2.1,0.9c0.6,0.6,1,1.5,1,2.6
			c0,1.1-0.3,1.9-1,2.6c-0.6,0.6-1.3,0.9-2.1,0.9c-0.9,0-1.7-0.4-2.3-1.2v3.1h-1.5V214.2z M156.1,219.1c0.4-0.4,0.6-0.9,0.6-1.6
			c0-0.6-0.2-1.1-0.6-1.6c-0.4-0.4-0.8-0.6-1.3-0.6c-0.5,0-1,0.2-1.4,0.6c-0.4,0.4-0.6,0.9-0.6,1.6c0,0.6,0.2,1.1,0.6,1.6
			c0.4,0.4,0.8,0.6,1.4,0.6C155.3,219.7,155.7,219.5,156.1,219.1z"/>
		<path class="st1" d="M160.9,215.5h-2.1v-1.3h5.8v1.3h-2.1v5.4h-1.5V215.5z"/>
		<path class="st1" d="M169.7,220.9V220c-0.5,0.6-1.3,1-2.2,1c-0.7,0-1.2-0.2-1.7-0.5c-0.5-0.4-0.7-0.9-0.7-1.6
			c0-0.7,0.3-1.3,0.8-1.6c0.5-0.4,1.1-0.5,1.9-0.5c0.6,0,1.3,0.1,1.8,0.3v-0.1c0-1-0.5-1.4-1.6-1.4c-0.6,0-1.2,0.1-1.9,0.4l-0.4-1.2
			c0.8-0.4,1.7-0.6,2.5-0.6c2,0,2.9,0.9,2.9,2.8v4H169.7z M169.7,218.1c-0.5-0.2-1-0.3-1.5-0.3c-1,0-1.5,0.4-1.5,1.1
			c0,0.3,0.1,0.5,0.4,0.7c0.2,0.2,0.5,0.3,0.9,0.3c0.5,0,0.9-0.1,1.3-0.4c0.3-0.3,0.5-0.6,0.5-1V218.1z"/>
		<path class="st1" d="M179,214.2v5.3h0.9l-0.2,2.9h-1.3v-1.6h-1v-2.7h-2.9v2.7H173v-6.6h1.5v2.7h2.9v-2.7H179z"/>
		<path class="st1" d="M181.1,214.2h1.5v2.3h1.4c0.8,0,1.4,0.2,1.9,0.5c0.5,0.4,0.8,0.9,0.8,1.6c0,0.7-0.2,1.2-0.7,1.6
			c-0.5,0.4-1.1,0.6-1.9,0.6h-3V214.2z M183.9,219.6c0.8,0,1.2-0.3,1.2-1c0-0.6-0.4-0.9-1.2-0.9h-1.3v1.9H183.9z M187.7,214.2h1.5
			v6.7h-1.5V214.2z"/>
		<path class="st1" d="M190.5,220l0.7-1c0.6,0.5,1.3,0.8,2.1,0.8c0.4,0,0.7-0.1,0.9-0.3c0.2-0.2,0.4-0.4,0.4-0.7
			c0-0.6-0.5-0.8-1.4-0.8h-0.8v-1.1h0.8c0.4,0,0.6-0.1,0.9-0.3c0.2-0.2,0.3-0.4,0.3-0.6c0-0.2-0.1-0.4-0.3-0.6
			c-0.2-0.1-0.5-0.2-0.8-0.2c-0.7,0-1.4,0.2-1.9,0.7l-0.7-1c0.7-0.6,1.6-1,2.7-1c0.7,0,1.3,0.2,1.8,0.5c0.5,0.3,0.7,0.8,0.7,1.3
			c0,0.7-0.3,1.2-1,1.5c0.8,0.3,1.2,0.8,1.2,1.6c0,0.6-0.2,1.1-0.7,1.4c-0.5,0.4-1.2,0.6-1.9,0.6C192.2,221,191.3,220.7,190.5,220z"
			/>
		<path class="st1" d="M202.6,214.2v1.3h-3.2v1.7h2.4v1.2h-2.4v2.4h-1.5v-2.4h-1v-1.2h1v-3H202.6z"/>
		<path class="st1" d="M207.9,220.9V220c-0.5,0.6-1.3,1-2.2,1c-0.7,0-1.2-0.2-1.7-0.5c-0.5-0.4-0.7-0.9-0.7-1.6
			c0-0.7,0.3-1.3,0.8-1.6c0.5-0.4,1.1-0.5,1.9-0.5c0.6,0,1.3,0.1,1.8,0.3v-0.1c0-1-0.5-1.4-1.6-1.4c-0.6,0-1.2,0.1-1.9,0.4l-0.4-1.2
			c0.8-0.4,1.7-0.6,2.5-0.6c2,0,2.9,0.9,2.9,2.8v4H207.9z M207.9,218.1c-0.5-0.2-1-0.3-1.5-0.3c-1,0-1.5,0.4-1.5,1.1
			c0,0.3,0.1,0.5,0.4,0.7c0.2,0.2,0.5,0.3,0.9,0.3c0.5,0,0.9-0.1,1.3-0.4c0.3-0.3,0.5-0.6,0.5-1V218.1z"/>
		<path class="st1" d="M69.2,236.6l1.8-2.2c1,0.8,1.9,1.3,2.8,1.3c1.1,0,1.7-0.5,1.7-1.4c0-0.4-0.2-0.7-0.5-1
			c-0.3-0.2-0.7-0.4-1.2-0.4c-0.6,0-1.2,0.2-1.9,0.6l-1.9-1.1l0.3-5.9h7.8v2.7H73l-0.1,1.8c0.6-0.3,1.2-0.4,1.9-0.4
			c1.1,0,2.1,0.3,2.8,0.9c0.8,0.7,1.2,1.6,1.2,2.8c0,1.3-0.4,2.3-1.3,3c-0.9,0.7-2,1.1-3.5,1.1C72.1,238.4,70.6,237.8,69.2,236.6z"
			/>
		<path class="st1" d="M81.5,236.7c-1-1.1-1.4-2.6-1.4-4.3c0-1.7,0.5-3.1,1.5-4.3c1-1.2,2.3-1.8,3.9-1.8c1.6,0,2.9,0.6,3.9,1.8
			c1,1.1,1.4,2.6,1.4,4.3c0,1.7-0.5,3.1-1.4,4.3c-1,1.2-2.3,1.8-4,1.8C83.8,238.4,82.5,237.9,81.5,236.7z M87,234.7
			c0.4-0.6,0.6-1.4,0.6-2.3c0-0.9-0.2-1.7-0.6-2.3c-0.4-0.6-0.9-0.9-1.6-0.9c-0.6,0-1.2,0.3-1.5,0.9c-0.4,0.6-0.6,1.4-0.6,2.3
			c0,0.9,0.2,1.7,0.6,2.3c0.4,0.6,0.9,0.9,1.6,0.9C86.1,235.6,86.6,235.3,87,234.7z"/>
		<path class="st1" d="M93.6,236.7c-1-1.1-1.4-2.6-1.4-4.3c0-1.7,0.5-3.1,1.5-4.3c1-1.2,2.3-1.8,3.9-1.8c1.6,0,2.9,0.6,3.9,1.8
			c1,1.1,1.4,2.6,1.4,4.3c0,1.7-0.5,3.1-1.4,4.3c-1,1.2-2.3,1.8-4,1.8C95.9,238.4,94.6,237.9,93.6,236.7z M99.1,234.7
			c0.4-0.6,0.6-1.4,0.6-2.3c0-0.9-0.2-1.7-0.6-2.3c-0.4-0.6-0.9-0.9-1.6-0.9c-0.6,0-1.2,0.3-1.5,0.9c-0.4,0.6-0.6,1.4-0.6,2.3
			c0,0.9,0.2,1.7,0.6,2.3c0.4,0.6,0.9,0.9,1.6,0.9C98.2,235.6,98.7,235.3,99.1,234.7z"/>
		<path class="st1" d="M108.1,232.2h-2.4v-2.4h7.8v2.4H111v6h-2.9V232.2z"/>
		<path class="st1" d="M105.6,228.7v-2.4h7.8v2.4H105.6z"/>
		<path class="st1" d="M123.9,226.5h3.1l4.9,11.7h-3.5l-0.8-2.1h-4.5l-0.8,2.1h-3.4L123.9,226.5z M126.7,233.6l-1.3-3.3l-1.3,3.3
			H126.7z"/>
		<path class="st1" d="M131.8,238.1l0.2-2.5c0.2,0,0.4,0.1,0.7,0.1c0.6,0,1-0.4,1.2-1.1c0.4-1.1,0.5-3.2,0.5-6.4v-1.6h8.9v11.6h-3.2
			v-8.8h-2.7v0.4c0,3.3-0.4,5.6-1.1,6.9c-0.6,1.1-1.5,1.6-2.8,1.6C133,238.4,132.3,238.3,131.8,238.1z"/>
		<path class="st1" d="M145.5,226.6h3.2v3.7h1.8c1.5,0,2.6,0.3,3.5,1c0.9,0.7,1.4,1.7,1.4,3c0,1.3-0.4,2.2-1.3,3
			c-0.8,0.7-2,1.1-3.4,1.1h-5.1V226.6z M150.4,235.5c1.1,0,1.7-0.5,1.7-1.4c0-0.4-0.1-0.7-0.4-1c-0.3-0.2-0.7-0.4-1.2-0.4h-1.7v2.7
			H150.4z M156.7,226.6h3.2v11.6h-3.2V226.6z"/>
		<path class="st1" d="M172.5,226.6v8.7h1.3l-0.4,5.1h-2.7v-2.3h-1.4v-4.4h-4.1v4.4H162v-11.5h3.2v4.3h4.1v-4.3H172.5z"/>
		<path class="st1" d="M175.3,226.6h3.2v3.7h1.8c1.5,0,2.6,0.3,3.5,1c0.9,0.7,1.4,1.7,1.4,3c0,1.3-0.4,2.2-1.3,3
			c-0.8,0.7-2,1.1-3.4,1.1h-5.1V226.6z M180.2,235.5c1.1,0,1.7-0.5,1.7-1.4c0-0.4-0.1-0.7-0.4-1c-0.3-0.2-0.7-0.4-1.2-0.4h-1.7v2.7
			H180.2z M186.4,226.6h3.2v11.6h-3.2V226.6z"/>
		<path class="st1" d="M190.9,236.5l1.7-2.1c0.9,0.9,2,1.4,3.3,1.4c1.2,0,1.8-0.4,1.8-1.1c0-0.7-0.6-1-1.9-1h-1.2v-2.4h1.2
			c1.1,0,1.6-0.4,1.6-1.1c0-0.3-0.1-0.5-0.4-0.7c-0.3-0.2-0.6-0.3-1.1-0.3c-1.2,0-2.1,0.4-3,1.1l-1.6-1.9c1.3-1.3,3-2,4.9-2
			c1.3,0,2.3,0.3,3.2,0.9c0.8,0.6,1.2,1.3,1.2,2.2c0,1.2-0.6,2.1-1.7,2.6c1.4,0.5,2,1.4,2,2.7c0,1.1-0.4,1.9-1.2,2.6
			c-0.9,0.7-2,1-3.4,1C194.1,238.4,192.3,237.8,190.9,236.5z"/>
	</g>
</g>
</svg>
