<svg version="1.1" id="Layer_1" xmlns="http://www.w3.org/2000/svg" x="0" y="0" viewBox="0 0 290.7 45.3" style="enable-background:new 0 0 290.7 45.3" xml:space="preserve"><style>.st0{fill:#fff}</style><path class="st0" d="m.9 1.6-.7.5-.2-.4.8-.3L0 1 .2.6l.7.5L.8.3h.5l-.1.8.7-.5.3.4-.8.4.8.3-.3.4-.7-.5.1.8H.8l.1-.8zM3.9 1.6l-.7.5-.2-.4.8-.3L3 1l.2-.4.7.5-.1-.8h.5l-.1.8.7-.5.2.4-.7.4.8.3-.3.4-.7-.5.1.8h-.5l.1-.8zM6.8 1.1l-.9.2-.2-.6L7 .2h.6v4.9h-.8v-4zM10.5.7V.2h3.9v.6h-3.9zm1.7 4.4V1.7h-1.6v-.6h3.9v.6h-1.6v3.4h-.7zM17.2 1.4h3.3v.8h-3.3v-.8zm0 1.8h3.3V4h-3.3v-.8zM24.4 1.1l-.9.2-.2-.7 1.3-.4h.6v4.9h-.8v-4zM28.9 4.7c-.4-.4-.6-.9-.6-1.7 0-1.7.6-2.5 2-2.8l1.3-.2.1.8-1.3.2c-.8.1-1.2.5-1.3 1.2.3-.3.8-.5 1.3-.5 1.1 0 1.7.7 1.7 1.7s-.8 1.8-1.9 1.8c-.6 0-1-.2-1.3-.5zm2.4-1.3c0-.6-.4-1.1-1-1.1-.7 0-1.1.5-1.1 1.1 0 .6.4 1.1 1.1 1.1.6 0 1-.5 1-1.1zM32.7 4.1c0-.8.6-1.2 1.5-1.2.4 0 .7.1 1 .2v-.2c0-.5-.3-.8-.9-.8-.4 0-.7.1-1 .2l-.2-.7c.4-.2.8-.3 1.4-.3.5 0 1 .1 1.2.4.2.4.3.8.3 1.3v2.2h-.8v-.5c-.2.3-.6.5-1.2.5s-1.3-.4-1.3-1.1zm2.6-.3v-.2c-.2-.1-.5-.1-.8-.1-.5 0-.9.2-.9.6 0 .4.3.6.7.6.5-.1 1-.4 1-.9zM40.7 5.1h-.9l-1.1-2.6-1.1 2.6h-.9l1.6-3.7h.8l1.6 3.7zM45 5.1h-1l-1-2.6-1.1 2.6H41l1.6-3.7h.8L45 5.1zM50.6 1.6l-.7.5-.2-.4.8-.3-.8-.4.2-.4.7.5-.1-.8h.5l-.1.8.7-.5.3.4-.8.3.8.3-.2.4-.7-.5v1h-.5l.1-.9zM52.9.3H55c.6 0 1 .2 1.3.4.2.2.3.5.3.8 0 .6-.3.9-.7 1.1.6.2 1 .5 1 1.2 0 .9-.7 1.3-1.8 1.3h-2.2V.3zm2.9 1.3c0-.4-.3-.6-.9-.6h-1.2v1.3h1.2c.5 0 .9-.2.9-.7zM55.1 3h-1.3v1.3h1.4c.6 0 .9-.2.9-.7 0-.3-.4-.6-1-.6zM59.8 1.5h3.4v3.6h-.8V2.2h-1.7v2.9h-.8V1.5zM64.3 1.5h.8v.6c.3-.4.7-.7 1.2-.7.9 0 1.7.7 1.7 1.9s-.8 1.9-1.7 1.9c-.6 0-1-.3-1.2-.6v1.7h-.8V1.5zm2.9 1.8c0-.7-.5-1.2-1-1.2-.6 0-1.1.5-1.1 1.2s.5 1.2 1.1 1.2c.5 0 1-.5 1-1.2zM68.7 3.3c0-1.1.8-1.9 1.9-1.9 1.1 0 1.9.8 1.9 1.9 0 1-.8 1.9-2 1.9-1 0-1.8-.9-1.8-1.9zm3.1 0c0-.7-.5-1.2-1.1-1.2-.7 0-1.1.5-1.1 1.2 0 .6.5 1.2 1.1 1.2.6 0 1.1-.6 1.1-1.2zM73.4 1.5h.9l1.1 1.7 1.1-1.7h.9v3.6h-.8V2.7l-1.2 1.7-1.2-1.7v2.4h-.8V1.5zM78.3 3.3c0-1.1.8-1.9 1.9-1.9 1.1 0 1.9.8 1.9 1.9 0 1-.8 1.9-2 1.9-1 0-1.8-.9-1.8-1.9zm3 0c0-.7-.5-1.2-1.1-1.2-.7 0-1.1.5-1.1 1.2 0 .6.5 1.2 1.1 1.2.7 0 1.1-.6 1.1-1.2zM82.9 2.6h2v.8h-2v-.8zM85.6 4.1c0-.8.6-1.2 1.5-1.2.4 0 .7.1 1 .2v-.2c0-.5-.3-.8-.9-.8-.4 0-.7.1-1 .2l-.2-.7c.4-.2.8-.3 1.4-.3.5 0 1 .1 1.2.4.3.3.4.6.4 1.1V5h-.8v-.3c-.2.3-.6.5-1.2.5-.8 0-1.4-.4-1.4-1.1zm2.5-.3v-.2c-.2-.1-.5-.1-.8-.1-.5 0-.9.2-.9.6 0 .4.3.6.7.6.6-.1 1-.4 1-.9zM90.7 2.9h.4l1.2-1.4h1l-1.5 1.8 1.6 1.9h-1l-1.2-1.5h-.4v1.5H90V1.5h.8v1.4zM97.1 5.1H94V1.5h.8v2.9h1.7V1.5h.8v2.9h.5V6H97v-.9zM98.6 1.5h.8v2.3l1.7-2.3h.8v3.6h-.8V2.7l-1.8 2.4h-.8V1.5zM103 1.5h.8v2.3l1.7-2.3h.8v3.6h-.8V2.7l-1.8 2.4h-.7V1.5zM112 1.5h.9l-1.5 3.7c-.3.8-.6 1-1.2 1-.3 0-.6-.1-.9-.2l.3-.6c.2.1.3.1.5.1s.4-.1.5-.4l-1.5-3.7h.9l1 2.7 1-2.6zM115.8 3.9c-.2.1-.6.1-.9.1-.9 0-1.5-.4-1.5-1.4V1.5h.8v1.2c0 .5.3.7.8.7.3 0 .5 0 .7-.1V1.5h.8v3.6h-.8V3.9zM117.4 4.1c0-.8.6-1.2 1.5-1.2.4 0 .7.1 1 .2v-.2c0-.5-.3-.8-.9-.8-.4 0-.7.1-1 .2l-.2-.7c.4-.2.8-.3 1.4-.3.5 0 1 .1 1.2.4.3.3.4.6.4 1.1V5h-.8v-.3c-.2.3-.6.5-1.2.5-.8 0-1.4-.4-1.4-1.1zm2.5-.3v-.2c-.2-.1-.5-.1-.8-.1-.5 0-.9.2-.9.6 0 .4.3.6.7.6.6-.1 1-.4 1-.9zM121.5 3.3c0-1.1.8-1.9 1.9-1.9.7 0 1.1.3 1.5.6l-.5.6c-.3-.3-.5-.5-.9-.5-.6 0-1.1.5-1.1 1.2s.4 1.2 1.1 1.2c.4 0 .7-.2.9-.4l.5.5c-.4.4-.8.7-1.5.7-1.1-.1-1.9-1-1.9-2zM126.6 2.2h-1.3v-.7h3.4v.7h-1.3v2.9h-.8V2.2zM129.5 1.5h1.9c.8 0 1.3.3 1.3.9 0 .4-.2.7-.6.8.4.1.7.4.7.9 0 .7-.6 1-1.4 1h-1.9V1.5zm1.6 1.5c.4 0 .6-.2.6-.5s-.2-.4-.6-.4h-.9V3h.9zm-.8 1.5h1c.4 0 .6-.2.6-.5s-.2-.5-.7-.5h-1v1zM136 1.5h.9l-1.5 3.7c-.3.8-.6 1-1.2 1-.3 0-.6-.1-.9-.2l.3-.6c.2.1.3.1.5.1s.4-.1.5-.4l-1.5-3.7h.9l1 2.7 1-2.6zM137.2 3.3c0-1.1.7-1.9 1.8-1.9 1.2 0 1.7.9 1.7 2v.2H138c.1.6.5.9 1.1.9.4 0 .7-.2 1-.4l.5.4c-.3.4-.8.7-1.5.7-1.1 0-1.9-.8-1.9-1.9zm2.7-.3c-.1-.5-.4-1-.9-1s-.9.4-.9 1h1.8zM142.4 2.2h-1.3v-.7h3.4v.7h-1.3v2.9h-.8V2.2zM148.4 2.2h-1.3v-.7h3.4v.7h-1.3v2.9h-.8V2.2zM150.9 3.3c0-1.1.8-1.9 1.9-1.9 1.1 0 1.9.8 1.9 1.9 0 1-.8 1.9-2 1.9-1 0-1.8-.9-1.8-1.9zm3 0c0-.7-.5-1.2-1.1-1.2-.7 0-1.1.5-1.1 1.2 0 .6.5 1.2 1.1 1.2.7 0 1.1-.6 1.1-1.2zM159 5.1h-.9L157 2.5l-1 2.6h-.9l1.6-3.7h.8l1.5 3.7zM159.7 1.5h.8v1.1h.9c.9 0 1.5.5 1.5 1.2 0 .8-.5 1.3-1.5 1.3h-1.6V1.5zm1.6 2.9c.5 0 .7-.2.7-.6 0-.3-.2-.6-.7-.6h-.8v1.2h.8zM164.5 2.9h.4l1.2-1.4h1l-1.5 1.8 1.6 1.9h-1L165 3.7h-.4v1.5h-.8V1.5h.8v1.4zM167.4 3.3c0-1.1.8-1.9 1.9-1.9 1.1 0 1.9.8 1.9 1.9 0 1-.8 1.9-2 1.9-1 0-1.8-.9-1.8-1.9zm3 0c0-.7-.5-1.2-1.1-1.2-.7 0-1.1.5-1.1 1.2 0 .6.5 1.2 1.1 1.2.7 0 1.1-.6 1.1-1.2zM174.2 1.5h3.4v3.6h-.8V2.2H175v2.9h-.8V1.5zM178.6 1.5h.8v.6c.3-.4.7-.7 1.2-.7.9 0 1.7.7 1.7 1.9s-.8 1.9-1.7 1.9c-.6 0-1-.3-1.2-.6v1.7h-.8V1.5zm2.9 1.8c0-.7-.5-1.2-1-1.2-.6 0-1.1.5-1.1 1.2s.5 1.2 1.1 1.2c.5 0 1-.5 1-1.2zM183 3.3c0-1.1.8-1.9 1.9-1.9 1.1 0 1.9.8 1.9 1.9 0 1-.8 1.9-2 1.9-1 0-1.8-.9-1.8-1.9zm3.1 0c0-.7-.5-1.2-1.1-1.2-.7 0-1.1.5-1.1 1.2 0 .6.5 1.2 1.1 1.2.7 0 1.1-.6 1.1-1.2zM191.2 4.4h.4V6h-.8v-.9H188V6h-.8V4.4h.4l1.3-2.9h.9l1.4 2.9zm-2.7 0h1.8l-.9-2.1-.9 2.1zM194.6 1.5h.9L194 5.2c-.3.8-.6 1-1.2 1-.3 0-.6-.1-.9-.2l.3-.6c.2.1.3.1.5.1s.4-.1.5-.4l-1.5-3.7h.9l1 2.7 1-2.6zM197 2.9h.4l1.2-1.4h1l-1.5 1.8 1.6 1.9h-1l-1.2-1.5h-.5v1.5h-.8V1.5h.8v1.4zM201.2 2.2h-1.3v-.7h3.4v.7H202v2.9h-.8V2.2zM206.3.3h.8l2.6 3.3V.3h.8v4.8h-.7l-2.7-3.4v3.4h-.8V.3zM211.6 3.8V1.5h.8v2.1c0 .6.3.9.8.9s.8-.3.8-.9V1.5h.8v3.6h-.8v-.6c-.2.3-.6.6-1.1.6-.8.1-1.3-.5-1.3-1.3zM216.1 4.1V2.2h-.5v-.7h.5v-1h.8v1h1v.7h-1V4c0 .3.2.5.4.5s.4 0 .5-.1V5c-.2.1-.4.2-.8.2s-.9-.3-.9-1.1zM218.8 1.5h.8v.8c.2-.5.7-.9 1.3-.9v.9c-.7 0-1.2.5-1.2 1.4v1.4h-.8V1.5zM221.7.1h.9v.8h-.9V.1zm0 1.4h.8v3.6h-.8V1.5zM223.7.1h.8v5h-.8v-5zM225.4 3.3c0-1.1.8-1.9 1.9-1.9 1.1 0 1.9.8 1.9 1.9 0 1-.8 1.9-2 1.9-.9 0-1.8-.9-1.8-1.9zm3.1 0c0-.7-.5-1.2-1.1-1.2-.7 0-1.1.5-1.1 1.2 0 .6.5 1.2 1.1 1.2.7 0 1.1-.6 1.1-1.2zM230.2 1.5h.8V2c.2-.3.6-.6 1.1-.6.8 0 1.3.6 1.3 1.4v2.3h-.8V3c0-.6-.3-.9-.8-.9s-.8.3-.8.9v2.1h-.8V1.5zM238.5 6.2V5.1c-1.4 0-2.2-.8-2.2-1.8s.8-1.8 2.2-1.8V.1h.8v1.4c1.4 0 2.2.8 2.2 1.8s-.8 1.8-2.2 1.8v1.1h-.8zm0-1.8V2.2c-.9 0-1.4.5-1.4 1.1.1.6.5 1.1 1.4 1.1zm.8-2.2v2.3c.9 0 1.4-.5 1.4-1.1 0-.8-.5-1.2-1.4-1.2zM242.2 3.3c0-1.1.8-1.9 1.9-1.9 1.1 0 1.9.8 1.9 1.9 0 1-.8 1.9-2 1.9-1 0-1.8-.9-1.8-1.9zm3 0c0-.7-.5-1.2-1.1-1.2-.7 0-1.1.5-1.1 1.2 0 .6.5 1.2 1.1 1.2.7 0 1.1-.6 1.1-1.2zM246.9 1.5h.8v.6c.3-.4.7-.7 1.2-.7.9 0 1.7.7 1.7 1.9s-.8 1.9-1.7 1.9c-.6 0-1-.3-1.2-.6v1.7h-.8V1.5zm2.9 1.8c0-.7-.5-1.2-1-1.2-.6 0-1.1.5-1.1 1.2s.5 1.2 1.1 1.2c.6 0 1-.5 1-1.2zM251.6 1.5h.9l1.1 1.7 1.1-1.7h.9v3.6h-.8V2.7l-1.2 1.7-1.2-1.7v2.4h-.8V1.5zM259.1 1.5h.9l-1.5 3.7c-.3.8-.6 1-1.2 1-.3 0-.6-.1-.9-.2l.3-.6c.2.1.3.1.5.1s.4-.1.5-.4l-1.5-3.7h.9l1 2.7 1-2.6zM263.9 5.1h-.9l-1.1-2.6-1.1 2.6h-.9l1.6-3.7h.8l1.6 3.7zM265.4 2.6h.9c.9 0 1.5.5 1.5 1.2 0 .8-.5 1.3-1.5 1.3h-1.6V1.5h.8v1.1zm0 1.8h.8c.5 0 .7-.2.7-.6 0-.3-.2-.6-.7-.6h-.8v1.2zm2.9-2.9h.8v3.6h-.8V1.5zM272 4.4l.6-.6c.3.4.7.6 1.3.6.5 0 .8-.3.8-.7 0-.5-.4-.7-1.1-.7h-.4l-.1-.5 1.3-1.4h-2.1V.3h3.2v.6l-1.3 1.4c.7.1 1.4.5 1.4 1.4 0 .9-.7 1.5-1.7 1.5-.9 0-1.5-.4-1.9-.8zM278.6 1.5h.8v2.3l1.7-2.3h.8v3.6h-.8V2.7l-1.8 2.4h-.8V1.5zM287.4 4H285l-.2-.6 2.7-3.2h.7v3.1h.7V4h-.7v1.1h-.8V4zm0-.7V1.4l-1.6 1.9h1.6zM289.7 4.2h.9v1h-.9v-1zM4.7 9.5 4 10l-.2-.5.8-.3-.8-.4.2-.4.7.5-.1-.8h.5l-.1.8.7-.5.3.4-.8.4.8.3-.3.5-.7-.5.1.8h-.5l.1-.8zM7 8.1h3.4v.8H7.8V13H7V8.1zM10.3 9.3h.8v.6c.3-.4.7-.7 1.2-.7.9 0 1.7.7 1.7 1.9s-.8 1.9-1.7 1.9c-.6 0-1-.3-1.2-.6V14h-.8V9.3zm2.9 1.8c0-.7-.5-1.2-1-1.2-.6 0-1.1.5-1.1 1.2s.5 1.2 1.1 1.2c.6 0 1-.5 1-1.2zM17.1 9.3h.9L16.5 13c-.3.8-.6 1-1.2 1-.3 0-.6-.1-.9-.2l.3-.6c.2.1.3.1.5.1s.4-.1.5-.4l-1.5-3.7h.9l1 2.7 1-2.6zM21.7 12.2h.4v1.7h-.8V13h-2.8v.9h-.8v-1.7h.4l1.3-2.9h.9l1.4 2.9zm-2.7 0h1.8l-.9-2.1-.9 2.1zM22.6 9.3h.8v1.4h1.7V9.3h.8v3.6h-.8v-1.5h-1.7v1.5h-.8V9.3zM26.6 11.1c0-1.1.8-1.9 1.9-1.9 1.1 0 1.9.9 1.9 1.9 0 1-.8 1.9-2 1.9-1 0-1.8-.8-1.8-1.9zm3.1 0c0-.7-.5-1.2-1.1-1.2-.7 0-1.1.5-1.1 1.2 0 .6.5 1.2 1.1 1.2.6 0 1.1-.5 1.1-1.2zM31 11.1c0-1.1.7-1.9 1.8-1.9 1.2 0 1.7.9 1.7 2v.2h-2.7c.1.6.5.9 1.1.9.4 0 .7-.2 1-.4l.5.4c-.4.5-.9.7-1.6.7-1 0-1.8-.7-1.8-1.9zm2.7-.2c-.1-.5-.4-1-.9-1s-.9.4-.9 1h1.8zM37 9.3h.9L39 11l1.1-1.7h.9v3.6h-.8v-2.4L39 12.3l-1.2-1.7V13H37V9.3zM41.7 11.1c0-1.1.8-1.9 1.9-1.9 1.1 0 1.9.9 1.9 1.9 0 1-.8 1.9-2 1.9-1 0-1.8-.8-1.8-1.9zm3 0c0-.7-.5-1.2-1.1-1.2-.7 0-1.1.5-1.1 1.2 0 .6.5 1.2 1.1 1.2.7 0 1.1-.5 1.1-1.2zM49.6 12.9h-.9l-1.1-2.6-1.1 2.6h-.9l1.6-3.7h.8l1.6 3.7zM49.7 11.1c0-1.1.8-1.9 1.9-1.9 1.1 0 1.9.9 1.9 1.9 0 1-.8 1.9-2 1.9-1 0-1.8-.8-1.8-1.9zm3.1 0c0-.7-.5-1.2-1.1-1.2-.7 0-1.1.5-1.1 1.2 0 .6.5 1.2 1.1 1.2.6 0 1.1-.5 1.1-1.2zM55.1 10.7h.4l1.2-1.4h1l-1.5 1.8 1.6 1.9h-1l-1.2-1.5h-.4V13h-.8V9.3h.8v1.4zM57.8 11.1c0-1.1.8-1.9 1.9-1.9 1.1 0 1.9.9 1.9 1.9 0 1-.8 1.9-2 1.9-1 0-1.8-.8-1.8-1.9zm3.1 0c0-.7-.5-1.2-1.1-1.2-.7 0-1.1.5-1.1 1.2 0 .6.5 1.2 1.1 1.2.6 0 1.1-.5 1.1-1.2zM64.1 10.4H67v.8h-2.9v-.8zM73.2 12.9h-.9l-1.1-2.6-1.1 2.6h-.9l1.6-3.7h.8l1.6 3.7z"/><path class="st0" d="M75.8 9.3h.9L75.3 13c-.3.8-.6 1-1.2 1-.3 0-.6-.1-.9-.2l.3-.6c.2.1.3.1.5.1s.4-.1.5-.4L73 9.3h.9l1 2.7.9-2.7zM79.4 11.8c-.2.1-.6.1-.9.1-.9 0-1.5-.4-1.5-1.4V9.3h.8v1.2c0 .5.3.7.8.7.3 0 .5 0 .7-.1V9.3h.8v3.6h-.8v-1.1zM81.1 9.3h.8v2.9h1.5V9.3h.8v2.9h1.5V9.3h.8v3.6h-5.4V9.3zM87.2 11.1c0-1.1.7-1.9 1.8-1.9 1.2 0 1.7.9 1.7 2v.2H88c.1.6.5.9 1.1.9.4 0 .7-.2 1-.4l.5.4c-.3.4-.8.7-1.5.7-1.1 0-1.9-.7-1.9-1.9zm2.7-.2c-.1-.5-.4-1-.9-1s-.9.4-.9 1h1.8zM91.2 11.1c0-1.1.7-1.9 1.8-1.9 1.2 0 1.7.9 1.7 2v.2H92c.1.6.5.9 1.1.9.4 0 .7-.2 1-.4l.5.4c-.3.4-.8.7-1.5.7-1.1 0-1.9-.7-1.9-1.9zm2.7-.2c-.1-.5-.4-1-.9-1s-.9.4-.9 1h1.8zM97.3 9.3h3.4v3.6h-.8V10h-1.7v2.9h-.8V9.3zM101.5 9.3h.8v2.3l1.7-2.3h.8v3.6h-.8v-2.4l-1.8 2.4h-.8V9.3zM106.7 10h-1.3v-.7h3.4v.7h-1.3v2.9h-.8V10zM108.9 11.9c0-.8.6-1.2 1.5-1.2.4 0 .7.1 1 .2v-.1c0-.5-.3-.8-.9-.8-.4 0-.7.1-1 .2l-.2-.7c.4-.2.8-.3 1.4-.3.5 0 1 .1 1.2.4.3.3.4.6.4 1.1v2.2h-.8v-.5c-.2.3-.6.5-1.2.5-.7.1-1.4-.3-1.4-1zm2.6-.3v-.2c-.2-.1-.5-.1-.8-.1-.5 0-.9.2-.9.6 0 .4.3.6.7.6.5-.1 1-.4 1-.9zM113.1 9.3h.8v1.4h1.7V9.3h.8v3.6h-.8v-1.5h-1.7v1.5h-.8V9.3zM117.3 9.3h.8v2.3l1.7-2.3h.8v3.6h-.8v-2.4l-1.8 2.4h-.8V9.3zM121.3 11.1c0-1.1.7-1.9 1.8-1.9 1.2 0 1.7.9 1.7 2v.2h-2.7c.1.6.5.9 1.1.9.4 0 .7-.2 1-.4l.5.4c-.3.4-.8.7-1.5.7-1.1 0-1.9-.7-1.9-1.9zm2.7-.2c-.1-.5-.4-1-.9-1s-.9.4-.9 1h1.8zM130.9 12.2h.4v1.7h-.8V13h-2.8v.9h-.7v-1.7h.4l1.3-2.9h.9l1.3 2.9zm-2.6 0h1.8l-.9-2.1-.9 2.1zM135.4 12.9h-.9l-1.1-2.6-1.1 2.6h-.9l1.6-3.7h.8l1.6 3.7zM135.6 12.9l1-1.3c-.5-.2-.8-.5-.8-1.1 0-.8.6-1.2 1.5-1.2h1.7v3.6h-.8v-1.2h-.7l-.9 1.2h-1zm1.6-3c-.4 0-.7.2-.7.6 0 .3.2.6.7.6h.9V9.9h-.9zM145.2 12.2h.4v1.7h-.8V13H142v.9h-.8v-1.7h.4l1.3-2.9h.9l1.4 2.9zm-2.6 0h1.8l-.9-2.1-.9 2.1zM145.8 11.1c0-1.1.7-1.9 1.8-1.9 1.2 0 1.7.9 1.7 2v.2h-2.7c.1.6.5.9 1.1.9.4 0 .7-.2 1-.4l.5.4c-.3.4-.8.7-1.5.7-1.1 0-1.9-.7-1.9-1.9zm2.7-.2c-.1-.5-.4-1-.9-1s-.9.4-.9 1h1.8zM150.8 10h-1.3v-.7h3.4v.7h-1.3v2.9h-.8V10zM153.1 11.1c0-1.1.7-1.9 1.8-1.9 1.2 0 1.7.9 1.7 2v.2h-2.7c.1.6.5.9 1.1.9.4 0 .7-.2 1-.4l.5.4c-.3.4-.8.7-1.5.7-1.1 0-1.9-.7-1.9-1.9zm2.7-.2c-.1-.5-.4-1-.9-1s-.9.4-.9 1h1.8zM157.3 9.3h.8v2.3l1.7-2.3h.8v3.6h-.8v-2.4l-1.8 2.4h-.8V9.3zm.4-1.5h.6c.1.2.3.4.6.4s.5-.2.6-.4h.6c-.1.6-.5 1-1.2 1-.6 0-1.1-.3-1.2-1zM163.4 9.3h.8v.6c.3-.4.7-.7 1.2-.7.9 0 1.7.7 1.7 1.9s-.8 1.9-1.7 1.9c-.6 0-1-.3-1.2-.6V14h-.8V9.3zm2.9 1.8c0-.7-.5-1.2-1-1.2-.6 0-1.1.5-1.1 1.2s.5 1.2 1.1 1.2c.5 0 1-.5 1-1.2zM167.6 11.9c0-.8.6-1.2 1.5-1.2.4 0 .7.1 1 .2v-.1c0-.5-.3-.8-.9-.8-.4 0-.7.1-1 .2l-.2-.7c.4-.2.8-.3 1.4-.3.5 0 1 .1 1.2.4.3.3.4.6.4 1.1v2.2h-.8v-.5c-.2.3-.6.5-1.2.5-.8.1-1.4-.3-1.4-1zm2.5-.3v-.2c-.2-.1-.5-.1-.8-.1-.5 0-.9.2-.9.6 0 .4.3.6.7.6.6-.1 1-.4 1-.9zM171.7 9.3h.8v1.4h1.7V9.3h.8v3.6h-.8v-1.5h-1.7v1.5h-.8V9.3zM175.9 9.3h.8v1.4h1.7V9.3h.8v3.6h-.8v-1.5h-1.7v1.5h-.8V9.3zM179.9 11.1c0-1.1.7-1.9 1.8-1.9 1.2 0 1.7.9 1.7 2v.2h-2.7c.1.6.5.9 1.1.9.4 0 .7-.2 1-.4l.5.4c-.3.4-.8.7-1.5.7-1.1 0-1.9-.7-1.9-1.9zm2.7-.2c-.1-.5-.4-1-.9-1s-.9.4-.9 1h1.8zM184.1 9.3h2.7v.7h-1.9v2.9h-.8V9.3zM187 11.1c0-1.1.8-1.9 1.9-1.9 1.1 0 1.9.9 1.9 1.9 0 1-.8 1.9-2 1.9-1 0-1.8-.8-1.8-1.9zm3 0c0-.7-.5-1.2-1.1-1.2-.7 0-1.1.5-1.1 1.2 0 .6.5 1.2 1.1 1.2.7 0 1.1-.5 1.1-1.2zM193.4 9.3h1.9c.8 0 1.3.3 1.3.9 0 .4-.2.7-.6.8.4.1.7.4.7.9 0 .7-.6 1-1.4 1h-1.9V9.3zm1.7 1.5c.4 0 .6-.2.6-.5s-.2-.4-.6-.4h-.9v.9h.9zm-.9 1.5h1c.4 0 .6-.2.6-.5s-.2-.5-.7-.5h-1v1zM197.1 11.1c0-1.1.8-1.9 1.9-1.9 1.1 0 1.9.9 1.9 1.9 0 1-.8 1.9-2 1.9-.9 0-1.8-.8-1.8-1.9zm3.1 0c0-.7-.5-1.2-1.1-1.2-.7 0-1.1.5-1.1 1.2 0 .6.5 1.2 1.1 1.2.7 0 1.1-.5 1.1-1.2zM201.7 11.9c.4.3.8.4 1.2.4.5 0 .8-.2.8-.5s-.3-.4-.8-.4h-.8v-.6h.8c.4 0 .7-.2.7-.4 0-.3-.3-.4-.7-.4-.4 0-.8.1-1.2.4l-.4-.5c.4-.4 1-.6 1.7-.6.9 0 1.5.4 1.5 1 0 .4-.3.7-.6.8.4.1.7.4.7.9 0 .6-.6 1.1-1.6 1.1-.7 0-1.2-.2-1.7-.5l.4-.7zM205.3 9.3h.8v.6c.3-.4.7-.7 1.2-.7.9 0 1.7.7 1.7 1.9s-.8 1.9-1.7 1.9c-.6 0-1-.3-1.2-.6V14h-.8V9.3zm2.9 1.8c0-.7-.5-1.2-1-1.2-.6 0-1.1.5-1.1 1.2s.5 1.2 1.1 1.2c.5 0 1-.5 1-1.2zM209.5 11.9c0-.8.6-1.2 1.5-1.2.4 0 .7.1 1 .2v-.1c0-.5-.3-.8-.9-.8-.4 0-.7.1-1 .2l-.2-.7c.4-.2.8-.3 1.4-.3.5 0 1 .1 1.2.4.3.3.4.6.4 1.1v2.2h-.9v-.5c-.2.3-.6.5-1.2.5-.7.1-1.3-.3-1.3-1zm2.5-.3v-.2c-.2-.1-.5-.1-.8-.1-.5 0-.9.2-.9.6 0 .4.3.6.7.6.6-.1 1-.4 1-.9zM213.4 11.1c0-1.1.8-1.9 1.9-1.9.7 0 1.1.3 1.5.6l-.5.6c-.3-.3-.5-.5-.9-.5-.6 0-1.1.5-1.1 1.2s.4 1.2 1.1 1.2c.4 0 .7-.2.9-.4l.5.5c-.4.4-.8.7-1.5.7-1.1-.1-1.9-.9-1.9-2zM218.2 10h-1.3v-.7h3.4v.7H219v2.9h-.8V10zM220.5 11.9c0-.8.6-1.2 1.5-1.2.4 0 .7.1 1 .2v-.1c0-.5-.3-.8-.9-.8-.4 0-.7.1-1 .2l-.2-.7c.4-.2.8-.3 1.4-.3.5 0 1 .1 1.2.4.3.3.4.6.4 1.1v2.2h-.9v-.5c-.2.3-.6.5-1.2.5-.7.1-1.3-.3-1.3-1zm2.5-.3v-.2c-.2-.1-.5-.1-.8-.1-.5 0-.9.2-.9.6 0 .4.3.6.7.6.6-.1 1-.4 1-.9zM224.6 12h.9v1h-.9v-1zM228.3 12.2l1.8-4.1h.9l1.8 4.1h.5V14h-.8v-1h-3.8v1h-.8v-1.8h.4zm.9 0h2.6L230.5 9l-1.3 3.2zM233.5 11.1c0-1.1.7-1.9 1.8-1.9 1.2 0 1.7.9 1.7 2v.2h-2.7c.1.6.5.9 1.1.9.4 0 .7-.2 1-.4l.5.4c-.3.4-.8.7-1.5.7-1.1 0-1.9-.7-1.9-1.9zm2.7-.2c-.1-.5-.4-1-.9-1s-.9.4-.9 1h1.8zM238.5 10h-1.3v-.7h3.4v.7h-1.3v2.9h-.8V10zM240.8 11.1c0-1.1.8-1.9 1.9-1.9.7 0 1.1.3 1.5.6l-.5.6c-.3-.3-.5-.5-.9-.5-.6 0-1.1.5-1.1 1.2s.4 1.2 1.1 1.2c.4 0 .7-.2.9-.4l.5.5c-.4.4-.8.7-1.5.7-1.1-.1-1.9-.9-1.9-2zM245.6 10.7h.4l1.2-1.4h1l-1.5 1.8 1.6 1.9h-1l-1.2-1.5h-.4V13h-.8V9.3h.8v1.4zM248.3 11.1c0-1.1.8-1.9 1.9-1.9 1.1 0 1.9.9 1.9 1.9 0 1-.8 1.9-2 1.9-1 0-1.8-.8-1.8-1.9zm3 0c0-.7-.5-1.2-1.1-1.2-.7 0-1.1.5-1.1 1.2 0 .6.5 1.2 1.1 1.2.7 0 1.1-.5 1.1-1.2zM252.6 11.1c0-1.1.7-1.9 1.8-1.9 1.2 0 1.7.9 1.7 2v.2h-2.7c.1.6.5.9 1.1.9.4 0 .7-.2 1-.4l.5.4c-.3.4-.8.7-1.5.7-1.1 0-1.9-.7-1.9-1.9zm2.7-.2c-.1-.5-.4-1-.9-1s-.9.4-.9 1h1.8zM258.7 9.3h.9l1.1 1.7 1.1-1.7h.9v3.6h-.8v-2.4l-1.2 1.7-1.2-1.7v2.4h-.8V9.3zM263.3 11.1c0-1.1.8-1.9 1.9-1.9 1.1 0 1.9.9 1.9 1.9 0 1-.8 1.9-2 1.9-1 0-1.8-.8-1.8-1.9zm3.1 0c0-.7-.5-1.2-1.1-1.2-.7 0-1.1.5-1.1 1.2 0 .6.5 1.2 1.1 1.2.6 0 1.1-.5 1.1-1.2zM271.3 12.9h-.9l-1.1-2.6-1.1 2.6h-.9l1.6-3.7h.8l1.6 3.7zM271.4 11.1c0-1.1.8-1.9 1.9-1.9 1.1 0 1.9.9 1.9 1.9 0 1-.8 1.9-2 1.9-1 0-1.8-.8-1.8-1.9zm3 0c0-.7-.5-1.2-1.1-1.2-.7 0-1.1.5-1.1 1.2 0 .6.5 1.2 1.1 1.2.7 0 1.1-.5 1.1-1.2zM278.1 11.8c-.2.1-.6.1-.9.1-.9 0-1.5-.4-1.5-1.4V9.3h.8v1.2c0 .5.3.7.8.7.3 0 .5 0 .7-.1V9.3h.8v3.6h-.8v-1.1zM280.6 10.7h.4l1.2-1.4h1l-1.5 1.8 1.6 1.9h-1l-1.2-1.5h-.4V13h-.8V9.3h.8v1.4zM283.3 11.1c0-1.1.8-1.9 1.9-1.9 1.1 0 1.9.9 1.9 1.9 0 1-.8 1.9-2 1.9-1 0-1.8-.8-1.8-1.9zm3.1 0c0-.7-.5-1.2-1.1-1.2-.7 0-1.1.5-1.1 1.2 0 .6.5 1.2 1.1 1.2.6 0 1.1-.5 1.1-1.2zM14.8 15.9h.8l2.6 3.3v-3.3h.8v4.8h-.7l-2.7-3.4v3.4h-.8v-4.8zM19.9 19.4v-2.3h.8v2.1c0 .6.3.9.8.9s.8-.3.8-.9v-2.1h.8v3.6h-.8v-.6c-.2.3-.6.6-1.1.6-.8.1-1.3-.4-1.3-1.3zM24.2 19.8v-1.9h-.5v-.7h.5v-1h.8v1h1v.7h-1v1.8c0 .3.2.5.4.5s.4 0 .5-.1v.7c-.2.1-.4.2-.8.2-.4-.2-.9-.4-.9-1.2zM26.7 17.1h.8v.8c.2-.5.7-.9 1.3-.9v.9c-.7 0-1.2.5-1.2 1.4v1.4h-.8v-3.6zM29.4 15.8h.9v.8h-.9v-.8zm0 1.3h.8v3.6h-.8v-3.6zM31.2 15.7h.8v5h-.8v-5zM32.7 19c0-1.1.8-1.9 1.9-1.9 1.1 0 1.9.9 1.9 1.9 0 1-.8 1.9-2 1.9-.9-.1-1.8-.9-1.8-1.9zm3.1 0c0-.7-.5-1.2-1.1-1.2-.7 0-1.1.5-1.1 1.2 0 .6.5 1.2 1.1 1.2.7-.1 1.1-.6 1.1-1.2zM37.3 17.1h.8v.6c.2-.3.6-.6 1.1-.6.8 0 1.3.6 1.3 1.4v2.3h-.8v-2.1c0-.6-.3-.9-.8-.9s-.8.3-.8.9v2.1h-.8v-3.7zM40.9 16.3c0-.4.3-.7.7-.7.4 0 .7.3.7.7 0 .4-.3.7-.7.7-.4 0-.7-.3-.7-.7zm1.4 0c0-.3-.3-.6-.6-.6-.4 0-.6.3-.6.6s.3.6.6.6.6-.3.6-.6zm-1-.4h.3c.2 0 .3.1.3.2s-.1.2-.2.2l.2.3h-.2l-.2-.2h-.1v.2h-.2v-.7zm.4.4c.1 0 .1 0 .1-.1s0-.1-.1-.1h-.1v.2h.1zM44.5 20l.6-.6c.3.4.7.6 1.3.6.5 0 .8-.3.8-.7 0-.5-.4-.7-1.1-.7h-.4l-.1-.5 1.3-1.4h-2.1V16H48v.6L46.7 18c.7.1 1.4.5 1.4 1.4 0 .9-.7 1.5-1.7 1.5-.9-.1-1.5-.4-1.9-.9zM50.5 18.2h2.9v.8h-2.9v-.8zM59.5 20h.5v1.7h-.8v-.9h-2.8v.9h-.8V20h.4l1.3-2.9h.9l1.3 2.9zm-2.6 0h1.8l-.9-2.1-.9 2.1zM64 20.8h-.9L62 18.2l-1 2.6h-.9l1.6-3.7h.8l1.5 3.7zM64.2 20.8l1-1.3c-.5-.2-.8-.5-.8-1.1 0-.8.6-1.2 1.5-1.2h1.7v3.6h-.8v-1.2h-.7l-.9 1.2h-1zm1.7-3c-.4 0-.7.2-.7.6 0 .3.2.6.7.6h.9v-1.1h-.9zM70.3 17.1h3.4v3.6h-.8v-2.9h-1.7v2.9h-.8v-3.6zM74.5 17.1h.8v2.3l1.7-2.3h.8v3.6H77v-2.4l-1.8 2.4h-.8v-3.6zM79.8 17.9h-1.3v-.7h3.4v.7h-1.3v2.9h-.8v-2.9zM82 19.7c0-.8.6-1.2 1.5-1.2.4 0 .7.1 1 .2v-.1c0-.5-.3-.8-.9-.8-.4 0-.7.1-1 .2l-.2-.7c.4-.2.8-.3 1.4-.3.5 0 1 .1 1.2.4.3.3.4.6.4 1.1v2.2h-.8v-.5c-.2.3-.6.5-1.2.5-.8.1-1.4-.3-1.4-1zm2.5-.3v-.2c-.2-.1-.5-.1-.8-.1-.5 0-.9.2-.9.6 0 .4.3.6.7.6.6-.1 1-.4 1-.9zM86.1 17.1h.9v1.4h1.7v-1.4h.8v3.6h-.8v-1.5H87v1.5h-.8v-3.6zM90.3 17.1h.8v2.3l1.7-2.3h.8v3.6h-.8v-2.4L91 20.7h-.8v-3.6zM94.3 20.8l1-1.3c-.5-.2-.8-.5-.8-1.1 0-.8.6-1.2 1.5-1.2h1.7v3.6h-.8v-1.2h-.7l-.9 1.2h-1zm1.7-3c-.4 0-.7.2-.7.6 0 .3.2.6.7.6h.9v-1.1H96zM103.9 20h.4v1.7h-.8v-.9h-2.8v.9h-.8V20h.4l1.3-2.9h.9l1.4 2.9zm-2.6 0h1.8l-.9-2.1-.9 2.1zM104.5 19c0-1.1.7-1.9 1.8-1.9 1.2 0 1.7.9 1.7 2v.2h-2.7c.1.6.5.9 1.1.9.4 0 .7-.2 1-.4l.5.4c-.3.4-.8.7-1.5.7-1.1-.1-1.9-.8-1.9-1.9zm2.7-.3c-.1-.5-.4-1-.9-1s-.9.4-.9 1h1.8zM109.5 17.9h-1.3v-.7h3.4v.7h-1.3v2.9h-.8v-2.9zM111.8 19c0-1.1.7-1.9 1.8-1.9 1.2 0 1.7.9 1.7 2v.2h-2.7c.1.6.5.9 1.1.9.4 0 .7-.2 1-.4l.5.4c-.3.4-.8.7-1.5.7-1.1-.1-1.9-.8-1.9-1.9zm2.7-.3c-.1-.5-.4-1-.9-1s-.9.4-.9 1h1.8zM116 17.1h.8v2.3l1.7-2.3h.8v3.6h-.8v-2.4l-1.8 2.4h-.7v-3.6zm.5-1.4h.6c.1.2.3.4.6.4s.5-.2.6-.4h.6c-.1.6-.5 1-1.2 1s-1.1-.4-1.2-1zM121.9 19c0-1.1.8-1.9 1.9-1.9.7 0 1.1.3 1.5.6l-.5.6c-.3-.3-.5-.5-.9-.5-.6 0-1.1.5-1.1 1.2s.4 1.2 1.1 1.2c.4 0 .7-.2.9-.4l.5.5c-.4.4-.8.7-1.5.7-1.1-.2-1.9-1-1.9-2zM128.5 16.8l-.9.2-.2-.7 1.3-.4h.6v4.9h-.8v-4zM130.1 20.1l1.7-1.4c.7-.6.9-.9.9-1.3 0-.5-.3-.8-.8-.8s-.7.2-1.1.7l-.6-.5c.5-.6.9-1 1.8-1s1.6.6 1.6 1.4c0 .8-.4 1.2-1.3 1.9l-1 .8h2.3v.7h-3.5v-.5zM136.2 17.1h.9l1.1 1.7 1.1-1.7h.9v3.6h-.8v-2.4l-1.2 1.7-1.2-1.7v2.4h-.8v-3.6zM140.9 19c0-1.1.7-1.9 1.8-1.9 1.2 0 1.7.9 1.7 2v.2h-2.7c.1.6.5.9 1.1.9.4 0 .7-.2 1-.4l.5.4c-.3.4-.8.7-1.5.7-1.1-.1-1.9-.8-1.9-1.9zm2.7-.3c-.1-.5-.4-1-.9-1s-.9.4-.9 1h1.8zM144.9 19c0-1.1.8-1.9 1.9-1.9.7 0 1.1.3 1.5.6l-.5.6c-.3-.3-.5-.5-.9-.5-.6 0-1.1.5-1.1 1.2s.4 1.2 1.1 1.2c.4 0 .7-.2.9-.4l.5.5c-.4.4-.8.7-1.5.7-1.1-.2-1.9-1-1.9-2zM148.6 20.8l1-1.3c-.5-.2-.8-.5-.8-1.1 0-.8.6-1.2 1.5-1.2h1.7v3.6h-.8v-1.2h-.7l-.9 1.2h-1zm1.6-3c-.4 0-.7.2-.7.6 0 .3.2.6.7.6h.9v-1.1h-.9zM155.9 20.8h-3.1v-3.6h.8V20h1.7v-2.9h.8V20h.5v1.7h-.8v-.9zM156.9 19c0-1.1.7-1.9 1.8-1.9 1.2 0 1.7.9 1.7 2v.2h-2.7c.1.6.5.9 1.1.9.4 0 .7-.2 1-.4l.5.4c-.3.4-.8.7-1.5.7-1.1-.1-1.9-.8-1.9-1.9zm2.7-.3c-.1-.5-.4-1-.9-1s-.9.4-.9 1h1.8zM161.1 17.1h1.9c.8 0 1.3.3 1.3.9 0 .4-.2.7-.6.8.4.1.7.4.7.9 0 .7-.6 1-1.4 1h-1.9v-3.6zm1.7 1.5c.4 0 .6-.2.6-.5s-.2-.4-.6-.4h-.9v.9h.9zm-.9 1.6h1c.4 0 .6-.2.6-.5s-.2-.5-.7-.5h-1v1zM164.9 19.8h.9v1h-.9v-1zM168.7 15.9h.8l2.6 3.3v-3.3h.8v4.8h-.7l-2.7-3.4v3.4h-.8v-4.8zM173.8 19.4v-2.3h.8v2.1c0 .6.3.9.8.9s.8-.3.8-.9v-2.1h.8v3.6h-.8v-.6c-.2.3-.6.6-1.1.6-.8.1-1.3-.4-1.3-1.3zM178.1 19.8v-1.9h-.5v-.7h.5v-1h.8v1h1v.7h-1v1.8c0 .3.2.5.4.5s.4 0 .5-.1v.7c-.2.1-.4.2-.8.2-.5-.2-.9-.4-.9-1.2zM180.6 17.1h.8v.8c.2-.5.7-.9 1.3-.9v.9c-.7 0-1.2.5-1.2 1.4v1.4h-.8v-3.6zM183.3 15.8h.9v.8h-.9v-.8zm0 1.3h.8v3.6h-.8v-3.6zM185.1 15.7h.8v5h-.8v-5zM186.6 19c0-1.1.8-1.9 1.9-1.9 1.1 0 1.9.9 1.9 1.9 0 1-.8 1.9-2 1.9-1-.1-1.8-.9-1.8-1.9zm3.1 0c0-.7-.5-1.2-1.1-1.2-.7 0-1.1.5-1.1 1.2 0 .6.5 1.2 1.1 1.2.6-.1 1.1-.6 1.1-1.2zM191.2 17.1h.8v.6c.2-.3.6-.6 1.1-.6.8 0 1.3.6 1.3 1.4v2.3h-.8v-2.1c0-.6-.3-.9-.8-.9s-.8.3-.8.9v2.1h-.8v-3.7zM194.8 16.3c0-.4.3-.7.7-.7.4 0 .7.3.7.7 0 .4-.3.7-.7.7-.4 0-.7-.3-.7-.7zm1.3 0c0-.3-.3-.6-.6-.6-.4 0-.6.3-.6.6s.3.6.6.6c.4 0 .6-.3.6-.6zm-.9-.4h.3c.2 0 .3.1.3.2s-.1.2-.2.2l.2.3h-.2l-.2-.2h-.1v.2h-.2v-.7zm.3.4c.1 0 .1 0 .1-.1s0-.1-.1-.1h-.1v.2h.1zM200.9 19.7h-2.4l-.2-.6 2.7-3.2h.7V19h.7v.7h-.7v1.1h-.8v-1.1zm0-.7v-1.9l-1.6 1.9h1.6zM204.8 18.2h5.4v.8h-5.4v-.8zM216.4 20h.4v1.7h-.8v-.9h-2.8v.9h-.8V20h.4l1.3-2.9h.9l1.4 2.9zm-2.6 0h1.8l-.9-2.1-.9 2.1zM220.9 20.8h-.9l-1.1-2.6-1.1 2.6h-.8l1.6-3.7h.8l1.5 3.7zM221.1 20.8l1-1.3c-.5-.2-.8-.5-.8-1.1 0-.8.6-1.2 1.5-1.2h1.7v3.6h-.8v-1.2h-.7l-.9 1.2h-1zm1.6-3c-.4 0-.7.2-.7.6 0 .3.2.6.7.6h.9v-1.1h-.9zM227.2 17.1h3.4v3.6h-.8v-2.9H228v2.9h-.8v-3.6zM231.4 17.1h.8v2.3l1.7-2.3h.8v3.6h-.8v-2.4l-1.8 2.4h-.8v-3.6zM236.6 17.9h-1.3v-.7h3.4v.7h-1.3v2.9h-.8v-2.9zM238.9 19.7c0-.8.6-1.2 1.5-1.2.4 0 .7.1 1 .2v-.1c0-.5-.3-.8-.9-.8-.4 0-.7.1-1 .2l-.2-.7c.4-.2.8-.3 1.4-.3.5 0 1 .1 1.2.4.3.3.4.6.4 1.1v2.2h-.8v-.5c-.2.3-.6.5-1.2.5-.8.1-1.4-.3-1.4-1zm2.5-.3v-.2c-.2-.1-.5-.1-.8-.1-.5 0-.9.2-.9.6 0 .4.3.6.7.6.6-.1 1-.4 1-.9zM243 17.1h.8v1.4h1.7v-1.4h.8v3.6h-.8v-1.5h-1.7v1.5h-.8v-3.6zM247.2 17.1h.8v2.3l1.7-2.3h.8v3.6h-.8v-2.4l-1.8 2.4h-.8v-3.6zM251.2 20.8l1-1.3c-.5-.2-.8-.5-.8-1.1 0-.8.6-1.2 1.5-1.2h1.7v3.6h-.8v-1.2h-.8l-.9 1.2h-.9zm1.6-3c-.4 0-.7.2-.7.6 0 .3.2.6.7.6h.9v-1.1h-.9zM260.8 20h.4v1.7h-.8v-.9h-2.8v.9h-.8V20h.4l1.3-2.9h.9l1.4 2.9zm-2.6 0h1.8l-.9-2.1-.9 2.1zM261.4 19c0-1.1.7-1.9 1.8-1.9 1.2 0 1.7.9 1.7 2v.2h-2.7c.1.6.5.9 1.1.9.4 0 .7-.2 1-.4l.5.4c-.3.4-.8.7-1.5.7-1.1-.1-1.9-.8-1.9-1.9zm2.7-.3c-.1-.5-.4-1-.9-1s-.9.4-.9 1h1.8zM266.4 17.9h-1.3v-.7h3.4v.7h-1.3v2.9h-.8v-2.9zM268.7 19c0-1.1.7-1.9 1.8-1.9 1.2 0 1.7.9 1.7 2v.2h-2.7c.1.6.5.9 1.1.9.4 0 .7-.2 1-.4l.5.4c-.3.4-.8.7-1.5.7-1.1-.1-1.9-.8-1.9-1.9zm2.7-.3c-.1-.5-.4-1-.9-1s-.9.4-.9 1h1.8zM272.9 17.1h.8v2.3l1.7-2.3h.8v3.6h-.8v-2.4l-1.8 2.4h-.8v-3.6zm.5-1.4h.6c.1.2.3.4.6.4s.5-.2.6-.4h.6c-.1.6-.5 1-1.2 1s-1.2-.4-1.2-1zM10.5 26.8c0-1.1.8-1.9 1.9-1.9.7 0 1.1.3 1.5.6l-.5.5c-.3-.3-.5-.5-.9-.5-.6 0-1.1.5-1.1 1.2s.4 1.2 1.1 1.2c.4 0 .7-.2.9-.4l.5.5c-.4.4-.8.7-1.5.7-1.1 0-1.9-.9-1.9-1.9zM17.1 24.6l-.9.2-.2-.7 1.3-.4h.6v4.9h-.8v-4zM18.7 27.3c0-.6.3-1 .9-1.2-.4-.2-.7-.5-.7-1.1 0-.7.7-1.3 1.7-1.3s1.7.6 1.7 1.3c0 .5-.3.9-.7 1.1.5.2.9.6.9 1.2 0 .9-.8 1.4-1.8 1.4s-2-.6-2-1.4zm2.9-.1c0-.5-.4-.7-1-.7s-1 .3-1 .7c0 .4.4.7 1 .7s1-.3 1-.7zm-.2-2.1c0-.4-.3-.7-.9-.7-.5 0-.9.3-.9.7 0 .4.4.7.9.7.6 0 .9-.3.9-.7zM24.9 24.9h.9l1.1 1.7 1.1-1.7h.9v3.6h-.8v-2.4l-1.2 1.7-1.2-1.7v2.4h-.8v-3.6zM29.6 26.8c0-1.1.7-1.9 1.8-1.9 1.2 0 1.7.9 1.7 2v.2h-2.7c.1.6.5.9 1.1.9.4 0 .7-.2 1-.4l.5.4c-.3.4-.8.7-1.5.7-1.1 0-1.9-.8-1.9-1.9zm2.7-.3c-.1-.5-.4-1-.9-1s-.9.4-.9 1h1.8zM33.6 26.8c0-1.1.8-1.9 1.9-1.9.7 0 1.1.3 1.5.6l-.6.5c-.3-.3-.5-.5-.9-.5-.6 0-1.1.5-1.1 1.2s.4 1.2 1.1 1.2c.4 0 .7-.2.9-.4l.6.5c-.4.4-.8.7-1.5.7-1.1 0-1.9-.9-1.9-1.9zM37.3 28.6l1-1.3c-.5-.2-.8-.5-.8-1.1 0-.8.6-1.2 1.5-1.2h1.7v3.6h-.8v-1.2h-.7l-.9 1.2h-1zm1.6-3c-.4 0-.7.2-.7.6 0 .3.2.6.7.6h.9v-1.1h-.9zM44.6 28.6h-3.1V25h.8v2.9H44V25h.8v2.9h.5v1.7h-.8v-1zM45.6 26.8c0-1.1.7-1.9 1.8-1.9 1.2 0 1.7.9 1.7 2v.2h-2.7c.1.6.5.9 1.1.9.4 0 .7-.2 1-.4l.5.4c-.3.4-.8.7-1.5.7-1.1 0-1.9-.8-1.9-1.9zm2.7-.3c-.1-.5-.4-1-.9-1s-.9.4-.9 1h1.8zM49.8 24.9h1.9c.8 0 1.3.3 1.3.9 0 .4-.2.7-.6.8.4.1.7.4.7.9 0 .7-.6 1-1.4 1h-1.9v-3.6zm1.7 1.5c.4 0 .6-.2.6-.5s-.2-.4-.6-.4h-.9v.9h.9zm-.9 1.6h1c.4 0 .6-.2.6-.5s-.2-.5-.7-.5h-1v1zM53.7 27.6h.9v1h-.9v-1zM57.2 26.2c0-1.4 1-2.5 2.5-2.5.9 0 1.4.3 1.9.8l-.6.5c-.4-.4-.8-.6-1.4-.6-.9 0-1.6.8-1.6 1.7 0 .9.7 1.7 1.6 1.7.6 0 1-.2 1.4-.6l.5.6c-.5.5-1.1.9-2 .9-1.3 0-2.3-1.1-2.3-2.5zM62.3 23.7h3.4v.8h-2.5v4.1h-.9v-4.9zM66.4 23.7h1.9c1.1 0 1.8.6 1.8 1.6 0 1.1-.9 1.7-1.9 1.7h-1v1.6h-.9v-4.9zm1.8 2.6c.6 0 1-.4 1-.9 0-.6-.4-.9-1-.9h-1v1.7h1zM72.6 23.7h.7l2.1 3.2v-3.2h.8v4.8h-.7l-2.2-3.3v3.3h-.8v-4.8zm4.3 1.5c0-.9.5-1.5 1.3-1.5s1.3.6 1.3 1.4c0 .8-.5 1.4-1.3 1.4-.8.1-1.3-.5-1.3-1.3zm.1 2h2.5v.5H77v-.5zm1.9-2c0-.6-.3-1-.7-1-.4 0-.7.4-.7.9s.3.9.7.9c.4.1.7-.3.7-.8zM82.2 23.7h2.2c.6 0 1.1.2 1.4.5.3.3.4.6.4 1 0 .8-.5 1.3-1.1 1.5l1.3 1.8h-1l-1.2-1.7H83v1.7h-.9v-4.8zm2.1 2.4c.6 0 1-.3 1-.8s-.4-.8-1-.8H83v1.6h1.3zM86.9 26.5v-2.8h.9v2.8c0 .9.5 1.4 1.2 1.4.8 0 1.2-.4 1.2-1.3v-2.8h.9v2.7c0 1.4-.8 2.2-2.1 2.2s-2.1-.8-2.1-2.2zM91.8 27.6h.9v1h-.9v-1zM95.7 24.5h-2.4v-.7h3.4v.6l-2.2 4.2h-1l2.2-4.1zM99.8 24.5h-2.4v-.7h3.4v.6l-2.2 4.2h-1l2.2-4.1zM100.7 27.6h.9v1h-.9v-1zM105.1 26.4c-.3.3-.6.5-1.1.5-1 0-1.7-.6-1.7-1.5s.7-1.7 1.8-1.7c.6 0 1 .2 1.3.5.4.4.6.9.6 1.8 0 1.6-.8 2.6-2.1 2.6-.7 0-1.1-.2-1.5-.6l.5-.6c.4.3.7.5 1.1.5.8 0 1.1-.9 1.1-1.5zm0-1.1c0-.5-.4-.9-1-.9s-1 .4-1 .9.4.9 1 .9 1-.4 1-.9zM109.5 26.4c-.3.3-.6.5-1.1.5-1 0-1.7-.6-1.7-1.5s.7-1.7 1.8-1.7c.6 0 1 .2 1.3.5.4.4.6.9.6 1.8 0 1.6-.8 2.6-2.1 2.6-.7 0-1.1-.2-1.5-.6l.5-.6c.4.3.7.5 1.1.5.7 0 1-.9 1.1-1.5zm-.1-1.1c0-.5-.4-.9-1-.9s-1 .4-1 .9.4.9 1 .9c.7 0 1-.4 1-.9zM110.9 27.6h.9v1h-.9v-1zM112.4 27.8l.6-.6c.3.4.7.6 1.3.6.5 0 .8-.3.8-.7 0-.5-.4-.7-1.1-.7h-.4l-.1-.5 1.3-1.4h-2.1v-.7h3.2v.6l-1.3 1.4c.7.1 1.4.5 1.4 1.4 0 .9-.7 1.5-1.7 1.5-.8 0-1.5-.4-1.9-.9zM116.6 27.9l1.7-1.4c.7-.6.9-.9.9-1.3 0-.5-.3-.8-.8-.8s-.7.2-1.1.7l-.6-.5c.5-.6.9-1 1.8-1s1.6.6 1.6 1.4c0 .8-.4 1.2-1.3 1.9l-1 .8h2.3v.7h-3.5v-.5zM120.7 27.6h.9v1h-.9v-1zM122.2 26.2c0-1.4.8-2.5 2.1-2.5s2.1 1.1 2.1 2.5-.8 2.5-2.1 2.5-2.1-1.1-2.1-2.5zm3.3 0c0-1-.5-1.7-1.2-1.7s-1.2.8-1.2 1.7c0 1 .5 1.7 1.2 1.7.8 0 1.2-.8 1.2-1.7zM127 26.2c0-1.4.8-2.5 2.1-2.5s2.1 1.1 2.1 2.5-.8 2.5-2.1 2.5-2.1-1.1-2.1-2.5zm3.4 0c0-1-.5-1.7-1.2-1.7s-1.2.8-1.2 1.7c0 1 .5 1.7 1.2 1.7s1.2-.8 1.2-1.7zM131.8 27.9l.5-.6c.4.4.8.6 1.2.6.6 0 1-.3 1-.8s-.4-.8-1-.8c-.3 0-.6.1-.9.2l-.5-.3.1-2.4h2.9v.8H133l-.1 1.1c.2-.1.4-.1.8-.1.9 0 1.7.5 1.7 1.5s-.7 1.6-1.8 1.6c-.8 0-1.4-.3-1.8-.8zM136 27.6h.9v1h-.9v-1zM137.8 23.7h2.2c.6 0 1.1.2 1.4.5.3.3.4.6.4 1 0 .8-.5 1.3-1.1 1.5l1.3 1.8h-1l-1.2-1.7h-1.1v1.7h-.9v-4.8zm2.1 2.4c.6 0 1-.3 1-.8s-.4-.8-1-.8h-1.2v1.6h1.2zM142.5 27.6h.9v1h-.9v-1zM144 26.2c0-1.4.8-2.5 2.1-2.5s2.1 1.1 2.1 2.5-.8 2.5-2.1 2.5-2.1-1.1-2.1-2.5zm3.3 0c0-1-.5-1.7-1.2-1.7s-1.2.8-1.2 1.7c0 1 .5 1.7 1.2 1.7s1.2-.8 1.2-1.7zM148.8 26.2c0-1.4.8-2.5 2.1-2.5s2.1 1.1 2.1 2.5-.8 2.5-2.1 2.5-2.1-1.1-2.1-2.5zm3.3 0c0-1-.5-1.7-1.2-1.7s-1.2.8-1.2 1.7c0 1 .5 1.7 1.2 1.7s1.2-.8 1.2-1.7zM154.4 24.6l-.9.2-.2-.7 1.3-.4h.6v4.9h-.8v-4zM156 27.9l1.7-1.4c.7-.6.9-.9.9-1.3 0-.5-.3-.8-.8-.8s-.7.2-1.1.7l-.6-.5c.5-.6.9-1 1.8-1s1.6.6 1.6 1.4c0 .8-.4 1.2-1.3 1.9l-1 .8h2.3v.7H156v-.5zM160.1 27.3c0-.6.3-1 .9-1.2-.4-.2-.7-.5-.7-1.1 0-.7.7-1.3 1.7-1.3s1.7.6 1.7 1.3c0 .5-.3.9-.7 1.1.5.2.9.6.9 1.2 0 .9-.8 1.4-1.8 1.4s-2-.6-2-1.4zm2.8-.1c0-.5-.4-.7-1-.7s-1 .3-1 .7c0 .4.4.7 1 .7.7 0 1-.3 1-.7zm-.1-2.1c0-.4-.3-.7-.9-.7-.5 0-.9.3-.9.7 0 .4.4.7.9.7s.9-.3.9-.7zM164.2 27.3c0-.6.3-1 .9-1.2-.4-.2-.7-.5-.7-1.1 0-.7.7-1.3 1.7-1.3s1.7.6 1.7 1.3c0 .5-.3.9-.7 1.1.5.2.9.6.9 1.2 0 .9-.8 1.4-1.8 1.4s-2-.6-2-1.4zm2.9-.1c0-.5-.4-.7-1-.7s-1 .3-1 .7c0 .4.4.7 1 .7s1-.3 1-.7zm-.1-2.1c0-.4-.3-.7-.9-.7-.5 0-.9.3-.9.7 0 .4.4.7.9.7s.9-.3.9-.7zM168.6 27.6h.9v1h-.9v-1zM170 26.2c0-1.4.8-2.5 2.1-2.5s2.1 1.1 2.1 2.5-.8 2.5-2.1 2.5-2.1-1.1-2.1-2.5zm3.3 0c0-1-.5-1.7-1.2-1.7s-1.2.8-1.2 1.7c0 1 .5 1.7 1.2 1.7.8 0 1.2-.8 1.2-1.7zM174.8 27.9l.5-.6c.4.4.8.6 1.2.6.6 0 1-.3 1-.8s-.4-.8-1-.8c-.3 0-.6.1-.9.2l-.5-.3.1-2.4h2.9v.8H176l-.1 1.1c.2-.1.4-.1.8-.1.9 0 1.7.5 1.7 1.5s-.7 1.6-1.8 1.6c-.8 0-1.4-.3-1.8-.8zM179 27.6h.9v1h-.9v-1zM180.6 27.9l1.7-1.4c.7-.6.9-.9.9-1.3 0-.5-.3-.8-.8-.8s-.7.2-1.1.7l-.6-.5c.5-.6.9-1 1.8-1s1.6.6 1.6 1.4c0 .8-.4 1.2-1.3 1.9l-1 .8h2.3v.7h-3.5v-.5zM184.6 27.8l.6-.6c.3.4.7.6 1.3.6.5 0 .8-.3.8-.7 0-.5-.4-.7-1.1-.7h-.4l-.1-.5 1.3-1.4h-2.1v-.7h3.2v.6l-1.3 1.4c.7.1 1.4.5 1.4 1.4 0 .9-.7 1.5-1.7 1.5-.9 0-1.5-.4-1.9-.9zM188.8 27.6h.9v1h-.9v-1zM192.5 23.7h.9v2h2.3v-2h.8v4.8h-.8v-2h-2.3v2h-.9v-4.8zM197.3 26.8c0-1.1.7-1.9 1.8-1.9 1.2 0 1.7.9 1.7 2v.2h-2.7c.1.6.5.9 1.1.9.4 0 .7-.2 1-.4l.5.4c-.3.4-.8.7-1.5.7-1.1 0-1.9-.8-1.9-1.9zm2.7-.3c-.1-.5-.4-1-.9-1s-.9.4-.9 1h1.8zM203.1 28.6l1-1.3c-.5-.2-.8-.5-.8-1.1 0-.8.6-1.2 1.5-1.2h1.7v3.6h-.8v-1.2h-.7l-.9 1.2h-1zm1.7-3c-.4 0-.7.2-.7.6 0 .3.2.6.7.6h.9v-1.1h-.9zM207.3 24.9h1.9c.8 0 1.3.3 1.3.9 0 .4-.2.7-.6.8.4.1.7.4.7.9 0 .7-.6 1-1.4 1h-1.9v-3.6zm1.7 1.5c.4 0 .6-.2.6-.5s-.2-.4-.6-.4h-.9v.9h.9zm-.8 1.6h1c.4 0 .6-.2.6-.5s-.2-.5-.7-.5h-1v1zM214.8 28.6h-.9l-1.1-2.6-1.1 2.6h-.9l1.6-3.7h.8l1.6 3.7zM215 28.6l1-1.3c-.5-.2-.8-.5-.8-1.1 0-.8.6-1.2 1.5-1.2h1.7v3.6h-.8v-1.2h-.7l-.9 1.2h-1zm1.7-3c-.4 0-.7.2-.7.6 0 .3.2.6.7.6h.9v-1.1h-.9zM219 26.8c0-1.1.7-1.9 1.8-1.9 1.2 0 1.7.9 1.7 2v.2h-2.7c.1.6.5.9 1.1.9.4 0 .7-.2 1-.4l.5.4c-.3.4-.8.7-1.5.7-1.1 0-1.9-.8-1.9-1.9zm2.7-.3c-.1-.5-.4-1-.9-1s-.9.4-.9 1h1.8zM224 25.7h-1.3V25h3.4v.7h-1.3v2.9h-.8v-2.9zM226.3 26.8c0-1.1.8-1.9 1.9-1.9.7 0 1.1.3 1.5.6l-.5.6c-.3-.3-.5-.5-.9-.5-.6 0-1.1.5-1.1 1.2s.4 1.2 1.1 1.2c.4 0 .7-.2.9-.4l.5.5c-.4.4-.8.7-1.5.7-1.1-.1-1.9-1-1.9-2zM230.1 28.6l1-1.3c-.5-.2-.8-.5-.8-1.1 0-.8.6-1.2 1.5-1.2h1.7v3.6h-.8v-1.2h-.7l-.9 1.2h-1zm1.6-3c-.4 0-.7.2-.7.6 0 .3.2.6.7.6h.9v-1.1h-.9zM236.3 27.6c.4.3.8.4 1.2.4.5 0 .8-.2.8-.5s-.3-.4-.8-.4h-.8v-.6h.8c.4 0 .7-.2.7-.4 0-.3-.3-.4-.7-.4-.4 0-.8.1-1.2.4l-.4-.5c.4-.4 1-.6 1.7-.6.9 0 1.5.4 1.5 1 0 .4-.3.7-.6.8.4.1.7.4.7.9 0 .6-.6 1.1-1.6 1.1-.7 0-1.2-.2-1.7-.5l.4-.7zM239.6 27.5c0-.8.6-1.2 1.5-1.2.4 0 .7.1 1 .2v-.1c0-.5-.3-.8-.9-.8-.4 0-.7.1-1 .2l-.2-.7c.4-.2.8-.3 1.4-.3.5 0 1 .1 1.2.4.3.3.4.6.4 1.1v2.2h-.8V28c-.2.3-.6.5-1.2.5-.8.2-1.4-.2-1.4-1zm2.5-.2V27c-.2-.1-.5-.1-.8-.1-.5 0-.9.2-.9.6 0 .4.3.6.7.6.6 0 1-.4 1-.8zM243.7 24.9h.9l1.1 1.7 1.1-1.7h.9v3.6h-.8v-2.4l-1.2 1.7-1.2-1.7v2.4h-.8v-3.6zM248.4 26.8c0-1.1.7-1.9 1.8-1.9 1.2 0 1.7.9 1.7 2v.2h-2.7c.1.6.5.9 1.1.9.4 0 .7-.2 1-.4l.5.4c-.3.4-.8.7-1.5.7-1.1 0-1.9-.8-1.9-1.9zm2.7-.3c-.1-.5-.4-1-.9-1s-.9.4-.9 1h1.8zM252.5 24.9h.8v1.4h1.7v-1.4h.8v3.6h-.8V27h-1.7v1.5h-.8v-3.6zM256.7 24.9h.8v2.3l1.7-2.3h.8v3.6h-.8v-2.4l-1.8 2.4h-.8v-3.6zM262 25.7h-1.3V25h3.4v.7h-1.3v2.9h-.8v-2.9zM264.3 26.8c0-1.1.7-1.9 1.8-1.9 1.2 0 1.7.9 1.7 2v.2h-2.7c.1.6.5.9 1.1.9.4 0 .7-.2 1-.4l.5.4c-.3.4-.8.7-1.5.7-1.1 0-1.9-.8-1.9-1.9zm2.7-.3c-.1-.5-.4-1-.9-1s-.9.4-.9 1h1.8zM271.9 28.6h-.9l-1.1-2.6-1.1 2.6h-.8l1.6-3.7h.8l1.5 3.7zM272 26.8c0-1.1.7-1.9 1.8-1.9 1.2 0 1.7.9 1.7 2v.2h-2.7c.1.6.5.9 1.1.9.4 0 .7-.2 1-.4l.5.4c-.3.4-.8.7-1.5.7-1 0-1.9-.8-1.9-1.9zm2.7-.3c-.1-.5-.4-1-.9-1s-.9.4-.9 1h1.8zM276.2 24.9h.9l1.1 1.7 1.1-1.7h.9v3.6h-.8v-2.4l-1.2 1.7-1.2-1.7v2.4h-.8v-3.6zM40.9 32.8h2.7v.8h-1.9v2.9h-.8v-3.7zM44.2 32.8h.8v.6c.3-.4.7-.7 1.2-.7.9 0 1.7.7 1.7 1.9s-.8 1.9-1.7 1.9c-.6 0-1-.3-1.2-.6v1.7h-.8v-4.8zm2.9 1.8c0-.7-.5-1.2-1-1.2-.6 0-1.1.5-1.1 1.2s.5 1.2 1.1 1.2c.6 0 1-.5 1-1.2zM51 32.8h.9l-1.5 3.7c-.3.8-.6 1-1.2 1-.3 0-.6-.1-.9-.2l.3-.6c.2.1.3.1.5.1s.4-.1.5-.4l-1.5-3.7h.9l1 2.7 1-2.6zM55.6 35.7h.4v1.7h-.8v-.9h-2.8v.9h-.8v-1.7h.4l1.3-2.9h.9l1.4 2.9zm-2.7 0h1.8l-.9-2.1-.9 2.1zM56.5 32.8h.8v1.4H59v-1.4h.8v3.6H59V35h-1.7v1.5h-.8v-3.7zM60.5 34.6c0-1.1.8-1.9 1.9-1.9 1.1 0 1.9.8 1.9 1.9 0 1-.8 1.9-2 1.9-1 0-1.8-.9-1.8-1.9zm3 0c0-.7-.5-1.2-1.1-1.2-.7 0-1.1.5-1.1 1.2 0 .6.5 1.2 1.1 1.2.7 0 1.1-.6 1.1-1.2zM65 32.8h2.7v.8h-1.9v2.9H65v-3.7zM67.9 34.6c0-1.1.8-1.9 1.9-1.9 1.1 0 1.9.8 1.9 1.9 0 1-.8 1.9-2 1.9-.9 0-1.8-.9-1.8-1.9zm3.1 0c0-.7-.5-1.2-1.1-1.2-.7 0-1.1.5-1.1 1.2 0 .6.5 1.2 1.1 1.2.7 0 1.1-.6 1.1-1.2zM74.4 32.8h.9l1.1 1.7 1.1-1.7h.9v3.6h-.8V34l-1.2 1.7-1.2-1.7v2.4h-.8v-3.6zM79 34.6c0-1.1.8-1.9 1.9-1.9 1.1 0 1.9.8 1.9 1.9 0 1-.8 1.9-2 1.9-1 0-1.8-.9-1.8-1.9zm3.1 0c0-.7-.5-1.2-1.1-1.2-.7 0-1.1.5-1.1 1.2 0 .6.5 1.2 1.1 1.2.6 0 1.1-.6 1.1-1.2zM87 36.4h-1l-1-2.6-1.1 2.6H83l1.6-3.7h.8l1.6 3.7zM87.1 34.6c0-1.1.8-1.9 1.9-1.9 1.1 0 1.9.8 1.9 1.9 0 1-.8 1.9-2 1.9-1 0-1.8-.9-1.8-1.9zm3 0c0-.7-.5-1.2-1.1-1.2-.7 0-1.1.5-1.1 1.2 0 .6.5 1.2 1.1 1.2.7 0 1.1-.6 1.1-1.2zM92.5 34.2h.4l1.2-1.4h1l-1.5 1.8 1.6 1.9h-1L93 35h-.4v1.5h-.8v-3.6h.8v1.3zM95.2 35.4c0-.8.6-1.2 1.5-1.2.4 0 .7.1 1 .2v-.1c0-.5-.3-.8-.9-.8-.4 0-.7.1-1 .2l-.3-.7c.4-.2.8-.3 1.4-.3.5 0 1 .1 1.2.4.3.3.4.6.4 1.1v2.2h-.8V36c-.2.3-.6.5-1.2.5-.7 0-1.3-.4-1.3-1.1zm2.5-.3v-.2c-.2-.1-.5-.1-.8-.1-.5 0-.9.2-.9.6 0 .4.3.6.7.6.6-.1 1-.4 1-.9zM99.3 35.5h.9v1h-.9v-1zM103 31.6h4v4.8h-.9v-4.1h-2.3v4.1h-.8v-4.8zM107.7 34.6c0-1.1.7-1.9 1.8-1.9 1.2 0 1.7.9 1.7 2v.2h-2.7c.1.6.5.9 1.1.9.4 0 .7-.2 1-.4l.5.4c-.3.4-.8.7-1.5.7-1.1 0-1.9-.8-1.9-1.9zm2.7-.3c-.1-.5-.4-1-.9-1s-.9.4-.9 1h1.8zM111.9 32.8h.8v.6c.3-.4.7-.7 1.2-.7.9 0 1.7.7 1.7 1.9s-.8 1.9-1.7 1.9c-.6 0-1-.3-1.2-.6v1.7h-.8v-4.8zm2.9 1.8c0-.7-.5-1.2-1-1.2-.6 0-1.1.5-1.1 1.2s.5 1.2 1.1 1.2c.5 0 1-.5 1-1.2zM116.1 34.6c0-1.1.7-1.9 1.8-1.9 1.2 0 1.7.9 1.7 2v.2H117c.1.6.5.9 1.1.9.4 0 .7-.2 1-.4l.5.4c-.3.4-.8.7-1.5.7-1.1 0-2-.8-2-1.9zm2.7-.3c-.1-.5-.4-1-.9-1s-.9.4-.9 1h1.8zM123.7 35.7h.4v1.7h-.8v-.9h-2.8v.9h-.8v-1.7h.4l1.3-2.9h.9l1.4 2.9zm-2.6 0h1.8l-.9-2.1-.9 2.1zM126.5 32.8h3.4v3.6h-.8v-2.9h-1.7v2.9h-.8v-3.6zM130.7 32.8h.8v.6c.3-.4.7-.7 1.2-.7.9 0 1.7.7 1.7 1.9s-.8 1.9-1.7 1.9c-.6 0-1-.3-1.2-.6v1.7h-.8v-4.8zm3 1.8c0-.7-.5-1.2-1-1.2-.6 0-1.1.5-1.1 1.2s.5 1.2 1.1 1.2c.5 0 1-.5 1-1.2zM135.2 32.8h.8v2.3l1.7-2.3h.8v3.6h-.8V34l-1.8 2.4h-.8v-3.6zM139.4 32.8h.9l1.1 1.7 1.1-1.7h.9v3.6h-.8V34l-1.2 1.7-1.2-1.7v2.4h-.8v-3.6zM144.1 34.6c0-1.1.7-1.9 1.8-1.9 1.2 0 1.7.9 1.7 2v.2h-2.7c.1.6.5.9 1.1.9.4 0 .7-.2 1-.4l.5.4c-.3.4-.8.7-1.5.7-1.1 0-1.9-.8-1.9-1.9zm2.7-.3c-.1-.5-.4-1-.9-1s-.9.4-.9 1h1.8zM148.2 32.8h.8v1.4h1.7v-1.4h.8v3.6h-.8V35H149v1.5h-.8v-3.7zM152.3 34.6c0-1.1.7-1.9 1.8-1.9 1.2 0 1.7.9 1.7 2v.2h-2.7c.1.6.5.9 1.1.9.4 0 .7-.2 1-.4l.5.4c-.3.4-.8.7-1.5.7-1.1 0-1.9-.8-1.9-1.9zm2.7-.3c-.1-.5-.4-1-.9-1s-.9.4-.9 1h1.8zM156.4 32.8h.8v1.4h1.7v-1.4h.8v3.6h-.7V35h-1.7v1.5h-.8v-3.7zM160.7 32.8h.8v2.3l1.7-2.3h.8v3.6h-.8V34l-1.8 2.4h-.8v-3.6zM164.7 34.6c0-1.1.7-1.9 1.8-1.9 1.2 0 1.7.9 1.7 2v.2h-2.7c.1.6.5.9 1.1.9.4 0 .7-.2 1-.4l.5.4c-.3.4-.8.7-1.5.7-1.1 0-1.9-.8-1.9-1.9zm2.7-.3c-.1-.5-.4-1-.9-1s-.9.4-.9 1h1.8zM168.9 32.8h.9l1.1 1.7 1.1-1.7h.9v3.6h-.9V34l-1.2 1.7-1.2-1.7v2.4h-.8v-3.6zM175.6 32.8h3.4v3.6h-.8v-2.9h-1.7v2.9h-.8v-3.6zM179.8 32.8h.8v.6c.3-.4.7-.7 1.2-.7.9 0 1.7.7 1.7 1.9s-.8 1.9-1.7 1.9c-.6 0-1-.3-1.2-.6v1.7h-.8v-4.8zm2.9 1.8c0-.7-.5-1.2-1-1.2-.6 0-1.1.5-1.1 1.2s.5 1.2 1.1 1.2c.6 0 1-.5 1-1.2zM184.1 34.6c0-1.1.8-1.9 1.9-1.9 1.1 0 1.9.8 1.9 1.9 0 1-.8 1.9-2 1.9-1 0-1.8-.9-1.8-1.9zm3 0c0-.7-.5-1.2-1.1-1.2-.7 0-1.1.5-1.1 1.2 0 .6.5 1.2 1.1 1.2.7 0 1.1-.6 1.1-1.2zM189.4 34.2h.4l1.2-1.4h1l-1.5 1.8 1.6 1.9h-1l-1.2-1.5h-.4v1.5h-.8v-3.6h.8v1.3zM192.1 34.6c0-1.1.8-1.9 1.9-1.9 1.1 0 1.9.8 1.9 1.9 0 1-.8 1.9-2 1.9-.9 0-1.8-.9-1.8-1.9zm3.1 0c0-.7-.5-1.2-1.1-1.2-.7 0-1.1.5-1.1 1.2 0 .6.5 1.2 1.1 1.2.7 0 1.1-.6 1.1-1.2zM196.7 32.8h.8v1.4h1.7v-1.4h.8v3.6h-.8V35h-1.7v1.5h-.8v-3.7zM200.7 34.6c0-1.1.8-1.9 1.9-1.9.7 0 1.1.3 1.5.6l-.5.6c-.3-.3-.5-.5-.9-.5-.6 0-1.1.5-1.1 1.2s.4 1.2 1.1 1.2c.4 0 .7-.2.9-.4l.5.5c-.4.4-.8.7-1.5.7-1.1-.1-1.9-1-1.9-2zM207.2 32.8h.9l-1.5 3.7c-.3.8-.6 1-1.2 1-.3 0-.6-.1-.9-.2l.3-.6c.2.1.3.1.5.1s.4-.1.5-.4l-1.5-3.7h.9l1 2.7 1-2.6zM211.7 36.4h-.9l-1.1-2.6-1.1 2.6h-.9l1.6-3.7h.8l1.6 3.7zM212.2 32.8h.8v1.1h.9c.9 0 1.5.5 1.5 1.2 0 .8-.5 1.3-1.5 1.3h-1.6v-3.6zm1.6 2.9c.5 0 .7-.2.7-.6 0-.3-.2-.6-.7-.6h-.8v1.2h.8zM216.6 33.5h-1.3v-.7h3.4v.7h-1.3v2.9h-.8v-2.9zM219.2 32.8h.8v2.3l1.7-2.3h.8v3.6h-.8V34l-1.8 2.4h-.8v-3.6zM223.5 32.8h.8v.6c.3-.4.7-.7 1.2-.7.9 0 1.7.7 1.7 1.9s-.8 1.9-1.7 1.9c-.6 0-1-.3-1.2-.6v1.7h-.8v-4.8zm2.9 1.8c0-.7-.5-1.2-1-1.2-.6 0-1.1.5-1.1 1.2s.5 1.2 1.1 1.2c.5 0 1-.5 1-1.2zM230.3 32.8h.9l-1.5 3.7c-.3.8-.6 1-1.2 1-.3 0-.6-.1-.9-.2l.3-.6c.2.1.3.1.5.1s.4-.1.5-.4l-1.5-3.7h.9l1 2.7 1-2.6zM231.7 32.8h.8v2.3l1.7-2.3h.8v3.6h-.8V34l-1.8 2.4h-.8v-3.6zm.5-1.5h.6c.1.2.3.4.6.4s.5-.2.6-.4h.6c-.1.6-.5 1-1.2 1s-1.2-.4-1.2-1zM236.9 33.5h-1.3v-.7h3.4v.7h-1.3v2.9h-.8v-2.9zM239.2 34.6c0-1.1.7-1.9 1.8-1.9 1.2 0 1.7.9 1.7 2v.2H240c.1.6.5.9 1.1.9.4 0 .7-.2 1-.4l.5.4c-.3.4-.8.7-1.5.7-1.1 0-1.9-.8-1.9-1.9zm2.7-.3c-.1-.5-.4-1-.9-1s-.9.4-.9 1h1.8zM243.2 34.6c0-1.1.8-1.9 1.9-1.9.7 0 1.1.3 1.5.6l-.5.6c-.3-.3-.5-.5-.9-.5-.6 0-1.1.5-1.1 1.2s.4 1.2 1.1 1.2c.4 0 .7-.2.9-.4l.5.5c-.4.4-.8.7-1.5.7-1.1-.1-1.9-1-1.9-2zM247.1 32.8h.8v1.1h.9c.9 0 1.5.5 1.5 1.2 0 .8-.5 1.3-1.5 1.3h-1.6v-3.6zm1.7 2.9c.5 0 .7-.2.7-.6 0-.3-.2-.6-.7-.6h-.8v1.2h.8zM72.4 42.4c0-1.1.8-1.9 1.9-1.9.7 0 1.1.3 1.5.6l-.5.6c-.3-.3-.5-.5-.9-.5-.6 0-1.1.5-1.1 1.2s.4 1.2 1.1 1.2c.4 0 .7-.2.9-.4l.5.5c-.4.4-.8.7-1.5.7-1.1-.1-1.9-.9-1.9-2zM76.1 42.4c0-1.1.8-1.9 1.9-1.9 1.1 0 1.9.9 1.9 1.9 0 1-.8 1.9-2 1.9-1 0-1.8-.8-1.8-1.9zm3.1 0c0-.7-.5-1.2-1.1-1.2-.7 0-1.1.5-1.1 1.2 0 .6.5 1.2 1.1 1.2.6 0 1.1-.5 1.1-1.2zM82.3 42.4c0-1.1.8-1.9 1.9-1.9.7 0 1.1.3 1.5.6l-.5.6c-.3-.3-.5-.5-.9-.5-.6 0-1.1.5-1.1 1.2s.4 1.2 1.1 1.2c.4 0 .7-.2.9-.4l.5.5c-.4.4-.8.7-1.5.7-1.1-.1-1.9-.9-1.9-2zM86.3 40.6h3.4v3.6h-.8v-2.9h-1.7v2.9h-.8v-3.6zM90.3 42.4c0-1.1.7-1.9 1.8-1.9 1.2 0 1.7.9 1.7 2v.2h-2.7c.1.6.5.9 1.1.9.4 0 .7-.2 1-.4l.5.4c-.3.4-.8.7-1.5.7-1.1 0-1.9-.8-1.9-1.9zm2.7-.3c-.1-.5-.4-1-.9-1s-.9.4-.9 1H93zM97.5 44.2h-3.1v-3.6h.8v2.9H97v-2.9h.8v2.9h.5v1.7h-.8v-1zM98.8 40.6h.8v2.3l1.7-2.3h.8v3.6h-.8v-2.4l-1.8 2.4h-.8v-3.6zM102.8 43.2c0-.8.6-1.2 1.5-1.2.4 0 .7.1 1 .2v-.1c0-.5-.3-.8-.9-.8-.4 0-.7.1-1 .2l-.2-.7c.4-.2.8-.3 1.4-.3.5 0 1 .1 1.2.4.3.3.4.6.4 1.1v2.2h-.8v-.5c-.2.3-.6.5-1.2.5-.8.1-1.4-.3-1.4-1zm2.5-.3v-.2c-.2-.1-.5-.1-.8-.1-.5 0-.9.2-.9.6 0 .4.3.6.7.6.6-.1 1-.4 1-.9zM110.5 44.2h-.9l-1.1-2.6-1.1 2.6h-.9l1.6-3.7h.8l1.6 3.7zM111 40.6h.8v2.3l1.7-2.3h.8v3.6h-.8v-2.4l-1.8 2.4h-.7v-3.6zM115.1 42.4c0-1.1.8-1.9 1.9-1.9.7 0 1.1.3 1.5.6l-.5.6c-.3-.3-.5-.5-.9-.5-.6 0-1.1.5-1.1 1.2s.4 1.2 1.1 1.2c.4 0 .7-.2.9-.4l.5.5c-.4.4-.8.7-1.5.7-1.1-.1-1.9-.9-1.9-2zM119.9 41.3h-1.3v-.7h3.4v.7h-1.3v2.9h-.8v-2.9zM122.2 42.4c0-1.1.8-1.9 1.9-1.9 1.1 0 1.9.9 1.9 1.9 0 1-.8 1.9-2 1.9-.9 0-1.8-.8-1.8-1.9zm3.1 0c0-.7-.5-1.2-1.1-1.2-.7 0-1.1.5-1.1 1.2 0 .6.5 1.2 1.1 1.2.7 0 1.1-.5 1.1-1.2zM126.8 40.6h.9l1.1 1.7 1.1-1.7h.9v3.6h-.8v-2.4l-1.2 1.7-1.2-1.7v2.4h-.8v-3.6zM131.6 43.3h.9v1h-.9v-1zM136.5 40.2H135v-.8h3.9v.8h-1.5v4.1h-.9v-4.1zM138.5 42.4c0-1.1.8-1.9 1.9-1.9 1.1 0 1.9.9 1.9 1.9 0 1-.8 1.9-2 1.9-1 0-1.8-.8-1.8-1.9zm3 0c0-.7-.5-1.2-1.1-1.2-.7 0-1.1.5-1.1 1.2 0 .6.5 1.2 1.1 1.2.7 0 1.1-.5 1.1-1.2zM143 40.6h1.9c.8 0 1.3.3 1.3.9 0 .4-.2.7-.6.8.4.1.7.4.7.9 0 .7-.6 1-1.4 1H143v-3.6zm1.7 1.5c.4 0 .6-.2.6-.5s-.2-.4-.6-.4h-.9v.9h.9zm-.9 1.5h1c.4 0 .6-.2.6-.5s-.2-.5-.7-.5h-1v1zM146.7 43.2c0-.8.6-1.2 1.5-1.2.4 0 .7.1 1 .2v-.1c0-.5-.3-.8-.9-.8-.4 0-.7.1-1 .2l-.2-.7c.4-.2.8-.3 1.4-.3.5 0 1 .1 1.2.4.3.3.4.6.4 1.1v2.2h-.8v-.5c-.2.3-.6.5-1.2.5-.8.1-1.4-.3-1.4-1zm2.5-.3v-.2c-.2-.1-.5-.1-.8-.1-.5 0-.9.2-.9.6 0 .4.3.6.7.6.6-.1 1-.4 1-.9zM150.8 40.6h.8v.6c.3-.4.7-.7 1.2-.7.9 0 1.7.7 1.7 1.9s-.8 1.9-1.7 1.9c-.6 0-1-.3-1.2-.6v1.7h-.8v-4.8zm2.9 1.8c0-.7-.5-1.2-1-1.2-.6 0-1.1.5-1.1 1.2s.5 1.2 1.1 1.2c.6 0 1-.5 1-1.2zM157.3 43.2c.4.3.8.4 1.2.4.5 0 .8-.2.8-.5s-.3-.4-.8-.4h-.8v-.6h.8c.4 0 .7-.2.7-.4 0-.3-.3-.4-.7-.4-.4 0-.8.1-1.2.4l-.4-.5c.4-.4 1-.6 1.7-.6.9 0 1.5.4 1.5 1 0 .4-.3.7-.6.8.4.1.7.4.7.9 0 .6-.6 1.1-1.6 1.1-.7 0-1.2-.2-1.7-.5l.4-.7zM160.6 43.2c0-.8.6-1.2 1.5-1.2.4 0 .7.1 1 .2v-.1c0-.5-.3-.8-.9-.8-.4 0-.7.1-1 .2l-.2-.7c.4-.2.8-.3 1.4-.3.5 0 1 .1 1.2.4.3.3.4.6.4 1.1v2.2h-.8v-.5c-.2.3-.6.5-1.2.5-.8.1-1.4-.3-1.4-1zm2.5-.3v-.2c-.2-.1-.5-.1-.8-.1-.5 0-.9.2-.9.6 0 .4.3.6.7.6.6-.1 1-.4 1-.9zM164.7 40.6h.8v.6c.3-.4.7-.7 1.2-.7.9 0 1.7.7 1.7 1.9s-.8 1.9-1.7 1.9c-.6 0-1-.3-1.2-.6v1.7h-.8v-4.8zm2.9 1.8c0-.7-.5-1.2-1-1.2-.6 0-1.1.5-1.1 1.2s.5 1.2 1.1 1.2c.5 0 1-.5 1-1.2zM168.9 42.4c0-1.1.7-1.9 1.8-1.9 1.2 0 1.7.9 1.7 2v.2h-2.7c.1.6.5.9 1.1.9.4 0 .7-.2 1-.4l.5.4c-.3.4-.8.7-1.5.7-1 0-1.9-.8-1.9-1.9zm2.7-.3c-.1-.5-.4-1-.9-1s-.9.4-.9 1h1.8zM173.1 40.6h2.7v.8H174v2.9h-.8v-3.7zM176.4 40.6h.8v2.3l1.7-2.3h.8v3.6h-.8v-2.4l-1.8 2.4h-.8v-3.6zM180.4 42.4c0-1.1.8-1.9 1.9-1.9.7 0 1.1.3 1.5.6l-.5.6c-.3-.3-.5-.5-.9-.5-.6 0-1.1.5-1.1 1.2s.4 1.2 1.1 1.2c.4 0 .7-.2.9-.4l.5.5c-.4.4-.8.7-1.5.7-1.1-.1-1.9-.9-1.9-2zM185.3 41.3H184v-.7h3.4v.7h-1.3v2.9h-.8v-2.9zM188 40.6h.8v.6c.3-.4.7-.7 1.2-.7.9 0 1.7.7 1.7 1.9s-.8 1.9-1.7 1.9c-.6 0-1-.3-1.2-.6v1.7h-.8v-4.8zm2.9 1.8c0-.7-.5-1.2-1-1.2-.6 0-1.1.5-1.1 1.2s.5 1.2 1.1 1.2c.5 0 1-.5 1-1.2zM192.4 40.6h.8v2.3l1.7-2.3h.8v3.6h-.7v-2.4l-1.8 2.4h-.8v-3.6zM196.7 40.6h.8v.6c.3-.4.7-.7 1.2-.7.9 0 1.7.7 1.7 1.9s-.8 1.9-1.7 1.9c-.6 0-1-.3-1.2-.6v1.7h-.8v-4.8zm2.9 1.8c0-.7-.5-1.2-1-1.2-.6 0-1.1.5-1.1 1.2s.5 1.2 1.1 1.2c.5 0 1-.5 1-1.2zM200.9 42.4c0-1.1.8-1.9 1.9-1.9 1.1 0 1.9.9 1.9 1.9 0 1-.8 1.9-2 1.9-1 0-1.8-.8-1.8-1.9zm3.1 0c0-.7-.5-1.2-1.1-1.2-.7 0-1.1.5-1.1 1.2 0 .6.5 1.2 1.1 1.2.6 0 1.1-.5 1.1-1.2zM205.5 40.6h1.9c.8 0 1.3.3 1.3.9 0 .4-.2.7-.6.8.4.1.7.4.7.9 0 .7-.6 1-1.4 1h-1.9v-3.6zm1.6 1.5c.4 0 .6-.2.6-.5s-.2-.4-.6-.4h-.9v.9h.9zm-.8 1.5h1c.4 0 .6-.2.6-.5s-.2-.5-.7-.5h-1v1zM209.1 43.2c0-.8.6-1.2 1.5-1.2.4 0 .7.1 1 .2v-.1c0-.5-.3-.8-.9-.8-.4 0-.7.1-1 .2l-.2-.7c.4-.2.8-.3 1.4-.3.5 0 1 .1 1.2.4.3.3.4.6.4 1.1v2.2h-.8v-.5c-.2.3-.6.5-1.2.5-.7.1-1.4-.3-1.4-1zm2.6-.3v-.2c-.2-.1-.5-.1-.8-.1-.5 0-.9.2-.9.6 0 .4.3.6.7.6.5-.1 1-.4 1-.9zM213.3 40.6h.8V42h1.7v-1.4h.8v3.6h-.8v-1.5h-1.7v1.5h-.8v-3.6zM217.4 43.3h.9v1h-.9v-1z"/></svg>