<?xml version="1.0" encoding="utf-8"?>
<!-- Generator: Adobe Illustrator 25.2.3, SVG Export Plug-In . SVG Version: 6.00 Build 0)  -->
<svg version="1.1" id="Layer_1" xmlns="http://www.w3.org/2000/svg" xmlns:xlink="http://www.w3.org/1999/xlink" x="0px" y="0px"
	 viewBox="0 0 240 400" style="enable-background:new 0 0 240 400;" xml:space="preserve">
<style type="text/css">
	.st0{fill:#F9F8F3;}
	.st1{fill:#FEDF6A;}
</style>
<g>
	<g>
		<path class="st0" d="M70.4,128.2h3.7v5.5l4.7-5.5h4.5l-5.2,5.9l5.3,7.8h-4.5l-3.4-5l-1.4,1.5v3.5h-3.7
			C70.4,141.8,70.4,128.2,70.4,128.2z"/>
		<path class="st0" d="M84.5,141.1l1.4-2.7c0.5,0.3,1,0.5,1.5,0.5c0.5,0,0.8-0.2,1.2-0.6l-5.3-10.1h4.2l3.1,6.4l2.9-6.4h4.1
			l-5.3,10.4c-0.6,1.2-1.3,2.1-2,2.6c-0.7,0.5-1.6,0.8-2.6,0.8C86.6,142,85.5,141.7,84.5,141.1z"/>
		<path class="st0" d="M98.9,128.2h12.2v13.6h-3.7v-10.2h-4.7v10.3H99L98.9,128.2L98.9,128.2z"/>
		<path class="st0" d="M113.4,128.2h3.7v7.6l5.3-7.6h3.5v13.6h-3.7v-7.6l-5.3,7.6h-3.5V128.2z"/>
		<path class="st0" d="M131.7,131.5h-4.1v-3.3h11.9v3.3h-4.1v10.3h-3.7L131.7,131.5L131.7,131.5z"/>
		<path class="st0" d="M141.2,128.2h10.9v3.2h-7.2v2.1h6.6v3h-6.6v2.1h7.3v3.2h-11.1L141.2,128.2L141.2,128.2z"/>
		<path class="st0" d="M69.7,153.2L69.7,153.2l2.3-3l1.4,0.7l-1.5,2.2l1.5,2.2L72,156L69.7,153.2z M73.2,153.2L73.2,153.2l2.3-3
			l1.4,0.7l-1.5,2.2l1.5,2.2l-1.4,0.7L73.2,153.2z"/>
		<path class="st0" d="M78.6,147.5h1.8l4.3,5.6v-5.6h2v9.1H85l-4.4-5.8v5.8h-2V147.5z"/>
		<path class="st0" d="M89.2,156.1c-0.4-0.5-0.6-1.1-0.6-1.9v-4.5h2v3.9c0,0.9,0.4,1.4,1.2,1.4c0.8,0,1.2-0.5,1.2-1.4v-3.9h2v6.9h-2
			v-1c-0.6,0.8-1.2,1.1-2.1,1.1C90.2,156.8,89.6,156.5,89.2,156.1z"/>
		<path class="st0" d="M97,154.6v-3.3h-0.8v-1.7H97v-1.8h2v1.8h1.6v1.7H99v3c0,0.5,0.2,0.7,0.6,0.7s0.7-0.1,1-0.2v1.6
			c-0.5,0.3-1,0.4-1.5,0.4C97.7,156.7,97,156,97,154.6z"/>
		<path class="st0" d="M102.1,149.7h2v1.4c0.5-1.1,1.2-1.6,2.2-1.5v2.1h-0.1c-1.4,0-2.1,0.8-2.1,2.4v2.6h-2L102.1,149.7L102.1,149.7
			z"/>
		<path class="st0" d="M107.6,147.2h2.1v1.8h-2.1V147.2z M107.6,149.7h2v6.9h-2V149.7z"/>
		<path class="st0" d="M111.5,147.2h2v9.5h-2V147.2z"/>
		<path class="st0" d="M115.9,155.7c-0.7-0.7-1.1-1.5-1.1-2.5l0,0c0-1,0.4-1.8,1.1-2.5c0.8-0.7,1.6-1.1,2.7-1.1c1.1,0,2,0.4,2.7,1.1
			c0.7,0.7,1.1,1.5,1.1,2.5l0,0c0,1-0.4,1.8-1.1,2.5c-0.8,0.7-1.6,1.1-2.7,1.1C117.5,156.8,116.6,156.4,115.9,155.7z M119.9,154.5
			c0.3-0.4,0.5-0.8,0.5-1.4l0,0c0-0.5-0.2-1-0.5-1.4c-0.4-0.4-0.8-0.5-1.3-0.5s-1,0.2-1.3,0.5c-0.3,0.4-0.5,0.8-0.5,1.4l0,0
			c0,0.5,0.2,1,0.5,1.4c0.4,0.4,0.8,0.5,1.3,0.5C119.1,155.1,119.5,154.9,119.9,154.5z"/>
		<path class="st0" d="M123.7,149.7h2v1c0.6-0.8,1.2-1.1,2.1-1.1c0.8,0,1.4,0.2,1.8,0.7c0.4,0.5,0.6,1.1,0.6,1.9v4.5h-2v-3.9
			c0-0.9-0.4-1.4-1.2-1.4s-1.2,0.5-1.2,1.4v3.9h-2L123.7,149.7L123.7,149.7z"/>
		<path class="st0" d="M131.5,155.4l1.5-2.2l-1.5-2.2l1.4-0.7l2.3,2.9v0.1l-2.3,2.9L131.5,155.4z M135.1,155.4l1.5-2.2l-1.5-2.2
			l1.4-0.7l2.3,2.9v0.1l-2.3,2.9L135.1,155.4z"/>
		<path class="st0" d="M143.6,155.2l1.4-1.3c0.6,0.8,1.4,1.1,2.2,1.1c0.4,0,0.7-0.1,0.9-0.3c0.2-0.2,0.4-0.5,0.4-0.8l0,0
			c0-0.8-0.6-1.1-1.8-1.1h-0.8l-0.3-1.3l2.1-2.2h-3.6v-1.6h6.1v1.5l-2.3,2.2c1.6,0.3,2.4,1.1,2.4,2.5l0,0c0,0.8-0.3,1.6-0.8,2.1
			c-0.6,0.5-1.4,0.8-2.4,0.8C145.7,156.8,144.6,156.2,143.6,155.2z"/>
		<path class="st0" d="M156,149.7h2v3.8l2.7-3.8h1.8v6.9h-2v-4l-2.8,4H156V149.7z"/>
		<path class="st0" d="M171.3,156.6h-2.1l-1.8-4.6l-1.8,4.6h-2.1l2.9-7h1.8L171.3,156.6z"/>
		<path class="st0" d="M172.4,149.7h2v3.8l2.7-3.8h1.8v6.9h-2v-4l-2.8,4h-1.8V149.7z"/>
		<path class="st0" d="M188.9,154.6h-4.4l-0.3-1.4l5-5.8h1.7v5.6h1.2v1.6h-1.2v2h-1.9V154.6z M188.9,153v-2.8l-2.4,2.8H188.9z"/>
		<path class="st0" d="M195.1,150.2l-1.2,1l-0.5-0.9l1.4-0.6l-1.5-0.6l0.5-0.9l1.2,1l-0.2-1.5h1.1l-0.2,1.5l1.2-1l0.5,0.9l-1.4,0.6
			l1.4,0.6l-0.5,0.9l-1.2-1l0.2,1.5h-1.1L195.1,150.2z"/>
		<path class="st0" d="M70.7,170.5c-0.7-0.7-1-1.5-1-2.5l0,0c0-1,0.3-1.8,1-2.5c0.7-0.7,1.6-1.1,2.6-1.1c1.1,0,2.1,0.4,2.7,1.1
			l-1.2,1.3c-0.5-0.5-1-0.8-1.6-0.8c-0.5,0-0.9,0.2-1.2,0.5c-0.3,0.4-0.5,0.8-0.5,1.4l0,0c0,0.5,0.2,1,0.5,1.4
			c0.3,0.4,0.8,0.5,1.3,0.5c0.5,0,1.1-0.2,1.6-0.8l1.1,1.1c-0.8,0.8-1.7,1.3-2.8,1.3C72.3,171.6,71.4,171.2,70.7,170.5z"/>
		<path class="st0" d="M82.2,170.6c-0.8-0.8-1.1-1.8-1.1-3.3l0,0c0-3,1.2-4.7,3.7-5l2.6-0.5l0.3,1.8l-2.6,0.4
			c-1.3,0.2-2,0.8-2.2,1.8c0.6-0.5,1.4-0.8,2.4-0.8c1,0,1.8,0.3,2.4,0.8c0.5,0.5,0.8,1.3,0.8,2.2l0,0c0,1-0.3,1.8-1,2.4
			c-0.7,0.7-1.6,1-2.7,1C83.6,171.6,82.9,171.3,82.2,170.6z M86,169.4c0.3-0.3,0.5-0.8,0.5-1.3l0,0c0-0.5-0.2-0.8-0.5-1.1
			s-0.7-0.5-1.2-0.5c-0.5,0-1,0.2-1.4,0.5c-0.3,0.3-0.5,0.8-0.5,1.2l0,0c0,0.5,0.2,0.9,0.5,1.2c0.3,0.3,0.8,0.5,1.2,0.5
			C85.2,169.9,85.7,169.7,86,169.4z"/>
		<path class="st0" d="M90.6,170.5c-0.7-0.7-1.1-1.5-1.1-2.5l0,0c0-1,0.4-1.8,1.1-2.5c0.8-0.7,1.6-1.1,2.7-1.1s2,0.4,2.7,1.1
			c0.7,0.7,1.1,1.5,1.1,2.5l0,0c0,1-0.4,1.8-1.1,2.5c-0.8,0.7-1.6,1.1-2.7,1.1S91.3,171.3,90.6,170.5z M94.6,169.3
			c0.3-0.4,0.5-0.8,0.5-1.4l0,0c0-0.5-0.2-1-0.5-1.4c-0.4-0.4-0.8-0.5-1.3-0.5s-1,0.2-1.3,0.5c-0.3,0.4-0.5,0.8-0.5,1.4l0,0
			c0,0.5,0.2,1,0.5,1.4s0.8,0.5,1.3,0.5C93.8,169.9,94.2,169.7,94.6,169.3z"/>
		<path class="st0" d="M98.4,164.5h2v2.5h2.6v-2.5h2v6.9h-2v-2.6h-2.6v2.6h-2V164.5z"/>
		<path class="st0" d="M111.1,164.5h2.1l-2.7,7.1c-0.2,0.7-0.5,1.2-0.9,1.5c-0.4,0.3-0.8,0.5-1.4,0.5c-0.6,0-1.2-0.2-1.8-0.5
			l0.7-1.4c0.3,0.2,0.6,0.3,0.8,0.3c0.3,0,0.5-0.2,0.7-0.5l-2.7-6.9h2.1l1.6,4.7L111.1,164.5z"/>
		<path class="st0" d="M114.6,170.5c-0.7-0.7-1-1.5-1-2.5l0,0c0-1,0.3-1.8,1-2.5c0.7-0.7,1.6-1.1,2.6-1.1c1.1,0,2.1,0.4,2.7,1.1
			l-1.2,1.3c-0.5-0.5-1-0.8-1.6-0.8c-0.5,0-0.9,0.2-1.2,0.5c-0.3,0.4-0.5,0.8-0.5,1.4l0,0c0,0.5,0.2,1,0.5,1.4
			c0.3,0.4,0.8,0.5,1.3,0.5s1.1-0.2,1.6-0.8l1.1,1.1c-0.8,0.8-1.7,1.3-2.8,1.3C116.2,171.6,115.3,171.2,114.6,170.5z"/>
		<path class="st0" d="M121.3,164.5h2v2.5h2.6v-2.5h2v6.9h-2v-2.6h-2.6v2.6h-2V164.5z"/>
		<path class="st0" d="M130.1,170.5c-0.7-0.7-1.1-1.5-1.1-2.5l0,0c0-1,0.4-1.8,1.1-2.5c0.8-0.7,1.6-1.1,2.7-1.1s2,0.4,2.7,1.1
			c0.7,0.7,1.1,1.5,1.1,2.5l0,0c0,1-0.4,1.8-1.1,2.5c-0.8,0.7-1.6,1.1-2.7,1.1S130.8,171.3,130.1,170.5z M134.2,169.3
			c0.3-0.4,0.5-0.8,0.5-1.4l0,0c0-0.5-0.2-1-0.5-1.4c-0.4-0.4-0.8-0.5-1.3-0.5c-0.5,0-1,0.2-1.3,0.5c-0.3,0.4-0.5,0.8-0.5,1.4l0,0
			c0,0.5,0.2,1,0.5,1.4c0.4,0.4,0.8,0.5,1.3,0.5C133.3,169.9,133.8,169.7,134.2,169.3z"/>
		<path class="st0" d="M138,164.5h2v3.8l2.7-3.8h1.8v6.9h-2v-4l-2.8,4H138V164.5z M139.5,163.2c-0.5-0.4-0.7-0.8-0.8-1.5h1.3
			c0.2,0.5,0.5,0.8,1.1,0.8c0.5,0,0.9-0.2,1.1-0.8h1.3c-0.1,0.6-0.3,1.1-0.8,1.5s-1,0.5-1.7,0.5C140.6,163.7,140,163.6,139.5,163.2z
			"/>
		<path class="st0" d="M152.1,167.1h0.5l2-2.6h2.4l-2.8,3.4l3,3.6h-2.4l-2.1-2.7h-0.5v2.7h-2v-6.9h2V167.1z"/>
		<path class="st0" d="M158.1,171c-0.5-0.4-0.7-0.9-0.7-1.6l0,0c0-0.8,0.2-1.3,0.8-1.7c0.5-0.4,1.1-0.5,2.1-0.5
			c0.5,0,1.1,0.1,1.7,0.3v-0.2c0-0.8-0.5-1.3-1.5-1.3c-0.6,0-1.3,0.2-1.9,0.4l-0.5-1.5c0.8-0.4,1.8-0.5,2.7-0.5
			c1.1,0,1.8,0.2,2.4,0.8c0.5,0.5,0.8,1.2,0.8,2.2v4h-1.9v-0.8c-0.5,0.6-1.2,0.9-2.1,0.9C159.2,171.6,158.6,171.3,158.1,171z
			 M161.6,169.8c0.3-0.2,0.4-0.5,0.4-0.9v-0.4c-0.4-0.2-0.8-0.2-1.2-0.2c-0.9,0-1.4,0.3-1.4,1l0,0c0,0.2,0.1,0.5,0.3,0.6
			c0.2,0.2,0.5,0.2,0.8,0.2C160.9,170.2,161.3,170,161.6,169.8z"/>
		<path class="st0" d="M165.5,164.5h2v1c0.5-0.8,1.3-1.1,2.1-1.1s1.6,0.3,2.2,0.9c0.6,0.7,1,1.6,1,2.7l0,0c0,1.1-0.3,2-1,2.7
			c-0.6,0.6-1.3,0.9-2.2,0.9c-0.8,0-1.6-0.4-2.1-1.1v3h-2V164.5z M170.3,169.4c0.3-0.4,0.5-0.8,0.5-1.4l0,0c0-0.5-0.2-1-0.5-1.4
			c-0.3-0.4-0.7-0.5-1.2-0.5s-0.8,0.2-1.2,0.5c-0.3,0.4-0.5,0.8-0.5,1.4l0,0c0,0.5,0.2,1,0.5,1.4c0.3,0.4,0.7,0.5,1.2,0.5
			S170,169.7,170.3,169.4z"/>
		<path class="st0" d="M175.8,166.2h-2.3v-1.8h6.5v1.8h-2.3v5.2h-2L175.8,166.2L175.8,166.2z"/>
		<path class="st0" d="M181.8,170.5c-0.7-0.7-1.1-1.5-1.1-2.5l0,0c0-1,0.4-1.8,1.1-2.5c0.8-0.7,1.6-1.1,2.7-1.1c1.1,0,2,0.4,2.7,1.1
			c0.7,0.7,1.1,1.5,1.1,2.5l0,0c0,1-0.4,1.8-1.1,2.5c-0.8,0.7-1.6,1.1-2.7,1.1C183.4,171.6,182.5,171.3,181.8,170.5z M185.8,169.3
			c0.3-0.4,0.5-0.8,0.5-1.4l0,0c0-0.5-0.2-1-0.5-1.4c-0.4-0.4-0.8-0.5-1.3-0.5c-0.5,0-1,0.2-1.3,0.5c-0.3,0.4-0.5,0.8-0.5,1.4l0,0
			c0,0.5,0.2,1,0.5,1.4c0.4,0.4,0.8,0.5,1.3,0.5C185.1,169.9,185.5,169.7,185.8,169.3z"/>
		<path class="st0" d="M189.6,164.5h2v3.8l2.7-3.8h1.8v6.9h-2v-4l-2.8,4h-1.8V164.5z M191.2,163.2c-0.5-0.4-0.7-0.8-0.8-1.5h1.3
			c0.2,0.5,0.5,0.8,1.1,0.8c0.5,0,0.9-0.2,1.1-0.8h1.3c-0.1,0.6-0.3,1.1-0.8,1.5c-0.5,0.4-1,0.5-1.7,0.5
			C192.2,163.7,191.7,163.6,191.2,163.2z"/>
	</g>
	<g>
		<path class="st1" d="M36,139.5l-7.9,1.8l-2.4-9.9l13.6-3.8h9.3v46.7H36V139.5z"/>
	</g>
</g>
</svg>
