<?xml version="1.0" encoding="utf-8"?>
<!-- Generator: Adobe Illustrator 25.2.3, SVG Export Plug-In . SVG Version: 6.00 Build 0)  -->
<svg version="1.1" id="Layer_1" xmlns="http://www.w3.org/2000/svg" xmlns:xlink="http://www.w3.org/1999/xlink" x="0px" y="0px"
	 viewBox="0 0 240 400" style="enable-background:new 0 0 240 400;" xml:space="preserve">
<style type="text/css">
	.st0{fill:#F9F8F3;}
	.st1{fill:#FDDF6B;}
</style>
<g>
	<path class="st0" d="M70.8,264.6l1.4-2.7c0.5,0.3,1,0.5,1.5,0.5c0.5,0,0.8-0.2,1.2-0.6l-5.3-10.1h4.2L77,258l2.9-6.4H84L78.7,262
		c-0.6,1.2-1.3,2.1-2,2.6c-0.7,0.5-1.6,0.8-2.6,0.8C72.9,265.5,71.9,265.2,70.8,264.6z"/>
	<path class="st0" d="M92.8,260.5c-1,0.6-2.1,0.8-3.5,0.8c-1.4,0-2.5-0.4-3.4-1.2c-0.8-0.8-1.2-1.9-1.2-3.4v-5.2h3.7v4.1
		c0,1.4,0.6,2.1,1.8,2.1c1,0,1.8-0.2,2.4-0.8v-5.5h3.7v13.6h-3.7v-4.7H92.8z"/>
	<path class="st0" d="M103.8,251.6h3.7l5.8,13.7h-4l-1-2.4h-5.3l-1,2.4h-4L103.8,251.6z M107,259.9l-1.5-3.9l-1.5,3.9H107z"/>
	<path class="st0" d="M115.3,263.6c-1.4-1.4-2.1-3.1-2.1-5.1c0-2,0.7-3.7,2.1-5c1.4-1.4,3.1-2.1,5.1-2.1c2.4,0,4.3,1,5.7,2.9
		l-2.7,2.1c-0.8-1.1-1.8-1.6-3-1.6c-0.9,0-1.8,0.4-2.4,1.1c-0.6,0.7-0.9,1.5-0.9,2.6c0,1.1,0.3,1.9,0.9,2.6c0.6,0.7,1.4,1.1,2.4,1.1
		c1.1,0,2.1-0.5,3.1-1.7l2.8,2.1c-1.5,2.1-3.5,3.1-6,3.1C118.2,265.5,116.6,264.9,115.3,263.6z"/>
	<path class="st0" d="M131.2,255h-4.1v-3.3H139v3.3h-4.1v10.3h-3.7L131.2,255L131.2,255z"/>
	<path class="st0" d="M140.7,251.7h6.9c1.7,0,2.9,0.4,3.7,1.2c0.6,0.6,0.8,1.3,0.8,2.2c0,1.4-0.7,2.4-2.1,3.1
		c1.8,0.6,2.7,1.8,2.7,3.4c0,1.1-0.5,2.1-1.4,2.7c-0.9,0.7-2.1,1-3.8,1h-7v-13.6H140.7z M146.8,257.1c1.2,0,1.8-0.4,1.8-1.2
		c0-0.8-0.5-1.1-1.7-1.1h-2.4v2.4H146.8z M147.3,262.3c1.2,0,1.8-0.5,1.8-1.3c0-0.8-0.6-1.2-1.8-1.2h-2.9v2.5L147.3,262.3
		L147.3,262.3z"/>
	<path class="st0" d="M154.2,264.6l1.4-2.7c0.5,0.3,1,0.5,1.5,0.5c0.5,0,0.8-0.2,1.2-0.6l-5.3-10.1h4.2l3.1,6.4l2.9-6.4h4.1L162,262
		c-0.6,1.2-1.3,2.1-2,2.6c-0.7,0.5-1.6,0.8-2.6,0.8C156.2,265.5,155.2,265.2,154.2,264.6z"/>
	<path class="st0" d="M168.5,251.7h3.7v7.6l5.3-7.6h3.5v13.6h-3.7v-7.6l-5.3,7.6h-3.5V251.7z M172.6,250.1c-0.6-0.5-1-1.2-1.1-2.2
		l2.1-0.4c0.3,0.8,0.8,1.1,1.4,1.1s1.1-0.4,1.4-1.1l2.1,0.4c-0.3,2-1.4,3-3.4,3C174,250.8,173.2,250.6,172.6,250.1z"/>
	<path class="st0" d="M186.8,255h-4.1v-3.3h11.9v3.3h-4.1v10.3h-3.7L186.8,255L186.8,255z"/>
	<path class="st0" d="M196.3,251.7h10.9v3.2h-7.2v2.1h6.6v3h-6.6v2.1h7.3v3.2h-11.1L196.3,251.7L196.3,251.7z"/>
	<path class="st0" d="M70.6,273.2h3.6c0.8,0,1.3,0.2,1.8,0.5c0.5,0.3,0.7,0.8,0.7,1.4l0,0c0,0.7-0.3,1.1-1,1.5
		c0.8,0.3,1.3,0.8,1.3,1.7l0,0c0,0.6-0.2,1.1-0.8,1.5c-0.5,0.3-1.1,0.5-2,0.5h-3.6V273.2z M73.7,275.9c0.6,0,0.9-0.2,0.9-0.7l0,0
		c0-0.5-0.3-0.7-0.9-0.7h-1.2v1.4H73.7z M72.5,278.7H74c0.6,0,1-0.2,1-0.8l0,0c0-0.5-0.3-0.7-1-0.7h-1.4L72.5,278.7L72.5,278.7z"/>
	<path class="st0" d="M82.2,273.2h2v1c0.5-0.8,1.3-1.1,2.1-1.1c0.8,0,1.6,0.3,2.2,0.9c0.6,0.7,1,1.6,1,2.7l0,0c0,1.1-0.3,2-1,2.7
		c-0.6,0.6-1.3,0.9-2.2,0.9c-0.8,0-1.6-0.4-2.1-1.1v3h-2V273.2z M87,278.1c0.3-0.4,0.5-0.8,0.5-1.4l0,0c0-0.5-0.2-1-0.5-1.4
		c-0.3-0.4-0.7-0.5-1.2-0.5c-0.5,0-0.8,0.2-1.2,0.5c-0.3,0.4-0.5,0.8-0.5,1.4l0,0c0,0.5,0.2,1,0.5,1.4s0.7,0.5,1.2,0.5
		S86.7,278.4,87,278.1z"/>
	<path class="st0" d="M91.6,279.2c-0.7-0.7-1.1-1.5-1.1-2.5l0,0c0-1,0.4-1.8,1.1-2.5c0.8-0.7,1.6-1.1,2.7-1.1c1.1,0,2,0.4,2.7,1.1
		c0.7,0.7,1.1,1.5,1.1,2.5l0,0c0,1-0.4,1.8-1.1,2.5c-0.8,0.7-1.6,1.1-2.7,1.1S92.4,279.9,91.6,279.2z M95.7,278
		c0.3-0.4,0.5-0.8,0.5-1.4l0,0c0-0.5-0.2-1-0.5-1.4c-0.4-0.4-0.8-0.5-1.3-0.5c-0.5,0-1,0.2-1.3,0.5c-0.3,0.4-0.5,0.8-0.5,1.4l0,0
		c0,0.5,0.2,1,0.5,1.4s0.8,0.5,1.3,0.5C94.9,278.6,95.4,278.4,95.7,278z"/>
	<path class="st0" d="M99.9,277.9c0.7,0.5,1.4,0.8,2.2,0.8c0.8,0,1.2-0.2,1.2-0.7l0,0c0-0.5-0.4-0.6-1.1-0.6h-1.4v-1.4h1.4
		c0.7,0,1-0.2,1-0.6l0,0c0-0.5-0.4-0.7-1.1-0.6c-0.7,0-1.4,0.2-2.1,0.8l-1.1-1.2c0.8-0.8,1.9-1.1,3.2-1.1c0.8,0,1.5,0.2,2.1,0.5
		s0.8,0.8,0.8,1.4l0,0c0,0.7-0.4,1.2-1.1,1.5c0.8,0.3,1.3,0.8,1.3,1.6l0,0c0,0.6-0.3,1.1-0.8,1.4c-0.6,0.4-1.4,0.6-2.3,0.6
		c-1.2,0-2.3-0.4-3.2-1.1L99.9,277.9z"/>
	<path class="st0" d="M108.6,275.2h1.3c0.8,0,1.5,0.2,2.1,0.6c0.5,0.5,0.8,1.1,0.8,1.8l0,0c0,0.8-0.2,1.4-0.8,1.8
		c-0.5,0.5-1.2,0.7-2.2,0.7h-3.1v-6.9h2L108.6,275.2L108.6,275.2z M108.6,278.5h1.1c0.7,0,1.1-0.3,1.1-0.9l0,0
		c0-0.2-0.1-0.5-0.3-0.6c-0.2-0.2-0.5-0.2-0.8-0.2h-1.1V278.5z M113.6,273.2h2v6.9h-2V273.2z"/>
	<path class="st0" d="M117.3,273.2h5.3v1.8h-3.4v5.2h-2V273.2z"/>
	<path class="st0" d="M124,273.2h2v1c0.5-0.8,1.3-1.1,2.1-1.1c0.8,0,1.6,0.3,2.2,0.9c0.6,0.7,1,1.6,1,2.7l0,0c0,1.1-0.3,2-1,2.7
		c-0.6,0.6-1.3,0.9-2.2,0.9c-0.8,0-1.6-0.4-2.1-1.1v3h-2V273.2z M128.8,278.1c0.3-0.4,0.5-0.8,0.5-1.4l0,0c0-0.5-0.2-1-0.5-1.4
		c-0.3-0.4-0.7-0.5-1.2-0.5c-0.5,0-0.8,0.2-1.2,0.5c-0.3,0.4-0.5,0.8-0.5,1.4l0,0c0,0.5,0.2,1,0.5,1.4c0.3,0.4,0.7,0.5,1.2,0.5
		C128.1,278.6,128.5,278.4,128.8,278.1z"/>
	<path class="st0" d="M134.6,275.2h1.3c0.8,0,1.5,0.2,2.1,0.6c0.5,0.5,0.8,1.1,0.8,1.8l0,0c0,0.8-0.2,1.4-0.8,1.8
		c-0.5,0.5-1.2,0.7-2.2,0.7h-3.1v-6.9h2L134.6,275.2L134.6,275.2z M134.6,278.5h1.1c0.7,0,1.1-0.3,1.1-0.9l0,0
		c0-0.2-0.1-0.5-0.3-0.6c-0.2-0.2-0.5-0.2-0.8-0.2h-1.1V278.5z M139.7,273.2h2v6.9h-2V273.2z"/>
	<path class="st0" d="M143.4,273.2h2v5.2h2.3v-5.2h2v5.2h2.3v-5.2h2v6.9h-10.5L143.4,273.2L143.4,273.2z"/>
	<path class="st0" d="M156.2,279.3c-0.7-0.7-1.1-1.5-1.1-2.6l0,0c0-1,0.3-1.8,1-2.5s1.4-1.1,2.4-1.1c1.1,0,2,0.4,2.6,1.1
		c0.5,0.7,0.8,1.6,0.8,2.6c0,0.1,0,0.2,0,0.5h-4.8c0.2,0.9,0.8,1.4,1.7,1.4c0.6,0,1.1-0.2,1.7-0.7l1.1,1c-0.7,0.8-1.7,1.3-2.8,1.3
		C157.8,280.3,156.9,280,156.2,279.3z M160.1,276.1c-0.1-0.5-0.2-0.8-0.5-1.1c-0.2-0.3-0.6-0.4-1-0.4c-0.8,0-1.3,0.5-1.5,1.4H160.1z
		"/>
	<path class="st0" d="M70.6,288h6.5v6.9h-2v-5.2h-2.6v5.2h-2L70.6,288L70.6,288z"/>
	<path class="st0" d="M78.8,288h2v1c0.5-0.8,1.3-1.1,2.1-1.1c0.8,0,1.6,0.3,2.2,0.9c0.6,0.7,1,1.6,1,2.7l0,0c0,1.1-0.3,2-1,2.7
		c-0.6,0.6-1.3,0.9-2.2,0.9c-0.8,0-1.6-0.4-2.1-1.1v3h-2V288z M83.7,292.8c0.3-0.4,0.5-0.8,0.5-1.4l0,0c0-0.5-0.2-1-0.5-1.4
		c-0.3-0.4-0.7-0.5-1.2-0.5c-0.5,0-0.8,0.2-1.2,0.5c-0.3,0.4-0.5,0.8-0.5,1.4l0,0c0,0.5,0.2,1,0.5,1.4c0.3,0.4,0.7,0.5,1.2,0.5
		C82.9,293.4,83.3,293.2,83.7,292.8z"/>
	<path class="st0" d="M87.6,288h2v3.8l2.7-3.8h1.8v6.9h-2v-4l-2.8,4h-1.8V288z"/>
	<path class="st0" d="M96.4,292.8c0.7,0.5,1.4,0.8,2.2,0.8c0.8,0,1.2-0.2,1.2-0.7l0,0c0-0.5-0.4-0.6-1.1-0.6h-1.5v-1.4h1.4
		c0.7,0,1-0.2,1-0.6l0,0c0-0.5-0.4-0.7-1.1-0.6c-0.7,0-1.4,0.2-2.1,0.8l-1.1-1.2c0.8-0.8,1.9-1.1,3.2-1.1c0.8,0,1.5,0.2,2.1,0.5
		c0.5,0.4,0.8,0.8,0.8,1.4l0,0c0,0.7-0.4,1.2-1.1,1.5c0.8,0.3,1.3,0.8,1.3,1.6l0,0c0,0.6-0.3,1.1-0.8,1.4c-0.6,0.4-1.4,0.6-2.3,0.6
		c-1.2,0-2.3-0.4-3.2-1.1L96.4,292.8z"/>
	<path class="st0" d="M103.9,294.1c-0.7-0.7-1.1-1.5-1.1-2.5l0,0c0-1,0.4-1.8,1.1-2.5c0.8-0.7,1.6-1.1,2.7-1.1c1.1,0,2,0.4,2.7,1.1
		c0.7,0.7,1.1,1.5,1.1,2.5l0,0c0,1-0.4,1.8-1.1,2.5c-0.8,0.7-1.6,1.1-2.7,1.1C105.5,295.1,104.6,294.8,103.9,294.1z M108,292.8
		c0.3-0.4,0.5-0.8,0.5-1.4l0,0c0-0.5-0.2-1-0.5-1.4c-0.4-0.4-0.8-0.5-1.3-0.5s-1,0.2-1.3,0.5c-0.3,0.4-0.5,0.8-0.5,1.4l0,0
		c0,0.5,0.2,1,0.5,1.4c0.4,0.4,0.8,0.5,1.3,0.5C107.1,293.4,107.6,293.2,108,292.8z"/>
	<path class="st0" d="M111.8,288h3.6c0.8,0,1.3,0.2,1.8,0.5c0.5,0.3,0.7,0.8,0.7,1.4l0,0c0,0.7-0.3,1.1-1,1.5
		c0.8,0.3,1.3,0.8,1.3,1.7l0,0c0,0.6-0.2,1.1-0.8,1.5c-0.5,0.3-1.1,0.5-2,0.5h-3.6L111.8,288L111.8,288z M114.9,290.8
		c0.6,0,0.9-0.2,0.9-0.7l0,0c0-0.5-0.3-0.7-0.9-0.7h-1.2v1.4H114.9z M113.7,293.5h1.5c0.6,0,1-0.2,1-0.8l0,0c0-0.5-0.3-0.7-1-0.7
		h-1.4L113.7,293.5L113.7,293.5z"/>
</g>
<g>
	<path class="st1" d="M18.3,288.8l8.1-8.1c3.4,3.5,7.2,5.3,11.1,5.3c4,0,5.9-1.6,5.9-4.8c0-3.2-2.5-4.8-7.6-4.8h-5.4l-1.8-6.7
		l10.7-9.6H21.5v-10.4h33.6v9.2L44,268.4c8,1.8,12,6.2,12,13.2c0,4.7-1.7,8.4-5,11.3c-3.3,2.7-7.6,4.2-12.9,4.2
		C29.9,297,23.3,294.3,18.3,288.8z"/>
</g>
</svg>
