<?xml version="1.0" encoding="utf-8"?>
<!-- Generator: Adobe Illustrator 25.2.3, SVG Export Plug-In . SVG Version: 6.00 Build 0)  -->
<svg version="1.1" id="Layer_2" xmlns="http://www.w3.org/2000/svg" xmlns:xlink="http://www.w3.org/1999/xlink" x="0px" y="0px"
	 viewBox="0 0 300 600" style="enable-background:new 0 0 300 600;" xml:space="preserve">
<style type="text/css">
	.st0{fill:#F9F8F3;}
	.st1{fill:#FDDF6B;}
</style>
<g>
	<path class="st0" d="M85.4,403.3l1.9-3.6c0.6,0.4,1.3,0.6,2,0.6c0.6,0,1.1-0.3,1.6-0.8l-7-13.2h5.5l4.1,8.4l3.8-8.4h5.4l-7,13.6
		c-0.8,1.6-1.7,2.8-2.6,3.4c-0.9,0.7-2.1,1-3.4,1C88.2,404.5,86.8,404.1,85.4,403.3z"/>
	<path class="st0" d="M114.3,398c-1.3,0.8-2.8,1.1-4.6,1.1c-1.9,0-3.3-0.5-4.4-1.6c-1.1-1.1-1.6-2.5-1.6-4.4v-6.8h4.9v5.4
		c0,1.9,0.8,2.8,2.4,2.8c1.3,0,2.3-0.3,3.1-1v-7.2h4.9v17.8h-4.9V398z"/>
	<path class="st0" d="M128.6,386.3h4.8l7.6,18h-5.3l-1.3-3.2h-6.9l-1.3,3.2H121L128.6,386.3z M132.9,397.2l-2-5.1l-2,5.1H132.9z"/>
	<path class="st0" d="M143.7,402c-1.8-1.8-2.7-4-2.7-6.7c0-2.6,0.9-4.8,2.7-6.6c1.8-1.8,4-2.7,6.7-2.7c3.2,0,5.7,1.3,7.5,3.8
		l-3.6,2.8c-1.1-1.4-2.4-2.1-3.9-2.1c-1.2,0-2.3,0.5-3.1,1.4c-0.8,0.9-1.2,2-1.2,3.4c0,1.4,0.4,2.5,1.2,3.4c0.8,0.9,1.8,1.4,3.1,1.4
		c1.5,0,2.8-0.7,4-2.2l3.7,2.7c-2,2.7-4.6,4-7.9,4C147.6,404.6,145.5,403.8,143.7,402z"/>
	<path class="st0" d="M164.6,390.8h-5.4v-4.3h15.6v4.3h-5.4v13.5h-4.9V390.8z"/>
	<path class="st0" d="M177.1,386.4h9.1c2.2,0,3.8,0.5,4.9,1.6c0.8,0.8,1.1,1.7,1.1,2.9c0,1.9-0.9,3.2-2.8,4c2.4,0.8,3.5,2.3,3.5,4.4
		c0,1.5-0.6,2.7-1.8,3.6c-1.2,0.9-2.8,1.3-5,1.3h-9.2V386.4z M185,393.5c1.6,0,2.3-0.5,2.3-1.6c0-1-0.7-1.5-2.2-1.5h-3.2v3.1H185z
		 M185.7,400.3c1.6,0,2.4-0.6,2.4-1.7c0-1.1-0.8-1.6-2.4-1.6h-3.8v3.3H185.7z"/>
	<path class="st0" d="M194.7,403.3l1.9-3.6c0.6,0.4,1.3,0.6,2,0.6c0.6,0,1.1-0.3,1.6-0.8l-7-13.2h5.5l4.1,8.4l3.8-8.4h5.4l-7,13.6
		c-0.8,1.6-1.7,2.8-2.6,3.4c-0.9,0.7-2.1,1-3.4,1C197.4,404.5,196,404.1,194.7,403.3z"/>
	<path class="st0" d="M213.5,386.4h4.9v10l6.9-10h4.6v17.8H225v-10l-6.9,10h-4.6V386.4z M218.9,384.3c-0.8-0.7-1.3-1.6-1.5-2.9
		l2.7-0.5c0.4,1,1,1.5,1.8,1.5c0.8,0,1.4-0.5,1.8-1.5l2.7,0.5c-0.4,2.6-1.9,3.9-4.5,3.9C220.7,385.3,219.7,385,218.9,384.3z"/>
	<path class="st0" d="M237.5,390.8h-5.4v-4.3h15.6v4.3h-5.4v13.5h-4.9V390.8z"/>
	<path class="st0" d="M249.9,386.4h14.3v4.2h-9.5v2.7h8.6v3.9h-8.6v2.8h9.6v4.2h-14.5V386.4z"/>
	<path class="st0" d="M85.1,414.6h4.7c1,0,1.7,0.2,2.3,0.6c0.6,0.4,0.9,1,0.9,1.8v0c0,0.9-0.4,1.5-1.3,2c1.1,0.4,1.7,1.1,1.7,2.2v0
		c0,0.8-0.3,1.5-1,2c-0.6,0.4-1.5,0.6-2.6,0.6h-4.7V414.6z M89.2,418.2c0.8,0,1.2-0.3,1.2-0.9v0c0-0.6-0.4-0.9-1.2-0.9h-1.6v1.8
		H89.2z M87.6,421.9h2c0.8,0,1.3-0.3,1.3-1v0c0-0.6-0.4-0.9-1.3-0.9h-1.9V421.9z"/>
	<path class="st0" d="M100.3,414.6h2.6v1.3c0.7-1,1.7-1.5,2.8-1.5c1.1,0,2.1,0.4,2.9,1.2c0.8,0.9,1.3,2.1,1.3,3.5v0
		c0,1.4-0.4,2.6-1.3,3.5c-0.8,0.8-1.7,1.2-2.9,1.2c-1.1,0-2.1-0.5-2.8-1.4v3.9h-2.6V414.6z M106.6,421c0.4-0.5,0.7-1.1,0.7-1.8v0
		c0-0.7-0.2-1.3-0.7-1.8c-0.4-0.5-0.9-0.7-1.6-0.7c-0.6,0-1.1,0.2-1.6,0.7c-0.4,0.5-0.6,1.1-0.6,1.8v0c0,0.7,0.2,1.3,0.6,1.8
		c0.4,0.5,0.9,0.7,1.6,0.7C105.7,421.7,106.2,421.4,106.6,421z"/>
	<path class="st0" d="M112.7,422.5c-0.9-0.9-1.4-2-1.4-3.3v0c0-1.3,0.5-2.4,1.4-3.3c1-0.9,2.1-1.4,3.5-1.4c1.4,0,2.6,0.5,3.5,1.4
		c0.9,0.9,1.4,2,1.4,3.3v0c0,1.3-0.5,2.4-1.4,3.3c-1,0.9-2.1,1.4-3.5,1.4C114.8,423.9,113.7,423.4,112.7,422.5z M118,420.9
		c0.4-0.5,0.6-1,0.6-1.8v0c0-0.7-0.2-1.3-0.7-1.8c-0.5-0.5-1-0.7-1.7-0.7c-0.7,0-1.3,0.2-1.7,0.7c-0.4,0.5-0.6,1-0.6,1.8v0
		c0,0.7,0.2,1.3,0.7,1.8c0.5,0.5,1,0.7,1.7,0.7C117,421.7,117.6,421.4,118,420.9z"/>
	<path class="st0" d="M123.5,420.8c0.9,0.7,1.9,1,2.9,1c1.1,0,1.6-0.3,1.6-0.9v0c0-0.6-0.5-0.8-1.5-0.8h-1.9v-1.9h1.9
		c0.9,0,1.3-0.3,1.3-0.8v0c0-0.6-0.5-0.9-1.4-0.8c-0.9,0-1.8,0.3-2.7,1l-1.4-1.6c1.1-1,2.5-1.5,4.2-1.5c1.1,0,2,0.2,2.7,0.7
		c0.7,0.5,1,1.1,1,1.9v0c0,0.9-0.5,1.6-1.5,2c1.1,0.4,1.7,1.1,1.7,2.1v0c0,0.8-0.4,1.4-1.1,1.9c-0.8,0.5-1.8,0.8-3,0.8
		c-1.6,0-3-0.5-4.2-1.4L123.5,420.8z"/>
	<path class="st0" d="M134.9,417.2h1.7c1.1,0,2,0.3,2.7,0.8c0.7,0.6,1,1.4,1,2.4v0c0,1-0.3,1.8-1,2.4c-0.7,0.6-1.6,0.9-2.9,0.9h-4
		v-9.1h2.6V417.2z M134.9,421.6h1.4c0.9,0,1.4-0.4,1.4-1.2v0c0-0.3-0.1-0.6-0.4-0.8c-0.2-0.2-0.6-0.3-1-0.3h-1.4V421.6z
		 M141.5,414.6h2.6v9.1h-2.6V414.6z"/>
	<path class="st0" d="M146.4,414.6h7v2.3H149v6.8h-2.6V414.6z"/>
	<path class="st0" d="M155.1,414.6h2.6v1.3c0.7-1,1.7-1.5,2.8-1.5c1.1,0,2.1,0.4,2.9,1.2c0.8,0.9,1.3,2.1,1.3,3.5v0
		c0,1.4-0.4,2.6-1.3,3.5c-0.8,0.8-1.7,1.2-2.9,1.2c-1.1,0-2.1-0.5-2.8-1.4v3.9h-2.6V414.6z M161.4,421c0.4-0.5,0.7-1.1,0.7-1.8v0
		c0-0.7-0.2-1.3-0.7-1.8c-0.4-0.5-0.9-0.7-1.6-0.7s-1.1,0.2-1.6,0.7c-0.4,0.5-0.6,1.1-0.6,1.8v0c0,0.7,0.2,1.3,0.6,1.8
		c0.4,0.5,0.9,0.7,1.6,0.7S161,421.4,161.4,421z"/>
	<path class="st0" d="M169.1,417.2h1.7c1.1,0,2,0.3,2.7,0.8c0.7,0.6,1,1.4,1,2.4v0c0,1-0.3,1.8-1,2.4c-0.7,0.6-1.6,0.9-2.9,0.9h-4
		v-9.1h2.6V417.2z M169.1,421.6h1.4c0.9,0,1.4-0.4,1.4-1.2v0c0-0.3-0.1-0.6-0.4-0.8c-0.2-0.2-0.6-0.3-1-0.3h-1.4V421.6z
		 M175.7,414.6h2.6v9.1h-2.6V414.6z"/>
	<path class="st0" d="M180.6,414.6h2.6v6.8h3v-6.8h2.6v6.8h3v-6.8h2.6v9.1h-13.8V414.6z"/>
	<path class="st0" d="M197.4,422.6c-0.9-0.9-1.4-2-1.4-3.4v0c0-1.3,0.4-2.4,1.3-3.3c0.9-0.9,1.9-1.4,3.2-1.4c1.4,0,2.6,0.5,3.4,1.5
		c0.7,0.9,1.1,2.1,1.1,3.4c0,0.1,0,0.3,0,0.7h-6.3c0.3,1.2,1,1.8,2.2,1.8c0.8,0,1.5-0.3,2.2-0.9l1.5,1.3c-0.9,1.1-2.2,1.7-3.7,1.7
		C199.4,423.9,198.3,423.5,197.4,422.6z M202.5,418.4c-0.1-0.6-0.3-1.1-0.6-1.4c-0.3-0.4-0.8-0.5-1.3-0.5c-1.1,0-1.7,0.6-2,1.9
		H202.5z"/>
	<path class="st0" d="M85.1,434h8.5v9.1h-2.6v-6.8h-3.4v6.8h-2.6V434z"/>
	<path class="st0" d="M95.9,434h2.6v1.3c0.7-1,1.7-1.5,2.8-1.5c1.1,0,2.1,0.4,2.9,1.2c0.8,0.9,1.3,2.1,1.3,3.5v0
		c0,1.4-0.4,2.6-1.3,3.5c-0.8,0.8-1.7,1.2-2.9,1.2c-1.1,0-2.1-0.5-2.8-1.4v3.9h-2.6V434z M102.3,440.4c0.4-0.5,0.7-1.1,0.7-1.8v0
		c0-0.7-0.2-1.3-0.7-1.8c-0.4-0.5-0.9-0.7-1.6-0.7c-0.6,0-1.1,0.2-1.6,0.7c-0.4,0.5-0.6,1.1-0.6,1.8v0c0,0.7,0.2,1.3,0.6,1.8
		c0.4,0.5,0.9,0.7,1.6,0.7C101.3,441.1,101.8,440.9,102.3,440.4z"/>
	<path class="st0" d="M107.4,434h2.6v5l3.6-5h2.4v9.1h-2.6v-5.2l-3.7,5.2h-2.3V434z"/>
	<path class="st0" d="M119,440.3c0.9,0.7,1.9,1,2.9,1c1.1,0,1.6-0.3,1.6-0.9v0c0-0.6-0.5-0.8-1.5-0.8H120v-1.9h1.9
		c0.9,0,1.3-0.3,1.3-0.8v0c0-0.6-0.5-0.9-1.4-0.8c-0.9,0-1.8,0.3-2.7,1l-1.4-1.6c1.1-1,2.5-1.5,4.2-1.5c1.1,0,2,0.2,2.7,0.7
		c0.7,0.5,1,1.1,1,1.9v0c0,0.9-0.5,1.6-1.5,2c1.1,0.4,1.7,1.1,1.7,2.1v0c0,0.8-0.4,1.4-1.1,1.9c-0.8,0.5-1.8,0.8-3,0.8
		c-1.6,0-3-0.5-4.2-1.4L119,440.3z"/>
	<path class="st0" d="M128.8,442c-0.9-0.9-1.4-2-1.4-3.3v0c0-1.3,0.5-2.4,1.4-3.3c1-0.9,2.1-1.4,3.5-1.4c1.4,0,2.6,0.5,3.5,1.4
		c0.9,0.9,1.4,2,1.4,3.3v0c0,1.3-0.5,2.4-1.4,3.3c-1,0.9-2.1,1.4-3.5,1.4C130.9,443.3,129.7,442.9,128.8,442z M134.1,440.4
		c0.4-0.5,0.6-1,0.6-1.8v0c0-0.7-0.2-1.3-0.7-1.8c-0.5-0.5-1-0.7-1.7-0.7c-0.7,0-1.3,0.2-1.7,0.7c-0.4,0.5-0.6,1-0.6,1.8v0
		c0,0.7,0.2,1.3,0.7,1.8c0.5,0.5,1,0.7,1.7,0.7C133,441.1,133.6,440.8,134.1,440.4z"/>
	<path class="st0" d="M139.1,434h4.7c1,0,1.7,0.2,2.3,0.6c0.6,0.4,0.9,1,0.9,1.8v0c0,0.9-0.4,1.5-1.3,2c1.1,0.4,1.7,1.1,1.7,2.2v0
		c0,0.8-0.3,1.5-1,2c-0.6,0.4-1.5,0.6-2.6,0.6h-4.7V434z M143.2,437.7c0.8,0,1.2-0.3,1.2-0.9v0c0-0.6-0.4-0.9-1.2-0.9h-1.6v1.8
		H143.2z M141.6,441.3h2c0.8,0,1.3-0.3,1.3-1v0c0-0.6-0.4-0.9-1.3-0.9h-1.9V441.3z"/>
</g>
<g>
	<path class="st1" d="M16.6,435.1l10.6-10.6c4.5,4.6,9.4,6.9,14.5,6.9c5.2,0,7.8-2.1,7.8-6.3c0-4.2-3.3-6.3-9.9-6.3h-7.1l-2.4-8.8
		l14-12.6H20.8v-13.6h44v12.1l-14.5,12.4c10.5,2.3,15.7,8.1,15.7,17.3c0,6.1-2.2,11-6.6,14.8c-4.3,3.6-10,5.5-16.9,5.5
		C31.7,445.9,23.1,442.3,16.6,435.1z"/>
</g>
</svg>
