<?xml version="1.0" encoding="utf-8"?>
<!-- Generator: Adobe Illustrator 25.2.3, SVG Export Plug-In . SVG Version: 6.00 Build 0)  -->
<svg version="1.1" id="Layer_2" xmlns="http://www.w3.org/2000/svg" xmlns:xlink="http://www.w3.org/1999/xlink" x="0px" y="0px"
	 viewBox="0 0 300 600" style="enable-background:new 0 0 300 600;" xml:space="preserve">
<style type="text/css">
	.st0{fill:#F9F8F3;}
	.st1{fill:#FDDF6B;}
</style>
<g>
	<path class="st0" d="M85,302.4h16v17.8H96v-13.5h-6.1v13.5H85V302.4z"/>
	<path class="st0" d="M106.2,317.9c-1.8-1.8-2.7-4-2.7-6.6c0-2.6,0.9-4.8,2.8-6.5c1.9-1.8,4.1-2.7,6.9-2.7s5,0.9,6.9,2.7
		c1.8,1.8,2.7,4,2.7,6.6c0,2.6-0.9,4.8-2.8,6.5c-1.9,1.8-4.1,2.7-6.9,2.7S108,319.7,106.2,317.9z M116.4,314.7
		c0.8-0.9,1.2-2,1.2-3.4c0-1.3-0.4-2.4-1.3-3.4c-0.9-1-2-1.5-3.3-1.5c-1.3,0-2.4,0.5-3.3,1.4c-0.8,0.9-1.2,2-1.2,3.4
		c0,1.3,0.4,2.4,1.3,3.4c0.9,1,2,1.5,3.3,1.5C114.5,316.1,115.6,315.6,116.4,314.7z"/>
	<path class="st0" d="M122.6,320.1l0.3-3.8c0.3,0.1,0.7,0.1,1.1,0.1c0.9,0,1.5-0.6,1.9-1.7c0.6-1.7,0.8-5,0.8-9.8v-2.5h13.7v17.8
		h-4.9v-13.5h-4.2v0.7c0,5.1-0.5,8.6-1.6,10.6c-0.9,1.6-2.3,2.4-4.2,2.4C124.4,320.5,123.4,320.3,122.6,320.1z"/>
	<path class="st0" d="M143.5,319.3l1.9-3.6c0.6,0.4,1.3,0.6,2,0.6c0.6,0,1.1-0.3,1.6-0.8l-7-13.2h5.5l4.1,8.4l3.8-8.4h5.4l-7,13.6
		c-0.8,1.6-1.7,2.8-2.6,3.4c-0.9,0.7-2.1,1-3.4,1C146.3,320.5,144.9,320.1,143.5,319.3z"/>
	<path class="st0" d="M172.4,314c-1.3,0.8-2.8,1.1-4.6,1.1c-1.9,0-3.3-0.5-4.4-1.6c-1.1-1.1-1.6-2.5-1.6-4.4v-6.8h4.9v5.4
		c0,1.9,0.8,2.8,2.4,2.8c1.3,0,2.3-0.3,3.1-1v-7.2h4.9v17.8h-4.9V314z"/>
	<path class="st0" d="M180.5,302.4h4.9v10l6.9-10h4.6v17.8H192v-10l-6.9,10h-4.6V302.4z"/>
	<path class="st0" d="M204.5,306.7h-5.4v-4.3h15.6v4.3h-5.4v13.5h-4.9V306.7z"/>
	<path class="st0" d="M216.9,302.4h14.3v4.2h-9.5v2.7h8.6v3.9h-8.6v2.8h9.6v4.2h-14.5V302.4z"/>
	<path class="st0" d="M84.5,330.5h7v2.3h-4.4v6.8h-2.6V330.5z"/>
	<path class="st0" d="M92.8,339.1c-0.6-0.5-0.9-1.2-0.9-2.1v0c0-1,0.3-1.7,1-2.2c0.6-0.5,1.5-0.7,2.7-0.7c0.7,0,1.5,0.1,2.2,0.4
		v-0.2c0-1.1-0.7-1.7-2-1.7c-0.8,0-1.7,0.2-2.5,0.5l-0.6-2c1.1-0.5,2.3-0.7,3.5-0.7c1.4,0,2.4,0.3,3.1,1c0.7,0.7,1,1.6,1,2.9v5.3
		h-2.5v-1c-0.7,0.8-1.6,1.2-2.8,1.2C94.1,339.8,93.4,339.6,92.8,339.1z M97.3,337.6c0.4-0.3,0.5-0.7,0.5-1.2V336
		c-0.5-0.2-1.1-0.3-1.6-0.3c-1.2,0-1.8,0.4-1.8,1.3v0c0,0.3,0.1,0.6,0.4,0.8c0.3,0.2,0.6,0.3,1,0.3C96.4,338,96.9,337.9,97.3,337.6z
		"/>
	<path class="st0" d="M102.5,330.5h2.6v1.3c0.7-1,1.7-1.5,2.8-1.5c1.1,0,2.1,0.4,2.9,1.2c0.8,0.9,1.3,2.1,1.3,3.5v0
		c0,1.4-0.4,2.6-1.3,3.5c-0.8,0.8-1.7,1.2-2.9,1.2c-1.1,0-2.1-0.5-2.8-1.4v3.9h-2.6V330.5z M108.8,336.9c0.4-0.5,0.7-1.1,0.7-1.8v0
		c0-0.7-0.2-1.3-0.7-1.8c-0.4-0.5-0.9-0.7-1.6-0.7c-0.6,0-1.1,0.2-1.6,0.7c-0.4,0.5-0.6,1.1-0.6,1.8v0c0,0.7,0.2,1.3,0.6,1.8
		c0.4,0.5,0.9,0.7,1.6,0.7C107.9,337.6,108.4,337.4,108.8,336.9z"/>
	<path class="st0" d="M114.3,339.1c-0.6-0.5-0.9-1.2-0.9-2.1v0c0-1,0.3-1.7,1-2.2c0.6-0.5,1.5-0.7,2.7-0.7c0.7,0,1.5,0.1,2.2,0.4
		v-0.2c0-1.1-0.7-1.7-2-1.7c-0.8,0-1.7,0.2-2.5,0.5l-0.6-2c1.1-0.5,2.3-0.7,3.5-0.7c1.4,0,2.4,0.3,3.1,1c0.7,0.7,1,1.6,1,2.9v5.3
		h-2.5v-1c-0.7,0.8-1.6,1.2-2.8,1.2C115.6,339.8,114.9,339.6,114.3,339.1z M118.8,337.6c0.4-0.3,0.5-0.7,0.5-1.2V336
		c-0.5-0.2-1.1-0.3-1.6-0.3c-1.2,0-1.8,0.4-1.8,1.3v0c0,0.3,0.1,0.6,0.4,0.8c0.3,0.2,0.6,0.3,1,0.3
		C117.9,338,118.4,337.9,118.8,337.6z"/>
	<path class="st0" d="M124,330.5h2.6v3.3h3.4v-3.3h2.6v9.1H130v-3.4h-3.4v3.4H124V330.5z"/>
	<path class="st0" d="M137.3,332.8h-3v-2.3h8.5v2.3h-3v6.8h-2.6V332.8z"/>
	<path class="st0" d="M144.6,330.5h2.6v5l3.6-5h2.4v9.1h-2.6v-5.2l-3.7,5.2h-2.3V330.5z"/>
	<path class="st0" d="M155.4,330.5h2.6v1.3c0.7-1,1.7-1.5,2.8-1.5c1.1,0,2.1,0.4,2.9,1.2c0.8,0.9,1.3,2.1,1.3,3.5v0
		c0,1.4-0.4,2.6-1.3,3.5c-0.8,0.8-1.7,1.2-2.9,1.2c-1.1,0-2.1-0.5-2.8-1.4v3.9h-2.6V330.5z M161.8,336.9c0.4-0.5,0.7-1.1,0.7-1.8v0
		c0-0.7-0.2-1.3-0.7-1.8c-0.4-0.5-0.9-0.7-1.6-0.7c-0.6,0-1.1,0.2-1.6,0.7c-0.4,0.5-0.6,1.1-0.6,1.8v0c0,0.7,0.2,1.3,0.6,1.8
		c0.4,0.5,0.9,0.7,1.6,0.7C160.8,337.6,161.3,337.4,161.8,336.9z"/>
	<path class="st0" d="M167.9,338.5c-0.9-0.9-1.4-2-1.4-3.3v0c0-1.3,0.5-2.4,1.4-3.3c1-0.9,2.1-1.4,3.5-1.4c1.4,0,2.6,0.5,3.5,1.4
		c0.9,0.9,1.4,2,1.4,3.3v0c0,1.3-0.5,2.4-1.4,3.3c-1,0.9-2.1,1.4-3.5,1.4C170,339.8,168.8,339.4,167.9,338.5z M173.1,336.9
		c0.4-0.5,0.6-1,0.6-1.8v0c0-0.7-0.2-1.3-0.7-1.8c-0.5-0.5-1-0.7-1.7-0.7c-0.7,0-1.3,0.2-1.7,0.7c-0.4,0.5-0.6,1-0.6,1.8v0
		c0,0.7,0.2,1.3,0.7,1.8c0.5,0.5,1,0.7,1.7,0.7C172.1,337.6,172.7,337.4,173.1,336.9z"/>
	<path class="st0" d="M178.2,330.5h4.7c1,0,1.7,0.2,2.3,0.6c0.6,0.4,0.9,1,0.9,1.8v0c0,0.9-0.4,1.5-1.3,2c1.1,0.4,1.7,1.1,1.7,2.2v0
		c0,0.8-0.3,1.5-1,2c-0.6,0.4-1.5,0.6-2.6,0.6h-4.7V330.5z M182.3,334.2c0.8,0,1.2-0.3,1.2-0.9v0c0-0.6-0.4-0.9-1.2-0.9h-1.6v1.8
		H182.3z M180.7,337.8h2c0.8,0,1.3-0.3,1.3-1v0c0-0.6-0.4-0.9-1.3-0.9h-1.9V337.8z"/>
	<path class="st0" d="M188.7,339.1c-0.6-0.5-0.9-1.2-0.9-2.1v0c0-1,0.3-1.7,1-2.2c0.6-0.5,1.5-0.7,2.7-0.7c0.7,0,1.5,0.1,2.2,0.4
		v-0.2c0-1.1-0.7-1.7-2-1.7c-0.8,0-1.7,0.2-2.5,0.5l-0.6-2c1.1-0.5,2.3-0.7,3.5-0.7c1.4,0,2.4,0.3,3.1,1c0.7,0.7,1,1.6,1,2.9v5.3
		h-2.5v-1c-0.7,0.8-1.6,1.2-2.8,1.2C190,339.8,189.3,339.6,188.7,339.1z M193.1,337.6c0.4-0.3,0.5-0.7,0.5-1.2V336
		c-0.5-0.2-1.1-0.3-1.6-0.3c-1.2,0-1.8,0.4-1.8,1.3v0c0,0.3,0.1,0.6,0.4,0.8c0.3,0.2,0.6,0.3,1,0.3
		C192.3,338,192.8,337.9,193.1,337.6z"/>
	<path class="st0" d="M198.4,330.5h2.6v3.3h3.4v-3.3h2.6v9.1h-2.6v-3.4h-3.4v3.4h-2.6V330.5z"/>
	<path class="st0" d="M209.2,330.5h2.6v3.3h3.4v-3.3h2.6v9.1h-2.6v-3.4h-3.4v3.4h-2.6V330.5z"/>
	<path class="st0" d="M220.8,338.5c-0.9-0.9-1.4-2-1.4-3.3v0c0-1.3,0.5-2.4,1.4-3.3c1-0.9,2.1-1.4,3.5-1.4c1.4,0,2.6,0.5,3.5,1.4
		c0.9,0.9,1.4,2,1.4,3.3v0c0,1.3-0.5,2.4-1.4,3.3c-1,0.9-2.1,1.4-3.5,1.4C222.9,339.8,221.7,339.4,220.8,338.5z M226.1,336.9
		c0.4-0.5,0.6-1,0.6-1.8v0c0-0.7-0.2-1.3-0.7-1.8c-0.5-0.5-1-0.7-1.7-0.7c-0.7,0-1.3,0.2-1.7,0.7c-0.4,0.5-0.6,1-0.6,1.8v0
		c0,0.7,0.2,1.3,0.7,1.8c0.5,0.5,1,0.7,1.7,0.7C225,337.6,225.6,337.4,226.1,336.9z"/>
	<path class="st0" d="M235.8,338l1.6-1.9c1,0.9,1.9,1.3,2.8,1.3c1.3,0,2-0.5,2-1.6v0c0-0.5-0.2-0.9-0.6-1.2
		c-0.4-0.3-0.9-0.4-1.5-0.4c-0.7,0-1.3,0.1-2,0.4l-1.5-1l0.3-5.9h7.3v2.3h-5.1l-0.1,2.1c0.5-0.1,1.1-0.2,1.6-0.2
		c1.2,0,2.2,0.3,3,0.9c0.8,0.7,1.2,1.6,1.2,2.9v0c0,1.3-0.4,2.3-1.2,3c-0.8,0.7-1.9,1.1-3.3,1.1C238.5,339.8,237,339.2,235.8,338z"
		/>
	<path class="st0" d="M248.1,338.1c-1-1.1-1.4-2.6-1.4-4.3v0c0-1.8,0.5-3.2,1.5-4.4c1-1.2,2.3-1.8,3.8-1.8c1.6,0,2.8,0.6,3.8,1.8
		c1,1.2,1.5,2.6,1.5,4.4v0c0,1.8-0.5,3.2-1.5,4.4c-1,1.2-2.3,1.8-3.8,1.8C250.4,339.8,249.1,339.2,248.1,338.1z M253.9,336.4
		c0.5-0.7,0.7-1.6,0.7-2.7v0c0-1.1-0.2-2-0.7-2.7c-0.5-0.7-1.1-1.1-1.9-1.1s-1.4,0.4-1.9,1.1c-0.5,0.7-0.7,1.6-0.7,2.7v0
		c0,1.1,0.2,2,0.7,2.7c0.5,0.7,1.1,1.1,1.9,1.1S253.4,337.1,253.9,336.4z"/>
	<path class="st0" d="M260.5,338.1c-1-1.1-1.4-2.6-1.4-4.3v0c0-1.8,0.5-3.2,1.5-4.4c1-1.2,2.3-1.8,3.8-1.8c1.6,0,2.8,0.6,3.8,1.8
		c1,1.2,1.5,2.6,1.5,4.4v0c0,1.8-0.5,3.2-1.5,4.4c-1,1.2-2.3,1.8-3.8,1.8C262.8,339.8,261.5,339.2,260.5,338.1z M266.3,336.4
		c0.5-0.7,0.7-1.6,0.7-2.7v0c0-1.1-0.2-2-0.7-2.7c-0.5-0.7-1.1-1.1-1.9-1.1c-0.8,0-1.4,0.4-1.9,1.1c-0.5,0.7-0.7,1.6-0.7,2.7v0
		c0,1.1,0.2,2,0.7,2.7c0.5,0.7,1.1,1.1,1.9,1.1C265.2,337.5,265.8,337.1,266.3,336.4z"/>
	<path class="st0" d="M273.5,329.5v-2.1h9.7v2.1H273.5z M277.1,339.6v-7.2h-3.6v-2.1h9.7v2.1h-3.6v7.2H277.1z"/>
	<path class="st0" d="M85.2,356.2c0.9,0.7,1.9,1,2.9,1c1.1,0,1.6-0.3,1.6-0.9v0c0-0.6-0.5-0.8-1.5-0.8h-1.9v-1.9h1.9
		c0.9,0,1.3-0.3,1.3-0.8v0c0-0.6-0.5-0.9-1.4-0.8c-0.9,0-1.8,0.3-2.7,1l-1.4-1.6c1.1-1,2.5-1.5,4.2-1.5c1.1,0,2,0.2,2.7,0.7
		c0.7,0.5,1,1.1,1,1.9v0c0,0.9-0.5,1.6-1.5,2c1.1,0.4,1.7,1.1,1.7,2.1v0c0,0.8-0.4,1.4-1.1,1.9c-0.8,0.5-1.8,0.8-3,0.8
		c-1.6,0-3-0.5-4.2-1.4L85.2,356.2z"/>
	<path class="st0" d="M94.5,358.5c-0.6-0.5-0.9-1.2-0.9-2.1v0c0-1,0.3-1.7,1-2.2c0.6-0.5,1.5-0.7,2.7-0.7c0.7,0,1.5,0.1,2.2,0.4
		v-0.2c0-1.1-0.7-1.7-2-1.7c-0.8,0-1.7,0.2-2.5,0.5l-0.6-2c1.1-0.5,2.3-0.7,3.5-0.7c1.4,0,2.4,0.3,3.1,1c0.7,0.7,1,1.6,1,2.9v5.3
		h-2.5v-1c-0.7,0.8-1.6,1.2-2.8,1.2C95.8,359.2,95,359,94.5,358.5z M98.9,357c0.4-0.3,0.5-0.7,0.5-1.2v-0.5
		c-0.5-0.2-1.1-0.3-1.6-0.3c-1.2,0-1.8,0.4-1.8,1.3v0c0,0.3,0.1,0.6,0.4,0.8c0.3,0.2,0.6,0.3,1,0.3C98.1,357.4,98.5,357.3,98.9,357z
		"/>
	<path class="st0" d="M109.2,349.9h8.5v9.1h-2.6v-6.8h-3.4v6.8h-2.6V349.9z"/>
	<path class="st0" d="M120.8,357.9c-0.9-0.9-1.4-2-1.4-3.4v0c0-1.3,0.4-2.4,1.3-3.3c0.9-0.9,1.9-1.4,3.2-1.4c1.4,0,2.6,0.5,3.4,1.5
		c0.7,0.9,1.1,2.1,1.1,3.4c0,0.1,0,0.3,0,0.7H122c0.3,1.2,1,1.8,2.2,1.8c0.8,0,1.5-0.3,2.2-0.9l1.5,1.3c-0.9,1.1-2.2,1.7-3.7,1.7
		C122.8,359.2,121.6,358.8,120.8,357.9z M125.8,353.8c-0.1-0.6-0.3-1.1-0.6-1.4c-0.3-0.4-0.8-0.5-1.3-0.5c-1.1,0-1.7,0.6-2,1.9
		H125.8z"/>
	<path class="st0" d="M130.2,349.9h2.6v1.3c0.7-1,1.7-1.5,2.8-1.5c1.1,0,2.1,0.4,2.9,1.2c0.8,0.9,1.3,2.1,1.3,3.5v0
		c0,1.4-0.4,2.6-1.3,3.5c-0.8,0.8-1.7,1.2-2.9,1.2c-1.1,0-2.1-0.5-2.8-1.4v3.9h-2.6V349.9z M136.6,356.3c0.4-0.5,0.7-1.1,0.7-1.8v0
		c0-0.7-0.2-1.3-0.7-1.8c-0.4-0.5-0.9-0.7-1.6-0.7c-0.6,0-1.1,0.2-1.6,0.7c-0.4,0.5-0.6,1.1-0.6,1.8v0c0,0.7,0.2,1.3,0.6,1.8
		c0.4,0.5,0.9,0.7,1.6,0.7C135.6,357,136.2,356.8,136.6,356.3z"/>
	<path class="st0" d="M141.7,349.9h4.7c1,0,1.7,0.2,2.3,0.6c0.6,0.4,0.9,1,0.9,1.8v0c0,0.9-0.4,1.5-1.3,2c1.1,0.4,1.7,1.1,1.7,2.2v0
		c0,0.8-0.3,1.5-1,2c-0.6,0.4-1.5,0.6-2.6,0.6h-4.7V349.9z M145.9,353.6c0.8,0,1.2-0.3,1.2-0.9v0c0-0.6-0.4-0.9-1.2-0.9h-1.6v1.8
		H145.9z M144.2,357.2h2c0.8,0,1.3-0.3,1.3-1v0c0-0.6-0.4-0.9-1.3-0.9h-1.9V357.2z"/>
	<path class="st0" d="M157.6,349.9h2.7l-3.5,9.3c-0.3,0.9-0.7,1.6-1.2,2c-0.5,0.4-1.1,0.6-1.8,0.6c-0.8,0-1.6-0.2-2.3-0.6l0.9-1.9
		c0.4,0.2,0.8,0.4,1.1,0.4c0.4,0,0.7-0.2,0.9-0.6l-3.6-9.1h2.7l2.1,6.2L157.6,349.9z"/>
	<path class="st0" d="M164.3,359h-2.6v-9.1h2.6v3.3h1.4c0.3-1,0.8-1.9,1.7-2.5c0.9-0.7,1.9-1,3-1c1.4,0,2.5,0.5,3.4,1.4
		c0.9,0.9,1.4,2,1.4,3.3v0c0,1.3-0.5,2.4-1.4,3.3c-0.9,0.9-2.1,1.4-3.4,1.4c-1.1,0-2.2-0.3-3-1c-0.8-0.7-1.4-1.5-1.6-2.6h-1.4V359z
		 M172.1,356.3c0.4-0.5,0.6-1,0.6-1.8v0c0-0.7-0.2-1.3-0.6-1.8c-0.4-0.5-1-0.7-1.6-0.7c-0.7,0-1.2,0.2-1.6,0.7
		c-0.4,0.5-0.6,1-0.6,1.8v0c0,0.7,0.2,1.3,0.6,1.8c0.4,0.5,1,0.7,1.6,0.7C171.1,357,171.7,356.8,172.1,356.3z"/>
	<path class="st0" d="M182.2,349.9h8.5v9.1h-2.6v-6.8h-3.4v6.8h-2.6V349.9z"/>
	<path class="st0" d="M193.8,357.9c-0.9-0.9-1.4-2-1.4-3.3v0c0-1.3,0.5-2.4,1.4-3.3c1-0.9,2.1-1.4,3.5-1.4c1.4,0,2.6,0.5,3.5,1.4
		c0.9,0.9,1.4,2,1.4,3.3v0c0,1.3-0.5,2.4-1.4,3.3c-1,0.9-2.1,1.4-3.5,1.4C195.9,359.2,194.7,358.8,193.8,357.9z M199.1,356.3
		c0.4-0.5,0.6-1,0.6-1.8v0c0-0.7-0.2-1.3-0.7-1.8c-0.5-0.5-1-0.7-1.7-0.7c-0.7,0-1.3,0.2-1.7,0.7c-0.4,0.5-0.6,1-0.6,1.8v0
		c0,0.7,0.2,1.3,0.7,1.8c0.5,0.5,1,0.7,1.7,0.7C198,357,198.6,356.8,199.1,356.3z"/>
	<path class="st0" d="M206.7,353.3h0.6l2.6-3.4h3.1l-3.7,4.5l3.9,4.7h-3.1l-2.8-3.5h-0.6v3.5h-2.6v-9.1h2.6V353.3z"/>
	<path class="st0" d="M220.3,349.9h2.7l-3.5,9.3c-0.3,0.9-0.7,1.6-1.2,2c-0.5,0.4-1.1,0.6-1.8,0.6c-0.8,0-1.6-0.2-2.3-0.6l0.9-1.9
		c0.4,0.2,0.8,0.4,1.1,0.4c0.4,0,0.7-0.2,0.9-0.6l-3.6-9.1h2.7l2.1,6.2L220.3,349.9z"/>
	<path class="st0" d="M224.5,349.9h8.5v9.1h-2.6v-6.8h-3.4v6.8h-2.6V349.9z"/>
	<path class="st0" d="M237.9,353.3h0.6l2.6-3.4h3.1l-3.7,4.5l3.9,4.7h-3.1l-2.8-3.5h-0.6v3.5h-2.6v-9.1h2.6V353.3z"/>
	<path class="st0" d="M251.5,349.9h2.7l-3.5,9.3c-0.3,0.9-0.7,1.6-1.2,2c-0.5,0.4-1.1,0.6-1.8,0.6c-0.8,0-1.6-0.2-2.3-0.6l0.9-1.9
		c0.4,0.2,0.8,0.4,1.1,0.4c0.4,0,0.7-0.2,0.9-0.6l-3.6-9.1h2.7l2.1,6.2L251.5,349.9z"/>
</g>
<g>
	<path class="st1" d="M17.2,347L40,329.6c5.2-3.9,7.8-7.6,7.8-10.9c0-4.1-2.3-6.2-6.8-6.2c-3.5,0-7.5,2.6-12.1,7.8l-11.4-9.5
		c6.7-8.7,15-13,24.8-13c6.7,0,12,1.8,16.2,5.4c4.2,3.6,6.3,8.4,6.3,14.2c0,4.6-1.2,8.5-3.6,11.9c-2,2.7-5.4,5.8-10.4,9.4l-10.4,7.3
		h25.1v13.7H17.2V347z"/>
</g>
</svg>
