<?xml version="1.0" encoding="utf-8"?>
<!-- Generator: Adobe Illustrator 25.2.3, SVG Export Plug-In . SVG Version: 6.00 Build 0)  -->
<svg version="1.1" id="Layer_2" xmlns="http://www.w3.org/2000/svg" xmlns:xlink="http://www.w3.org/1999/xlink" x="0px" y="0px"
	 viewBox="0 0 300 600" style="enable-background:new 0 0 300 600;" xml:space="preserve">
<style type="text/css">
	.st0{fill:#F9F8F3;}
	.st1{fill:#FEDF6A;}
</style>
<g>
	<g>
		<path class="st0" d="M84.8,216.6h4.9v7.2l6.1-7.2h5.9l-6.8,7.7l7,10.2h-5.9l-4.5-6.6l-1.8,2v4.6h-4.9V216.6z"/>
		<path class="st0" d="M103.3,233.5l1.9-3.6c0.6,0.4,1.3,0.6,2,0.6c0.6,0,1.1-0.3,1.6-0.8l-7-13.2h5.5l4.1,8.4l3.8-8.4h5.4l-7,13.6
			c-0.8,1.6-1.7,2.8-2.6,3.4c-0.9,0.7-2.1,1-3.4,1C106.1,234.7,104.7,234.3,103.3,233.5z"/>
		<path class="st0" d="M122.2,216.6h16v17.8h-4.9V221h-6.1v13.5h-4.9V216.6z"/>
		<path class="st0" d="M141.3,216.6h4.9v10l6.9-10h4.6v17.8h-4.9v-10l-6.9,10h-4.6V216.6z"/>
		<path class="st0" d="M165.2,221h-5.4v-4.3h15.6v4.3h-5.4v13.5h-4.9V221z"/>
		<path class="st0" d="M177.7,216.6h14.3v4.2h-9.5v2.7h8.6v3.9h-8.6v2.8h9.6v4.2h-14.5V216.6z"/>
		<path class="st0" d="M83.9,249.4v-0.1l3-3.8l1.8,0.9l-2,2.9l2,2.9l-1.8,0.9L83.9,249.4z M88.6,249.4v-0.1l3-3.8l1.8,0.9l-2,2.9
			l2,2.9l-1.8,0.9L88.6,249.4z"/>
		<path class="st0" d="M95.6,242H98l5.6,7.3V242h2.6v11.9H104l-5.8-7.6v7.6h-2.6V242z"/>
		<path class="st0" d="M109.5,253.2c-0.5-0.6-0.8-1.4-0.8-2.5v-5.9h2.6v5.1c0,1.2,0.5,1.9,1.6,1.9c1.1,0,1.6-0.6,1.6-1.9v-5.1h2.6
			v9.1h-2.6v-1.3c-0.8,1-1.6,1.5-2.7,1.5C110.8,254.1,110.1,253.8,109.5,253.2z"/>
		<path class="st0" d="M119.8,251.3V247h-1.1v-2.2h1.1v-2.3h2.6v2.3h2.1v2.2h-2.1v3.9c0,0.6,0.3,0.9,0.8,0.9c0.5,0,0.9-0.1,1.3-0.3
			v2.1c-0.6,0.4-1.3,0.5-2,0.5C120.7,254,119.8,253.1,119.8,251.3z"/>
		<path class="st0" d="M126.4,244.8h2.6v1.8c0.6-1.4,1.6-2.1,2.9-2v2.7h-0.1c-1.8,0-2.8,1.1-2.8,3.2v3.4h-2.6V244.8z"/>
		<path class="st0" d="M133.6,241.5h2.7v2.3h-2.7V241.5z M133.6,244.8h2.6v9.1h-2.6V244.8z"/>
		<path class="st0" d="M138.8,241.5h2.6v12.4h-2.6V241.5z"/>
		<path class="st0" d="M144.5,252.7c-0.9-0.9-1.4-2-1.4-3.3v0c0-1.3,0.5-2.4,1.4-3.3c1-0.9,2.1-1.4,3.5-1.4c1.4,0,2.6,0.5,3.5,1.4
			c0.9,0.9,1.4,2,1.4,3.3v0c0,1.3-0.5,2.4-1.4,3.3c-1,0.9-2.1,1.4-3.5,1.4C146.6,254.1,145.4,253.6,144.5,252.7z M149.8,251.1
			c0.4-0.5,0.6-1,0.6-1.8v0c0-0.7-0.2-1.3-0.7-1.8c-0.5-0.5-1-0.7-1.7-0.7c-0.7,0-1.3,0.2-1.7,0.7c-0.4,0.5-0.6,1-0.6,1.8v0
			c0,0.7,0.2,1.3,0.7,1.8c0.5,0.5,1,0.7,1.7,0.7C148.7,251.9,149.3,251.6,149.8,251.1z"/>
		<path class="st0" d="M154.8,244.8h2.6v1.3c0.8-1,1.6-1.5,2.7-1.5c1,0,1.8,0.3,2.3,0.9c0.5,0.6,0.8,1.4,0.8,2.5v5.9h-2.6v-5.1
			c0-1.2-0.5-1.9-1.6-1.9c-1.1,0-1.6,0.6-1.6,1.9v5.1h-2.6V244.8z"/>
		<path class="st0" d="M165,252.3l2-2.9l-2-2.9l1.8-0.9l3,3.8v0.1l-3,3.8L165,252.3z M169.7,252.3l2-2.9l-2-2.9l1.8-0.9l3,3.8v0.1
			l-3,3.8L169.7,252.3z"/>
		<path class="st0" d="M180.9,252l1.8-1.7c0.8,1,1.8,1.4,2.9,1.4c0.5,0,0.9-0.1,1.2-0.4c0.3-0.3,0.5-0.6,0.5-1.1v0
			c0-1-0.8-1.5-2.3-1.5h-1.1l-0.4-1.7l2.8-2.9h-4.7V242h8v2l-3,2.9c2.1,0.4,3.2,1.5,3.2,3.3v0c0,1.1-0.4,2.1-1.1,2.8
			c-0.8,0.7-1.8,1.1-3.1,1.1C183.6,254.1,182.1,253.4,180.9,252z"/>
		<path class="st0" d="M197.1,244.8h2.6v5l3.6-5h2.4v9.1h-2.6v-5.2l-3.7,5.2h-2.3V244.8z"/>
		<path class="st0" d="M217.2,253.9h-2.8l-2.3-6l-2.3,6h-2.7l3.8-9.2h2.4L217.2,253.9z"/>
		<path class="st0" d="M218.6,244.8h2.6v5l3.6-5h2.4v9.1h-2.6v-5.2l-3.7,5.2h-2.3V244.8z"/>
		<path class="st0" d="M240.2,251.3h-5.8l-0.4-1.9l6.5-7.6h2.2v7.3h1.6v2.1h-1.6v2.6h-2.5V251.3z M240.2,249.2v-3.7l-3.2,3.7H240.2z
			"/>
		<path class="st0" d="M248.4,245.5l-1.6,1.3l-0.7-1.2l1.9-0.8L246,244l0.7-1.2l1.6,1.3l-0.3-2h1.4l-0.3,2l1.6-1.3l0.7,1.2l-1.9,0.8
			l1.9,0.8l-0.7,1.2l-1.6-1.3l0.3,2h-1.4L248.4,245.5z"/>
		<path class="st0" d="M85.3,272.1c-0.9-0.9-1.3-2-1.3-3.3v0c0-1.3,0.4-2.4,1.3-3.3c0.9-0.9,2.1-1.4,3.4-1.4c1.5,0,2.7,0.5,3.6,1.5
			l-1.6,1.7c-0.6-0.7-1.3-1-2.1-1c-0.6,0-1.2,0.2-1.6,0.7c-0.4,0.5-0.6,1.1-0.6,1.8v0c0,0.7,0.2,1.3,0.6,1.8c0.4,0.5,1,0.7,1.7,0.7
			c0.7,0,1.4-0.3,2.1-1l1.5,1.5c-1,1.1-2.2,1.7-3.7,1.7C87.3,273.5,86.2,273,85.3,272.1z"/>
		<path class="st0" d="M100.3,272.2c-1-1-1.5-2.4-1.5-4.3v0c0-3.9,1.6-6.1,4.9-6.6l3.4-0.6l0.4,2.4l-3.4,0.5c-1.7,0.3-2.6,1-2.9,2.3
			c0.8-0.7,1.8-1,3.1-1c1.3,0,2.3,0.4,3.1,1.1c0.7,0.7,1.1,1.7,1.1,2.9v0c0,1.3-0.4,2.4-1.3,3.2c-0.9,0.9-2.1,1.3-3.5,1.3
			C102.2,273.5,101.2,273.1,100.3,272.2z M105.3,270.7c0.4-0.4,0.6-1,0.6-1.7v0c0-0.6-0.2-1.1-0.6-1.5c-0.4-0.4-0.9-0.6-1.6-0.6
			c-0.7,0-1.3,0.2-1.8,0.7c-0.4,0.4-0.6,1-0.6,1.6v0c0,0.6,0.2,1.2,0.6,1.6c0.4,0.4,1,0.6,1.6,0.6
			C104.3,271.3,104.9,271.1,105.3,270.7z"/>
		<path class="st0" d="M111.3,272.1c-0.9-0.9-1.4-2-1.4-3.3v0c0-1.3,0.5-2.4,1.4-3.3c1-0.9,2.1-1.4,3.5-1.4c1.4,0,2.6,0.5,3.5,1.4
			c0.9,0.9,1.4,2,1.4,3.3v0c0,1.3-0.5,2.4-1.4,3.3c-1,0.9-2.1,1.4-3.5,1.4C113.4,273.5,112.3,273.1,111.3,272.1z M116.6,270.5
			c0.4-0.5,0.6-1,0.6-1.8v0c0-0.7-0.2-1.3-0.7-1.8c-0.5-0.5-1-0.7-1.7-0.7c-0.7,0-1.3,0.2-1.7,0.7c-0.4,0.5-0.6,1-0.6,1.8v0
			c0,0.7,0.2,1.3,0.7,1.8c0.5,0.5,1,0.7,1.7,0.7C115.6,271.3,116.1,271,116.6,270.5z"/>
		<path class="st0" d="M121.6,264.2h2.6v3.3h3.4v-3.3h2.6v9.1h-2.6v-3.4h-3.4v3.4h-2.6V264.2z"/>
		<path class="st0" d="M138.2,264.2h2.7l-3.5,9.3c-0.3,0.9-0.7,1.6-1.2,2c-0.5,0.4-1.1,0.6-1.8,0.6c-0.8,0-1.6-0.2-2.3-0.6l0.9-1.9
			c0.4,0.2,0.8,0.4,1.1,0.4c0.4,0,0.7-0.2,0.9-0.6l-3.6-9.1h2.7l2.1,6.2L138.2,264.2z"/>
		<path class="st0" d="M142.8,272.1c-0.9-0.9-1.3-2-1.3-3.3v0c0-1.3,0.4-2.4,1.3-3.3c0.9-0.9,2.1-1.4,3.4-1.4c1.5,0,2.7,0.5,3.6,1.5
			l-1.6,1.7c-0.6-0.7-1.3-1-2.1-1c-0.6,0-1.2,0.2-1.6,0.7c-0.4,0.5-0.6,1.1-0.6,1.8v0c0,0.7,0.2,1.3,0.6,1.8c0.4,0.5,1,0.7,1.7,0.7
			c0.7,0,1.4-0.3,2.1-1l1.5,1.5c-1,1.1-2.2,1.7-3.7,1.7C144.9,273.5,143.7,273,142.8,272.1z"/>
		<path class="st0" d="M151.6,264.2h2.6v3.3h3.4v-3.3h2.6v9.1h-2.6v-3.4h-3.4v3.4h-2.6V264.2z"/>
		<path class="st0" d="M163.2,272.1c-0.9-0.9-1.4-2-1.4-3.3v0c0-1.3,0.5-2.4,1.4-3.3c1-0.9,2.1-1.4,3.5-1.4c1.4,0,2.6,0.5,3.5,1.4
			c0.9,0.9,1.4,2,1.4,3.3v0c0,1.3-0.5,2.4-1.4,3.3c-1,0.9-2.1,1.4-3.5,1.4C165.3,273.5,164.1,273.1,163.2,272.1z M168.5,270.5
			c0.4-0.5,0.6-1,0.6-1.8v0c0-0.7-0.2-1.3-0.7-1.8c-0.5-0.5-1-0.7-1.7-0.7c-0.7,0-1.3,0.2-1.7,0.7c-0.4,0.5-0.6,1-0.6,1.8v0
			c0,0.7,0.2,1.3,0.7,1.8c0.5,0.5,1,0.7,1.7,0.7C167.4,271.3,168,271,168.5,270.5z"/>
		<path class="st0" d="M173.5,264.2h2.6v5l3.6-5h2.4v9.1h-2.6v-5.2l-3.7,5.2h-2.3V264.2z M175.5,262.5c-0.6-0.5-0.9-1.1-1-2h1.7
			c0.2,0.7,0.7,1,1.5,1c0.7,0,1.2-0.3,1.5-1h1.7c-0.1,0.8-0.4,1.5-1,2c-0.6,0.5-1.3,0.7-2.2,0.7C176.9,263.2,176.1,263,175.5,262.5z
			"/>
		<path class="st0" d="M192,267.6h0.6l2.6-3.4h3.1l-3.7,4.5l3.9,4.7h-3.1l-2.8-3.5H192v3.5h-2.6v-9.1h2.6V267.6z"/>
		<path class="st0" d="M199.9,272.8c-0.6-0.5-0.9-1.2-0.9-2.1v0c0-1,0.3-1.7,1-2.2c0.6-0.5,1.5-0.7,2.7-0.7c0.7,0,1.5,0.1,2.2,0.4
			V268c0-1.1-0.7-1.7-2-1.7c-0.8,0-1.7,0.2-2.5,0.5l-0.6-2c1.1-0.5,2.3-0.7,3.5-0.7c1.4,0,2.4,0.3,3.1,1c0.7,0.7,1,1.6,1,2.9v5.3
			h-2.5v-1c-0.7,0.8-1.6,1.2-2.8,1.2C201.3,273.5,200.5,273.2,199.9,272.8z M204.4,271.2c0.4-0.3,0.5-0.7,0.5-1.2v-0.5
			c-0.5-0.2-1.1-0.3-1.6-0.3c-1.2,0-1.8,0.4-1.8,1.3v0c0,0.3,0.1,0.6,0.4,0.8c0.3,0.2,0.6,0.3,1,0.3
			C203.5,271.7,204,271.5,204.4,271.2z"/>
		<path class="st0" d="M209.6,264.2h2.6v1.3c0.7-1,1.7-1.5,2.8-1.5c1.1,0,2.1,0.4,2.9,1.2c0.8,0.9,1.3,2.1,1.3,3.5v0
			c0,1.4-0.4,2.6-1.3,3.5c-0.8,0.8-1.7,1.2-2.9,1.2c-1.1,0-2.1-0.5-2.8-1.4v3.9h-2.6V264.2z M215.9,270.6c0.4-0.5,0.7-1.1,0.7-1.8v0
			c0-0.7-0.2-1.3-0.7-1.8c-0.4-0.5-0.9-0.7-1.6-0.7s-1.1,0.2-1.6,0.7c-0.4,0.5-0.6,1.1-0.6,1.8v0c0,0.7,0.2,1.3,0.6,1.8
			c0.4,0.5,0.9,0.7,1.6,0.7S215.5,271.1,215.9,270.6z"/>
		<path class="st0" d="M223.1,266.5h-3v-2.3h8.5v2.3h-3v6.8h-2.6V266.5z"/>
		<path class="st0" d="M230.9,272.1c-0.9-0.9-1.4-2-1.4-3.3v0c0-1.3,0.5-2.4,1.4-3.3c1-0.9,2.1-1.4,3.5-1.4c1.4,0,2.6,0.5,3.5,1.4
			c0.9,0.9,1.4,2,1.4,3.3v0c0,1.3-0.5,2.4-1.4,3.3c-1,0.9-2.1,1.4-3.5,1.4C233,273.5,231.9,273.1,230.9,272.1z M236.2,270.5
			c0.4-0.5,0.6-1,0.6-1.8v0c0-0.7-0.2-1.3-0.7-1.8c-0.5-0.5-1-0.7-1.7-0.7c-0.7,0-1.3,0.2-1.7,0.7c-0.4,0.5-0.6,1-0.6,1.8v0
			c0,0.7,0.2,1.3,0.7,1.8c0.5,0.5,1,0.7,1.7,0.7C235.2,271.3,235.8,271,236.2,270.5z"/>
		<path class="st0" d="M241.2,264.2h2.6v5l3.6-5h2.4v9.1h-2.6v-5.2l-3.7,5.2h-2.3V264.2z M243.3,262.5c-0.6-0.5-0.9-1.1-1-2h1.7
			c0.2,0.7,0.7,1,1.5,1c0.7,0,1.2-0.3,1.5-1h1.7c-0.1,0.8-0.4,1.5-1,2c-0.6,0.5-1.3,0.7-2.2,0.7S243.9,263,243.3,262.5z"/>
	</g>
	<g>
		<path class="st1" d="M39.7,231.5l-10.3,2.3l-3.2-13l17.8-5h12.2V277H39.7V231.5z"/>
	</g>
</g>
</svg>
