<?xml version="1.0" encoding="utf-8"?>
<!-- Generator: Adobe Illustrator 25.2.3, SVG Export Plug-In . SVG Version: 6.00 Build 0)  -->
<svg version="1.1" id="Layer_1" xmlns="http://www.w3.org/2000/svg" xmlns:xlink="http://www.w3.org/1999/xlink" x="0px" y="0px"
	 viewBox="0 0 290.7 45.3" style="enable-background:new 0 0 290.7 45.3;" xml:space="preserve">
<style type="text/css">
	.st0{fill:#FFFFFF;}
</style>
<g>
	<path class="st0" d="M0.9,1.6L0.2,2.1L0,1.7l0.8-0.3L0,1l0.2-0.4l0.7,0.5L0.8,0.3h0.5L1.2,1.1l0.7-0.5L2.2,1L1.4,1.4l0.8,0.3
		L1.9,2.1L1.2,1.6l0.1,0.8H0.8L0.9,1.6z"/>
	<path class="st0" d="M3.9,1.6L3.2,2.1L2.9,1.7l0.8-0.3L2.9,1l0.2-0.4l0.7,0.5L3.8,0.3h0.5L4.2,1.1l0.7-0.5L5.1,1L4.3,1.4l0.8,0.3
		L4.9,2.1L4.2,1.6l0.1,0.8H3.8L3.9,1.6z"/>
	<path class="st0" d="M6.7,1.1L5.9,1.3L5.7,0.7L7,0.2h0.6v4.8H6.7V1.1z"/>
	<path class="st0" d="M11.8,2.2h-1.3V1.5h3.4v0.7h-1.3v2.9h-0.8V2.2z"/>
	<path class="st0" d="M14.6,1.5h2.7v0.7h-1.9v2.9h-0.8V1.5z"/>
	<path class="st0" d="M20.2,1.4h3.3v0.8h-3.3V1.4z M20.2,3.1h3.3v0.8h-3.3V3.1z"/>
	<path class="st0" d="M27.3,1.1l-0.9,0.2l-0.2-0.7l1.3-0.4h0.6v4.8h-0.8V1.1z"/>
	<path class="st0" d="M31.8,4.7c-0.4-0.4-0.6-0.9-0.6-1.7c0-1.7,0.6-2.5,1.9-2.7L34.4,0l0.1,0.8L33.3,1c-0.8,0.1-1.2,0.5-1.3,1.2
		c0.3-0.3,0.8-0.5,1.3-0.5c1.1,0,1.7,0.7,1.7,1.7c0,1-0.8,1.8-1.9,1.8C32.5,5.2,32,4.9,31.8,4.7z M34.1,3.3c0-0.6-0.4-1-1-1
		c-0.7,0-1.1,0.5-1.1,1.1c0,0.6,0.4,1.1,1.1,1.1C33.7,4.5,34.1,4,34.1,3.3z"/>
	<path class="st0" d="M35.6,4L35.6,4c0-0.8,0.6-1.2,1.5-1.2c0.4,0,0.7,0.1,1,0.2V2.9c0-0.5-0.3-0.8-0.9-0.8c-0.4,0-0.7,0.1-1,0.2
		l-0.2-0.7c0.4-0.2,0.8-0.3,1.4-0.3c0.5,0,0.9,0.1,1.2,0.4c0.3,0.3,0.4,0.6,0.4,1.1v2.1H38V4.6c-0.2,0.3-0.6,0.5-1.2,0.5
		C36.2,5.2,35.6,4.8,35.6,4z M38,3.8V3.5c-0.2-0.1-0.5-0.1-0.8-0.1c-0.5,0-0.9,0.2-0.9,0.6v0c0,0.4,0.3,0.5,0.7,0.5
		C37.6,4.5,38,4.2,38,3.8z"/>
	<path class="st0" d="M43.4,5.1h-0.9l-1.1-2.6l-1.1,2.6h-0.9L41,1.4h0.8L43.4,5.1z"/>
	<path class="st0" d="M47.7,5.1h-0.9l-1.1-2.6l-1.1,2.6h-0.9l1.6-3.6h0.8L47.7,5.1z"/>
	<path class="st0" d="M53.3,1.6l-0.7,0.5l-0.2-0.4l0.8-0.3L52.3,1l0.2-0.4l0.7,0.5l-0.1-0.8h0.5l-0.1,0.8l0.7-0.5L54.5,1l-0.8,0.3
		l0.8,0.3l-0.2,0.4l-0.7-0.5l0.1,0.8h-0.5L53.3,1.6z"/>
	<path class="st0" d="M55.5,0.3h4v4.8h-0.9V1h-2.3v4h-0.8V0.3z"/>
	<path class="st0" d="M60.6,1.5h0.8v0.6c0.3-0.4,0.6-0.7,1.2-0.7c0.9,0,1.7,0.7,1.7,1.9v0c0,1.2-0.8,1.9-1.7,1.9
		c-0.6,0-1-0.3-1.2-0.6v1.7h-0.8V1.5z M63.5,3.3L63.5,3.3c0-0.7-0.5-1.2-1-1.2c-0.6,0-1.1,0.5-1.1,1.2v0c0,0.7,0.5,1.2,1.1,1.2
		C63,4.4,63.5,4,63.5,3.3z"/>
	<path class="st0" d="M65,3.3L65,3.3c0-1.1,0.8-1.9,1.9-1.9c1.1,0,1.9,0.8,1.9,1.9v0c0,1-0.8,1.9-1.9,1.9C65.8,5.2,65,4.3,65,3.3z
		 M68,3.3L68,3.3c0-0.7-0.5-1.2-1.1-1.2c-0.7,0-1.1,0.5-1.1,1.2v0c0,0.6,0.5,1.2,1.1,1.2C67.6,4.4,68,3.9,68,3.3z"/>
	<path class="st0" d="M69.7,1.5h0.9l1.1,1.7l1.1-1.7h0.9v3.6h-0.8V2.7l-1.2,1.7h0l-1.2-1.7v2.4h-0.8V1.5z"/>
	<path class="st0" d="M74.5,3.3L74.5,3.3c0-1.1,0.8-1.9,1.9-1.9c1.1,0,1.9,0.8,1.9,1.9v0c0,1-0.8,1.9-1.9,1.9
		C75.3,5.2,74.5,4.3,74.5,3.3z M77.5,3.3L77.5,3.3c0-0.7-0.5-1.2-1.1-1.2c-0.7,0-1.1,0.5-1.1,1.2v0c0,0.6,0.5,1.2,1.1,1.2
		C77.1,4.4,77.5,3.9,77.5,3.3z"/>
	<path class="st0" d="M79,2.6h2v0.8h-2V2.6z"/>
	<path class="st0" d="M82,1.5h0.8v1.4h1.7V1.5h0.8v3.6h-0.8V3.6h-1.7v1.4H82V1.5z"/>
	<path class="st0" d="M86.1,4L86.1,4c0-0.8,0.6-1.2,1.5-1.2c0.4,0,0.7,0.1,1,0.2V2.9c0-0.5-0.3-0.8-0.9-0.8c-0.4,0-0.7,0.1-1,0.2
		l-0.2-0.7c0.4-0.2,0.8-0.3,1.4-0.3c0.5,0,0.9,0.1,1.2,0.4c0.3,0.3,0.4,0.6,0.4,1.1v2.1h-0.8V4.6c-0.2,0.3-0.6,0.5-1.2,0.5
		C86.7,5.2,86.1,4.8,86.1,4z M88.6,3.8V3.5c-0.2-0.1-0.5-0.1-0.8-0.1c-0.5,0-0.9,0.2-0.9,0.6v0c0,0.4,0.3,0.5,0.7,0.5
		C88.2,4.5,88.6,4.2,88.6,3.8z"/>
	<path class="st0" d="M92.7,1.5h0.9l-1.4,3.7c-0.3,0.7-0.6,1-1.2,1c-0.3,0-0.6-0.1-0.9-0.2l0.3-0.6c0.2,0.1,0.3,0.1,0.5,0.1
		c0.2,0,0.4-0.1,0.5-0.4l-1.5-3.6h0.9l1,2.7L92.7,1.5z"/>
	<path class="st0" d="M95.1,2.9h0.4l1.2-1.4h1l-1.5,1.8l0.9,1.1h0.7V6H97V5.1h-0.3l-1.2-1.5h-0.4v1.5h-0.8V1.5h0.8V2.9z"/>
	<path class="st0" d="M98.2,4L98.2,4c0-0.8,0.6-1.2,1.5-1.2c0.4,0,0.7,0.1,1,0.2V2.9c0-0.5-0.3-0.8-0.9-0.8c-0.4,0-0.7,0.1-1,0.2
		l-0.2-0.7c0.4-0.2,0.8-0.3,1.4-0.3c0.5,0,0.9,0.1,1.2,0.4c0.3,0.3,0.4,0.6,0.4,1.1v2.1h-0.8V4.6c-0.2,0.3-0.6,0.5-1.2,0.5
		C98.8,5.2,98.2,4.8,98.2,4z M100.7,3.8V3.5c-0.2-0.1-0.5-0.1-0.8-0.1C99.3,3.4,99,3.6,99,4v0c0,0.4,0.3,0.5,0.7,0.5
		C100.3,4.5,100.7,4.2,100.7,3.8z"/>
	<path class="st0" d="M102.4,1.5h0.8v1.4h1.7V1.5h0.8v3.6H105V3.6h-1.7v1.4h-0.8V1.5z"/>
	<path class="st0" d="M106.9,3.6h-0.5V3.1h0.5V1.5h2.7v0.7h-1.9v0.9h0.9v0.5h-0.9v1.4h-0.8V3.6z"/>
	<path class="st0" d="M109.8,4L109.8,4c0-0.8,0.6-1.2,1.5-1.2c0.4,0,0.7,0.1,1,0.2V2.9c0-0.5-0.3-0.8-0.9-0.8c-0.4,0-0.7,0.1-1,0.2
		l-0.2-0.7c0.4-0.2,0.8-0.3,1.4-0.3c0.5,0,0.9,0.1,1.2,0.4c0.3,0.3,0.4,0.6,0.4,1.1v2.1h-0.8V4.6c-0.2,0.3-0.6,0.5-1.2,0.5
		C110.5,5.2,109.8,4.8,109.8,4z M112.3,3.8V3.5c-0.2-0.1-0.5-0.1-0.8-0.1c-0.5,0-0.9,0.2-0.9,0.6v0c0,0.4,0.3,0.5,0.7,0.5
		C111.9,4.5,112.3,4.2,112.3,3.8z"/>
	<path class="st0" d="M115.9,4.3l0.6-0.6c0.3,0.4,0.7,0.6,1.3,0.6c0.5,0,0.8-0.3,0.8-0.7v0c0-0.5-0.4-0.7-1.1-0.7h-0.4L117,2.4
		l1.3-1.4h-2.1V0.3h3.2v0.6l-1.3,1.4c0.7,0.1,1.4,0.5,1.4,1.3v0c0,0.9-0.7,1.5-1.7,1.5C116.9,5.2,116.3,4.8,115.9,4.3z"/>
	<path class="st0" d="M125.4,2.9h0.4l1.1-1.4h1l-1.5,1.8l1.6,1.9h-1l-1.2-1.5h-0.4l0,1.5h-0.8l0-1.5h-0.4L123,5.1h-1l1.6-1.8
		l-1.5-1.8h1l1.1,1.4h0.4l0-1.4h0.8L125.4,2.9z"/>
	<path class="st0" d="M131.7,3.2L131.7,3.2c0,1.1-0.7,1.9-1.8,1.9c-1.2,0-1.7-0.9-1.7-1.9c0-0.1,0-0.2,0-0.2h2.7
		c-0.1-0.6-0.5-0.9-1-0.9c-0.4,0-0.7,0.2-1,0.4l-0.5-0.4c0.4-0.4,0.8-0.7,1.5-0.7C130.9,1.4,131.7,2.1,131.7,3.2z M129.1,3.5
		c0.1,0.5,0.4,1,0.9,1c0.5,0,0.9-0.4,0.9-1H129.1z"/>
	<path class="st0" d="M132.6,1.5h0.8v1.4h1.7V1.5h0.8v3.6h-0.8V3.6h-1.7v1.4h-0.8V1.5z"/>
	<path class="st0" d="M136.7,3.3L136.7,3.3c0-1,0.7-1.9,1.8-1.9c1.2,0,1.7,0.9,1.7,1.9c0,0.1,0,0.2,0,0.2h-2.7
		c0.1,0.6,0.5,0.9,1,0.9c0.4,0,0.7-0.2,1-0.4l0.5,0.4c-0.3,0.4-0.8,0.7-1.5,0.7C137.6,5.2,136.7,4.4,136.7,3.3z M139.4,3
		c-0.1-0.5-0.4-1-0.9-1c-0.5,0-0.9,0.4-0.9,1H139.4z"/>
	<path class="st0" d="M145.1,6.2V5.1c-1.4,0-2.2-0.8-2.2-1.8c0-1,0.8-1.8,2.2-1.8V0.1h0.8v1.4c1.4,0,2.2,0.8,2.2,1.8
		s-0.8,1.8-2.2,1.8v1.1H145.1z M145.1,4.4V2.1c-0.9,0-1.4,0.5-1.4,1.1C143.8,3.9,144.2,4.4,145.1,4.4z M145.9,2.1v2.2
		c0.9,0,1.4-0.5,1.4-1.1C147.3,2.6,146.8,2.2,145.9,2.1z"/>
	<path class="st0" d="M148.7,3.3L148.7,3.3c0-1.1,0.8-1.9,1.9-1.9s1.9,0.8,1.9,1.9v0c0,1-0.8,1.9-1.9,1.9
		C149.5,5.2,148.7,4.3,148.7,3.3z M151.7,3.3L151.7,3.3c0-0.7-0.5-1.2-1.1-1.2c-0.7,0-1.1,0.5-1.1,1.2v0c0,0.6,0.5,1.2,1.1,1.2
		C151.3,4.4,151.7,3.9,151.7,3.3z"/>
	<path class="st0" d="M153.4,1.5h0.8v0.6c0.3-0.4,0.6-0.7,1.2-0.7c0.9,0,1.7,0.7,1.7,1.9v0c0,1.2-0.8,1.9-1.7,1.9
		c-0.6,0-1-0.3-1.2-0.6v1.7h-0.8V1.5z M156.3,3.3L156.3,3.3c0-0.7-0.5-1.2-1-1.2c-0.6,0-1.1,0.5-1.1,1.2v0c0,0.7,0.5,1.2,1.1,1.2
		C155.9,4.4,156.3,4,156.3,3.3z"/>
	<path class="st0" d="M158,1.5h0.9l1.1,1.7l1.1-1.7h0.9v3.6h-0.8V2.7L160,4.4h0l-1.2-1.7v2.4H158V1.5z"/>
	<path class="st0" d="M165.5,1.5h0.9l-1.4,3.7c-0.3,0.7-0.6,1-1.2,1c-0.3,0-0.6-0.1-0.9-0.2l0.3-0.6c0.2,0.1,0.3,0.1,0.5,0.1
		c0.2,0,0.4-0.1,0.5-0.4l-1.5-3.6h0.9l1,2.7L165.5,1.5z"/>
	<path class="st0" d="M170.2,5.1h-0.9l-1.1-2.6l-1.1,2.6h-0.9l1.6-3.6h0.8L170.2,5.1z"/>
	<path class="st0" d="M170.6,4L170.6,4c0-0.8,0.6-1.2,1.5-1.2c0.4,0,0.7,0.1,1,0.2V2.9c0-0.5-0.3-0.8-0.9-0.8c-0.4,0-0.7,0.1-1,0.2
		l-0.2-0.7c0.4-0.2,0.8-0.3,1.4-0.3c0.5,0,0.9,0.1,1.2,0.4c0.3,0.3,0.4,0.6,0.4,1.1v2.1h-0.8V4.6c-0.2,0.3-0.6,0.5-1.2,0.5
		C171.2,5.2,170.6,4.8,170.6,4z M173.1,3.8V3.5c-0.2-0.1-0.5-0.1-0.8-0.1c-0.5,0-0.9,0.2-0.9,0.6v0c0,0.4,0.3,0.5,0.7,0.5
		C172.7,4.5,173.1,4.2,173.1,3.8z"/>
	<path class="st0" d="M178.5,5.1h-0.9l-1.1-2.6l-1.1,2.6h-0.9l1.6-3.6h0.8L178.5,5.1z"/>
	<path class="st0" d="M180,2.6h0.8c0.9,0,1.4,0.5,1.4,1.2v0c0,0.8-0.5,1.3-1.5,1.3h-1.6V1.5h0.8V2.6z M180,4.4h0.8
		c0.5,0,0.7-0.2,0.7-0.6v0c0-0.3-0.2-0.6-0.7-0.6H180V4.4z M182.8,1.5h0.8v3.6h-0.8V1.5z"/>
	<path class="st0" d="M186.9,0.3h0.8l2.6,3.3V0.3h0.8v4.8h-0.7l-2.6-3.4v3.4h-0.8V0.3z"/>
	<path class="st0" d="M192.1,3.8V1.5h0.8v2.1c0,0.6,0.3,0.9,0.8,0.9c0.5,0,0.8-0.3,0.8-0.9v-2h0.8v3.6h-0.8V4.5
		c-0.2,0.3-0.6,0.6-1.1,0.6C192.6,5.2,192.1,4.6,192.1,3.8z"/>
	<path class="st0" d="M196.6,4.1V2.2h-0.5V1.5h0.5v-1h0.8v1h1v0.7h-1v1.8c0,0.3,0.2,0.5,0.4,0.5c0.2,0,0.4,0,0.5-0.1V5
		c-0.2,0.1-0.4,0.2-0.7,0.2C197,5.1,196.6,4.9,196.6,4.1z"/>
	<path class="st0" d="M199.2,1.5h0.8v0.8c0.2-0.5,0.6-0.9,1.3-0.9v0.9h0c-0.7,0-1.2,0.5-1.2,1.4v1.4h-0.8V1.5z"/>
	<path class="st0" d="M202.1,0.1h0.9v0.8h-0.9V0.1z M202.1,1.5h0.8v3.6h-0.8V1.5z"/>
	<path class="st0" d="M204.1,0.1h0.8v5h-0.8V0.1z"/>
	<path class="st0" d="M205.8,3.3L205.8,3.3c0-1.1,0.8-1.9,1.9-1.9c1.1,0,1.9,0.8,1.9,1.9v0c0,1-0.8,1.9-1.9,1.9
		C206.6,5.2,205.8,4.3,205.8,3.3z M208.8,3.3L208.8,3.3c0-0.7-0.5-1.2-1.1-1.2c-0.7,0-1.1,0.5-1.1,1.2v0c0,0.6,0.5,1.2,1.1,1.2
		C208.4,4.4,208.8,3.9,208.8,3.3z"/>
	<path class="st0" d="M210.5,1.5h0.8V2c0.2-0.3,0.6-0.6,1.1-0.6c0.8,0,1.3,0.5,1.3,1.4v2.3h-0.8V3c0-0.6-0.3-0.9-0.8-0.9
		c-0.5,0-0.8,0.3-0.8,0.9v2h-0.8V1.5z"/>
	<path class="st0" d="M216.6,3.3L216.6,3.3c0-1.1,0.8-1.9,1.9-1.9c1.1,0,1.9,0.8,1.9,1.9v0c0,1-0.8,1.9-1.9,1.9
		C217.4,5.2,216.6,4.3,216.6,3.3z M217.4,2.9h2.2c-0.1-0.5-0.6-0.9-1.1-0.9C217.9,2.1,217.5,2.4,217.4,2.9z M219.6,3.6h-2.2
		c0.1,0.5,0.6,0.9,1.1,0.9C219.1,4.5,219.5,4.1,219.6,3.6z"/>
	<path class="st0" d="M221.3,1.5h0.8v1.4h1.7V1.5h0.8v3.6h-0.8V3.6h-1.7v1.4h-0.8V1.5z"/>
	<path class="st0" d="M225.7,0.1h0.9v0.8h-0.9V0.1z M225.7,1.5h0.8v3.6h-0.8V1.5z"/>
	<path class="st0" d="M227.6,1.5h0.9l1.1,1.7l1.1-1.7h0.9v3.6h-0.8V2.7l-1.2,1.7h0l-1.2-1.7v2.4h-0.8V1.5z"/>
	<path class="st0" d="M232.6,0.1h0.9v0.8h-0.9V0.1z M232.6,1.5h0.8v3.6h-0.8V1.5z"/>
	<path class="st0" d="M236.7,3.6h-0.5V3.1h0.5V1.5h2.7v0.7h-1.9v0.9h0.9v0.5h-0.9v1.4h-0.8V3.6z"/>
	<path class="st0" d="M239.6,4L239.6,4c0-0.8,0.6-1.2,1.5-1.2c0.4,0,0.7,0.1,1,0.2V2.9c0-0.5-0.3-0.8-0.9-0.8c-0.4,0-0.7,0.1-1,0.2
		l-0.2-0.7c0.4-0.2,0.8-0.3,1.4-0.3c0.5,0,0.9,0.1,1.2,0.4c0.3,0.3,0.4,0.6,0.4,1.1v2.1h-0.8V4.6c-0.2,0.3-0.6,0.5-1.2,0.5
		C240.2,5.2,239.6,4.8,239.6,4z M242.1,3.8V3.5c-0.2-0.1-0.5-0.1-0.8-0.1c-0.5,0-0.9,0.2-0.9,0.6v0c0,0.4,0.3,0.5,0.7,0.5
		C241.7,4.5,242.1,4.2,242.1,3.8z"/>
	<path class="st0" d="M243.9,1.5h0.8v1.4h1.7V1.5h0.8v3.6h-0.8V3.6h-1.7v1.4h-0.8V1.5z"/>
	<path class="st0" d="M248,4L248,4c0-0.8,0.6-1.2,1.5-1.2c0.4,0,0.7,0.1,1,0.2V2.9c0-0.5-0.3-0.8-0.9-0.8c-0.4,0-0.7,0.1-1,0.2
		l-0.2-0.7c0.4-0.2,0.8-0.3,1.4-0.3c0.5,0,0.9,0.1,1.2,0.4c0.3,0.3,0.4,0.6,0.4,1.1v2.1h-0.8V4.6c-0.2,0.3-0.6,0.5-1.2,0.5
		C248.6,5.2,248,4.8,248,4z M250.5,3.8V3.5c-0.2-0.1-0.5-0.1-0.8-0.1c-0.5,0-0.9,0.2-0.9,0.6v0c0,0.4,0.3,0.5,0.7,0.5
		C250.1,4.5,250.5,4.2,250.5,3.8z"/>
	<path class="st0" d="M255.2,2.9h0.4l1.2-1.4h1l-1.5,1.8l0.9,1.1h0.7V6h-0.8V5.1h-0.3l-1.2-1.5h-0.4v1.5h-0.8V1.5h0.8V2.9z"/>
	<path class="st0" d="M258.2,4L258.2,4c0-0.8,0.6-1.2,1.5-1.2c0.4,0,0.7,0.1,1,0.2V2.9c0-0.5-0.3-0.8-0.9-0.8c-0.4,0-0.7,0.1-1,0.2
		l-0.2-0.7c0.4-0.2,0.8-0.3,1.4-0.3c0.5,0,0.9,0.1,1.2,0.4c0.3,0.3,0.4,0.6,0.4,1.1v2.1h-0.8V4.6c-0.2,0.3-0.6,0.5-1.2,0.5
		C258.8,5.2,258.2,4.8,258.2,4z M260.7,3.8V3.5c-0.2-0.1-0.5-0.1-0.8-0.1c-0.5,0-0.9,0.2-0.9,0.6v0c0,0.4,0.3,0.5,0.7,0.5
		C260.3,4.5,260.7,4.2,260.7,3.8z"/>
	<path class="st0" d="M263.4,2.2h-1.3V1.5h3.4v0.7h-1.3v2.9h-0.8V2.2z"/>
	<path class="st0" d="M267,2.6h0.8c0.9,0,1.4,0.5,1.4,1.2v0c0,0.8-0.5,1.3-1.5,1.3h-1.6V1.5h0.8V2.6z M267,4.4h0.8
		c0.5,0,0.7-0.2,0.7-0.6v0c0-0.3-0.2-0.6-0.7-0.6H267V4.4z M269.9,1.5h0.8v3.6h-0.8V1.5z"/>
	<path class="st0" d="M271.6,3.3L271.6,3.3c0-1,0.8-1.9,1.9-1.9c0.7,0,1.1,0.3,1.4,0.6l-0.5,0.6c-0.3-0.3-0.5-0.5-0.9-0.5
		c-0.6,0-1,0.5-1,1.2v0c0,0.6,0.4,1.2,1.1,1.2c0.4,0,0.7-0.2,0.9-0.4l0.5,0.5c-0.4,0.4-0.8,0.7-1.5,0.7
		C272.4,5.2,271.6,4.3,271.6,3.3z"/>
	<path class="st0" d="M275.4,4L275.4,4c0-0.8,0.6-1.2,1.5-1.2c0.4,0,0.7,0.1,1,0.2V2.9c0-0.5-0.3-0.8-0.9-0.8c-0.4,0-0.7,0.1-1,0.2
		l-0.2-0.7c0.4-0.2,0.8-0.3,1.4-0.3c0.5,0,0.9,0.1,1.2,0.4c0.3,0.3,0.4,0.6,0.4,1.1v2.1h-0.8V4.6c-0.2,0.3-0.6,0.5-1.2,0.5
		C276,5.2,275.4,4.8,275.4,4z M277.9,3.8V3.5c-0.2-0.1-0.5-0.1-0.8-0.1c-0.5,0-0.9,0.2-0.9,0.6v0c0,0.4,0.3,0.5,0.7,0.5
		C277.5,4.5,277.9,4.2,277.9,3.8z"/>
	<path class="st0" d="M283.2,4.3h0.4V6h-0.8V5.1h-2.8V6h-0.8V4.3h0.4l1.3-2.9h0.9L283.2,4.3z M280.6,4.4h1.8l-0.9-2.1L280.6,4.4z"/>
	<path class="st0" d="M285.1,2.6h0.8c0.9,0,1.4,0.5,1.4,1.2v0c0,0.8-0.5,1.3-1.5,1.3h-1.6V1.5h0.8V2.6z M285.1,4.4h0.8
		c0.5,0,0.7-0.2,0.7-0.6v0c0-0.3-0.2-0.6-0.7-0.6h-0.8V4.4z M288,1.5h0.8v3.6H288V1.5z"/>
	<path class="st0" d="M289.8,4.1h0.9v0.9h-0.9V4.1z"/>
	<path class="st0" d="M14.1,9.4l-0.7,0.5l-0.2-0.4L14,9.1l-0.8-0.3l0.2-0.4l0.7,0.5L14,8h0.5l-0.1,0.8l0.7-0.5l0.2,0.4l-0.8,0.3
		l0.8,0.3l-0.2,0.4l-0.7-0.5l0.1,0.8H14L14.1,9.4z"/>
	<path class="st0" d="M18.4,8H22v0.8h-2.7V10h2.4v0.8h-2.4v1.3H22v0.8h-3.6V8z"/>
	<path class="st0" d="M22.9,9.2h0.9l1.1,1.7L26,9.2h0.9v3.6H26v-2.4l-1.2,1.7h0l-1.2-1.7v2.4h-0.8V9.2z"/>
	<path class="st0" d="M27.9,9.2h0.8v2.9h1.4V9.2H31v2.9h1.4V9.2h0.8v3.6h-5.4V9.2z"/>
	<path class="st0" d="M34.1,11L34.1,11c0-1,0.7-1.9,1.8-1.9c1.2,0,1.7,0.9,1.7,1.9c0,0.1,0,0.2,0,0.2h-2.7c0.1,0.6,0.5,0.9,1,0.9
		c0.4,0,0.7-0.2,1-0.4l0.5,0.4c-0.3,0.4-0.8,0.7-1.5,0.7C34.9,12.9,34.1,12.1,34.1,11z M36.8,10.8c-0.1-0.5-0.4-1-0.9-1
		c-0.5,0-0.9,0.4-0.9,1H36.8z"/>
	<path class="st0" d="M39.3,10.6h0.4l1.2-1.4h1L40.3,11l1.6,1.9h-1l-1.2-1.5h-0.4v1.5h-0.8V9.2h0.8V10.6z"/>
	<path class="st0" d="M44.4,11L44.4,11c0-1,0.8-1.9,1.9-1.9c0.7,0,1.1,0.3,1.4,0.6l-0.5,0.6c-0.3-0.3-0.5-0.5-0.9-0.5
		c-0.6,0-1,0.5-1,1.2v0c0,0.6,0.4,1.2,1.1,1.2c0.4,0,0.7-0.2,0.9-0.4l0.5,0.5c-0.4,0.4-0.8,0.7-1.5,0.7C45.2,12.9,44.4,12.1,44.4,11
		z"/>
	<path class="st0" d="M49.6,13.9v-1.2l-1.4-3.5H49l1,2.6l1-2.6h0.9l-1.4,3.5v1.2H49.6z"/>
	<path class="st0" d="M53.5,9.9h-1.3V9.2h3.4v0.7h-1.3v2.9h-0.8V9.9z"/>
	<path class="st0" d="M56.4,7.9h0.9v0.8h-0.9V7.9z M56.4,9.2h0.8v3.6h-0.8V9.2z"/>
	<path class="st0" d="M60.2,10.3h2v0.8h-2V10.3z"/>
	<path class="st0" d="M68.2,10.6h0.4l1.1-1.4h1L69.2,11l1.6,1.9h-1l-1.2-1.5h-0.4l0,1.5h-0.8l0-1.5h-0.4l-1.2,1.5h-1l1.6-1.8
		l-1.5-1.8h1l1.1,1.4h0.4l0-1.4h0.8L68.2,10.6z"/>
	<path class="st0" d="M71,11.8L71,11.8c0-0.8,0.6-1.2,1.5-1.2c0.4,0,0.7,0.1,1,0.2v-0.1c0-0.5-0.3-0.8-0.9-0.8c-0.4,0-0.7,0.1-1,0.2
		l-0.2-0.7c0.4-0.2,0.8-0.3,1.4-0.3c0.5,0,0.9,0.1,1.2,0.4c0.3,0.3,0.4,0.6,0.4,1.1v2.1h-0.8v-0.5c-0.2,0.3-0.6,0.5-1.2,0.5
		C71.6,12.9,71,12.5,71,11.8z M73.5,11.5v-0.2c-0.2-0.1-0.5-0.1-0.8-0.1c-0.5,0-0.9,0.2-0.9,0.6v0c0,0.4,0.3,0.5,0.7,0.5
		C73.1,12.3,73.5,12,73.5,11.5z"/>
	<path class="st0" d="M75.1,11L75.1,11c0-1,0.8-1.9,1.9-1.9c0.7,0,1.1,0.3,1.4,0.6l-0.5,0.6C77.6,10,77.4,9.9,77,9.9
		c-0.6,0-1,0.5-1,1.2v0c0,0.6,0.4,1.2,1.1,1.2c0.4,0,0.7-0.2,0.9-0.4l0.5,0.5c-0.4,0.4-0.8,0.7-1.5,0.7C75.9,12.9,75.1,12.1,75.1,11
		z"/>
	<path class="st0" d="M81.7,12.4c-0.4-0.4-0.6-0.9-0.6-1.7C81.1,9,81.7,8.2,83,8l1.3-0.2l0.1,0.8l-1.3,0.2C82.4,8.9,82,9.2,81.9,10
		c0.3-0.3,0.8-0.5,1.3-0.5c1.1,0,1.7,0.7,1.7,1.7c0,1-0.8,1.8-1.9,1.8C82.4,12.9,82,12.7,81.7,12.4z M84.1,11.1c0-0.6-0.4-1-1-1
		c-0.7,0-1.1,0.5-1.1,1.1c0,0.6,0.4,1.1,1.1,1.1C83.6,12.2,84.1,11.7,84.1,11.1z"/>
	<path class="st0" d="M85.5,11.8L85.5,11.8c0-0.8,0.6-1.2,1.5-1.2c0.4,0,0.7,0.1,1,0.2v-0.1c0-0.5-0.3-0.8-0.9-0.8
		c-0.4,0-0.7,0.1-1,0.2l-0.2-0.7c0.4-0.2,0.8-0.3,1.4-0.3c0.5,0,0.9,0.1,1.2,0.4c0.3,0.3,0.4,0.6,0.4,1.1v2.1H88v-0.5
		c-0.2,0.3-0.6,0.5-1.2,0.5C86.1,12.9,85.5,12.5,85.5,11.8z M88,11.5v-0.2c-0.2-0.1-0.5-0.1-0.8-0.1c-0.5,0-0.9,0.2-0.9,0.6v0
		c0,0.4,0.3,0.5,0.7,0.5C87.6,12.3,88,12,88,11.5z"/>
	<path class="st0" d="M93.3,12.8h-0.9l-1.1-2.6l-1.1,2.6h-0.9L91,9.2h0.8L93.3,12.8z"/>
	<path class="st0" d="M93.7,11.8L93.7,11.8c0-0.8,0.6-1.2,1.5-1.2c0.4,0,0.7,0.1,1,0.2v-0.1c0-0.5-0.3-0.8-0.9-0.8
		c-0.4,0-0.7,0.1-1,0.2l-0.2-0.7c0.4-0.2,0.8-0.3,1.4-0.3c0.5,0,0.9,0.1,1.2,0.4c0.3,0.3,0.4,0.6,0.4,1.1v2.1h-0.8v-0.5
		c-0.2,0.3-0.6,0.5-1.2,0.5C94.4,12.9,93.7,12.5,93.7,11.8z M96.2,11.5v-0.2c-0.2-0.1-0.5-0.1-0.8-0.1c-0.5,0-0.9,0.2-0.9,0.6v0
		c0,0.4,0.3,0.5,0.7,0.5C95.8,12.3,96.2,12,96.2,11.5z"/>
	<path class="st0" d="M101.6,12.8h-0.9l-1.1-2.6l-1.1,2.6h-0.9l1.6-3.6h0.8L101.6,12.8z"/>
	<path class="st0" d="M102,11.8L102,11.8c0-0.8,0.6-1.2,1.5-1.2c0.4,0,0.7,0.1,1,0.2v-0.1c0-0.5-0.3-0.8-0.9-0.8
		c-0.4,0-0.7,0.1-1,0.2l-0.2-0.7c0.4-0.2,0.8-0.3,1.4-0.3c0.5,0,0.9,0.1,1.2,0.4c0.3,0.3,0.4,0.6,0.4,1.1v2.1h-0.8v-0.5
		c-0.2,0.3-0.6,0.5-1.2,0.5C102.6,12.9,102,12.5,102,11.8z M104.5,11.5v-0.2c-0.2-0.1-0.5-0.1-0.8-0.1c-0.5,0-0.9,0.2-0.9,0.6v0
		c0,0.4,0.3,0.5,0.7,0.5C104.1,12.3,104.5,12,104.5,11.5z"/>
	<path class="st0" d="M106.3,9.2h0.8v0.6c0.3-0.4,0.6-0.7,1.2-0.7c0.9,0,1.7,0.7,1.7,1.9v0c0,1.2-0.8,1.9-1.7,1.9
		c-0.6,0-1-0.3-1.2-0.6v1.7h-0.8V9.2z M109.2,11L109.2,11c0-0.7-0.5-1.2-1-1.2c-0.6,0-1.1,0.5-1.1,1.2v0c0,0.7,0.5,1.2,1.1,1.2
		C108.7,12.2,109.2,11.7,109.2,11z"/>
	<path class="st0" d="M114,13.9v-1.2l-1.4-3.5h0.9l1,2.6l1-2.6h0.9l-1.4,3.5v1.2H114z"/>
	<path class="st0" d="M117,9.2h0.8v2.9h1.4V9.2h0.8v2.9h1.4V9.2h0.8v3.6H117V9.2z"/>
	<path class="st0" d="M123.4,7.9h0.9v0.8h-0.9V7.9z M123.5,9.2h0.8v3.6h-0.8V9.2z"/>
	<path class="st0" d="M125.4,9.2h0.8v1.4h1.7V9.2h0.8v3.6h-0.8v-1.4h-1.7v1.4h-0.8V9.2z"/>
	<path class="st0" d="M131.6,11L131.6,11c0-1,0.7-1.9,1.8-1.9c1.2,0,1.7,0.9,1.7,1.9c0,0.1,0,0.2,0,0.2h-2.7c0.1,0.6,0.5,0.9,1,0.9
		c0.4,0,0.7-0.2,1-0.4l0.5,0.4c-0.3,0.4-0.8,0.7-1.5,0.7C132.4,12.9,131.6,12.1,131.6,11z M134.3,10.8c-0.1-0.5-0.4-1-0.9-1
		c-0.5,0-0.9,0.4-0.9,1H134.3z"/>
	<path class="st0" d="M139,12.8h-0.5v-1.4h-1.7v1.4h-0.8V9.2h0.8v1.4h1.7V9.2h0.8v2.9h0.4v1.7H139V12.8z"/>
	<path class="st0" d="M145.4,10.6h0.4l1.1-1.4h1l-1.5,1.8l1.6,1.9h-1l-1.2-1.5h-0.4l0,1.5h-0.8l0-1.5h-0.4l-1.2,1.5h-1l1.6-1.8
		l-1.5-1.8h1l1.1,1.4h0.4l0-1.4h0.8L145.4,10.6z"/>
	<path class="st0" d="M148.3,11.8L148.3,11.8c0-0.8,0.6-1.2,1.5-1.2c0.4,0,0.7,0.1,1,0.2v-0.1c0-0.5-0.3-0.8-0.9-0.8
		c-0.4,0-0.7,0.1-1,0.2l-0.2-0.7c0.4-0.2,0.8-0.3,1.4-0.3c0.5,0,0.9,0.1,1.2,0.4c0.3,0.3,0.4,0.6,0.4,1.1v2.1h-0.8v-0.5
		c-0.2,0.3-0.6,0.5-1.2,0.5C148.9,12.9,148.3,12.5,148.3,11.8z M150.8,11.5v-0.2c-0.2-0.1-0.5-0.1-0.8-0.1c-0.5,0-0.9,0.2-0.9,0.6v0
		c0,0.4,0.3,0.5,0.7,0.5C150.4,12.3,150.8,12,150.8,11.5z"/>
	<path class="st0" d="M153.4,10.6h0.4l1.2-1.4h1l-1.5,1.8l0.9,1.1h0.7v1.7h-0.8v-0.9H155l-1.2-1.5h-0.4v1.5h-0.8V9.2h0.8V10.6z"/>
	<path class="st0" d="M156.3,11L156.3,11c0-1,0.8-1.9,1.9-1.9c0.7,0,1.1,0.3,1.4,0.6l-0.5,0.6c-0.3-0.3-0.5-0.5-0.9-0.5
		c-0.6,0-1,0.5-1,1.2v0c0,0.6,0.4,1.2,1.1,1.2c0.4,0,0.7-0.2,0.9-0.4l0.5,0.5c-0.4,0.4-0.8,0.7-1.5,0.7
		C157.1,12.9,156.3,12.1,156.3,11z"/>
	<path class="st0" d="M161.2,10.3h0.8c0.9,0,1.4,0.5,1.4,1.2v0c0,0.8-0.5,1.3-1.5,1.3h-1.6V9.2h0.8V10.3z M161.2,12.1h0.8
		c0.5,0,0.7-0.2,0.7-0.6v0c0-0.3-0.2-0.6-0.7-0.6h-0.8V12.1z M164.1,9.2h0.8v3.6h-0.8V9.2z"/>
	<path class="st0" d="M169,9.9h-1.3V9.2h3.4v0.7h-1.3v2.9H169V9.9z"/>
	<path class="st0" d="M171.4,11.8L171.4,11.8c0-0.8,0.6-1.2,1.5-1.2c0.4,0,0.7,0.1,1,0.2v-0.1c0-0.5-0.3-0.8-0.9-0.8
		c-0.4,0-0.7,0.1-1,0.2l-0.2-0.7c0.4-0.2,0.8-0.3,1.4-0.3c0.5,0,0.9,0.1,1.2,0.4c0.3,0.3,0.4,0.6,0.4,1.1v2.1h-0.8v-0.5
		c-0.2,0.3-0.6,0.5-1.2,0.5C172,12.9,171.4,12.5,171.4,11.8z M173.9,11.5v-0.2c-0.2-0.1-0.5-0.1-0.8-0.1c-0.5,0-0.9,0.2-0.9,0.6v0
		c0,0.4,0.3,0.5,0.7,0.5C173.5,12.3,173.9,12,173.9,11.5z"/>
	<path class="st0" d="M175.8,11.4h-0.5v-0.5h0.5V9.2h2.7V10h-1.9v0.9h0.9v0.5h-0.9v1.4h-0.8V11.4z"/>
	<path class="st0" d="M178.7,11.8L178.7,11.8c0-0.8,0.6-1.2,1.5-1.2c0.4,0,0.7,0.1,1,0.2v-0.1c0-0.5-0.3-0.8-0.9-0.8
		c-0.4,0-0.7,0.1-1,0.2L179,9.5c0.4-0.2,0.8-0.3,1.4-0.3c0.5,0,0.9,0.1,1.2,0.4c0.3,0.3,0.4,0.6,0.4,1.1v2.1h-0.8v-0.5
		c-0.2,0.3-0.6,0.5-1.2,0.5C179.3,12.9,178.7,12.5,178.7,11.8z M181.2,11.5v-0.2c-0.2-0.1-0.5-0.1-0.8-0.1c-0.5,0-0.9,0.2-0.9,0.6v0
		c0,0.4,0.3,0.5,0.7,0.5C180.8,12.3,181.2,12,181.2,11.5z"/>
	<path class="st0" d="M183,9.2h0.9l1.1,1.7l1.1-1.7h0.9v3.6h-0.8v-2.4l-1.2,1.7h0l-1.2-1.7v2.4H183V9.2z"/>
	<path class="st0" d="M187.9,11.9h0.9v0.9h-0.9V11.9z"/>
	<path class="st0" d="M192,8h0.8l2.6,3.3V8h0.8v4.8h-0.7l-2.6-3.4v3.4H192V8z"/>
	<path class="st0" d="M197.2,11.5V9.2h0.8v2.1c0,0.6,0.3,0.9,0.8,0.9c0.5,0,0.8-0.3,0.8-0.9v-2h0.8v3.6h-0.8v-0.6
		c-0.2,0.3-0.6,0.6-1.1,0.6C197.7,12.9,197.2,12.4,197.2,11.5z"/>
	<path class="st0" d="M201.7,11.8V9.9h-0.5V9.2h0.5v-1h0.8v1h1v0.7h-1v1.8c0,0.3,0.2,0.5,0.4,0.5c0.2,0,0.4,0,0.5-0.1v0.7
		c-0.2,0.1-0.4,0.2-0.7,0.2C202.1,12.9,201.7,12.6,201.7,11.8z"/>
	<path class="st0" d="M204.3,9.2h0.8V10c0.2-0.5,0.6-0.9,1.3-0.9V10h0c-0.7,0-1.2,0.5-1.2,1.4v1.4h-0.8V9.2z"/>
	<path class="st0" d="M207.2,7.9h0.9v0.8h-0.9V7.9z M207.2,9.2h0.8v3.6h-0.8V9.2z"/>
	<path class="st0" d="M209.2,7.8h0.8v5h-0.8V7.8z"/>
	<path class="st0" d="M210.9,11L210.9,11c0-1.1,0.8-1.9,1.9-1.9c1.1,0,1.9,0.8,1.9,1.9v0c0,1-0.8,1.9-1.9,1.9
		C211.7,12.9,210.9,12.1,210.9,11z M213.9,11L213.9,11c0-0.7-0.5-1.2-1.1-1.2c-0.7,0-1.1,0.5-1.1,1.2v0c0,0.6,0.5,1.2,1.1,1.2
		C213.5,12.2,213.9,11.7,213.9,11z"/>
	<path class="st0" d="M215.6,9.2h0.8v0.6c0.2-0.3,0.6-0.6,1.1-0.6c0.8,0,1.3,0.5,1.3,1.4v2.3H218v-2.1c0-0.6-0.3-0.9-0.8-0.9
		c-0.5,0-0.8,0.3-0.8,0.9v2h-0.8V9.2z"/>
	<path class="st0" d="M220.6,9.4l-0.7,0.5l-0.2-0.4l0.8-0.3l-0.8-0.3l0.2-0.4l0.7,0.5L220.5,8h0.5l-0.1,0.8l0.7-0.5l0.2,0.4L221,9.1
		l0.8,0.3l-0.2,0.4l-0.7-0.5l0.1,0.8h-0.5L220.6,9.4z"/>
	<path class="st0" d="M222.5,12.1l0.6-0.6c0.3,0.4,0.7,0.6,1.3,0.6c0.5,0,0.8-0.3,0.8-0.7v0c0-0.5-0.4-0.7-1.1-0.7h-0.4l-0.1-0.5
		l1.3-1.4h-2.1V8h3.2v0.6l-1.3,1.4c0.7,0.1,1.4,0.5,1.4,1.3v0c0,0.9-0.7,1.5-1.7,1.5C223.5,12.9,222.9,12.6,222.5,12.1z"/>
	<path class="st0" d="M229,9.2h0.8v1.4h1.7V9.2h0.8v3.6h-0.8v-1.4h-1.7v1.4H229V9.2z"/>
	<path class="st0" d="M236.7,11L236.7,11c0,1.1-0.7,1.9-1.8,1.9c-1.2,0-1.7-0.9-1.7-1.9c0-0.1,0-0.2,0-0.2h2.7
		c-0.1-0.6-0.5-0.9-1-0.9c-0.4,0-0.7,0.2-1,0.4l-0.5-0.4c0.3-0.4,0.8-0.7,1.5-0.7C235.9,9.1,236.7,9.9,236.7,11z M234,11.3
		c0.1,0.5,0.4,1,0.9,1c0.5,0,0.9-0.4,0.9-1H234z"/>
	<path class="st0" d="M237.5,9.2h0.8v0.6c0.3-0.4,0.6-0.7,1.2-0.7c0.9,0,1.7,0.7,1.7,1.9v0c0,1.2-0.8,1.9-1.7,1.9
		c-0.6,0-1-0.3-1.2-0.6v1.7h-0.8V9.2z M240.4,11L240.4,11c0-0.7-0.5-1.2-1-1.2c-0.6,0-1.1,0.5-1.1,1.2v0c0,0.7,0.5,1.2,1.1,1.2
		C239.9,12.2,240.4,11.7,240.4,11z"/>
	<path class="st0" d="M241.9,11L241.9,11c0-1,0.7-1.9,1.8-1.9c1.2,0,1.7,0.9,1.7,1.9c0,0.1,0,0.2,0,0.2h-2.7c0.1,0.6,0.5,0.9,1,0.9
		c0.4,0,0.7-0.2,1-0.4l0.5,0.4c-0.3,0.4-0.8,0.7-1.5,0.7C242.7,12.9,241.9,12.1,241.9,11z M244.6,10.8c-0.1-0.5-0.4-1-0.9-1
		c-0.5,0-0.9,0.4-0.9,1H244.6z"/>
	<path class="st0" d="M246,11L246,11c0-1,0.8-1.9,1.9-1.9c0.7,0,1.1,0.3,1.4,0.6l-0.5,0.6c-0.3-0.3-0.5-0.5-0.9-0.5
		c-0.6,0-1,0.5-1,1.2v0c0,0.6,0.4,1.2,1.1,1.2c0.4,0,0.7-0.2,0.9-0.4l0.5,0.5c-0.4,0.4-0.8,0.7-1.5,0.7C246.8,12.9,246,12.1,246,11z
		"/>
	<path class="st0" d="M251,9.9h-1.3V9.2h3.4v0.7h-1.3v2.9H251V9.9z"/>
	<path class="st0" d="M253.5,11L253.5,11c0-1,0.7-1.9,1.8-1.9c1.2,0,1.7,0.9,1.7,1.9c0,0.1,0,0.2,0,0.2h-2.7c0.1,0.6,0.5,0.9,1,0.9
		c0.4,0,0.7-0.2,1-0.4l0.5,0.4c-0.3,0.4-0.8,0.7-1.5,0.7C254.3,12.9,253.5,12.1,253.5,11z M256.2,10.8c-0.1-0.5-0.4-1-0.9-1
		c-0.5,0-0.9,0.4-0.9,1H256.2z"/>
	<path class="st0" d="M259.7,11L259.7,11c0-1,0.8-1.9,1.9-1.9c0.7,0,1.1,0.3,1.4,0.6l-0.5,0.6c-0.3-0.3-0.5-0.5-0.9-0.5
		c-0.6,0-1,0.5-1,1.2v0c0,0.6,0.4,1.2,1.1,1.2c0.4,0,0.7-0.2,0.9-0.4l0.5,0.5c-0.4,0.4-0.8,0.7-1.5,0.7
		C260.5,12.9,259.7,12.1,259.7,11z"/>
	<path class="st0" d="M264.9,13.9v-1.2l-1.4-3.5h0.9l1,2.6l1-2.6h0.9l-1.4,3.5v1.2H264.9z"/>
	<path class="st0" d="M268.8,9.9h-1.3V9.2h3.4v0.7h-1.3v2.9h-0.8V9.9z"/>
	<path class="st0" d="M271.7,7.9h0.9v0.8h-0.9V7.9z M271.7,9.2h0.8v3.6h-0.8V9.2z"/>
	<path class="st0" d="M275.6,10.3h2v0.8h-2V10.3z"/>
	<path class="st0" d="M26.2,20.2c-0.4-0.4-0.6-0.9-0.6-1.7c0-1.7,0.6-2.5,1.9-2.7l1.3-0.2l0.1,0.8l-1.3,0.2
		c-0.8,0.1-1.2,0.5-1.3,1.2c0.3-0.3,0.8-0.5,1.3-0.5c1.1,0,1.7,0.7,1.7,1.7c0,1-0.8,1.8-1.9,1.8C26.9,20.7,26.5,20.4,26.2,20.2z
		 M28.5,18.8c0-0.6-0.4-1-1-1c-0.7,0-1.1,0.5-1.1,1.1c0,0.6,0.4,1.1,1.1,1.1C28.1,19.9,28.5,19.5,28.5,18.8z"/>
	<path class="st0" d="M30,19.5L30,19.5c0-0.8,0.6-1.2,1.5-1.2c0.4,0,0.7,0.1,1,0.2v-0.1c0-0.5-0.3-0.8-0.9-0.8c-0.4,0-0.7,0.1-1,0.2
		l-0.2-0.7c0.4-0.2,0.8-0.3,1.4-0.3c0.5,0,0.9,0.1,1.2,0.4c0.3,0.3,0.4,0.6,0.4,1.1v2.1h-0.8v-0.5c-0.2,0.3-0.6,0.5-1.2,0.5
		C30.6,20.6,30,20.3,30,19.5z M32.5,19.3V19c-0.2-0.1-0.5-0.1-0.8-0.1c-0.5,0-0.9,0.2-0.9,0.6v0c0,0.4,0.3,0.5,0.7,0.5
		C32,20,32.5,19.7,32.5,19.3z"/>
	<path class="st0" d="M37.8,20.6h-0.9l-1.1-2.6l-1.1,2.6h-0.9l1.6-3.6h0.8L37.8,20.6z"/>
	<path class="st0" d="M38.2,19.5L38.2,19.5c0-0.8,0.6-1.2,1.5-1.2c0.4,0,0.7,0.1,1,0.2v-0.1c0-0.5-0.3-0.8-0.9-0.8
		c-0.4,0-0.7,0.1-1,0.2l-0.2-0.7c0.4-0.2,0.8-0.3,1.4-0.3c0.5,0,0.9,0.1,1.2,0.4c0.3,0.3,0.4,0.6,0.4,1.1v2.1h-0.8v-0.5
		c-0.2,0.3-0.6,0.5-1.2,0.5C38.8,20.6,38.2,20.3,38.2,19.5z M40.7,19.3V19c-0.2-0.1-0.5-0.1-0.8-0.1c-0.5,0-0.9,0.2-0.9,0.6v0
		c0,0.4,0.3,0.5,0.7,0.5C40.3,20,40.7,19.7,40.7,19.3z"/>
	<path class="st0" d="M46.1,20.6h-0.9l-1.1-2.6L43,20.6h-0.9l1.6-3.6h0.8L46.1,20.6z"/>
	<path class="st0" d="M46.5,19.5L46.5,19.5c0-0.8,0.6-1.2,1.5-1.2c0.4,0,0.7,0.1,1,0.2v-0.1c0-0.5-0.3-0.8-0.9-0.8
		c-0.4,0-0.7,0.1-1,0.2l-0.2-0.7c0.4-0.2,0.8-0.3,1.4-0.3c0.5,0,0.9,0.1,1.2,0.4c0.3,0.3,0.4,0.6,0.4,1.1v2.1H49v-0.5
		c-0.2,0.3-0.6,0.5-1.2,0.5C47.1,20.6,46.5,20.3,46.5,19.5z M49,19.3V19c-0.2-0.1-0.5-0.1-0.8-0.1c-0.5,0-0.9,0.2-0.9,0.6v0
		c0,0.4,0.3,0.5,0.7,0.5C48.6,20,49,19.7,49,19.3z"/>
	<path class="st0" d="M50.8,17h0.8v0.6c0.3-0.4,0.6-0.7,1.2-0.7c0.9,0,1.7,0.7,1.7,1.9v0c0,1.2-0.8,1.9-1.7,1.9
		c-0.6,0-1-0.3-1.2-0.6v1.7h-0.8V17z M53.7,18.8L53.7,18.8c0-0.7-0.5-1.2-1-1.2c-0.6,0-1.1,0.5-1.1,1.2v0c0,0.7,0.5,1.2,1.1,1.2
		C53.2,19.9,53.7,19.5,53.7,18.8z"/>
	<path class="st0" d="M58.7,19.8h0.4v1.7h-0.8v-0.9h-2.8v0.9h-0.8v-1.7h0.4l1.3-2.9h0.9L58.7,19.8z M56.1,19.9h1.8L57,17.8
		L56.1,19.9z"/>
	<path class="st0" d="M60.6,18.1h0.8c0.9,0,1.4,0.5,1.4,1.2v0c0,0.8-0.5,1.3-1.5,1.3h-1.6V17h0.8V18.1z M60.6,19.9h0.8
		c0.5,0,0.7-0.2,0.7-0.6v0c0-0.3-0.2-0.6-0.7-0.6h-0.8V19.9z M63.5,17h0.8v3.6h-0.8V17z"/>
	<path class="st0" d="M68.1,16.6l-0.9,0.2l-0.2-0.7l1.3-0.4h0.6v4.8h-0.8V16.6z"/>
	<path class="st0" d="M69.9,19.9l1.7-1.4c0.7-0.6,0.9-0.9,0.9-1.3c0-0.5-0.3-0.7-0.8-0.7c-0.4,0-0.7,0.2-1.1,0.7L70,16.7
		c0.5-0.6,0.9-1,1.8-1c0.9,0,1.6,0.6,1.6,1.4v0c0,0.8-0.4,1.2-1.2,1.9l-1,0.8h2.3v0.7h-3.5V19.9z"/>
	<path class="st0" d="M76.1,19.5L76.1,19.5c0-0.8,0.6-1.2,1.5-1.2c0.4,0,0.7,0.1,1,0.2v-0.1c0-0.5-0.3-0.8-0.9-0.8
		c-0.4,0-0.7,0.1-1,0.2l-0.2-0.7c0.4-0.2,0.8-0.3,1.4-0.3c0.5,0,0.9,0.1,1.2,0.4c0.3,0.3,0.4,0.6,0.4,1.1v2.1h-0.8v-0.5
		c-0.2,0.3-0.6,0.5-1.2,0.5C76.7,20.6,76.1,20.3,76.1,19.5z M78.6,19.3V19c-0.2-0.1-0.5-0.1-0.8-0.1c-0.5,0-0.9,0.2-0.9,0.6v0
		c0,0.4,0.3,0.5,0.7,0.5C78.2,20,78.6,19.7,78.6,19.3z"/>
	<path class="st0" d="M80.4,17h0.8v2.3l1.7-2.3h0.8v3.6h-0.8v-2.4l-1.8,2.4h-0.8V17z M80.9,15.5h0.6c0.1,0.2,0.3,0.4,0.6,0.4
		c0.3,0,0.5-0.2,0.6-0.4h0.6c-0.1,0.6-0.5,1-1.2,1C81.4,16.5,80.9,16.1,80.9,15.5z"/>
	<path class="st0" d="M88.3,19.8h0.4v1.7h-0.8v-0.9h-2.8v0.9h-0.8v-1.7h0.4l1.3-2.9H87L88.3,19.8z M85.6,19.9h1.8l-0.9-2.1
		L85.6,19.9z"/>
	<path class="st0" d="M89.1,19.5L89.1,19.5c0-0.8,0.6-1.2,1.5-1.2c0.4,0,0.7,0.1,1,0.2v-0.1c0-0.5-0.3-0.8-0.9-0.8
		c-0.4,0-0.7,0.1-1,0.2l-0.2-0.7c0.4-0.2,0.8-0.3,1.4-0.3c0.5,0,0.9,0.1,1.2,0.4c0.3,0.3,0.4,0.6,0.4,1.1v2.1h-0.8v-0.5
		c-0.2,0.3-0.6,0.5-1.2,0.5C89.7,20.6,89.1,20.3,89.1,19.5z M91.6,19.3V19c-0.2-0.1-0.5-0.1-0.8-0.1c-0.5,0-0.9,0.2-0.9,0.6v0
		c0,0.4,0.3,0.5,0.7,0.5C91.2,20,91.6,19.7,91.6,19.3z"/>
	<path class="st0" d="M93.3,17h0.8v1.4h1.7V17h0.8v3.6h-0.8v-1.4h-1.7v1.4h-0.8V17z"/>
	<path class="st0" d="M100.2,20.2c-0.4-0.4-0.6-0.9-0.6-1.7c0-1.7,0.6-2.5,1.9-2.7l1.3-0.2l0.1,0.8l-1.3,0.2
		c-0.8,0.1-1.2,0.5-1.3,1.2c0.3-0.3,0.8-0.5,1.3-0.5c1.1,0,1.7,0.7,1.7,1.7c0,1-0.8,1.8-1.9,1.8C100.9,20.7,100.5,20.4,100.2,20.2z
		 M102.6,18.8c0-0.6-0.4-1-1-1c-0.7,0-1.1,0.5-1.1,1.1c0,0.6,0.4,1.1,1.1,1.1C102.1,19.9,102.6,19.5,102.6,18.8z"/>
	<path class="st0" d="M104,19.5L104,19.5c0-0.8,0.6-1.2,1.5-1.2c0.4,0,0.7,0.1,1,0.2v-0.1c0-0.5-0.3-0.8-0.9-0.8
		c-0.4,0-0.7,0.1-1,0.2l-0.2-0.7c0.4-0.2,0.8-0.3,1.4-0.3c0.5,0,0.9,0.1,1.2,0.4c0.3,0.3,0.4,0.6,0.4,1.1v2.1h-0.8v-0.5
		c-0.2,0.3-0.6,0.5-1.2,0.5C104.6,20.6,104,20.3,104,19.5z M106.5,19.3V19c-0.2-0.1-0.5-0.1-0.8-0.1c-0.5,0-0.9,0.2-0.9,0.6v0
		c0,0.4,0.3,0.5,0.7,0.5C106.1,20,106.5,19.7,106.5,19.3z"/>
	<path class="st0" d="M108.1,18.8L108.1,18.8c0-1,0.8-1.9,1.9-1.9c0.7,0,1.1,0.3,1.4,0.6l-0.5,0.6c-0.3-0.3-0.5-0.5-0.9-0.5
		c-0.6,0-1,0.5-1,1.2v0c0,0.6,0.4,1.2,1.1,1.2c0.4,0,0.7-0.2,0.9-0.4l0.5,0.5c-0.4,0.4-0.8,0.7-1.5,0.7
		C108.9,20.7,108.1,19.8,108.1,18.8z"/>
	<path class="st0" d="M113.1,17.7h-1.3V17h3.4v0.7h-1.3v2.9h-0.8V17.7z"/>
	<path class="st0" d="M115.5,19.5L115.5,19.5c0-0.8,0.6-1.2,1.5-1.2c0.4,0,0.7,0.1,1,0.2v-0.1c0-0.5-0.3-0.8-0.9-0.8
		c-0.4,0-0.7,0.1-1,0.2l-0.2-0.7c0.4-0.2,0.8-0.3,1.4-0.3c0.5,0,0.9,0.1,1.2,0.4c0.3,0.3,0.4,0.6,0.4,1.1v2.1H118v-0.5
		c-0.2,0.3-0.6,0.5-1.2,0.5C116.1,20.6,115.5,20.3,115.5,19.5z M118,19.3V19c-0.2-0.1-0.5-0.1-0.8-0.1c-0.5,0-0.9,0.2-0.9,0.6v0
		c0,0.4,0.3,0.5,0.7,0.5C117.6,20,118,19.7,118,19.3z"/>
	<path class="st0" d="M119.8,17h3.3v3.6h-0.8v-2.9h-1.7v2.9h-0.8V17z"/>
	<path class="st0" d="M127.2,17.7h-1.3V17h3.4v0.7H128v2.9h-0.8V17.7z"/>
	<path class="st0" d="M129.6,19.5L129.6,19.5c0-0.8,0.6-1.2,1.5-1.2c0.4,0,0.7,0.1,1,0.2v-0.1c0-0.5-0.3-0.8-0.9-0.8
		c-0.4,0-0.7,0.1-1,0.2l-0.2-0.7c0.4-0.2,0.8-0.3,1.4-0.3c0.5,0,0.9,0.1,1.2,0.4c0.3,0.3,0.4,0.6,0.4,1.1v2.1h-0.8v-0.5
		c-0.2,0.3-0.6,0.5-1.2,0.5C130.2,20.6,129.6,20.3,129.6,19.5z M132.1,19.3V19c-0.2-0.1-0.5-0.1-0.8-0.1c-0.5,0-0.9,0.2-0.9,0.6v0
		c0,0.4,0.3,0.5,0.7,0.5C131.7,20,132.1,19.7,132.1,19.3z"/>
	<path class="st0" d="M133.9,17h0.9l1.1,1.7l1.1-1.7h0.9v3.6H137v-2.4l-1.2,1.7h0l-1.2-1.7v2.4h-0.8V17z"/>
	<path class="st0" d="M138.6,19.5L138.6,19.5c0-0.8,0.6-1.2,1.5-1.2c0.4,0,0.7,0.1,1,0.2v-0.1c0-0.5-0.3-0.8-0.9-0.8
		c-0.4,0-0.7,0.1-1,0.2l-0.2-0.7c0.4-0.2,0.8-0.3,1.4-0.3c0.5,0,0.9,0.1,1.2,0.4c0.3,0.3,0.4,0.6,0.4,1.1v2.1h-0.8v-0.5
		c-0.2,0.3-0.6,0.5-1.2,0.5C139.2,20.6,138.6,20.3,138.6,19.5z M141.1,19.3V19c-0.2-0.1-0.5-0.1-0.8-0.1c-0.5,0-0.9,0.2-0.9,0.6v0
		c0,0.4,0.3,0.5,0.7,0.5C140.7,20,141.1,19.7,141.1,19.3z"/>
	<path class="st0" d="M143.7,18.4h0.4l1.2-1.4h1l-1.5,1.8l0.9,1.1h0.7v1.7h-0.8v-0.9h-0.3l-1.2-1.5h-0.4v1.5h-0.8V17h0.8V18.4z"/>
	<path class="st0" d="M147.8,17.7h-1.3V17h3.4v0.7h-1.3v2.9h-0.8V17.7z"/>
	<path class="st0" d="M150.2,19.5L150.2,19.5c0-0.8,0.6-1.2,1.5-1.2c0.4,0,0.7,0.1,1,0.2v-0.1c0-0.5-0.3-0.8-0.9-0.8
		c-0.4,0-0.7,0.1-1,0.2l-0.2-0.7c0.4-0.2,0.8-0.3,1.4-0.3c0.5,0,0.9,0.1,1.2,0.4c0.3,0.3,0.4,0.6,0.4,1.1v2.1h-0.8v-0.5
		c-0.2,0.3-0.6,0.5-1.2,0.5C150.8,20.6,150.2,20.3,150.2,19.5z M152.7,19.3V19c-0.2-0.1-0.5-0.1-0.8-0.1c-0.5,0-0.9,0.2-0.9,0.6v0
		c0,0.4,0.3,0.5,0.7,0.5C152.3,20,152.7,19.7,152.7,19.3z"/>
	<path class="st0" d="M154.5,17h0.8v1.4h1.7V17h0.8v3.6H157v-1.4h-1.7v1.4h-0.8V17z"/>
	<path class="st0" d="M162.3,19.8h0.4v1.7H162v-0.9h-2.8v0.9h-0.8v-1.7h0.4l1.3-2.9h0.9L162.3,19.8z M159.7,19.9h1.8l-0.9-2.1
		L159.7,19.9z"/>
	<path class="st0" d="M164.3,18.1h0.8c0.9,0,1.4,0.5,1.4,1.2v0c0,0.8-0.5,1.3-1.5,1.3h-1.6V17h0.8V18.1z M164.3,19.9h0.8
		c0.5,0,0.7-0.2,0.7-0.6v0c0-0.3-0.2-0.6-0.7-0.6h-0.8V19.9z M167.1,17h0.8v3.6h-0.8V17z"/>
	<path class="st0" d="M169,17h0.8v0.6c0.3-0.4,0.6-0.7,1.2-0.7c0.9,0,1.7,0.7,1.7,1.9v0c0,1.2-0.8,1.9-1.7,1.9c-0.6,0-1-0.3-1.2-0.6
		v1.7H169V17z M171.9,18.8L171.9,18.8c0-0.7-0.5-1.2-1-1.2c-0.6,0-1.1,0.5-1.1,1.2v0c0,0.7,0.5,1.2,1.1,1.2
		C171.4,19.9,171.9,19.5,171.9,18.8z"/>
	<path class="st0" d="M175.9,17h0.9l-1.4,3.7c-0.3,0.7-0.6,1-1.2,1c-0.3,0-0.6-0.1-0.9-0.2l0.3-0.6c0.2,0.1,0.3,0.1,0.5,0.1
		c0.2,0,0.4-0.1,0.5-0.4l-1.5-3.6h0.9l1,2.7L175.9,17z"/>
	<path class="st0" d="M177.6,19.1h-0.5v-0.5h0.5V17h2.7v0.7h-1.9v0.9h0.9v0.5h-0.9v1.4h-0.8V19.1z"/>
	<path class="st0" d="M180.5,19.5L180.5,19.5c0-0.8,0.6-1.2,1.5-1.2c0.4,0,0.7,0.1,1,0.2v-0.1c0-0.5-0.3-0.8-0.9-0.8
		c-0.4,0-0.7,0.1-1,0.2l-0.2-0.7c0.4-0.2,0.8-0.3,1.4-0.3c0.5,0,0.9,0.1,1.2,0.4c0.3,0.3,0.4,0.6,0.4,1.1v2.1H183v-0.5
		c-0.2,0.3-0.6,0.5-1.2,0.5C181.1,20.6,180.5,20.3,180.5,19.5z M183,19.3V19c-0.2-0.1-0.5-0.1-0.8-0.1c-0.5,0-0.9,0.2-0.9,0.6v0
		c0,0.4,0.3,0.5,0.7,0.5C182.6,20,183,19.7,183,19.3z"/>
	<path class="st0" d="M186.6,19.5L186.6,19.5c0-0.8,0.6-1.2,1.5-1.2c0.4,0,0.7,0.1,1,0.2v-0.1c0-0.5-0.3-0.8-0.9-0.8
		c-0.4,0-0.7,0.1-1,0.2l-0.2-0.7c0.4-0.2,0.8-0.3,1.4-0.3c0.5,0,0.9,0.1,1.2,0.4c0.3,0.3,0.4,0.6,0.4,1.1v2.1h-0.8v-0.5
		c-0.2,0.3-0.6,0.5-1.2,0.5C187.2,20.6,186.6,20.3,186.6,19.5z M189.1,19.3V19c-0.2-0.1-0.5-0.1-0.8-0.1c-0.5,0-0.9,0.2-0.9,0.6v0
		c0,0.4,0.3,0.5,0.7,0.5C188.7,20,189.1,19.7,189.1,19.3z"/>
	<path class="st0" d="M190.8,17h0.8v0.6c0.3-0.4,0.6-0.7,1.2-0.7c0.9,0,1.7,0.7,1.7,1.9v0c0,1.2-0.8,1.9-1.7,1.9
		c-0.6,0-1-0.3-1.2-0.6v1.7h-0.8V17z M193.8,18.8L193.8,18.8c0-0.7-0.5-1.2-1-1.2c-0.6,0-1.1,0.5-1.1,1.2v0c0,0.7,0.5,1.2,1.1,1.2
		C193.3,19.9,193.8,19.5,193.8,18.8z"/>
	<path class="st0" d="M195.4,17h0.8v1.4h1.7V17h0.8v3.6H198v-1.4h-1.7v1.4h-0.8V17z"/>
	<path class="st0" d="M199.6,19.5L199.6,19.5c0-0.8,0.6-1.2,1.5-1.2c0.4,0,0.7,0.1,1,0.2v-0.1c0-0.5-0.3-0.8-0.9-0.8
		c-0.4,0-0.7,0.1-1,0.2l-0.2-0.7c0.4-0.2,0.8-0.3,1.4-0.3c0.5,0,0.9,0.1,1.2,0.4c0.3,0.3,0.4,0.6,0.4,1.1v2.1H202v-0.5
		c-0.2,0.3-0.6,0.5-1.2,0.5C200.2,20.6,199.6,20.3,199.6,19.5z M202.1,19.3V19c-0.2-0.1-0.5-0.1-0.8-0.1c-0.5,0-0.9,0.2-0.9,0.6v0
		c0,0.4,0.3,0.5,0.7,0.5C201.6,20,202.1,19.7,202.1,19.3z"/>
	<path class="st0" d="M207.4,20.6h-0.9l-1.1-2.6l-1.1,2.6h-0.9l1.6-3.6h0.8L207.4,20.6z"/>
	<path class="st0" d="M208.2,19.1h-0.5v-0.5h0.5V17h2.7v0.7h-1.9v0.9h0.9v0.5h-0.9v1.4h-0.8V19.1z"/>
	<path class="st0" d="M211.1,19.5L211.1,19.5c0-0.8,0.6-1.2,1.5-1.2c0.4,0,0.7,0.1,1,0.2v-0.1c0-0.5-0.3-0.8-0.9-0.8
		c-0.4,0-0.7,0.1-1,0.2l-0.2-0.7c0.4-0.2,0.8-0.3,1.4-0.3c0.5,0,0.9,0.1,1.2,0.4c0.3,0.3,0.4,0.6,0.4,1.1v2.1h-0.8v-0.5
		c-0.2,0.3-0.6,0.5-1.2,0.5C211.7,20.6,211.1,20.3,211.1,19.5z M213.6,19.3V19c-0.2-0.1-0.5-0.1-0.8-0.1c-0.5,0-0.9,0.2-0.9,0.6v0
		c0,0.4,0.3,0.5,0.7,0.5C213.2,20,213.6,19.7,213.6,19.3z"/>
	<path class="st0" d="M215.4,17h0.8v1.4h1.7V17h0.8v3.6h-0.8v-1.4h-1.7v1.4h-0.8V17z"/>
	<path class="st0" d="M219.7,19.6h0.9v0.9h-0.9V19.6z"/>
	<path class="st0" d="M223.8,15.8h0.8l2.6,3.3v-3.3h0.8v4.8h-0.7l-2.6-3.4v3.4h-0.8V15.8z"/>
	<path class="st0" d="M229,19.3V17h0.8V19c0,0.6,0.3,0.9,0.8,0.9c0.5,0,0.8-0.3,0.8-0.9v-2h0.8v3.6h-0.8V20
		c-0.2,0.3-0.6,0.6-1.1,0.6C229.5,20.6,229,20.1,229,19.3z"/>
	<path class="st0" d="M233.5,19.6v-1.9H233V17h0.5v-1h0.8v1h1v0.7h-1v1.8c0,0.3,0.2,0.5,0.4,0.5c0.2,0,0.4,0,0.5-0.1v0.7
		c-0.2,0.1-0.4,0.2-0.7,0.2C233.9,20.6,233.5,20.4,233.5,19.6z"/>
	<path class="st0" d="M236.1,17h0.8v0.8c0.2-0.5,0.6-0.9,1.3-0.9v0.9h0c-0.7,0-1.2,0.5-1.2,1.4v1.4h-0.8V17z"/>
	<path class="st0" d="M239,15.6h0.9v0.8H239V15.6z M239,17h0.8v3.6H239V17z"/>
	<path class="st0" d="M241,15.6h0.8v5H241V15.6z"/>
	<path class="st0" d="M242.7,18.8L242.7,18.8c0-1.1,0.8-1.9,1.9-1.9s1.9,0.8,1.9,1.9v0c0,1-0.8,1.9-1.9,1.9
		C243.5,20.7,242.7,19.8,242.7,18.8z M245.7,18.8L245.7,18.8c0-0.7-0.5-1.2-1.1-1.2c-0.7,0-1.1,0.5-1.1,1.2v0c0,0.6,0.5,1.2,1.1,1.2
		C245.3,19.9,245.7,19.4,245.7,18.8z"/>
	<path class="st0" d="M247.4,17h0.8v0.6c0.2-0.3,0.6-0.6,1.1-0.6c0.8,0,1.3,0.5,1.3,1.4v2.3h-0.8v-2.1c0-0.6-0.3-0.9-0.8-0.9
		c-0.5,0-0.8,0.3-0.8,0.9v2h-0.8V17z"/>
	<path class="st0" d="M252.3,17.1l-0.7,0.5l-0.2-0.4l0.8-0.3l-0.8-0.3l0.2-0.4l0.7,0.5l-0.1-0.8h0.5l-0.1,0.8l0.7-0.5l0.2,0.4
		l-0.8,0.3l0.8,0.3l-0.2,0.4l-0.7-0.5l0.1,0.8h-0.5L252.3,17.1z"/>
	<path class="st0" d="M258.8,19.5h-2.4l-0.2-0.6l2.7-3.2h0.7v3.1h0.7v0.7h-0.7v1.1h-0.8V19.5z M258.8,18.8v-1.9l-1.6,1.9H258.8z"/>
	<path class="st0" d="M263.1,18.1h2v0.8h-2V18.1z"/>
	<path class="st0" d="M48.3,27.9c-0.4-0.4-0.6-0.9-0.6-1.7c0-1.7,0.6-2.5,1.9-2.7l1.3-0.2l0.1,0.8l-1.3,0.2
		c-0.8,0.1-1.2,0.5-1.3,1.2c0.3-0.3,0.8-0.5,1.3-0.5c1.1,0,1.7,0.7,1.7,1.7c0,1-0.8,1.8-1.9,1.8C49.1,28.4,48.6,28.2,48.3,27.9z
		 M50.7,26.6c0-0.6-0.4-1-1-1c-0.7,0-1.1,0.5-1.1,1.1c0,0.6,0.4,1.1,1.1,1.1C50.3,27.7,50.7,27.2,50.7,26.6z"/>
	<path class="st0" d="M52.1,27.3L52.1,27.3c0-0.8,0.6-1.2,1.5-1.2c0.4,0,0.7,0.1,1,0.2v-0.1c0-0.5-0.3-0.8-0.9-0.8
		c-0.4,0-0.7,0.1-1,0.2l-0.2-0.7c0.4-0.2,0.8-0.3,1.4-0.3c0.5,0,0.9,0.1,1.2,0.4c0.3,0.3,0.4,0.6,0.4,1.1v2.1h-0.8v-0.5
		c-0.2,0.3-0.6,0.5-1.2,0.5C52.8,28.4,52.1,28,52.1,27.3z M54.6,27v-0.2c-0.2-0.1-0.5-0.1-0.8-0.1c-0.5,0-0.9,0.2-0.9,0.6v0
		c0,0.4,0.3,0.5,0.7,0.5C54.2,27.8,54.6,27.5,54.6,27z"/>
	<path class="st0" d="M60,28.3h-0.9L58,25.7l-1.1,2.6h-0.9l1.6-3.6h0.8L60,28.3z"/>
	<path class="st0" d="M60.4,27.3L60.4,27.3c0-0.8,0.6-1.2,1.5-1.2c0.4,0,0.7,0.1,1,0.2v-0.1c0-0.5-0.3-0.8-0.9-0.8
		c-0.4,0-0.7,0.1-1,0.2l-0.2-0.7c0.4-0.2,0.8-0.3,1.4-0.3c0.5,0,0.9,0.1,1.2,0.4c0.3,0.3,0.4,0.6,0.4,1.1v2.1h-0.8v-0.5
		c-0.2,0.3-0.6,0.5-1.2,0.5C61,28.4,60.4,28,60.4,27.3z M62.9,27v-0.2c-0.2-0.1-0.5-0.1-0.8-0.1c-0.5,0-0.9,0.2-0.9,0.6v0
		c0,0.4,0.3,0.5,0.7,0.5C62.5,27.8,62.9,27.5,62.9,27z"/>
	<path class="st0" d="M68.2,28.3h-0.9l-1.1-2.6l-1.1,2.6h-0.9l1.6-3.6h0.8L68.2,28.3z"/>
	<path class="st0" d="M68.7,27.3L68.7,27.3c0-0.8,0.6-1.2,1.5-1.2c0.4,0,0.7,0.1,1,0.2v-0.1c0-0.5-0.3-0.8-0.9-0.8
		c-0.4,0-0.7,0.1-1,0.2L69,24.9c0.4-0.2,0.8-0.3,1.4-0.3c0.5,0,0.9,0.1,1.2,0.4c0.3,0.3,0.4,0.6,0.4,1.1v2.1h-0.8v-0.5
		c-0.2,0.3-0.6,0.5-1.2,0.5C69.3,28.4,68.7,28,68.7,27.3z M71.2,27v-0.2c-0.2-0.1-0.5-0.1-0.8-0.1c-0.5,0-0.9,0.2-0.9,0.6v0
		c0,0.4,0.3,0.5,0.7,0.5C70.7,27.8,71.2,27.5,71.2,27z"/>
	<path class="st0" d="M72.9,24.7h0.8v0.6c0.3-0.4,0.6-0.7,1.2-0.7c0.9,0,1.7,0.7,1.7,1.9v0c0,1.2-0.8,1.9-1.7,1.9
		c-0.6,0-1-0.3-1.2-0.6v1.7h-0.8V24.7z M75.8,26.5L75.8,26.5c0-0.7-0.5-1.2-1-1.2c-0.6,0-1.1,0.5-1.1,1.2v0c0,0.7,0.5,1.2,1.1,1.2
		C75.4,27.7,75.8,27.2,75.8,26.5z"/>
	<path class="st0" d="M80.9,27.6h0.4v1.7h-0.8v-0.9h-2.8v0.9H77v-1.7h0.4l1.3-2.9h0.9L80.9,27.6z M78.3,27.6H80l-0.9-2.1L78.3,27.6z
		"/>
	<path class="st0" d="M82.8,25.8h0.8c0.9,0,1.4,0.5,1.4,1.2v0c0,0.8-0.5,1.3-1.5,1.3H82v-3.6h0.8V25.8z M82.8,27.6h0.8
		c0.5,0,0.7-0.2,0.7-0.6v0c0-0.3-0.2-0.6-0.7-0.6h-0.8V27.6z M85.6,24.7h0.8v3.6h-0.8V24.7z"/>
	<path class="st0" d="M90.3,24.3l-0.9,0.2l-0.2-0.7l1.3-0.4h0.6v4.8h-0.8V24.3z"/>
	<path class="st0" d="M92.1,27L92.1,27c0-0.6,0.3-1,0.9-1.2c-0.4-0.2-0.7-0.5-0.7-1.1v0c0-0.7,0.7-1.3,1.7-1.3c1,0,1.7,0.6,1.7,1.3
		v0c0,0.5-0.3,0.9-0.7,1.1c0.5,0.2,0.9,0.6,0.9,1.2v0c0,0.9-0.8,1.4-1.8,1.4C92.9,28.4,92.1,27.8,92.1,27z M94.9,27L94.9,27
		c0-0.5-0.4-0.7-1-0.7c-0.6,0-1,0.3-1,0.7v0c0,0.4,0.4,0.7,1,0.7C94.6,27.7,94.9,27.4,94.9,27z M94.8,24.8L94.8,24.8
		c0-0.4-0.3-0.7-0.9-0.7s-0.9,0.3-0.9,0.7v0c0,0.4,0.4,0.7,0.9,0.7C94.4,25.6,94.8,25.3,94.8,24.8z"/>
	<path class="st0" d="M98.4,27.3L98.4,27.3c0-0.8,0.6-1.2,1.5-1.2c0.4,0,0.7,0.1,1,0.2v-0.1c0-0.5-0.3-0.8-0.9-0.8
		c-0.4,0-0.7,0.1-1,0.2l-0.2-0.7c0.4-0.2,0.8-0.3,1.4-0.3c0.5,0,0.9,0.1,1.2,0.4c0.3,0.3,0.4,0.6,0.4,1.1v2.1h-0.8v-0.5
		c-0.2,0.3-0.6,0.5-1.2,0.5C99,28.4,98.4,28,98.4,27.3z M100.9,27v-0.2c-0.2-0.1-0.5-0.1-0.8-0.1c-0.5,0-0.9,0.2-0.9,0.6v0
		c0,0.4,0.3,0.5,0.7,0.5C100.5,27.8,100.9,27.5,100.9,27z"/>
	<path class="st0" d="M102.7,24.7h0.8V27l1.7-2.3h0.8v3.6h-0.8v-2.4l-1.8,2.4h-0.8V24.7z M103.2,23.3h0.6c0.1,0.2,0.3,0.4,0.6,0.4
		c0.3,0,0.5-0.2,0.6-0.4h0.6c-0.1,0.6-0.5,1-1.2,1C103.7,24.3,103.2,23.9,103.2,23.3z"/>
	<path class="st0" d="M110.6,27.6h0.4v1.7h-0.8v-0.9h-2.8v0.9h-0.8v-1.7h0.4l1.3-2.9h0.9L110.6,27.6z M107.9,27.6h1.8l-0.9-2.1
		L107.9,27.6z"/>
	<path class="st0" d="M111.4,27.3L111.4,27.3c0-0.8,0.6-1.2,1.5-1.2c0.4,0,0.7,0.1,1,0.2v-0.1c0-0.5-0.3-0.8-0.9-0.8
		c-0.4,0-0.7,0.1-1,0.2l-0.2-0.7c0.4-0.2,0.8-0.3,1.4-0.3c0.5,0,0.9,0.1,1.2,0.4c0.3,0.3,0.4,0.6,0.4,1.1v2.1h-0.8v-0.5
		c-0.2,0.3-0.6,0.5-1.2,0.5C112,28.4,111.4,28,111.4,27.3z M113.9,27v-0.2c-0.2-0.1-0.5-0.1-0.8-0.1c-0.5,0-0.9,0.2-0.9,0.6v0
		c0,0.4,0.3,0.5,0.7,0.5C113.4,27.8,113.9,27.5,113.9,27z"/>
	<path class="st0" d="M115.6,24.7h0.8v1.4h1.7v-1.4h0.8v3.6h-0.8v-1.4h-1.7v1.4h-0.8V24.7z"/>
	<path class="st0" d="M122.5,27.9c-0.4-0.4-0.6-0.9-0.6-1.7c0-1.7,0.6-2.5,1.9-2.7l1.3-0.2l0.1,0.8l-1.3,0.2
		c-0.8,0.1-1.2,0.5-1.3,1.2c0.3-0.3,0.8-0.5,1.3-0.5c1.1,0,1.7,0.7,1.7,1.7c0,1-0.8,1.8-1.9,1.8C123.2,28.4,122.8,28.2,122.5,27.9z
		 M124.9,26.6c0-0.6-0.4-1-1-1c-0.7,0-1.1,0.5-1.1,1.1c0,0.6,0.4,1.1,1.1,1.1C124.4,27.7,124.9,27.2,124.9,26.6z"/>
	<path class="st0" d="M126.3,27.3L126.3,27.3c0-0.8,0.6-1.2,1.5-1.2c0.4,0,0.7,0.1,1,0.2v-0.1c0-0.5-0.3-0.8-0.9-0.8
		c-0.4,0-0.7,0.1-1,0.2l-0.2-0.7c0.4-0.2,0.8-0.3,1.4-0.3c0.5,0,0.9,0.1,1.2,0.4c0.3,0.3,0.4,0.6,0.4,1.1v2.1h-0.8v-0.5
		c-0.2,0.3-0.6,0.5-1.2,0.5C126.9,28.4,126.3,28,126.3,27.3z M128.8,27v-0.2c-0.2-0.1-0.5-0.1-0.8-0.1c-0.5,0-0.9,0.2-0.9,0.6v0
		c0,0.4,0.3,0.5,0.7,0.5C128.4,27.8,128.8,27.5,128.8,27z"/>
	<path class="st0" d="M130.4,26.5L130.4,26.5c0-1,0.8-1.9,1.9-1.9c0.7,0,1.1,0.3,1.4,0.6l-0.5,0.6c-0.3-0.3-0.5-0.5-0.9-0.5
		c-0.6,0-1,0.5-1,1.2v0c0,0.6,0.4,1.2,1.1,1.2c0.4,0,0.7-0.2,0.9-0.4l0.5,0.5c-0.4,0.4-0.8,0.7-1.5,0.7
		C131.2,28.4,130.4,27.6,130.4,26.5z"/>
	<path class="st0" d="M135.4,25.4h-1.3v-0.7h3.4v0.7h-1.3v2.9h-0.8V25.4z"/>
	<path class="st0" d="M137.8,27.3L137.8,27.3c0-0.8,0.6-1.2,1.5-1.2c0.4,0,0.7,0.1,1,0.2v-0.1c0-0.5-0.3-0.8-0.9-0.8
		c-0.4,0-0.7,0.1-1,0.2l-0.2-0.7c0.4-0.2,0.8-0.3,1.4-0.3c0.5,0,0.9,0.1,1.2,0.4c0.3,0.3,0.4,0.6,0.4,1.1v2.1h-0.8v-0.5
		c-0.2,0.3-0.6,0.5-1.2,0.5C138.4,28.4,137.8,28,137.8,27.3z M140.3,27v-0.2c-0.2-0.1-0.5-0.1-0.8-0.1c-0.5,0-0.9,0.2-0.9,0.6v0
		c0,0.4,0.3,0.5,0.7,0.5C139.9,27.8,140.3,27.5,140.3,27z"/>
	<path class="st0" d="M142,24.7h3.3v3.6h-0.8v-2.9h-1.7v2.9H142V24.7z"/>
	<path class="st0" d="M149.5,25.4h-1.3v-0.7h3.4v0.7h-1.3v2.9h-0.8V25.4z"/>
	<path class="st0" d="M151.9,27.3L151.9,27.3c0-0.8,0.6-1.2,1.5-1.2c0.4,0,0.7,0.1,1,0.2v-0.1c0-0.5-0.3-0.8-0.9-0.8
		c-0.4,0-0.7,0.1-1,0.2l-0.2-0.7c0.4-0.2,0.8-0.3,1.4-0.3c0.5,0,0.9,0.1,1.2,0.4c0.3,0.3,0.4,0.6,0.4,1.1v2.1h-0.8v-0.5
		c-0.2,0.3-0.6,0.5-1.2,0.5C152.5,28.4,151.9,28,151.9,27.3z M154.4,27v-0.2c-0.2-0.1-0.5-0.1-0.8-0.1c-0.5,0-0.9,0.2-0.9,0.6v0
		c0,0.4,0.3,0.5,0.7,0.5C154,27.8,154.4,27.5,154.4,27z"/>
	<path class="st0" d="M156.1,24.7h0.9l1.1,1.7l1.1-1.7h0.9v3.6h-0.8v-2.4l-1.2,1.7h0l-1.2-1.7v2.4h-0.8V24.7z"/>
	<path class="st0" d="M160.9,27.3L160.9,27.3c0-0.8,0.6-1.2,1.5-1.2c0.4,0,0.7,0.1,1,0.2v-0.1c0-0.5-0.3-0.8-0.9-0.8
		c-0.4,0-0.7,0.1-1,0.2l-0.2-0.7c0.4-0.2,0.8-0.3,1.4-0.3c0.5,0,0.9,0.1,1.2,0.4c0.3,0.3,0.4,0.6,0.4,1.1v2.1h-0.8v-0.5
		c-0.2,0.3-0.6,0.5-1.2,0.5C161.5,28.4,160.9,28,160.9,27.3z M163.4,27v-0.2c-0.2-0.1-0.5-0.1-0.8-0.1c-0.5,0-0.9,0.2-0.9,0.6v0
		c0,0.4,0.3,0.5,0.7,0.5C163,27.8,163.4,27.5,163.4,27z"/>
	<path class="st0" d="M166,26.1h0.4l1.2-1.4h1l-1.5,1.8l0.9,1.1h0.7v1.7h-0.8v-0.9h-0.3l-1.2-1.5H166v1.5h-0.8v-3.6h0.8V26.1z"/>
	<path class="st0" d="M170.1,25.4h-1.3v-0.7h3.4v0.7h-1.3v2.9h-0.8V25.4z"/>
	<path class="st0" d="M172.5,27.3L172.5,27.3c0-0.8,0.6-1.2,1.5-1.2c0.4,0,0.7,0.1,1,0.2v-0.1c0-0.5-0.3-0.8-0.9-0.8
		c-0.4,0-0.7,0.1-1,0.2l-0.2-0.7c0.4-0.2,0.8-0.3,1.4-0.3c0.5,0,0.9,0.1,1.2,0.4c0.3,0.3,0.4,0.6,0.4,1.1v2.1H175v-0.5
		c-0.2,0.3-0.6,0.5-1.2,0.5C173.1,28.4,172.5,28,172.5,27.3z M175,27v-0.2c-0.2-0.1-0.5-0.1-0.8-0.1c-0.5,0-0.9,0.2-0.9,0.6v0
		c0,0.4,0.3,0.5,0.7,0.5C174.6,27.8,175,27.5,175,27z"/>
	<path class="st0" d="M176.8,24.7h0.8v1.4h1.7v-1.4h0.8v3.6h-0.8v-1.4h-1.7v1.4h-0.8V24.7z"/>
	<path class="st0" d="M184.6,27.6h0.4v1.7h-0.8v-0.9h-2.8v0.9h-0.8v-1.7h0.4l1.3-2.9h0.9L184.6,27.6z M182,27.6h1.8l-0.9-2.1
		L182,27.6z"/>
	<path class="st0" d="M186.6,25.8h0.8c0.9,0,1.4,0.5,1.4,1.2v0c0,0.8-0.5,1.3-1.5,1.3h-1.6v-3.6h0.8V25.8z M186.5,27.6h0.8
		c0.5,0,0.7-0.2,0.7-0.6v0c0-0.3-0.2-0.6-0.7-0.6h-0.8V27.6z M189.4,24.7h0.8v3.6h-0.8V24.7z"/>
	<path class="st0" d="M191.3,24.7h0.8v0.6c0.3-0.4,0.6-0.7,1.2-0.7c0.9,0,1.7,0.7,1.7,1.9v0c0,1.2-0.8,1.9-1.7,1.9
		c-0.6,0-1-0.3-1.2-0.6v1.7h-0.8V24.7z M194.2,26.5L194.2,26.5c0-0.7-0.5-1.2-1-1.2c-0.6,0-1.1,0.5-1.1,1.2v0c0,0.7,0.5,1.2,1.1,1.2
		C193.7,27.7,194.2,27.2,194.2,26.5z"/>
	<path class="st0" d="M198.2,24.7h0.9l-1.4,3.7c-0.3,0.7-0.6,1-1.2,1c-0.3,0-0.6-0.1-0.9-0.2l0.3-0.6c0.2,0.1,0.3,0.1,0.5,0.1
		c0.2,0,0.4-0.1,0.5-0.4l-1.5-3.6h0.9l1,2.7L198.2,24.7z"/>
	<path class="st0" d="M199.9,26.9h-0.5v-0.5h0.5v-1.7h2.7v0.7h-1.9v0.9h0.9v0.5h-0.9v1.4h-0.8V26.9z"/>
	<path class="st0" d="M202.8,27.3L202.8,27.3c0-0.8,0.6-1.2,1.5-1.2c0.4,0,0.7,0.1,1,0.2v-0.1c0-0.5-0.3-0.8-0.9-0.8
		c-0.4,0-0.7,0.1-1,0.2l-0.2-0.7c0.4-0.2,0.8-0.3,1.4-0.3c0.5,0,0.9,0.1,1.2,0.4c0.3,0.3,0.4,0.6,0.4,1.1v2.1h-0.8v-0.5
		c-0.2,0.3-0.6,0.5-1.2,0.5C203.4,28.4,202.8,28,202.8,27.3z M205.3,27v-0.2c-0.2-0.1-0.5-0.1-0.8-0.1c-0.5,0-0.9,0.2-0.9,0.6v0
		c0,0.4,0.3,0.5,0.7,0.5C204.9,27.8,205.3,27.5,205.3,27z"/>
	<path class="st0" d="M208.9,27.3L208.9,27.3c0-0.8,0.6-1.2,1.5-1.2c0.4,0,0.7,0.1,1,0.2v-0.1c0-0.5-0.3-0.8-0.9-0.8
		c-0.4,0-0.7,0.1-1,0.2l-0.2-0.7c0.4-0.2,0.8-0.3,1.4-0.3c0.5,0,0.9,0.1,1.2,0.4c0.3,0.3,0.4,0.6,0.4,1.1v2.1h-0.8v-0.5
		c-0.2,0.3-0.6,0.5-1.2,0.5C209.5,28.4,208.9,28,208.9,27.3z M211.4,27v-0.2c-0.2-0.1-0.5-0.1-0.8-0.1c-0.5,0-0.9,0.2-0.9,0.6v0
		c0,0.4,0.3,0.5,0.7,0.5C210.9,27.8,211.4,27.5,211.4,27z"/>
	<path class="st0" d="M213.1,24.7h0.8v0.6c0.3-0.4,0.6-0.7,1.2-0.7c0.9,0,1.7,0.7,1.7,1.9v0c0,1.2-0.8,1.9-1.7,1.9
		c-0.6,0-1-0.3-1.2-0.6v1.7h-0.8V24.7z M216,26.5L216,26.5c0-0.7-0.5-1.2-1-1.2c-0.6,0-1.1,0.5-1.1,1.2v0c0,0.7,0.5,1.2,1.1,1.2
		C215.6,27.7,216,27.2,216,26.5z"/>
	<path class="st0" d="M217.7,24.7h0.8v1.4h1.7v-1.4h0.8v3.6h-0.8v-1.4h-1.7v1.4h-0.8V24.7z"/>
	<path class="st0" d="M221.9,27.3L221.9,27.3c0-0.8,0.6-1.2,1.5-1.2c0.4,0,0.7,0.1,1,0.2v-0.1c0-0.5-0.3-0.8-0.9-0.8
		c-0.4,0-0.7,0.1-1,0.2l-0.2-0.7c0.4-0.2,0.8-0.3,1.4-0.3c0.5,0,0.9,0.1,1.2,0.4c0.3,0.3,0.4,0.6,0.4,1.1v2.1h-0.8v-0.5
		c-0.2,0.3-0.6,0.5-1.2,0.5C222.5,28.4,221.9,28,221.9,27.3z M224.4,27v-0.2c-0.2-0.1-0.5-0.1-0.8-0.1c-0.5,0-0.9,0.2-0.9,0.6v0
		c0,0.4,0.3,0.5,0.7,0.5C223.9,27.8,224.4,27.5,224.4,27z"/>
	<path class="st0" d="M229.7,28.3h-0.9l-1.1-2.6l-1.1,2.6h-0.9l1.6-3.6h0.8L229.7,28.3z"/>
	<path class="st0" d="M230.5,26.9H230v-0.5h0.5v-1.7h2.7v0.7h-1.9v0.9h0.9v0.5h-0.9v1.4h-0.8V26.9z"/>
	<path class="st0" d="M233.4,27.3L233.4,27.3c0-0.8,0.6-1.2,1.5-1.2c0.4,0,0.7,0.1,1,0.2v-0.1c0-0.5-0.3-0.8-0.9-0.8
		c-0.4,0-0.7,0.1-1,0.2l-0.2-0.7c0.4-0.2,0.8-0.3,1.4-0.3c0.5,0,0.9,0.1,1.2,0.4c0.3,0.3,0.4,0.6,0.4,1.1v2.1h-0.8v-0.5
		c-0.2,0.3-0.6,0.5-1.2,0.5C234,28.4,233.4,28,233.4,27.3z M235.9,27v-0.2c-0.2-0.1-0.5-0.1-0.8-0.1c-0.5,0-0.9,0.2-0.9,0.6v0
		c0,0.4,0.3,0.5,0.7,0.5C235.5,27.8,235.9,27.5,235.9,27z"/>
	<path class="st0" d="M237.7,24.7h0.8v1.4h1.7v-1.4h0.8v3.6h-0.8v-1.4h-1.7v1.4h-0.8V24.7z"/>
	<path class="st0" d="M242,27.4h0.9v0.9H242V27.4z"/>
	<path class="st0" d="M26.2,31.3h0.9l1.5,2.3l1.5-2.3h0.9v4.8h-0.8v-3.4l-1.5,2.3h0l-1.5-2.3v3.4h-0.8V31.3z"/>
	<path class="st0" d="M33.3,32.1h-1.5v-0.8h3.9v0.8h-1.5v4h-0.8V32.1z"/>
	<path class="st0" d="M36.1,33.7L36.1,33.7c0-1.4,1-2.5,2.5-2.5c0.9,0,1.4,0.3,1.9,0.7l-0.5,0.6c-0.4-0.4-0.8-0.6-1.4-0.6
		c-0.9,0-1.6,0.7-1.6,1.7v0c0,0.9,0.7,1.7,1.6,1.7c0.6,0,1-0.2,1.4-0.6l0.5,0.5c-0.5,0.5-1,0.8-1.9,0.8
		C37.2,36.2,36.1,35.1,36.1,33.7z"/>
	<path class="st0" d="M43.4,31.3h0.7l2.1,3.2v-3.2H47v4.8h-0.7l-2.2-3.3v3.3h-0.8V31.3z M47.7,32.7L47.7,32.7c0-0.9,0.5-1.5,1.3-1.5
		c0.7,0,1.3,0.6,1.3,1.4v0c0,0.8-0.5,1.4-1.3,1.4C48.2,34.2,47.7,33.5,47.7,32.7z M47.7,34.7h2.4v0.5h-2.4V34.7z M49.6,32.7
		L49.6,32.7c0-0.6-0.3-1-0.7-1s-0.7,0.4-0.7,0.9v0c0,0.5,0.3,0.9,0.7,0.9C49.3,33.6,49.6,33.2,49.6,32.7z"/>
	<path class="st0" d="M53.3,31.3h2.1c0.6,0,1.1,0.2,1.4,0.5c0.3,0.3,0.4,0.6,0.4,1v0c0,0.8-0.5,1.3-1.1,1.5l1.3,1.8h-1l-1.2-1.7
		h-1.1v1.7h-0.8V31.3z M55.3,33.6c0.6,0,1-0.3,1-0.8v0c0-0.5-0.4-0.8-1-0.8h-1.2v1.6H55.3z"/>
	<path class="st0" d="M58.1,34v-2.8H59V34c0,0.9,0.5,1.4,1.2,1.4c0.7,0,1.2-0.4,1.2-1.3v-2.8h0.8V34c0,1.4-0.8,2.2-2.1,2.2
		C58.9,36.1,58.1,35.4,58.1,34z"/>
	<path class="st0" d="M63.1,35.1h0.9v0.9h-0.9V35.1z"/>
	<path class="st0" d="M67.3,32h-2.4v-0.7h3.4v0.6l-2.2,4.2h-1L67.3,32z"/>
	<path class="st0" d="M71.4,32H69v-0.7h3.4v0.6l-2.2,4.2h-1L71.4,32z"/>
	<path class="st0" d="M72.5,35.1h0.9v0.9h-0.9V35.1z"/>
	<path class="st0" d="M77.1,33.9c-0.3,0.3-0.6,0.5-1.1,0.5c-1,0-1.7-0.6-1.7-1.5v0c0-0.9,0.7-1.7,1.8-1.7c0.6,0,1,0.2,1.3,0.5
		c0.3,0.4,0.6,0.9,0.6,1.8v0c0,1.5-0.8,2.6-2.1,2.6c-0.7,0-1.1-0.2-1.5-0.6l0.5-0.6c0.4,0.3,0.7,0.5,1.1,0.5
		C76.8,35.4,77.1,34.5,77.1,33.9z M77.1,32.8L77.1,32.8c0-0.5-0.4-0.9-1-0.9c-0.6,0-1,0.4-1,0.9v0c0,0.5,0.4,0.8,1,0.8
		C76.7,33.7,77.1,33.3,77.1,32.8z"/>
	<path class="st0" d="M81.6,33.9c-0.3,0.3-0.6,0.5-1.1,0.5c-1,0-1.7-0.6-1.7-1.5v0c0-0.9,0.7-1.7,1.8-1.7c0.6,0,1,0.2,1.3,0.5
		c0.3,0.4,0.6,0.9,0.6,1.8v0c0,1.5-0.8,2.6-2.1,2.6c-0.7,0-1.1-0.2-1.5-0.6l0.5-0.6c0.4,0.3,0.7,0.5,1.1,0.5
		C81.3,35.4,81.6,34.5,81.6,33.9z M81.6,32.8L81.6,32.8c0-0.5-0.4-0.9-1-0.9c-0.6,0-1,0.4-1,0.9v0c0,0.5,0.4,0.8,1,0.8
		C81.2,33.7,81.6,33.3,81.6,32.8z"/>
	<path class="st0" d="M83.3,35.1h0.9v0.9h-0.9V35.1z"/>
	<path class="st0" d="M85,35.3l0.6-0.6c0.3,0.4,0.7,0.6,1.3,0.6c0.5,0,0.8-0.3,0.8-0.7v0c0-0.5-0.4-0.7-1.1-0.7h-0.4L86,33.4
		l1.3-1.4h-2.1v-0.7h3.2v0.6l-1.3,1.4c0.7,0.1,1.4,0.5,1.4,1.3v0c0,0.9-0.7,1.5-1.7,1.5C86,36.2,85.4,35.8,85,35.3z"/>
	<path class="st0" d="M89.2,35.4l1.7-1.4c0.7-0.6,0.9-0.9,0.9-1.3c0-0.5-0.3-0.7-0.8-0.7c-0.4,0-0.7,0.2-1.1,0.7l-0.6-0.5
		c0.5-0.6,0.9-1,1.8-1c0.9,0,1.6,0.6,1.6,1.4v0c0,0.8-0.4,1.2-1.2,1.9l-1,0.8h2.3v0.7h-3.5V35.4z"/>
	<path class="st0" d="M93.6,35.1h0.9v0.9h-0.9V35.1z"/>
	<path class="st0" d="M95.2,33.7L95.2,33.7c0-1.4,0.8-2.5,2.1-2.5c1.3,0,2.1,1.1,2.1,2.5v0c0,1.4-0.8,2.5-2.1,2.5
		C96,36.2,95.2,35.1,95.2,33.7z M98.5,33.7L98.5,33.7c0-1-0.5-1.7-1.2-1.7c-0.7,0-1.2,0.8-1.2,1.7v0c0,0.9,0.5,1.7,1.2,1.7
		C98,35.4,98.5,34.6,98.5,33.7z"/>
	<path class="st0" d="M100.2,33.7L100.2,33.7c0-1.4,0.8-2.5,2.1-2.5c1.3,0,2.1,1.1,2.1,2.5v0c0,1.4-0.8,2.5-2.1,2.5
		C101,36.2,100.2,35.1,100.2,33.7z M103.5,33.7L103.5,33.7c0-1-0.5-1.7-1.2-1.7c-0.7,0-1.2,0.8-1.2,1.7v0c0,0.9,0.5,1.7,1.2,1.7
		C103,35.4,103.5,34.6,103.5,33.7z"/>
	<path class="st0" d="M105.1,35.4l0.5-0.6c0.4,0.4,0.8,0.6,1.2,0.6c0.6,0,1-0.3,1-0.8v0c0-0.5-0.4-0.8-1-0.8c-0.3,0-0.6,0.1-0.9,0.2
		l-0.5-0.3l0.1-2.4h2.9V32h-2.1l-0.1,1.1c0.2-0.1,0.4-0.1,0.8-0.1c0.9,0,1.7,0.5,1.7,1.5v0c0,1-0.7,1.6-1.8,1.6
		C106.1,36.2,105.5,35.9,105.1,35.4z"/>
	<path class="st0" d="M109.5,35.1h0.9v0.9h-0.9V35.1z"/>
	<path class="st0" d="M111.5,31.3h2.1c0.6,0,1.1,0.2,1.4,0.5c0.3,0.3,0.4,0.6,0.4,1v0c0,0.8-0.5,1.3-1.1,1.5l1.3,1.8h-1l-1.2-1.7
		h-1.1v1.7h-0.8V31.3z M113.5,33.6c0.6,0,1-0.3,1-0.8v0c0-0.5-0.4-0.8-1-0.8h-1.2v1.6H113.5z"/>
	<path class="st0" d="M116.3,35.1h0.9v0.9h-0.9V35.1z"/>
	<path class="st0" d="M117.9,33.7L117.9,33.7c0-1.4,0.8-2.5,2.1-2.5c1.3,0,2.1,1.1,2.1,2.5v0c0,1.4-0.8,2.5-2.1,2.5
		C118.7,36.2,117.9,35.1,117.9,33.7z M121.2,33.7L121.2,33.7c0-1-0.5-1.7-1.2-1.7c-0.7,0-1.2,0.8-1.2,1.7v0c0,0.9,0.5,1.7,1.2,1.7
		C120.7,35.4,121.2,34.6,121.2,33.7z"/>
	<path class="st0" d="M122.9,33.7L122.9,33.7c0-1.4,0.8-2.5,2.1-2.5c1.3,0,2.1,1.1,2.1,2.5v0c0,1.4-0.8,2.5-2.1,2.5
		C123.7,36.2,122.9,35.1,122.9,33.7z M126.2,33.7L126.2,33.7c0-1-0.5-1.7-1.2-1.7c-0.7,0-1.2,0.8-1.2,1.7v0c0,0.9,0.5,1.7,1.2,1.7
		C125.7,35.4,126.2,34.6,126.2,33.7z"/>
	<path class="st0" d="M128.6,32.1l-0.9,0.2l-0.2-0.7l1.3-0.4h0.6v4.8h-0.8V32.1z"/>
	<path class="st0" d="M130.4,35.4l1.7-1.4c0.7-0.6,0.9-0.9,0.9-1.3c0-0.5-0.3-0.7-0.8-0.7s-0.7,0.2-1.1,0.7l-0.6-0.5
		c0.5-0.6,0.9-1,1.8-1c0.9,0,1.6,0.6,1.6,1.4v0c0,0.8-0.4,1.2-1.2,1.9l-1,0.8h2.3v0.7h-3.5V35.4z"/>
	<path class="st0" d="M134.6,34.8L134.6,34.8c0-0.6,0.3-1,0.9-1.2c-0.4-0.2-0.7-0.5-0.7-1.1v0c0-0.7,0.7-1.3,1.7-1.3
		s1.7,0.6,1.7,1.3v0c0,0.5-0.3,0.9-0.7,1.1c0.5,0.2,0.9,0.6,0.9,1.2v0c0,0.9-0.8,1.4-1.8,1.4S134.6,35.6,134.6,34.8z M137.5,34.7
		L137.5,34.7c0-0.5-0.4-0.7-1-0.7s-1,0.3-1,0.7v0c0,0.4,0.4,0.7,1,0.7S137.5,35.1,137.5,34.7z M137.3,32.6L137.3,32.6
		c0-0.4-0.3-0.7-0.9-0.7s-0.9,0.3-0.9,0.7v0c0,0.4,0.4,0.7,0.9,0.7C137,33.3,137.3,33,137.3,32.6z"/>
	<path class="st0" d="M139,34.8L139,34.8c0-0.6,0.3-1,0.9-1.2c-0.4-0.2-0.7-0.5-0.7-1.1v0c0-0.7,0.7-1.3,1.7-1.3s1.7,0.6,1.7,1.3v0
		c0,0.5-0.3,0.9-0.7,1.1c0.5,0.2,0.9,0.6,0.9,1.2v0c0,0.9-0.8,1.4-1.8,1.4C139.7,36.1,139,35.6,139,34.8z M141.8,34.7L141.8,34.7
		c0-0.5-0.4-0.7-1-0.7c-0.6,0-1,0.3-1,0.7v0c0,0.4,0.4,0.7,1,0.7C141.4,35.4,141.8,35.1,141.8,34.7z M141.7,32.6L141.7,32.6
		c0-0.4-0.3-0.7-0.9-0.7s-0.9,0.3-0.9,0.7v0c0,0.4,0.4,0.7,0.9,0.7C141.3,33.3,141.7,33,141.7,32.6z"/>
	<path class="st0" d="M143.4,35.1h0.9v0.9h-0.9V35.1z"/>
	<path class="st0" d="M145,33.7L145,33.7c0-1.4,0.8-2.5,2.1-2.5c1.3,0,2.1,1.1,2.1,2.5v0c0,1.4-0.8,2.5-2.1,2.5
		C145.9,36.2,145,35.1,145,33.7z M148.4,33.7L148.4,33.7c0-1-0.5-1.7-1.2-1.7c-0.7,0-1.2,0.8-1.2,1.7v0c0,0.9,0.5,1.7,1.2,1.7
		C147.9,35.4,148.4,34.6,148.4,33.7z"/>
	<path class="st0" d="M149.9,35.4l0.5-0.6c0.4,0.4,0.8,0.6,1.2,0.6c0.6,0,1-0.3,1-0.8v0c0-0.5-0.4-0.8-1-0.8c-0.3,0-0.6,0.1-0.9,0.2
		l-0.5-0.3l0.1-2.4h2.9V32h-2.1l-0.1,1.1c0.2-0.1,0.4-0.1,0.8-0.1c0.9,0,1.7,0.5,1.7,1.5v0c0,1-0.7,1.6-1.8,1.6
		C151,36.2,150.4,35.9,149.9,35.4z"/>
	<path class="st0" d="M154.4,35.1h0.9v0.9h-0.9V35.1z"/>
	<path class="st0" d="M156.1,35.4l1.7-1.4c0.7-0.6,0.9-0.9,0.9-1.3c0-0.5-0.3-0.7-0.8-0.7s-0.7,0.2-1.1,0.7l-0.6-0.5
		c0.5-0.6,0.9-1,1.8-1c0.9,0,1.6,0.6,1.6,1.4v0c0,0.8-0.4,1.2-1.2,1.9l-1,0.8h2.3v0.7h-3.5V35.4z"/>
	<path class="st0" d="M160.2,35.3l0.6-0.6c0.3,0.4,0.7,0.6,1.3,0.6c0.5,0,0.8-0.3,0.8-0.7v0c0-0.5-0.4-0.7-1.1-0.7h-0.4l-0.1-0.5
		l1.3-1.4h-2.1v-0.7h3.2v0.6l-1.3,1.4c0.7,0.1,1.4,0.5,1.4,1.3v0c0,0.9-0.7,1.5-1.7,1.5C161.2,36.2,160.6,35.8,160.2,35.3z"/>
	<path class="st0" d="M164.6,35.1h0.9v0.9h-0.9V35.1z"/>
	<path class="st0" d="M168.7,31.3h3.6V32h-2.7v1.2h2.4V34h-2.4v1.3h2.8v0.8h-3.6V31.3z"/>
	<path class="st0" d="M173.2,32.4h0.9l1.1,1.7l1.1-1.7h0.9v3.6h-0.8v-2.4l-1.2,1.7h0l-1.2-1.7v2.4h-0.8V32.4z"/>
	<path class="st0" d="M178.2,32.4h0.8v2.9h1.4v-2.9h0.8v2.9h1.4v-2.9h0.8v3.6h-5.4V32.4z"/>
	<path class="st0" d="M184.4,34.3L184.4,34.3c0-1,0.7-1.9,1.8-1.9c1.2,0,1.7,0.9,1.7,1.9c0,0.1,0,0.2,0,0.2h-2.7
		c0.1,0.6,0.5,0.9,1,0.9c0.4,0,0.7-0.2,1-0.4l0.5,0.4c-0.3,0.4-0.8,0.7-1.5,0.7C185.2,36.2,184.4,35.4,184.4,34.3z M187.1,34
		c-0.1-0.5-0.4-1-0.9-1c-0.5,0-0.9,0.4-0.9,1H187.1z"/>
	<path class="st0" d="M189.6,33.9h0.4l1.2-1.4h1l-1.5,1.8l1.6,1.9h-1l-1.2-1.5h-0.4v1.5h-0.8v-3.6h0.8V33.9z"/>
	<path class="st0" d="M194.7,34.3L194.7,34.3c0-1,0.8-1.9,1.9-1.9c0.7,0,1.1,0.3,1.4,0.6l-0.5,0.6c-0.3-0.3-0.5-0.5-0.9-0.5
		c-0.6,0-1,0.5-1,1.2v0c0,0.6,0.4,1.2,1.1,1.2c0.4,0,0.7-0.2,0.9-0.4l0.5,0.5c-0.4,0.4-0.8,0.7-1.5,0.7
		C195.4,36.2,194.7,35.3,194.7,34.3z"/>
	<path class="st0" d="M199.8,37.2v-1.2l-1.4-3.5h0.9l1,2.6l1-2.6h0.9l-1.4,3.5v1.2H199.8z"/>
	<path class="st0" d="M203.8,33.2h-1.3v-0.7h3.4v0.7h-1.3v2.9h-0.8V33.2z"/>
	<path class="st0" d="M206.6,31.1h0.9v0.8h-0.9V31.1z M206.7,32.4h0.8v3.6h-0.8V32.4z"/>
	<path class="st0" d="M208.6,32.4h0.8v1.4h1.7v-1.4h0.8v3.6h-0.8v-1.4h-1.7v1.4h-0.8V32.4z"/>
	<path class="st0" d="M214.8,35L214.8,35c0-0.8,0.6-1.2,1.5-1.2c0.4,0,0.7,0.1,1,0.2v-0.1c0-0.5-0.3-0.8-0.9-0.8
		c-0.4,0-0.7,0.1-1,0.2l-0.2-0.7c0.4-0.2,0.8-0.3,1.4-0.3c0.5,0,0.9,0.1,1.2,0.4c0.3,0.3,0.4,0.6,0.4,1.1v2.1h-0.8v-0.5
		c-0.2,0.3-0.6,0.5-1.2,0.5C215.4,36.1,214.8,35.8,214.8,35z M217.3,34.8v-0.2c-0.2-0.1-0.5-0.1-0.8-0.1c-0.5,0-0.9,0.2-0.9,0.6v0
		c0,0.4,0.3,0.5,0.7,0.5C216.8,35.5,217.3,35.2,217.3,34.8z"/>
	<path class="st0" d="M222.6,36.1h-0.9l-1.1-2.6l-1.1,2.6h-0.9l1.6-3.6h0.8L222.6,36.1z"/>
	<path class="st0" d="M223.3,32.4h0.9l1.1,1.7l1.1-1.7h0.9v3.6h-0.8v-2.4l-1.2,1.7h0l-1.2-1.7v2.4h-0.8V32.4z"/>
	<path class="st0" d="M228,35L228,35c0-0.8,0.6-1.2,1.5-1.2c0.4,0,0.7,0.1,1,0.2v-0.1c0-0.5-0.3-0.8-0.9-0.8c-0.4,0-0.7,0.1-1,0.2
		l-0.2-0.7c0.4-0.2,0.8-0.3,1.4-0.3c0.5,0,0.9,0.1,1.2,0.4c0.3,0.3,0.4,0.6,0.4,1.1v2.1h-0.8v-0.5c-0.2,0.3-0.6,0.5-1.2,0.5
		C228.6,36.1,228,35.8,228,35z M230.5,34.8v-0.2c-0.2-0.1-0.5-0.1-0.8-0.1c-0.5,0-0.9,0.2-0.9,0.6v0c0,0.4,0.3,0.5,0.7,0.5
		C230.1,35.5,230.5,35.2,230.5,34.8z"/>
	<path class="st0" d="M232.1,34.3L232.1,34.3c0-1,0.8-1.9,1.9-1.9c0.7,0,1.1,0.3,1.4,0.6l-0.5,0.6c-0.3-0.3-0.5-0.5-0.9-0.5
		c-0.6,0-1,0.5-1,1.2v0c0,0.6,0.4,1.2,1.1,1.2c0.4,0,0.7-0.2,0.9-0.4l0.5,0.5c-0.4,0.4-0.8,0.7-1.5,0.7
		C232.9,36.2,232.1,35.3,232.1,34.3z"/>
	<path class="st0" d="M237.1,33.2h-1.3v-0.7h3.4v0.7h-1.3v2.9h-0.8V33.2z"/>
	<path class="st0" d="M240.8,33.6h0.8c0.9,0,1.4,0.5,1.4,1.2v0c0,0.8-0.5,1.3-1.5,1.3H240v-3.6h0.8V33.6z M240.8,35.4h0.8
		c0.5,0,0.7-0.2,0.7-0.6v0c0-0.3-0.2-0.6-0.7-0.6h-0.8V35.4z M243.7,32.4h0.8v3.6h-0.8V32.4z"/>
	<path class="st0" d="M245.5,32.4h0.8v0.6c0.3-0.4,0.6-0.7,1.2-0.7c0.9,0,1.7,0.7,1.7,1.9v0c0,1.2-0.8,1.9-1.7,1.9
		c-0.6,0-1-0.3-1.2-0.6v1.7h-0.8V32.4z M248.4,34.3L248.4,34.3c0-0.7-0.5-1.2-1-1.2c-0.6,0-1.1,0.5-1.1,1.2v0c0,0.7,0.5,1.2,1.1,1.2
		C248,35.4,248.4,35,248.4,34.3z"/>
	<path class="st0" d="M250.2,34.6h-0.5v-0.5h0.5v-1.7h2.7v0.7h-1.9v0.9h0.9v0.5h-0.9v1.4h-0.8V34.6z"/>
	<path class="st0" d="M254.5,33.6h0.8c0.9,0,1.4,0.5,1.4,1.2v0c0,0.8-0.5,1.3-1.5,1.3h-1.6v-3.6h0.8V33.6z M254.5,35.4h0.8
		c0.5,0,0.7-0.2,0.7-0.6v0c0-0.3-0.2-0.6-0.7-0.6h-0.8V35.4z M257.4,32.4h0.8v3.6h-0.8V32.4z"/>
	<path class="st0" d="M259.2,32.4h0.8v2.9h1.4v-2.9h0.8v2.9h1.4v-2.9h0.8v3.6h-5.4V32.4z"/>
	<g>
		<path class="st0" d="M9,43.4c-0.4-0.4-0.6-0.9-0.6-1.7c0-1.7,0.6-2.5,1.9-2.7l1.3-0.2l0.1,0.8l-1.3,0.2c-0.8,0.1-1.2,0.5-1.3,1.2
			c0.3-0.3,0.8-0.5,1.3-0.5c1.1,0,1.7,0.7,1.7,1.7c0,1-0.8,1.8-1.9,1.8C9.7,43.9,9.3,43.7,9,43.4z M11.4,42.1c0-0.6-0.4-1-1-1
			c-0.7,0-1.1,0.5-1.1,1.1c0,0.6,0.4,1.1,1.1,1.1C10.9,43.2,11.4,42.7,11.4,42.1z"/>
		<path class="st0" d="M12.8,42L12.8,42c0-1.1,0.8-1.9,1.9-1.9c1.1,0,1.9,0.8,1.9,1.9v0c0,1-0.8,1.9-1.9,1.9
			C13.6,43.9,12.8,43.1,12.8,42z M15.9,42L15.9,42c0-0.7-0.5-1.2-1.1-1.2c-0.7,0-1.1,0.5-1.1,1.2v0c0,0.6,0.5,1.2,1.1,1.2
			C15.4,43.2,15.9,42.7,15.9,42z"/>
		<path class="st0" d="M20.9,43.8H20l-1.1-2.6l-1.1,2.6H17l1.6-3.6h0.8L20.9,43.8z"/>
		<path class="st0" d="M22.4,41.3h0.8c0.9,0,1.4,0.5,1.4,1.2v0c0,0.8-0.5,1.3-1.5,1.3h-1.6v-3.6h0.8V41.3z M22.4,43.1h0.8
			c0.5,0,0.7-0.2,0.7-0.6v0c0-0.3-0.2-0.6-0.7-0.6h-0.8V43.1z M25.3,40.2h0.8v3.6h-0.8V40.2z"/>
		<path class="st0" d="M27.1,40.2h3.3v3.6h-0.8v-2.9H28v2.9h-0.8V40.2z"/>
		<path class="st0" d="M34.6,40.9h-1.3v-0.7h3.4v0.7h-1.3v2.9h-0.8V40.9z"/>
		<path class="st0" d="M37,42.8L37,42.8c0-0.8,0.6-1.2,1.5-1.2c0.4,0,0.7,0.1,1,0.2v-0.1c0-0.5-0.3-0.8-0.9-0.8
			c-0.4,0-0.7,0.1-1,0.2l-0.2-0.7c0.4-0.2,0.8-0.3,1.4-0.3c0.5,0,0.9,0.1,1.2,0.4c0.3,0.3,0.4,0.6,0.4,1.1v2.1h-0.8v-0.5
			c-0.2,0.3-0.6,0.5-1.2,0.5C37.6,43.9,37,43.5,37,42.8z M39.5,42.5v-0.2c-0.2-0.1-0.5-0.1-0.8-0.1c-0.5,0-0.9,0.2-0.9,0.6v0
			c0,0.4,0.3,0.5,0.7,0.5C39,43.3,39.5,43,39.5,42.5z"/>
		<path class="st0" d="M41.7,43.4c-0.4-0.4-0.6-0.9-0.6-1.7c0-1.7,0.6-2.5,1.9-2.7l1.3-0.2l0.1,0.8l-1.3,0.2
			c-0.8,0.1-1.2,0.5-1.3,1.2c0.3-0.3,0.8-0.5,1.3-0.5c1.1,0,1.7,0.7,1.7,1.7c0,1-0.8,1.8-1.9,1.8C42.4,43.9,42,43.7,41.7,43.4z
			 M44.1,42.1c0-0.6-0.4-1-1-1c-0.7,0-1.1,0.5-1.1,1.1c0,0.6,0.4,1.1,1.1,1.1C43.6,43.2,44.1,42.7,44.1,42.1z"/>
		<path class="st0" d="M46.5,41.3h0.8c0.9,0,1.4,0.5,1.4,1.2v0c0,0.8-0.5,1.3-1.5,1.3h-1.6v-3.6h0.8V41.3z M46.5,43.1h0.8
			c0.5,0,0.7-0.2,0.7-0.6v0c0-0.3-0.2-0.6-0.7-0.6h-0.8V43.1z M49.4,40.2h0.8v3.6h-0.8V40.2z"/>
		<path class="st0" d="M54.8,43.8h-0.9l-1.1-2.6l-1.1,2.6h-0.9l1.6-3.6h0.8L54.8,43.8z"/>
		<path class="st0" d="M55.5,40.2h0.9l1.1,1.7l1.1-1.7h0.9v3.6h-0.8v-2.4l-1.2,1.7h0l-1.2-1.7v2.4h-0.8V40.2z"/>
		<path class="st0" d="M60.3,42.8L60.3,42.8c0-0.8,0.6-1.2,1.5-1.2c0.4,0,0.7,0.1,1,0.2v-0.1c0-0.5-0.3-0.8-0.9-0.8
			c-0.4,0-0.7,0.1-1,0.2l-0.2-0.7c0.4-0.2,0.8-0.3,1.4-0.3c0.5,0,0.9,0.1,1.2,0.4c0.3,0.3,0.4,0.6,0.4,1.1v2.1h-0.8v-0.5
			c-0.2,0.3-0.6,0.5-1.2,0.5C60.9,43.9,60.3,43.5,60.3,42.8z M62.8,42.5v-0.2c-0.2-0.1-0.5-0.1-0.8-0.1c-0.5,0-0.9,0.2-0.9,0.6v0
			c0,0.4,0.3,0.5,0.7,0.5C62.3,43.3,62.8,43,62.8,42.5z"/>
		<path class="st0" d="M64.5,40.2h0.8v2.3l1.7-2.3h0.8v3.6h-0.8v-2.4l-1.8,2.4h-0.8V40.2z M65,38.8h0.6c0.1,0.2,0.3,0.4,0.6,0.4
			c0.3,0,0.5-0.2,0.6-0.4h0.6c-0.1,0.6-0.5,1-1.2,1C65.5,39.8,65.1,39.4,65,38.8z"/>
		<path class="st0" d="M72.4,43.1h0.4v1.7h-0.8v-0.9h-2.8v0.9h-0.8v-1.7H69l1.3-2.9h0.9L72.4,43.1z M69.8,43.1h1.8L70.7,41
			L69.8,43.1z"/>
		<path class="st0" d="M74.3,41.3h0.8c0.9,0,1.4,0.5,1.4,1.2v0c0,0.8-0.5,1.3-1.5,1.3h-1.6v-3.6h0.8V41.3z M74.3,43.1h0.8
			c0.5,0,0.7-0.2,0.7-0.6v0c0-0.3-0.2-0.6-0.7-0.6h-0.8V43.1z M77.2,40.2H78v3.6h-0.8V40.2z"/>
		<path class="st0" d="M79,42.9h0.9v0.9H79V42.9z"/>
		<path class="st0" d="M85.1,41.3l1.6,1.7h0.8v1.8h-0.8v-1h-0.3l-1.9-2.1h-0.5l0,2.1H83V39h0.8l0,2h0.5l1.8-2h1.1L85.1,41.3z"/>
		<path class="st0" d="M87.8,42L87.8,42c0-1.1,0.8-1.9,1.9-1.9c1.1,0,1.9,0.8,1.9,1.9v0c0,1-0.8,1.9-1.9,1.9
			C88.6,43.9,87.8,43.1,87.8,42z M90.8,42L90.8,42c0-0.7-0.5-1.2-1.1-1.2c-0.7,0-1.1,0.5-1.1,1.2v0c0,0.6,0.5,1.2,1.1,1.2
			C90.4,43.2,90.8,42.7,90.8,42z"/>
		<path class="st0" d="M95.8,43.8h-0.9l-1.1-2.6l-1.1,2.6h-0.9l1.6-3.6h0.8L95.8,43.8z"/>
		<path class="st0" d="M100,43.1h0.4v1.7h-0.8v-0.9h-2.8v0.9h-0.8v-1.7h0.4l1.3-2.9h0.9L100,43.1z M97.4,43.1h1.8L98.3,41L97.4,43.1
			z"/>
		<path class="st0" d="M100.8,42.8L100.8,42.8c0-0.8,0.6-1.2,1.5-1.2c0.4,0,0.7,0.1,1,0.2v-0.1c0-0.5-0.3-0.8-0.9-0.8
			c-0.4,0-0.7,0.1-1,0.2l-0.2-0.7c0.4-0.2,0.8-0.3,1.4-0.3c0.5,0,0.9,0.1,1.2,0.4c0.3,0.3,0.4,0.6,0.4,1.1v2.1h-0.8v-0.5
			c-0.2,0.3-0.6,0.5-1.2,0.5C101.4,43.9,100.8,43.5,100.8,42.8z M103.3,42.5v-0.2c-0.2-0.1-0.5-0.1-0.8-0.1c-0.5,0-0.9,0.2-0.9,0.6
			v0c0,0.4,0.3,0.5,0.7,0.5C102.9,43.3,103.3,43,103.3,42.5z"/>
		<path class="st0" d="M105.1,40.2h0.8v1.4h1.7v-1.4h0.8v3.6h-0.8v-1.4h-1.7v1.4h-0.8V40.2z"/>
		<path class="st0" d="M109.2,42.8L109.2,42.8c0-0.8,0.6-1.2,1.5-1.2c0.4,0,0.7,0.1,1,0.2v-0.1c0-0.5-0.3-0.8-0.9-0.8
			c-0.4,0-0.7,0.1-1,0.2l-0.2-0.7c0.4-0.2,0.8-0.3,1.4-0.3c0.5,0,0.9,0.1,1.2,0.4c0.3,0.3,0.4,0.6,0.4,1.1v2.1h-0.8v-0.5
			c-0.2,0.3-0.6,0.5-1.2,0.5C109.8,43.9,109.2,43.5,109.2,42.8z M111.7,42.5v-0.2c-0.2-0.1-0.5-0.1-0.8-0.1c-0.5,0-0.9,0.2-0.9,0.6
			v0c0,0.4,0.3,0.5,0.7,0.5C111.3,43.3,111.7,43,111.7,42.5z"/>
		<path class="st0" d="M113.5,40.2h0.8v0.6c0.3-0.4,0.6-0.7,1.2-0.7c0.9,0,1.7,0.7,1.7,1.9v0c0,1.2-0.8,1.9-1.7,1.9
			c-0.6,0-1-0.3-1.2-0.6v1.7h-0.8V40.2z M116.4,42L116.4,42c0-0.7-0.5-1.2-1-1.2c-0.6,0-1.1,0.5-1.1,1.2v0c0,0.7,0.5,1.2,1.1,1.2
			C115.9,43.2,116.4,42.7,116.4,42z"/>
		<path class="st0" d="M119.9,42.8L119.9,42.8c0-0.8,0.6-1.2,1.5-1.2c0.4,0,0.7,0.1,1,0.2v-0.1c0-0.5-0.3-0.8-0.9-0.8
			c-0.4,0-0.7,0.1-1,0.2l-0.2-0.7c0.4-0.2,0.8-0.3,1.4-0.3c0.5,0,0.9,0.1,1.2,0.4c0.3,0.3,0.4,0.6,0.4,1.1v2.1h-0.8v-0.5
			c-0.2,0.3-0.6,0.5-1.2,0.5C120.5,43.9,119.9,43.5,119.9,42.8z M122.4,42.5v-0.2c-0.2-0.1-0.5-0.1-0.8-0.1c-0.5,0-0.9,0.2-0.9,0.6
			v0c0,0.4,0.3,0.5,0.7,0.5C122,43.3,122.4,43,122.4,42.5z"/>
		<path class="st0" d="M127.7,43.8h-0.9l-1.1-2.6l-1.1,2.6h-0.9l1.6-3.6h0.8L127.7,43.8z"/>
		<path class="st0" d="M131.9,43.1h0.4v1.7h-0.8v-0.9h-2.8v0.9h-0.8v-1.7h0.4l1.3-2.9h0.9L131.9,43.1z M129.3,43.1h1.8l-0.9-2.1
			L129.3,43.1z"/>
		<path class="st0" d="M133.8,41.3h0.8c0.9,0,1.4,0.5,1.4,1.2v0c0,0.8-0.5,1.3-1.5,1.3H133v-3.6h0.8V41.3z M133.8,43.1h0.8
			c0.5,0,0.7-0.2,0.7-0.6v0c0-0.3-0.2-0.6-0.7-0.6h-0.8V43.1z M136.7,40.2h0.8v3.6h-0.8V40.2z"/>
		<path class="st0" d="M138.6,40.2h0.8v1.4h1.7v-1.4h0.8v3.6h-0.8v-1.4h-1.7v1.4h-0.8V40.2z"/>
		<path class="st0" d="M146.4,43.1h0.4v1.7h-0.8v-0.9h-2.8v0.9h-0.8v-1.7h0.4l1.3-2.9h0.9L146.4,43.1z M143.8,43.1h1.8l-0.9-2.1
			L143.8,43.1z"/>
		<path class="st0" d="M147.2,42.8L147.2,42.8c0-0.8,0.6-1.2,1.5-1.2c0.4,0,0.7,0.1,1,0.2v-0.1c0-0.5-0.3-0.8-0.9-0.8
			c-0.4,0-0.7,0.1-1,0.2l-0.2-0.7c0.4-0.2,0.8-0.3,1.4-0.3c0.5,0,0.9,0.1,1.2,0.4c0.3,0.3,0.4,0.6,0.4,1.1v2.1h-0.8v-0.5
			c-0.2,0.3-0.6,0.5-1.2,0.5C147.9,43.9,147.2,43.5,147.2,42.8z M149.7,42.5v-0.2c-0.2-0.1-0.5-0.1-0.8-0.1c-0.5,0-0.9,0.2-0.9,0.6
			v0c0,0.4,0.3,0.5,0.7,0.5C149.3,43.3,149.7,43,149.7,42.5z"/>
		<path class="st0" d="M153.6,40.2h0.9l1.1,1.7l1.1-1.7h0.9v3.6h-0.8v-2.4l-1.2,1.7h0l-1.2-1.7v2.4h-0.8V40.2z"/>
		<path class="st0" d="M158.3,42.8L158.3,42.8c0-0.8,0.6-1.2,1.5-1.2c0.4,0,0.7,0.1,1,0.2v-0.1c0-0.5-0.3-0.8-0.9-0.8
			c-0.4,0-0.7,0.1-1,0.2l-0.2-0.7c0.4-0.2,0.8-0.3,1.4-0.3c0.5,0,0.9,0.1,1.2,0.4c0.3,0.3,0.4,0.6,0.4,1.1v2.1h-0.8v-0.5
			c-0.2,0.3-0.6,0.5-1.2,0.5C158.9,43.9,158.3,43.5,158.3,42.8z M160.8,42.5v-0.2c-0.2-0.1-0.5-0.1-0.8-0.1c-0.5,0-0.9,0.2-0.9,0.6
			v0c0,0.4,0.3,0.5,0.7,0.5C160.4,43.3,160.8,43,160.8,42.5z"/>
		<path class="st0" d="M162.6,40.2h0.9l1.1,1.7l1.1-1.7h0.9v3.6h-0.8v-2.4l-1.2,1.7h0l-1.2-1.7v2.4h-0.8V40.2z"/>
		<path class="st0" d="M167.3,42.8L167.3,42.8c0-0.8,0.6-1.2,1.5-1.2c0.4,0,0.7,0.1,1,0.2v-0.1c0-0.5-0.3-0.8-0.9-0.8
			c-0.4,0-0.7,0.1-1,0.2l-0.2-0.7c0.4-0.2,0.8-0.3,1.4-0.3c0.5,0,0.9,0.1,1.2,0.4c0.3,0.3,0.4,0.6,0.4,1.1v2.1h-0.8v-0.5
			c-0.2,0.3-0.6,0.5-1.2,0.5C167.9,43.9,167.3,43.5,167.3,42.8z M169.8,42.5v-0.2c-0.2-0.1-0.5-0.1-0.8-0.1c-0.5,0-0.9,0.2-0.9,0.6
			v0c0,0.4,0.3,0.5,0.7,0.5C169.4,43.3,169.8,43,169.8,42.5z"/>
		<path class="st0" d="M171.6,40.2h0.8v1.4h1.7v-1.4h0.8v3.6h-0.8v-1.4h-1.7v1.4h-0.8V40.2z"/>
		<path class="st0" d="M175.9,40.2h0.9l1.1,1.7l1.1-1.7h0.9v3.6h-0.8v-2.4l-1.2,1.7h0l-1.2-1.7v2.4h-0.8V40.2z"/>
		<path class="st0" d="M180.7,42L180.7,42c0-1,0.7-1.9,1.8-1.9c1.2,0,1.7,0.9,1.7,1.9c0,0.1,0,0.2,0,0.2h-2.7c0.1,0.6,0.5,0.9,1,0.9
			c0.4,0,0.7-0.2,1-0.4l0.5,0.4c-0.3,0.4-0.8,0.7-1.5,0.7C181.5,43.9,180.7,43.1,180.7,42z M183.4,41.8c-0.1-0.5-0.4-1-0.9-1
			c-0.5,0-0.9,0.4-0.9,1H183.4z"/>
		<path class="st0" d="M185.1,40.2h0.8v1.4h1.7v-1.4h0.8v3.6h-0.8v-1.4h-1.7v1.4h-0.8V40.2z"/>
		<path class="st0" d="M192.3,41.6h0.4l1.2-1.4h1l-1.5,1.8l1.6,1.9h-1l-1.2-1.5h-0.4v1.5h-0.8v-3.6h0.8V41.6z"/>
		<path class="st0" d="M195.2,42L195.2,42c0-1,0.7-1.9,1.8-1.9c1.2,0,1.7,0.9,1.7,1.9c0,0.1,0,0.2,0,0.2H196c0.1,0.6,0.5,0.9,1,0.9
			c0.4,0,0.7-0.2,1-0.4l0.5,0.4c-0.3,0.4-0.8,0.7-1.5,0.7C196,43.9,195.2,43.1,195.2,42z M197.9,41.8c-0.1-0.5-0.4-1-0.9-1
			c-0.5,0-0.9,0.4-0.9,1H197.9z"/>
		<path class="st0" d="M202.5,43.8H202v-1.4h-1.7v1.4h-0.8v-3.6h0.8v1.4h1.7v-1.4h0.8v2.9h0.4v1.7h-0.8V43.8z"/>
		<path class="st0" d="M203.7,42L203.7,42c0-1,0.7-1.9,1.8-1.9c1.2,0,1.7,0.9,1.7,1.9c0,0.1,0,0.2,0,0.2h-2.7c0.1,0.6,0.5,0.9,1,0.9
			c0.4,0,0.7-0.2,1-0.4l0.5,0.4c-0.3,0.4-0.8,0.7-1.5,0.7C204.5,43.9,203.7,43.1,203.7,42z M206.4,41.8c-0.1-0.5-0.4-1-0.9-1
			c-0.5,0-0.9,0.4-0.9,1H206.4z"/>
		<path class="st0" d="M207.9,42L207.9,42c0-1,0.8-1.9,1.9-1.9c0.7,0,1.1,0.3,1.4,0.6l-0.5,0.6c-0.3-0.3-0.5-0.5-0.9-0.5
			c-0.6,0-1,0.5-1,1.2v0c0,0.6,0.4,1.2,1.1,1.2c0.4,0,0.7-0.2,0.9-0.4l0.5,0.5c-0.4,0.4-0.8,0.7-1.5,0.7
			C208.7,43.9,207.9,43.1,207.9,42z"/>
		<path class="st0" d="M212,38.9h0.9v0.8H212V38.9z M212,40.2h0.8v3.6H212V40.2z"/>
		<path class="st0" d="M217,43.8h-0.5v-1.4h-1.7v1.4h-0.8v-3.6h0.8v1.4h1.7v-1.4h0.8v2.9h0.4v1.7H217V43.8z"/>
		<path class="st0" d="M218.4,38.9h0.9v0.8h-0.9V38.9z M218.5,40.2h0.8v3.6h-0.8V40.2z"/>
		<path class="st0" d="M220.5,42.8c0.4,0.3,0.8,0.4,1.2,0.4c0.5,0,0.8-0.2,0.8-0.5c0-0.3-0.3-0.4-0.8-0.4H221v-0.6h0.8
			c0.4,0,0.7-0.2,0.7-0.4c0-0.3-0.3-0.4-0.7-0.4c-0.4,0-0.8,0.1-1.2,0.4l-0.4-0.5c0.4-0.4,0.9-0.6,1.6-0.6c0.9,0,1.5,0.4,1.5,1v0
			c0,0.4-0.3,0.7-0.6,0.8c0.4,0.1,0.7,0.4,0.7,0.8v0c0,0.6-0.6,1.1-1.6,1.1c-0.7,0-1.2-0.2-1.6-0.5L220.5,42.8z"/>
		<path class="st0" d="M224.2,42.9h0.9v0.9h-0.9V42.9z"/>
	</g>
	<g>
		<path class="st0" d="M228.2,39.8h-1.5V39h3.9v0.8h-1.5v4h-0.8V39.8z"/>
		<path class="st0" d="M230.4,42.8L230.4,42.8c0-0.8,0.6-1.2,1.5-1.2c0.4,0,0.7,0.1,1,0.2v-0.1c0-0.5-0.3-0.8-0.9-0.8
			c-0.4,0-0.7,0.1-1,0.2l-0.2-0.7c0.4-0.2,0.8-0.3,1.4-0.3c0.5,0,0.9,0.1,1.2,0.4c0.3,0.3,0.4,0.6,0.4,1.1v2.1h-0.8v-0.5
			c-0.2,0.3-0.6,0.5-1.2,0.5C231,43.9,230.4,43.5,230.4,42.8z M232.9,42.5v-0.2c-0.2-0.1-0.5-0.1-0.8-0.1c-0.5,0-0.9,0.2-0.9,0.6v0
			c0,0.4,0.3,0.5,0.7,0.5C232.4,43.3,232.9,43,232.9,42.5z"/>
		<path class="st0" d="M237,40.2h0.9l-1.4,3.7c-0.3,0.7-0.6,1-1.2,1c-0.3,0-0.6-0.1-0.9-0.2l0.3-0.6c0.2,0.1,0.3,0.1,0.5,0.1
			c0.2,0,0.4-0.1,0.5-0.4l-1.5-3.6h0.9l1,2.7L237,40.2z"/>
		<path class="st0" d="M238.2,42.8L238.2,42.8c0-0.8,0.6-1.2,1.5-1.2c0.4,0,0.7,0.1,1,0.2v-0.1c0-0.5-0.3-0.8-0.9-0.8
			c-0.4,0-0.7,0.1-1,0.2l-0.2-0.7c0.4-0.2,0.8-0.3,1.4-0.3c0.5,0,0.9,0.1,1.2,0.4c0.3,0.3,0.4,0.6,0.4,1.1v2.1h-0.8v-0.5
			c-0.2,0.3-0.6,0.5-1.2,0.5C238.8,43.9,238.2,43.5,238.2,42.8z M240.7,42.5v-0.2c-0.2-0.1-0.5-0.1-0.8-0.1c-0.5,0-0.9,0.2-0.9,0.6
			v0c0,0.4,0.3,0.5,0.7,0.5C240.2,43.3,240.7,43,240.7,42.5z"/>
		<path class="st0" d="M242.4,40.2h0.8v0.6c0.3-0.4,0.6-0.7,1.2-0.7c0.9,0,1.7,0.7,1.7,1.9v0c0,1.2-0.8,1.9-1.7,1.9
			c-0.6,0-1-0.3-1.2-0.6v1.7h-0.8V40.2z M245.3,42L245.3,42c0-0.7-0.5-1.2-1-1.2c-0.6,0-1.1,0.5-1.1,1.2v0c0,0.7,0.5,1.2,1.1,1.2
			C244.9,43.2,245.3,42.7,245.3,42z"/>
		<path class="st0" d="M250.1,41h-1.3v-0.7h3.4V41h-1.3v2.9h-0.8V41z"/>
		<path class="st0" d="M253,38.9h0.9v0.8H253V38.9z M253,40.2h0.8v3.6H253V40.2z"/>
		<path class="st0" d="M254.9,40.2h0.8v0.6c0.3-0.4,0.6-0.7,1.2-0.7c0.9,0,1.7,0.7,1.7,1.9v0c0,1.2-0.8,1.9-1.7,1.9
			c-0.6,0-1-0.3-1.2-0.6v1.7h-0.8V40.2z M257.8,42L257.8,42c0-0.7-0.5-1.2-1-1.2c-0.6,0-1.1,0.5-1.1,1.2v0c0,0.7,0.5,1.2,1.1,1.2
			C257.4,43.2,257.8,42.7,257.8,42z"/>
		<path class="st0" d="M260.3,41.6h0.4l1.2-1.4h1l-1.5,1.8l1.6,1.9h-1l-1.2-1.5h-0.4v1.5h-0.8v-3.6h0.8V41.6z"/>
		<path class="st0" d="M263.2,42L263.2,42c0-1,0.7-1.9,1.8-1.9c1.2,0,1.7,0.9,1.7,1.9c0,0.1,0,0.2,0,0.2H264c0.1,0.6,0.5,0.9,1,0.9
			c0.4,0,0.7-0.2,1-0.4l0.5,0.4c-0.3,0.4-0.8,0.7-1.5,0.7C264,43.9,263.2,43.2,263.2,42z M265.9,41.8c-0.1-0.5-0.4-1-0.9-1
			c-0.5,0-0.9,0.4-0.9,1H265.9z"/>
		<path class="st0" d="M271,43.8h-0.9l-1.1-2.6l-1.1,2.6h-0.9l1.6-3.6h0.8L271,43.8z"/>
		<path class="st0" d="M271.7,40.2h2.7V41h-1.9v2.9h-0.8V40.2z"/>
		<path class="st0" d="M274.7,42L274.7,42c0-1,0.7-1.9,1.8-1.9c1.2,0,1.7,0.9,1.7,1.9c0,0.1,0,0.2,0,0.2h-2.7c0.1,0.6,0.5,0.9,1,0.9
			c0.4,0,0.7-0.2,1-0.4l0.5,0.4c-0.3,0.4-0.8,0.7-1.5,0.7C275.5,43.9,274.7,43.2,274.7,42z M277.4,41.8c-0.1-0.5-0.4-1-0.9-1
			c-0.5,0-0.9,0.4-0.9,1H277.4z"/>
		<path class="st0" d="M279.1,40.2h0.8v1.4h1.7v-1.4h0.8v3.6h-0.8v-1.4h-1.7v1.4h-0.8V40.2z"/>
		<path class="st0" d="M283.4,42.9h0.9v0.9h-0.9V42.9z"/>
	</g>
</g>
</svg>
