<?xml version="1.0" encoding="utf-8"?>
<!-- Generator: Adobe Illustrator 25.2.3, SVG Export Plug-In . SVG Version: 6.00 Build 0)  -->
<svg version="1.1" id="Layer_1" xmlns="http://www.w3.org/2000/svg" xmlns:xlink="http://www.w3.org/1999/xlink" x="0px" y="0px"
	 viewBox="0 0 216.2 135.6" style="enable-background:new 0 0 216.2 135.6;" xml:space="preserve">
<style type="text/css">
	.st0{fill:#ABCAE9;}
	.st1{fill:#001489;}
</style>
<g>
	<ellipse class="st0" cx="108.1" cy="67.8" rx="108.1" ry="67.8"/>
</g>
<g>
	<path class="st1" d="M68.7,53c-1.1,0-2-0.1-3-0.4c-0.9-0.3-1.7-0.7-2.4-1.3c-0.7-0.6-1.2-1.3-1.6-2.1S61,47.3,61,46.2v-0.1
		c0-1.2,0.2-2.3,0.7-3.1c0.4-0.9,1.1-1.6,1.8-2.2c0.8-0.6,1.7-1,2.8-1.3c1.1-0.3,2.3-0.4,3.6-0.4c1.1,0,2.1,0.1,3,0.2
		c0.8,0.2,1.7,0.4,2.5,0.7v-0.4c0-1.3-0.4-2.4-1.2-3.1c-0.8-0.7-2-1.1-3.6-1.1c-1.2,0-2.3,0.1-3.2,0.3c-0.9,0.2-1.9,0.5-2.9,0.9
		l-1.6-4.8c1.2-0.5,2.5-0.9,3.8-1.3c1.3-0.3,2.9-0.5,4.8-0.5c1.7,0,3.2,0.2,4.5,0.6c1.2,0.4,2.2,1,3,1.8c0.8,0.8,1.4,1.8,1.8,3
		c0.4,1.2,0.6,2.5,0.6,4v12.9h-6.1v-2.4c-0.8,0.9-1.7,1.5-2.8,2.1C71.5,52.8,70.2,53,68.7,53z M70.6,48.7c1.5,0,2.7-0.4,3.6-1.1
		c0.9-0.7,1.3-1.7,1.3-2.8v-1.1c-0.6-0.2-1.2-0.4-1.8-0.6c-0.7-0.2-1.4-0.2-2.2-0.2c-1.4,0-2.4,0.3-3.2,0.8
		c-0.8,0.5-1.2,1.3-1.2,2.3V46c0,0.9,0.3,1.5,1,2C68.7,48.4,69.5,48.7,70.6,48.7z"/>
	<path class="st1" d="M86.9,30.4h20.8v22.2h-6.3V36.1h-8.2v16.5h-6.3V30.4z"/>
	<path class="st1" d="M119.2,36H112v-5.6h20.7V36h-7.2v16.6h-6.3V36z"/>
	<path class="st1" d="M142.1,53c-1.1,0-2-0.1-3-0.4c-0.9-0.3-1.7-0.7-2.4-1.3c-0.7-0.6-1.2-1.3-1.6-2.1c-0.4-0.8-0.6-1.8-0.6-2.9
		v-0.1c0-1.2,0.2-2.3,0.7-3.1c0.4-0.9,1.1-1.6,1.8-2.2c0.8-0.6,1.7-1,2.8-1.3c1.1-0.3,2.3-0.4,3.6-0.4c1.1,0,2.1,0.1,3,0.2
		c0.8,0.2,1.7,0.4,2.5,0.7v-0.4c0-1.3-0.4-2.4-1.2-3.1c-0.8-0.7-2-1.1-3.6-1.1c-1.2,0-2.3,0.1-3.2,0.3c-0.9,0.2-1.9,0.5-2.9,0.9
		l-1.6-4.8c1.2-0.5,2.5-0.9,3.8-1.3c1.3-0.3,2.9-0.5,4.8-0.5c1.7,0,3.2,0.2,4.5,0.6c1.2,0.4,2.2,1,3,1.8c0.8,0.8,1.4,1.8,1.8,3
		c0.4,1.2,0.6,2.5,0.6,4v12.9h-6.1v-2.4c-0.8,0.9-1.7,1.5-2.8,2.1C145,52.8,143.7,53,142.1,53z M144,48.7c1.5,0,2.7-0.4,3.6-1.1
		s1.3-1.7,1.3-2.8v-1.1c-0.6-0.2-1.2-0.4-1.8-0.6c-0.7-0.2-1.4-0.2-2.2-0.2c-1.4,0-2.4,0.3-3.2,0.8c-0.8,0.5-1.2,1.3-1.2,2.3V46
		c0,0.9,0.3,1.5,1,2C142.2,48.4,143,48.7,144,48.7z"/>
	<path class="st1" d="M25.9,92.3c-1.7,0-3.2-0.3-4.6-0.9c-1.4-0.6-2.6-1.4-3.7-2.5c-1-1-1.8-2.3-2.4-3.6c-0.6-1.4-0.9-2.9-0.9-4.5
		v-0.1c0-1.6,0.3-3.1,0.9-4.5c0.6-1.4,1.4-2.6,2.4-3.7c1-1,2.2-1.9,3.7-2.5c1.4-0.6,3-0.9,4.7-0.9c2.1,0,3.8,0.3,5.2,1
		c1.4,0.7,2.6,1.6,3.6,2.7L31,77.1c-0.7-0.7-1.5-1.3-2.2-1.8c-0.8-0.4-1.7-0.7-2.8-0.7c-0.8,0-1.5,0.2-2.2,0.5
		c-0.6,0.3-1.2,0.8-1.7,1.3c-0.5,0.6-0.9,1.2-1.1,1.9c-0.3,0.7-0.4,1.5-0.4,2.3v0.1c0,0.9,0.1,1.7,0.4,2.4c0.3,0.7,0.6,1.4,1.1,1.9
		c0.5,0.6,1.1,1,1.8,1.3c0.7,0.3,1.5,0.5,2.3,0.5c1.1,0,2-0.2,2.8-0.6c0.8-0.4,1.6-1,2.3-1.7l3.7,3.7c-1.1,1.2-2.3,2.2-3.7,2.9
		C30,91.9,28.2,92.3,25.9,92.3z"/>
	<path class="st1" d="M45.4,92.2c-1.1,0-2-0.1-3-0.4c-0.9-0.3-1.7-0.7-2.4-1.3c-0.7-0.6-1.2-1.3-1.6-2.1s-0.6-1.8-0.6-2.9v-0.1
		c0-1.2,0.2-2.3,0.7-3.1c0.4-0.9,1.1-1.6,1.8-2.2c0.8-0.6,1.7-1,2.8-1.3c1.1-0.3,2.3-0.4,3.6-0.4c1.1,0,2.1,0.1,3,0.2
		c0.8,0.2,1.7,0.4,2.5,0.7v-0.4c0-1.3-0.4-2.4-1.2-3.1c-0.8-0.7-2-1.1-3.6-1.1c-1.2,0-2.3,0.1-3.2,0.3s-1.9,0.5-2.9,0.9l-1.6-4.8
		c1.2-0.5,2.5-0.9,3.8-1.3c1.3-0.3,2.9-0.5,4.8-0.5c1.7,0,3.2,0.2,4.5,0.6c1.2,0.4,2.2,1,3,1.8c0.8,0.8,1.4,1.8,1.8,3s0.6,2.5,0.6,4
		v12.9h-6.1v-2.4c-0.8,0.9-1.7,1.5-2.8,2.1S47,92.2,45.4,92.2z M47.3,87.9c1.5,0,2.7-0.4,3.6-1.1c0.9-0.7,1.3-1.7,1.3-2.8v-1.1
		c-0.6-0.2-1.2-0.4-1.8-0.6C49.7,82.1,49,82,48.2,82c-1.4,0-2.4,0.3-3.2,0.8c-0.8,0.5-1.2,1.3-1.2,2.3v0.1c0,0.9,0.3,1.5,1,2
		C45.5,87.7,46.3,87.9,47.3,87.9z"/>
	<path class="st1" d="M63.7,69.6h6.3v12.2l8.7-12.2h5.9v22.2h-6.3V79.1l-9,12.7h-5.6V69.6z M74.1,67.3c-2.2,0-4-0.6-5.4-1.7
		c-1.4-1.1-2.2-2.8-2.4-4.9h4.2c0.2,0.7,0.6,1.3,1.2,1.8c0.5,0.5,1.3,0.7,2.4,0.7c1,0,1.8-0.2,2.4-0.7c0.5-0.5,0.9-1.1,1.2-1.8h4.2
		c-0.2,2.1-1,3.7-2.4,4.9C78.1,66.7,76.3,67.3,74.1,67.3z"/>
	<path class="st1" d="M96.4,76h4.1c1.3,0,2.5,0.2,3.6,0.5c1.1,0.3,2.1,0.8,2.8,1.5c0.8,0.7,1.4,1.5,1.8,2.5c0.4,1,0.6,2.1,0.6,3.4v0
		c0,1.2-0.2,2.3-0.6,3.3c-0.4,1-1,1.8-1.8,2.5c-0.8,0.7-1.8,1.2-3,1.6c-1.2,0.4-2.5,0.6-4,0.6h-9.8V69.6h6.3V76z M96.3,86.7h3.4
		c1.1,0,1.9-0.2,2.5-0.7c0.6-0.5,0.9-1.2,0.9-2.2v0c0-0.8-0.3-1.5-0.9-2c-0.6-0.6-1.4-0.8-2.5-0.8h-3.5V86.7z M112.5,69.6h6.3v22.2
		h-6.3V69.6z"/>
	<path class="st1" d="M124.5,69.6h6.3v8.1h8.2v-8.1h6.3v22.2H139v-8.3h-8.2v8.3h-6.3V69.6z"/>
	<path class="st1" d="M151.8,83.4H149v-3.5h2.8V69.6h17v5.7h-10.7v4.6h5.1v3.5h-5.1v8.4h-6.3V83.4z"/>
	<path class="st1" d="M179.2,76h4.1c1.3,0,2.5,0.2,3.6,0.5c1.1,0.3,2.1,0.8,2.8,1.5c0.8,0.7,1.4,1.5,1.8,2.5c0.4,1,0.6,2.1,0.6,3.4
		v0c0,1.2-0.2,2.3-0.6,3.3s-1,1.8-1.8,2.5c-0.8,0.7-1.8,1.2-3,1.6s-2.5,0.6-4,0.6h-9.8V69.6h6.3V76z M179.1,86.7h3.4
		c1.1,0,1.9-0.2,2.5-0.7c0.6-0.5,0.9-1.2,0.9-2.2v0c0-0.8-0.3-1.5-0.9-2c-0.6-0.6-1.4-0.8-2.5-0.8h-3.5V86.7z M195.3,69.6h6.3v22.2
		h-6.3V69.6z"/>
</g>
</svg>
