<?xml version="1.0" encoding="utf-8"?>
<!-- Generator: Adobe Illustrator 25.2.3, SVG Export Plug-In . SVG Version: 6.00 Build 0)  -->
<svg version="1.1" id="Layer_1" xmlns="http://www.w3.org/2000/svg" xmlns:xlink="http://www.w3.org/1999/xlink" x="0px" y="0px"
	 viewBox="0 0 240 400" style="enable-background:new 0 0 240 400;" xml:space="preserve">
<style type="text/css">
	.st0{fill:#FEDF6A;}
	.st1{fill:#FFFFFF;}
</style>
<g>
	<g>
		<path class="st0" d="M36.8,139.9l-7.7,1.7l-2.4-9.7l13.3-3.7h9.1V174H36.8V139.9z"/>
	</g>
	<g>
		<path class="st1" d="M70.1,129.6h6.6v1.4h-5.1v2h2.5c1,0,1.8,0.2,2.3,0.7c0.6,0.5,0.9,1.1,0.9,2c0,0.9-0.3,1.5-0.9,2
			c-0.6,0.5-1.4,0.7-2.4,0.7h-3.9V129.6z M73.7,137.1c0.7,0,1.2-0.1,1.5-0.3c0.4-0.2,0.5-0.6,0.5-1.1c0-0.9-0.6-1.3-1.8-1.3h-2.3
			v2.7H73.7z"/>
		<path class="st1" d="M79.5,137.6c-0.7-0.7-1-1.5-1-2.5s0.3-1.8,1-2.5c0.7-0.7,1.5-1,2.6-1c1,0,1.9,0.3,2.5,1c0.7,0.7,1,1.5,1,2.5
			c0,1-0.3,1.8-1,2.5c-0.7,0.7-1.5,1-2.6,1C81,138.6,80.2,138.3,79.5,137.6z M83.5,136.7c0.4-0.4,0.5-0.9,0.5-1.5
			c0-0.6-0.2-1.1-0.6-1.5c-0.4-0.4-0.9-0.6-1.5-0.6c-0.6,0-1.1,0.2-1.5,0.6c-0.4,0.4-0.5,0.9-0.5,1.5c0,0.6,0.2,1.1,0.6,1.5
			c0.4,0.4,0.9,0.6,1.5,0.6C82.7,137.3,83.2,137.1,83.5,136.7z"/>
		<path class="st1" d="M87.2,131.8h1.5v2.7h2.9v-2.7h1.5v6.7h-1.5v-2.7h-2.9v2.7h-1.5V131.8z"/>
		<path class="st1" d="M94.9,140.1l0.5-1.1c0.3,0.2,0.6,0.3,0.9,0.3c0.4,0,0.7-0.3,0.9-0.8l-2.8-6.7h1.6l1.9,5l1.7-5h1.6l-2.7,6.9
			c-0.3,0.7-0.6,1.2-0.9,1.4c-0.3,0.3-0.8,0.4-1.3,0.4C95.9,140.5,95.4,140.4,94.9,140.1z"/>
		<path class="st1" d="M102.8,137.6c-0.7-0.7-1-1.5-1-2.4v0c0-1,0.3-1.8,1-2.5c0.7-0.7,1.5-1,2.5-1c1.1,0,2,0.4,2.7,1.1l-0.9,1
			c-0.5-0.6-1.1-0.8-1.7-0.8c-0.5,0-1,0.2-1.4,0.6c-0.4,0.4-0.5,0.9-0.5,1.5v0c0,0.6,0.2,1.1,0.6,1.5c0.4,0.4,0.9,0.6,1.4,0.6
			c0.6,0,1.2-0.3,1.7-0.8l0.9,0.9c-0.7,0.8-1.7,1.3-2.7,1.3C104.3,138.6,103.5,138.3,102.8,137.6z"/>
		<path class="st1" d="M110.8,133.1h-2.1v-1.3h5.8v1.3h-2.1v5.4h-1.5V133.1z"/>
		<path class="st1" d="M115.7,131.8h1.5v2.3h1.4c0.8,0,1.4,0.2,1.9,0.5c0.5,0.4,0.8,0.9,0.8,1.6c0,0.7-0.2,1.2-0.7,1.6
			c-0.5,0.4-1.1,0.6-1.9,0.6h-3V131.8z M118.6,137.2c0.8,0,1.2-0.3,1.2-1c0-0.6-0.4-0.9-1.2-0.9h-1.3v1.9H118.6z M122.3,131.8h1.5
			v6.7h-1.5V131.8z"/>
		<path class="st1" d="M132,131.8l-2.6,2.8l1.9,2.6h1.1l-0.2,2.7h-1v-1.5h-0.9l-2-2.8l-1.1,1.1v1.6h-1.5v-6.6h1.5v3.2l2.9-3.2H132z"
			/>
		<path class="st1" d="M137.4,131.8h1.5v3.2l2.9-3.2h1.8l-2.6,2.8l2.8,3.9H142l-2-2.8l-1.1,1.1v1.6h-1.5V131.8z"/>
		<path class="st1" d="M148.7,138.5v-0.8c-0.5,0.6-1.3,1-2.2,1c-0.7,0-1.2-0.2-1.7-0.5c-0.5-0.4-0.7-0.9-0.7-1.6
			c0-0.7,0.3-1.3,0.8-1.6c0.5-0.4,1.1-0.5,1.9-0.5c0.6,0,1.3,0.1,1.8,0.3v-0.1c0-1-0.5-1.4-1.6-1.4c-0.6,0-1.2,0.1-1.9,0.4l-0.4-1.2
			c0.8-0.4,1.7-0.6,2.5-0.6c2,0,2.9,0.9,2.9,2.8v4H148.7z M148.7,135.7c-0.5-0.2-1-0.3-1.5-0.3c-1,0-1.5,0.4-1.5,1.1
			c0,0.3,0.1,0.5,0.4,0.7c0.2,0.2,0.5,0.3,0.9,0.3c0.5,0,0.9-0.1,1.3-0.4c0.3-0.3,0.5-0.6,0.5-1V135.7z"/>
		<path class="st1" d="M152,131.8h1.5v1.1c0.6-0.8,1.3-1.3,2.3-1.3c0.8,0,1.6,0.3,2.1,0.9c0.6,0.6,1,1.5,1,2.6c0,1.1-0.3,1.9-1,2.6
			c-0.6,0.6-1.3,0.9-2.1,0.9c-0.9,0-1.7-0.4-2.3-1.2v3.1H152V131.8z M156.8,136.7c0.4-0.4,0.6-0.9,0.6-1.6c0-0.6-0.2-1.1-0.6-1.6
			c-0.4-0.4-0.8-0.6-1.3-0.6c-0.5,0-1,0.2-1.4,0.6c-0.4,0.4-0.6,0.9-0.6,1.6c0,0.6,0.2,1.1,0.6,1.6c0.4,0.4,0.8,0.6,1.4,0.6
			C156,137.3,156.4,137.1,156.8,136.7z"/>
		<path class="st1" d="M161.7,133.1h-2.1v-1.3h5.8v1.3h-2.1v5.4h-1.5V133.1z"/>
		<path class="st1" d="M170.4,138.5v-0.8c-0.5,0.6-1.3,1-2.2,1c-0.7,0-1.2-0.2-1.7-0.5c-0.5-0.4-0.7-0.9-0.7-1.6
			c0-0.7,0.3-1.3,0.8-1.6c0.5-0.4,1.1-0.5,1.9-0.5c0.6,0,1.3,0.1,1.8,0.3v-0.1c0-1-0.5-1.4-1.6-1.4c-0.6,0-1.2,0.1-1.9,0.4l-0.4-1.2
			c0.8-0.4,1.7-0.6,2.5-0.6c2,0,2.9,0.9,2.9,2.8v4H170.4z M170.4,135.7c-0.5-0.2-1-0.3-1.5-0.3c-1,0-1.5,0.4-1.5,1.1
			c0,0.3,0.1,0.5,0.4,0.7c0.2,0.2,0.5,0.3,0.9,0.3c0.5,0,0.9-0.1,1.3-0.4c0.3-0.3,0.5-0.6,0.5-1V135.7z"/>
		<path class="st1" d="M174.3,137.6c-0.7-0.7-1-1.5-1-2.4v0c0-1,0.3-1.8,1-2.5c0.7-0.7,1.5-1,2.5-1c1.1,0,2,0.4,2.7,1.1l-0.9,1
			c-0.5-0.6-1.1-0.8-1.7-0.8c-0.5,0-1,0.2-1.4,0.6c-0.4,0.4-0.5,0.9-0.5,1.5v0c0,0.6,0.2,1.1,0.6,1.5c0.4,0.4,0.9,0.6,1.4,0.6
			c0.6,0,1.2-0.3,1.7-0.8l0.9,0.9c-0.7,0.8-1.7,1.3-2.7,1.3C175.8,138.6,175,138.3,174.3,137.6z"/>
		<path class="st1" d="M180.9,131.8h1.5v2.3h1.4c0.8,0,1.4,0.2,1.9,0.5c0.5,0.4,0.8,0.9,0.8,1.6c0,0.7-0.2,1.2-0.7,1.6
			c-0.5,0.4-1.1,0.6-1.9,0.6h-3V131.8z M183.7,137.2c0.8,0,1.2-0.3,1.2-1c0-0.6-0.4-0.9-1.2-0.9h-1.3v1.9H183.7z M187.5,131.8h1.5
			v6.7h-1.5V131.8z"/>
		<path class="st1" d="M190.9,131.8h1.5l2.1,3.1l2.1-3.1h1.5v6.7h-1.5V134l-2.1,3l-2.1-3v4.4h-1.5V131.8z"/>
		<path class="st1" d="M200.7,137.7c-0.7-0.7-1-1.5-1-2.5c0-1,0.3-1.8,0.9-2.5c0.6-0.7,1.4-1,2.3-1c1,0,1.8,0.4,2.4,1.1
			c0.5,0.7,0.8,1.5,0.8,2.5c0,0.2,0,0.3,0,0.4h-4.9c0.1,0.5,0.3,0.9,0.7,1.3c0.3,0.3,0.8,0.4,1.3,0.4c0.7,0,1.3-0.3,1.8-0.8l0.9,0.8
			c-0.7,0.8-1.6,1.3-2.7,1.3C202.1,138.6,201.3,138.3,200.7,137.7z M204.6,134.7c-0.1-0.5-0.2-0.9-0.5-1.3c-0.3-0.3-0.7-0.5-1.2-0.5
			c-0.5,0-0.9,0.2-1.2,0.5c-0.3,0.3-0.5,0.7-0.6,1.3H204.6z"/>
		<path class="st1" d="M207.7,131.8h1.5v2.7h2.9v-2.7h1.5v6.7h-1.5v-2.7h-2.9v2.7h-1.5V131.8z"/>
		<path class="st1" d="M69.5,149.6v-0.1l2.1-2.8l1.2,0.6l-1.7,2.2l1.7,2.2l-1.2,0.6L69.5,149.6z M72.7,149.6v-0.1l2.1-2.8l1.2,0.6
			l-1.7,2.2l1.7,2.2l-1.2,0.6L72.7,149.6z"/>
		<path class="st1" d="M77.7,144.1h1.4l4.7,6.1v-6.1h1.5v8.8h-1.3l-4.9-6.3v6.3h-1.5V144.1z"/>
		<path class="st1" d="M88.1,152.3c-0.4-0.5-0.6-1.1-0.6-1.9v-4.2H89v3.8c0,1.1,0.5,1.6,1.4,1.6c0.4,0,0.8-0.1,1.1-0.4
			c0.3-0.3,0.4-0.7,0.4-1.2v-3.8h1.5v6.7h-1.5v-1c-0.5,0.8-1.2,1.2-2.1,1.2C89.1,153,88.5,152.8,88.1,152.3z"/>
		<path class="st1" d="M95.7,151.1v-3.5h-0.8v-1.3h0.8v-1.8h1.5v1.8H99v1.3h-1.8v3.3c0,0.6,0.3,0.8,0.8,0.8c0.3,0,0.6-0.1,0.9-0.2
			v1.3c-0.4,0.2-0.9,0.3-1.4,0.3C96.3,153,95.7,152.4,95.7,151.1z"/>
		<path class="st1" d="M100.5,146.2h1.5v1.5c0.5-1.1,1.3-1.7,2.4-1.6v1.6h-0.1c-0.7,0-1.2,0.2-1.6,0.7c-0.4,0.5-0.6,1.1-0.6,2v2.5
			h-1.5V146.2z"/>
		<path class="st1" d="M105.8,143.8h1.6v1.5h-1.6V143.8z M105.8,146.2h1.5v6.7h-1.5V146.2z"/>
		<path class="st1" d="M109.5,143.7h1.5v9.2h-1.5V143.7z"/>
		<path class="st1" d="M113.6,152c-0.7-0.7-1-1.5-1-2.5c0-1,0.3-1.8,1-2.5c0.7-0.7,1.5-1,2.6-1s1.9,0.3,2.5,1c0.7,0.7,1,1.5,1,2.5
			c0,1-0.3,1.8-1,2.5c-0.7,0.7-1.5,1-2.6,1C115.1,153.1,114.3,152.7,113.6,152z M117.7,151.1c0.4-0.4,0.5-0.9,0.5-1.5
			c0-0.6-0.2-1.1-0.6-1.5c-0.4-0.4-0.9-0.6-1.5-0.6c-0.6,0-1.1,0.2-1.5,0.6c-0.4,0.4-0.5,0.9-0.5,1.5c0,0.6,0.2,1.1,0.6,1.5
			c0.4,0.4,0.9,0.6,1.5,0.6C116.8,151.7,117.3,151.5,117.7,151.1z"/>
		<path class="st1" d="M121.3,146.2h1.5v1c0.5-0.8,1.2-1.2,2.1-1.2c0.7,0,1.3,0.2,1.8,0.7c0.4,0.5,0.6,1.1,0.6,1.9v4.2h-1.5v-3.8
			c0-1.1-0.5-1.6-1.4-1.6c-0.4,0-0.8,0.1-1.1,0.4c-0.3,0.3-0.4,0.7-0.4,1.2v3.8h-1.5V146.2z"/>
		<path class="st1" d="M128.8,151.8l1.7-2.2l-1.7-2.2l1.2-0.6l2.1,2.8v0.1l-2.1,2.8L128.8,151.8z M132,151.8l1.7-2.2l-1.7-2.2
			l1.2-0.6l2.1,2.8v0.1l-2.1,2.8L132,151.8z"/>
		<path class="st1" d="M140.1,151.5l1.1-1c0.7,0.8,1.4,1.2,2.3,1.2c0.4,0,0.8-0.1,1.1-0.4c0.3-0.3,0.4-0.6,0.4-1
			c0-0.4-0.2-0.8-0.6-1c-0.4-0.2-0.9-0.4-1.5-0.4h-0.7l-0.3-1l2.4-2.5h-3.8v-1.4h5.8v1.2l-2.5,2.5c1.7,0.3,2.6,1.1,2.6,2.5
			c0,0.8-0.3,1.5-0.9,2c-0.6,0.5-1.3,0.8-2.2,0.8C142.1,153.1,141,152.5,140.1,151.5z"/>
		<path class="st1" d="M147.8,154.1c0.7-0.1,1.1-0.5,1.1-1l0-0.1h-0.6v-1.7h1.7v1.5c0,1.3-0.6,2-1.9,2.1L147.8,154.1z"/>
		<path class="st1" d="M159.8,150.9h-4.5l-0.3-1.1l4.9-5.8h1.3v5.6h1.3v1.3h-1.3v2h-1.5V150.9z M159.8,149.6v-3.5l-2.9,3.5H159.8z"
			/>
		<path class="st1" d="M165.6,146.5l-1.3,0.9l-0.5-0.8l1.4-0.6l-1.4-0.6l0.5-0.8l1.3,0.9l-0.2-1.5h0.9l-0.2,1.5l1.3-0.9l0.5,0.8
			l-1.4,0.6l1.4,0.6l-0.5,0.8l-1.3-0.9l0.2,1.5h-0.9L165.6,146.5z"/>
		<path class="st1" d="M71.3,168.8c-1.2-1.2-1.8-2.6-1.8-4.3c0-1.7,0.6-3.1,1.7-4.3c1.2-1.2,2.6-1.7,4.4-1.7c2.1,0,3.7,0.8,4.9,2.5
			l-2.4,1.8c-0.7-0.9-1.6-1.3-2.6-1.3c-0.8,0-1.5,0.3-2,0.9c-0.5,0.6-0.8,1.3-0.8,2.2c0,0.9,0.3,1.6,0.8,2.2c0.5,0.6,1.2,0.9,2,0.9
			c1,0,1.8-0.5,2.6-1.4l2.4,1.7c-1.3,1.7-3,2.6-5.1,2.6C73.9,170.5,72.5,169.9,71.3,168.8z"/>
		<path class="st1" d="M85.6,158.6h3.1l4.9,11.7h-3.5l-0.8-2.1h-4.5l-0.8,2.1h-3.4L85.6,158.6z M88.4,165.7l-1.3-3.3l-1.3,3.3H88.4z
			"/>
		<path class="st1" d="M96.1,161.5h-3.5v-2.8h10.2v2.8h-3.5v8.8h-3.2V161.5z"/>
		<path class="st1" d="M104.2,158.6h3.2v3.7h1.8c1.5,0,2.6,0.3,3.5,1c0.9,0.7,1.4,1.7,1.4,3c0,1.3-0.4,2.2-1.3,3
			c-0.8,0.7-2,1.1-3.4,1.1h-5.1V158.6z M109.1,167.6c1.1,0,1.7-0.5,1.7-1.4c0-0.4-0.1-0.7-0.4-1c-0.3-0.2-0.7-0.4-1.2-0.4h-1.7v2.7
			H109.1z M115.4,158.6h3.2v11.6h-3.2V158.6z"/>
		<path class="st1" d="M120.7,158.6h10.4v11.6h-3.2v-8.8h-4v8.8h-3.2V158.6z"/>
		<path class="st1" d="M141.8,158.6h3.1l4.9,11.7h-3.5l-0.8-2.1h-4.5l-0.8,2.1h-3.4L141.8,158.6z M144.6,165.7l-1.3-3.3l-1.3,3.3
			H144.6z"/>
		<path class="st1" d="M149.7,170.2l0.2-2.5c0.2,0,0.4,0.1,0.7,0.1c0.6,0,1-0.4,1.2-1.1c0.4-1.1,0.5-3.2,0.5-6.4v-1.6h8.9v11.6h-3.2
			v-8.8h-2.7v0.4c0,3.3-0.4,5.6-1.1,6.9c-0.6,1.1-1.5,1.6-2.8,1.6C150.9,170.4,150.2,170.3,149.7,170.2z"/>
		<path class="st1" d="M163.4,158.6h3.2v3.7h1.8c1.5,0,2.6,0.3,3.5,1c0.9,0.7,1.4,1.7,1.4,3c0,1.3-0.4,2.2-1.3,3
			c-0.8,0.7-2,1.1-3.4,1.1h-5.1V158.6z M168.3,167.6c1.1,0,1.7-0.5,1.7-1.4c0-0.4-0.1-0.7-0.4-1c-0.3-0.2-0.7-0.4-1.2-0.4h-1.7v2.7
			H168.3z M174.6,158.6h3.2v11.6h-3.2V158.6z"/>
		<path class="st1" d="M190.5,158.7v8.7h1.3l-0.4,5.1h-2.7v-2.3h-1.4v-4.4h-4.1v4.4h-3.2v-11.5h3.2v4.3h4.1v-4.3H190.5z"/>
		<path class="st1" d="M193.2,158.6h3.2v3.7h1.8c1.5,0,2.6,0.3,3.5,1c0.9,0.7,1.4,1.7,1.4,3c0,1.3-0.4,2.2-1.3,3
			c-0.8,0.7-2,1.1-3.4,1.1h-5.1V158.6z M198.1,167.6c1.1,0,1.7-0.5,1.7-1.4c0-0.4-0.1-0.7-0.4-1c-0.3-0.2-0.7-0.4-1.2-0.4h-1.7v2.7
			H198.1z M204.4,158.6h3.2v11.6h-3.2V158.6z"/>
		<path class="st1" d="M208.8,168.5l1.7-2.1c0.9,0.9,2,1.4,3.3,1.4c1.2,0,1.8-0.4,1.8-1.1c0-0.7-0.6-1-1.9-1h-1.2v-2.4h1.2
			c1.1,0,1.6-0.4,1.6-1.1c0-0.3-0.1-0.5-0.4-0.7c-0.3-0.2-0.6-0.3-1.1-0.3c-1.2,0-2.1,0.4-3,1.1l-1.6-1.9c1.3-1.3,3-2,4.9-2
			c1.3,0,2.3,0.3,3.2,0.9c0.8,0.6,1.2,1.3,1.2,2.2c0,1.2-0.6,2.1-1.7,2.6c1.4,0.5,2,1.4,2,2.7c0,1.1-0.4,1.9-1.2,2.6
			c-0.9,0.7-2,1-3.4,1C212,170.5,210.3,169.8,208.8,168.5z"/>
	</g>
</g>
</svg>
