<?xml version="1.0" encoding="utf-8"?>
<!-- Generator: Adobe Illustrator 25.2.3, SVG Export Plug-In . SVG Version: 6.00 Build 0)  -->
<svg version="1.1" id="Layer_1" xmlns="http://www.w3.org/2000/svg" xmlns:xlink="http://www.w3.org/1999/xlink" x="0px" y="0px"
	 viewBox="0 0 240 400" style="enable-background:new 0 0 240 400;" xml:space="preserve">
<style type="text/css">
	.st0{fill:#FDDF6B;}
	.st1{fill:#FFFFFF;}
</style>
<g>
	<g>
		<path class="st0" d="M19.5,288.5l7.9-7.9c3.4,3.4,7,5.2,10.8,5.2c3.9,0,5.8-1.6,5.8-4.7c0-3.1-2.5-4.7-7.4-4.7h-5.3l-1.8-6.6
			l10.5-9.4H22.6v-10.2h32.9v9.1l-10.8,9.3c7.9,1.7,11.7,6.1,11.7,12.9c0,4.6-1.6,8.2-4.9,11.1c-3.2,2.7-7.5,4.1-12.6,4.1
			C30.8,296.6,24.4,293.9,19.5,288.5z"/>
	</g>
	<g>
		<path class="st1" d="M75,261.1v-2.3l-1.4-1.6l-2.6,3.9h-1.9l3.5-5.1l-3.3-3.8h1.9l3.9,4.6v-4.6h1.5v4.6l3.9-4.6h1.9L79,256
			l3.5,5.1h-1.9l-2.6-3.9l-1.4,1.6v2.3H75z"/>
		<path class="st1" d="M89.8,254.4l-2.6,4.7v3.9h-1.6v-3.9l-2.6-4.8h1.9l1.6,3.4l1.6-3.4H89.8z"/>
		<path class="st1" d="M90.2,261l0.1-1.3c0.1,0,0.3,0.1,0.4,0.1c0.5,0,0.8-0.3,0.9-0.8c0.2-0.8,0.4-2.3,0.4-4.6h5v6.7h-1.5v-5.4
			h-2.1c0,2.2-0.2,3.8-0.6,4.5c-0.3,0.6-0.9,0.9-1.7,0.9C90.8,261.1,90.5,261.1,90.2,261z"/>
		<path class="st1" d="M98.2,259.7H99c0.5-1,0.7-2.5,0.7-4.5v-0.8h5.2v5.4h0.9l-0.2,2.9h-1.3v-1.6h-4.7l-0.2,1.6h-1.3V259.7z
			 M103.3,259.7v-4h-2.2v0.9c0,1.2-0.2,2.3-0.6,3.2H103.3z"/>
		<path class="st1" d="M107.7,260.3c-0.7-0.7-1-1.5-1-2.5c0-1,0.3-1.8,0.9-2.5c0.6-0.7,1.4-1,2.3-1c1,0,1.8,0.4,2.4,1.1
			c0.5,0.7,0.8,1.5,0.8,2.5c0,0.2,0,0.3,0,0.4h-4.9c0.1,0.5,0.3,0.9,0.7,1.3c0.3,0.3,0.8,0.4,1.3,0.4c0.7,0,1.3-0.3,1.8-0.8l0.9,0.8
			c-0.7,0.8-1.6,1.3-2.7,1.3C109.2,261.2,108.4,260.9,107.7,260.3z M111.7,257.3c-0.1-0.5-0.2-0.9-0.5-1.3c-0.3-0.3-0.7-0.5-1.2-0.5
			c-0.5,0-0.9,0.2-1.2,0.5c-0.3,0.3-0.5,0.7-0.6,1.3H111.7z"/>
		<path class="st1" d="M113.8,261l0.1-1.3c0.1,0,0.3,0.1,0.4,0.1c0.5,0,0.8-0.3,0.9-0.8c0.2-0.8,0.4-2.3,0.4-4.6h5v6.7h-1.5v-5.4
			h-2.1c0,2.2-0.2,3.8-0.6,4.5c-0.3,0.6-0.9,0.9-1.7,0.9C114.4,261.1,114.1,261.1,113.8,261z"/>
		<path class="st1" d="M123.2,260.3c-0.7-0.7-1-1.5-1-2.5c0-1,0.3-1.8,0.9-2.5c0.6-0.7,1.4-1,2.3-1c1,0,1.8,0.4,2.4,1.1
			c0.5,0.7,0.8,1.5,0.8,2.5c0,0.2,0,0.3,0,0.4h-4.9c0.1,0.5,0.3,0.9,0.7,1.3c0.3,0.3,0.8,0.4,1.3,0.4c0.7,0,1.3-0.3,1.8-0.8l0.9,0.8
			c-0.7,0.8-1.6,1.3-2.7,1.3C124.7,261.2,123.9,260.9,123.2,260.3z M127.2,257.3c-0.1-0.5-0.2-0.9-0.5-1.3c-0.3-0.3-0.7-0.5-1.2-0.5
			c-0.5,0-0.9,0.2-1.2,0.5c-0.3,0.3-0.5,0.7-0.6,1.3H127.2z"/>
		<path class="st1" d="M130.2,254.4h1.5v1.1c0.6-0.8,1.3-1.3,2.3-1.3c0.8,0,1.6,0.3,2.1,0.9c0.6,0.6,1,1.5,1,2.6
			c0,1.1-0.3,1.9-1,2.6c-0.6,0.6-1.3,0.9-2.1,0.9c-0.9,0-1.7-0.4-2.3-1.2v3.1h-1.5V254.4z M135,259.3c0.4-0.4,0.6-0.9,0.6-1.6
			c0-0.6-0.2-1.1-0.6-1.6c-0.4-0.4-0.8-0.6-1.3-0.6c-0.5,0-1,0.2-1.4,0.6c-0.4,0.4-0.6,0.9-0.6,1.6c0,0.6,0.2,1.1,0.6,1.6
			c0.4,0.4,0.8,0.6,1.4,0.6C134.2,259.9,134.7,259.7,135,259.3z"/>
		<path class="st1" d="M76.1,268l-2.6,4.7v1.2H75v1.1h-1.5v1.6h-1.6v-1.6h-1.5V274h1.5v-1.2l-2.6-4.8h1.9l1.5,3.3l1.6-3.3H76.1z"/>
		<path class="st1" d="M78.8,269.3h-2.1V268h5.8v1.3h-2.1v5.4h-1.5V269.3z"/>
		<path class="st1" d="M83.7,268h1.5v2.3h1.4c0.8,0,1.4,0.2,1.9,0.5c0.5,0.4,0.8,0.9,0.8,1.6c0,0.7-0.2,1.2-0.7,1.6
			c-0.5,0.4-1.1,0.6-1.9,0.6h-3V268z M86.6,273.4c0.8,0,1.2-0.3,1.2-1c0-0.6-0.4-0.9-1.2-0.9h-1.3v1.9H86.6z M90.3,268h1.5v6.7h-1.5
			V268z"/>
		<path class="st1" d="M94.4,273.8c-0.7-0.7-1-1.5-1-2.4v0c0-1,0.3-1.8,1-2.5c0.7-0.7,1.5-1,2.5-1c1.1,0,2,0.4,2.7,1.1l-0.9,1
			c-0.5-0.6-1.1-0.8-1.7-0.8c-0.5,0-1,0.2-1.4,0.6c-0.4,0.4-0.5,0.9-0.5,1.5v0c0,0.6,0.2,1.1,0.6,1.5c0.4,0.4,0.9,0.6,1.4,0.6
			c0.6,0,1.2-0.3,1.7-0.8l0.9,0.9c-0.7,0.8-1.7,1.3-2.7,1.3C95.9,274.8,95.1,274.5,94.4,273.8z"/>
		<path class="st1" d="M105.4,273.8c-0.7-0.7-1-1.5-1-2.5c0-1,0.3-1.8,1-2.5c0.7-0.7,1.5-1,2.6-1s1.9,0.3,2.5,1c0.7,0.7,1,1.5,1,2.5
			c0,1-0.3,1.8-1,2.5c-0.7,0.7-1.5,1-2.6,1C106.9,274.8,106,274.5,105.4,273.8z M109.4,272.8c0.4-0.4,0.5-0.9,0.5-1.5
			c0-0.6-0.2-1.1-0.6-1.5c-0.4-0.4-0.9-0.6-1.5-0.6c-0.6,0-1.1,0.2-1.5,0.6c-0.4,0.4-0.5,0.9-0.5,1.5c0,0.6,0.2,1.1,0.6,1.5
			c0.4,0.4,0.9,0.6,1.5,0.6C108.5,273.5,109,273.3,109.4,272.8z"/>
		<path class="st1" d="M113,268h1.5v4.5c1.4-2,2.5-3.5,3.2-4.5h1.4v6.7h-1.5v-4.4l-3.2,4.4H113V268z M114.8,266.7
			c-0.4-0.3-0.6-0.7-0.7-1.3l0.9-0.2c0.2,0.6,0.5,0.9,1,0.9c0.5,0,0.9-0.3,1-0.9l0.9,0.2c-0.1,0.5-0.3,1-0.6,1.3
			c-0.4,0.3-0.8,0.5-1.3,0.5S115.1,267,114.8,266.7z"/>
		<path class="st1" d="M121,268h1.5v2.3h1.4c0.8,0,1.4,0.2,1.9,0.5c0.5,0.4,0.8,0.9,0.8,1.6c0,0.7-0.2,1.2-0.7,1.6
			c-0.5,0.4-1.1,0.6-1.9,0.6h-3V268z M123.9,273.4c0.8,0,1.2-0.3,1.2-1c0-0.6-0.4-0.9-1.2-0.9h-1.3v1.9H123.9z M127.6,268h1.5v6.7
			h-1.5V268z"/>
		<path class="st1" d="M131.1,268h1.5v2.7h2.9V268h1.5v6.7h-1.5V272h-2.9v2.7h-1.5V268z"/>
		<path class="st1" d="M139,268h1.5v2.3h1.4c0.8,0,1.4,0.2,1.9,0.5c0.5,0.4,0.8,0.9,0.8,1.6c0,0.7-0.2,1.2-0.7,1.6
			c-0.5,0.4-1.1,0.6-1.9,0.6h-3V268z M141.8,273.4c0.8,0,1.2-0.3,1.2-1c0-0.6-0.4-0.9-1.2-0.9h-1.3v1.9H141.8z M145.6,268h1.5v6.7
			h-1.5V268z"/>
		<path class="st1" d="M149,268h1.5v2.7h2.9V268h1.5v6.7h-1.5V272h-2.9v2.7H149V268z"/>
		<path class="st1" d="M161.1,274.6v-0.8c-0.5,0.6-1.3,1-2.2,1c-0.7,0-1.2-0.2-1.7-0.5c-0.5-0.4-0.7-0.9-0.7-1.6
			c0-0.7,0.3-1.3,0.8-1.6c0.5-0.4,1.1-0.5,1.9-0.5c0.6,0,1.3,0.1,1.8,0.3v-0.1c0-1-0.5-1.4-1.6-1.4c-0.6,0-1.2,0.1-1.9,0.4l-0.4-1.2
			c0.8-0.4,1.7-0.6,2.5-0.6c2,0,2.9,0.9,2.9,2.8v4H161.1z M161.1,271.9c-0.5-0.2-1-0.3-1.5-0.3c-1,0-1.5,0.4-1.5,1.1
			c0,0.3,0.1,0.5,0.4,0.7c0.2,0.2,0.5,0.3,0.9,0.3c0.5,0,0.9-0.1,1.3-0.4c0.3-0.3,0.5-0.6,0.5-1V271.9z"/>
		<path class="st1" d="M81,280.4l-4.4,5l2.6,3.8h2.2l-0.4,5.1h-2.7V292h-1l-2.9-4.3l-1.2,1.3v3H70v-11.6h3.2v4.7l4-4.7H81z"/>
		<path class="st1" d="M86.7,280.3h3.1l4.9,11.7h-3.5l-0.8-2.1H86l-0.8,2.1h-3.4L86.7,280.3z M89.5,287.4l-1.3-3.3l-1.3,3.3H89.5z"
			/>
		<path class="st1" d="M97.2,283.2h-3.5v-2.8h10.2v2.8h-3.5v8.8h-3.2V283.2z"/>
		<path class="st1" d="M105.3,280.4h3.2v3.7h1.8c1.5,0,2.6,0.3,3.5,1c0.9,0.7,1.4,1.7,1.4,3c0,1.3-0.4,2.2-1.3,3
			c-0.8,0.7-2,1.1-3.4,1.1h-5.1V280.4z M110.2,289.3c1.1,0,1.7-0.5,1.7-1.4c0-0.4-0.1-0.7-0.4-1c-0.3-0.2-0.7-0.4-1.2-0.4h-1.7v2.7
			H110.2z M116.5,280.4h3.2V292h-3.2V280.4z"/>
		<path class="st1" d="M123.2,290.5c-1.2-1.2-1.8-2.6-1.8-4.3c0-1.7,0.6-3.1,1.7-4.3c1.2-1.2,2.6-1.7,4.4-1.7c2.1,0,3.7,0.8,4.9,2.5
			l-2.4,1.8c-0.7-0.9-1.6-1.3-2.6-1.3c-0.8,0-1.5,0.3-2,0.9c-0.5,0.6-0.8,1.3-0.8,2.2c0,0.9,0.3,1.6,0.8,2.2c0.5,0.6,1.2,0.9,2,0.9
			c1,0,1.8-0.5,2.6-1.4l2.4,1.7c-1.3,1.7-3,2.6-5.1,2.6C125.7,292.2,124.3,291.7,123.2,290.5z"/>
		<path class="st1" d="M133.9,280.4h3.2v3.7h1.8c1.5,0,2.6,0.3,3.5,1c0.9,0.7,1.4,1.7,1.4,3c0,1.3-0.4,2.2-1.3,3
			c-0.8,0.7-2,1.1-3.4,1.1h-5.1V280.4z M138.8,289.3c1.1,0,1.7-0.5,1.7-1.4c0-0.4-0.1-0.7-0.4-1c-0.3-0.2-0.7-0.4-1.2-0.4h-1.7v2.7
			H138.8z M145.1,280.4h3.2V292h-3.2V280.4z"/>
		<path class="st1" d="M160.9,280.4v8.7h1.3l-0.4,5.1h-2.7V292h-1.4v-4.4h-4.1v4.4h-3.2v-11.5h3.2v4.3h4.1v-4.3H160.9z"/>
		<path class="st1" d="M163.7,280.4h3.2v3.7h1.8c1.5,0,2.6,0.3,3.5,1c0.9,0.7,1.4,1.7,1.4,3c0,1.3-0.4,2.2-1.3,3
			c-0.8,0.7-2,1.1-3.4,1.1h-5.1V280.4z M168.6,289.3c1.1,0,1.7-0.5,1.7-1.4c0-0.4-0.1-0.7-0.4-1c-0.3-0.2-0.7-0.4-1.2-0.4h-1.7v2.7
			H168.6z M174.8,280.4h3.2V292h-3.2V280.4z"/>
		<path class="st1" d="M179.3,290.3l1.7-2.1c0.9,0.9,2,1.4,3.3,1.4c1.2,0,1.8-0.4,1.8-1.1c0-0.7-0.6-1-1.9-1h-1.2V285h1.2
			c1.1,0,1.6-0.4,1.6-1.1c0-0.3-0.1-0.5-0.4-0.7c-0.3-0.2-0.6-0.3-1.1-0.3c-1.2,0-2.1,0.4-3,1.1l-1.6-1.9c1.3-1.3,3-2,4.9-2
			c1.3,0,2.3,0.3,3.2,0.9c0.8,0.6,1.2,1.3,1.2,2.2c0,1.2-0.6,2.1-1.7,2.6c1.4,0.5,2,1.4,2,2.7c0,1.1-0.4,1.9-1.2,2.6
			c-0.9,0.7-2,1-3.4,1C182.5,292.2,180.7,291.6,179.3,290.3z"/>
	</g>
</g>
</svg>
